<svg width="2859" height="2063" viewBox="0 0 2859 2063" fill="none" xmlns="http://www.w3.org/2000/svg">
<path d="M2508.02 1004.49H2482.57V2008.68H2508.02V1004.49Z" fill="#3F3D56"/>
<path d="M2742.89 1132.46C2744.51 1483.6 2497.2 1769.4 2497.2 1769.4C2497.2 1769.4 2247.26 1485.89 2245.64 1134.75C2244.02 783.611 2491.34 497.817 2491.34 497.817C2491.34 497.817 2741.27 781.324 2742.89 1132.46Z" fill="#3F3D56"/>
<path d="M1999.16 1476.97H1986.07V1993.45H1999.16V1476.97Z" fill="#3F3D56"/>
<path d="M2119.96 1542.8C2120.79 1723.39 1993.6 1870.38 1993.6 1870.38C1993.6 1870.38 1865.05 1724.57 1864.21 1543.97C1863.38 1363.37 1990.58 1216.38 1990.58 1216.38C1990.58 1216.38 2119.12 1362.19 2119.96 1542.8Z" fill="#3F3D56"/>
<path d="M2257.16 2062.22C2453.02 2062.22 2611.79 2037.91 2611.79 2007.91C2611.79 1977.93 2453.02 1953.61 2257.16 1953.61C2061.3 1953.61 1902.52 1977.93 1902.52 2007.91C1902.52 2037.91 2061.3 2062.22 2257.16 2062.22Z" fill="#3F3D56"/>
<path d="M2286.4 742.337C2256.36 691.624 2196.92 689.261 2196.92 689.261C2196.92 689.261 2138.99 681.862 2101.84 759.098C2067.2 831.089 2019.4 900.597 2094.14 917.449L2107.64 875.474L2116 920.575C2126.64 921.337 2137.32 921.523 2147.98 921.118C2228.01 918.54 2304.24 921.875 2301.79 893.184C2298.52 855.044 2315.31 791.134 2286.4 742.337Z" fill="#2F2E41"/>
<path d="M2178.21 837.84C2178.21 837.84 2217.04 892.14 2193.73 936.102C2170.44 980.058 2248.1 1026.6 2248.1 1026.6L2305.04 902.484C2305.04 902.484 2237.74 858.527 2255.86 817.153L2178.21 837.84Z" fill="#FBBEBE"/>
<path d="M2204.09 861.109C2241.26 861.109 2271.4 831.013 2271.4 793.879C2271.4 756.749 2241.26 726.652 2204.09 726.652C2166.92 726.652 2136.79 756.749 2136.79 793.879C2136.79 831.013 2166.92 861.109 2204.09 861.109Z" fill="#FBBEBE"/>
<path d="M1971.17 871.601L2027.42 799.11C2027.42 799.11 2047.22 723.127 2075.91 726.976C2104.59 730.831 2064.57 818.101 2064.57 818.101L2008.69 898.339L1971.17 871.601Z" fill="#FBBEBE"/>
<path d="M2255.86 1835.96L2273.98 1931.64L2312.81 1941.98L2302.46 1828.2L2255.86 1835.96Z" fill="#FBBEBE"/>
<path d="M2646.74 1732.53L2716.63 1828.2L2745.11 1841.13L2768.4 1802.34L2698.51 1711.84L2646.74 1732.53Z" fill="#FBBEBE"/>
<path d="M2240.33 985.233L2197.15 928.45C2197.15 928.45 2113.49 943.858 2105.72 951.615C2097.96 959.371 2126.43 1101.59 2126.43 1101.59C2126.43 1101.59 2131.61 1140.38 2154.91 1161.06L2178.21 1176.58L2369.76 1137.79L2376.96 1052.65C2379.58 1021.64 2375.7 990.426 2365.54 961.005C2355.38 931.58 2339.19 904.604 2317.99 881.797L2284.66 886.351L2240.33 985.233Z" fill="#575A89"/>
<path d="M2116.08 956.784L2103.14 951.615L2043.6 946.445C2043.6 946.445 2022.89 941.271 2028.07 930.928C2033.24 920.584 2038.42 918.002 2028.07 915.414C2017.71 912.827 2015.12 910.24 2017.71 902.484C2020.3 894.727 2035.83 879.214 2035.83 879.214L1991.83 843.009C1991.83 843.009 1989.44 844.696 1985.59 847.807C1963.75 865.478 1894.61 929.231 1945.23 992.989C2004.77 1067.98 2074.66 1111.93 2131.61 1096.42L2116.08 956.784Z" fill="#575A89"/>
<path d="M2173.03 1163.65V1199.85C2173.03 1199.85 2149.73 1243.81 2157.5 1285.18C2165.26 1326.56 2167.85 1347.24 2167.85 1347.24C2168.69 1382.43 2174.8 1417.29 2185.97 1450.67C2204.09 1502.39 2144.55 1841.13 2219.62 1846.3C2294.69 1851.47 2336.11 1856.65 2359.4 1830.79C2382.7 1804.93 2320.57 1360.17 2320.57 1360.17C2320.57 1360.17 2532.84 1802.34 2576.85 1784.24C2620.85 1766.14 2732.16 1724.77 2719.22 1701.5C2706.27 1678.22 2380.11 1161.06 2380.11 1161.06L2369.76 1137.79L2173.03 1163.65Z" fill="#2F2E41"/>
<path d="M2297.28 1913.54C2297.28 1913.54 2255.86 1910.95 2255.86 1923.88C2255.86 1936.8 2235.15 1980.77 2235.15 1980.77C2235.15 1980.77 2219.62 2032.48 2261.04 2027.31C2302.46 2022.14 2328.34 1975.59 2328.34 1975.59L2317.99 1926.46L2297.28 1913.54Z" fill="#2F2E41"/>
<path d="M2729.57 1823.03C2729.57 1823.03 2693.33 1799.76 2695.92 1815.27C2698.51 1830.79 2701.1 1872.16 2719.22 1874.75C2737.34 1877.33 2791.69 1892.85 2794.29 1898.02C2796.87 1903.19 2859 1923.88 2859 1890.26C2859 1856.65 2820.17 1830.79 2820.17 1830.79L2776.17 1797.17C2776.17 1797.17 2747.69 1794.59 2742.52 1812.69C2737.34 1830.79 2729.57 1823.03 2729.57 1823.03Z" fill="#2F2E41"/>
<path d="M2204.19 732.451C2227.93 732.451 2247.17 713.226 2247.17 689.519C2247.17 665.806 2227.93 646.582 2204.19 646.582C2180.45 646.582 2161.21 665.806 2161.21 689.519C2161.21 713.226 2180.45 732.451 2204.19 732.451Z" fill="#2F2E41"/>
<path d="M2156.69 678.217C2156.69 667.616 2160.62 657.387 2167.72 649.502C2174.82 641.622 2184.59 636.643 2195.14 635.523C2193.64 635.366 2192.13 635.285 2190.62 635.285C2179.22 635.285 2168.29 639.806 2160.23 647.858C2152.17 655.91 2147.64 666.83 2147.64 678.217C2147.64 689.604 2152.17 700.524 2160.23 708.576C2168.29 716.628 2179.22 721.149 2190.62 721.149C2192.13 721.149 2193.64 721.069 2195.14 720.911C2184.59 719.792 2174.82 714.813 2167.72 706.932C2160.62 699.052 2156.69 688.823 2156.69 678.217Z" fill="#2F2E41"/>
<path d="M2273.12 737.449L2214.4 706.718L2133.29 719.291L2116.52 793.317L2158.29 791.711L2169.96 764.516V791.263L2189.23 790.525L2200.41 747.225L2207.41 793.317L2275.92 791.921L2273.12 737.449Z" fill="#2F2E41"/>
<path d="M2269.6 1169.64L2179.04 1172.09C2179.04 1172.09 2101.76 1187.11 2106.09 1155.95C2110.43 1124.79 2185.82 1135.69 2185.82 1135.69L2268.34 1123.12L2269.6 1169.64Z" fill="#FBBEBE"/>
<path d="M2341.26 877.413C2345.81 876.727 2350.46 877.685 2354.37 880.115C2358.28 882.545 2361.19 886.29 2362.58 890.673C2380.31 946.488 2434.93 1133.26 2380.67 1158.88C2316.74 1189.06 2270.09 1187.74 2270.09 1187.74L2245.12 1126.33L2267.85 1105.02L2292.12 949.161L2303.75 883.093L2341.26 877.413Z" fill="#575A89"/>
<path opacity="0.4" d="M2324.46 981.35L2314.11 1084.79L2223.51 1123.57L2324.46 1100.3V981.35Z" fill="black"/>
<path d="M1835.85 639.892C1865.03 647.615 1890.28 665.935 1906.66 691.267L1915.12 704.369L1915.55 704.908L2064.1 748.331C2066.82 749.126 2069.12 750.956 2070.51 753.429C2071.89 755.901 2072.25 758.822 2071.5 761.557L2059.97 803.794C2059.59 805.171 2058.95 806.457 2058.07 807.586C2057.2 808.711 2056.11 809.654 2054.86 810.359C2053.62 811.059 2052.26 811.512 2050.84 811.684C2049.42 811.86 2047.98 811.75 2046.61 811.364L1898.02 769.88V769.885L1883.1 775.521C1855.62 785.898 1825.48 786.918 1797.36 778.428L1835.85 639.892Z" fill="#3F3D56"/>
<path d="M1992.29 762.391C1993.7 757.583 1987.53 751.556 1978.51 748.921C1969.5 746.287 1961.05 748.045 1959.64 752.847C1958.23 757.65 1964.4 763.677 1973.42 766.312C1982.43 768.951 1990.88 767.193 1992.29 762.391Z" fill="#575A89"/>
<path d="M1984.7 766.817C1988.15 766.817 1990.94 764.03 1990.94 760.59C1990.94 757.15 1988.15 754.358 1984.7 754.358C1981.26 754.358 1978.47 757.15 1978.47 760.59C1978.47 764.03 1981.26 766.817 1984.7 766.817Z" fill="#3F3D56"/>
<path d="M1848.27 719.896C1860.66 681.738 1856.7 646.267 1839.42 640.669C1822.15 635.075 1798.1 661.475 1785.72 699.633C1773.33 737.792 1777.29 773.263 1794.57 778.861C1811.84 784.454 1835.89 758.055 1848.27 719.896Z" fill="#0D7BE5"/>
<path opacity="0.4" d="M1843.65 718.548C1855.59 681.776 1852.35 647.51 1836.64 640.054C1837.58 640.173 1838.52 640.378 1839.42 640.669C1856.7 646.267 1860.66 681.738 1848.27 719.896C1835.89 758.055 1811.84 784.454 1794.57 778.861C1793.94 778.656 1793.33 778.408 1792.73 778.127C1809.73 780.286 1831.92 754.696 1843.65 718.548Z" fill="black"/>
<path d="M1837.81 640.026L1500.67 378.794C1441.06 332.267 1383.85 282.74 1329.27 230.406C1233.17 138.901 1102.71 65.7402 950.822 26.7891C581.792 -67.8455 289.444 99.9531 156.476 346.338C-46.713 722.841 -202.43 1333.8 698.506 1008.59C895.544 937.465 1094.99 929.903 1246.21 892.441L1793.8 779.657L1837.81 640.026Z" fill="#0D7BE5"/>
<path d="M825.674 200.439C835.681 200.439 843.796 192.335 843.796 182.338C843.796 172.342 835.681 164.238 825.674 164.238C815.668 164.238 807.553 172.342 807.553 182.338C807.553 192.335 815.668 200.439 825.674 200.439Z" fill="#F2F2F2"/>
<path d="M1177.67 224.176H1172.95V219.465H1172.03V224.176H1167.32V225.097H1172.03V229.808H1172.95V225.097H1177.67V224.176Z" fill="#F2F2F2"/>
<path d="M1651.38 617.218H1646.66V612.506H1645.74V617.218H1641.02V618.138H1645.74V622.85H1646.66V618.138H1651.38V617.218Z" fill="#F2F2F2"/>
<path d="M1617.73 738.749H1613.01V734.042H1612.09V738.749H1607.37V739.674H1612.09V744.381H1613.01V739.674H1617.73V738.749Z" fill="#F2F2F2"/>
<path d="M170.715 842.185H165.998V837.473H165.077V842.185H160.36V843.105H165.077V847.817H165.998V843.105H170.715V842.185Z" fill="#F2F2F2"/>
<path d="M377.799 278.478H373.083V273.767H372.161V278.478H367.445V279.399H372.161V284.11H373.083V279.399H377.799V278.478Z" fill="#F2F2F2"/>
<path d="M1182.84 759.437H1178.13V754.725H1177.21V759.437H1172.49V760.356H1177.21V765.068H1178.13V760.356H1182.84V759.437Z" fill="#F2F2F2"/>
<path d="M688.428 112.987H683.711V108.276H682.791V112.987H678.074V113.907H682.791V118.619H683.711V113.907H688.428V112.987Z" fill="#F2F2F2"/>
<path d="M690.244 485.286L684.368 486.191C686.203 497.931 687.652 509.928 688.714 521.796L694.642 521.282C693.579 509.256 692.107 497.154 690.244 485.286Z" fill="#E6E6E6"/>
<path d="M674.166 414.59L668.472 416.322C671.917 427.699 674.995 439.361 677.611 450.972L683.434 449.653C680.771 437.913 677.635 426.122 674.166 414.59Z" fill="#E6E6E6"/>
<path d="M648.512 346.79L643.104 349.273C648.073 360.107 652.734 371.226 656.951 382.345L662.516 380.251C658.247 369.002 653.563 357.728 648.512 346.79Z" fill="#E6E6E6"/>
<path d="M613.827 283.231L608.805 286.412C615.2 296.444 621.332 306.839 627.031 317.26L632.258 314.416C626.512 303.866 620.298 293.367 613.827 283.231Z" fill="#E6E6E6"/>
<path d="M570.704 224.973L566.172 228.825C573.887 237.876 581.392 247.34 588.487 256.907L593.247 253.365C586.104 243.694 578.518 234.126 570.704 224.973Z" fill="#E6E6E6"/>
<path d="M520.014 173.102L516.054 177.523C524.96 185.462 533.685 193.814 541.995 202.321L546.265 198.158C537.85 189.547 529.025 181.118 520.014 173.102Z" fill="#E6E6E6"/>
<path d="M462.757 128.574L459.418 133.487C469.307 140.132 479.092 147.218 488.489 154.535L492.163 149.855C482.638 142.46 472.749 135.297 462.757 128.574Z" fill="#E6E6E6"/>
<path d="M410.648 97.6479V104.371C416.835 107.603 422.97 110.991 428.976 114.455L431.952 109.31C424.963 105.276 417.862 101.389 410.648 97.6479Z" fill="#E6E6E6"/>
<path d="M690.644 558.477L696.596 558.373C696.705 564.371 696.71 570.408 696.619 576.306L690.668 576.211C690.758 570.379 690.749 564.414 690.644 558.477Z" fill="#E6E6E6"/>
<path d="M340.784 994.69L334.909 995.595C336.747 1007.33 338.196 1019.33 339.257 1031.2L345.185 1030.69C344.124 1018.66 342.648 1006.56 340.784 994.69Z" fill="#E6E6E6"/>
<path d="M324.708 923.995L319.013 925.725C322.456 937.102 325.536 948.766 328.151 960.377L333.975 959.057C331.309 947.317 328.177 935.525 324.708 923.995Z" fill="#E6E6E6"/>
<path d="M299.056 856.193L293.646 858.675C298.615 869.509 303.275 880.63 307.495 891.75L313.06 889.653C308.789 878.405 304.103 867.132 299.056 856.193Z" fill="#E6E6E6"/>
<path d="M264.37 792.635L259.348 795.813C265.742 805.847 271.877 816.243 277.572 826.663L282.801 823.818C277.054 813.27 270.842 802.769 264.37 792.635Z" fill="#E6E6E6"/>
<path d="M221.244 734.375L216.714 738.23C224.428 747.278 231.935 756.744 239.028 766.312L243.791 762.767C236.646 753.1 229.061 743.528 221.244 734.375Z" fill="#E6E6E6"/>
<path d="M170.559 682.505L166.598 686.926C175.503 694.864 184.226 703.216 192.536 711.725L196.807 707.561C188.394 698.952 179.567 690.519 170.559 682.505Z" fill="#E6E6E6"/>
<path d="M113.3 637.977L109.96 642.889C119.848 649.535 129.633 656.62 139.03 663.938L142.705 659.259C133.18 651.865 123.291 644.699 113.3 637.977Z" fill="#E6E6E6"/>
<path d="M61.1912 607.051V613.774C67.378 617.009 73.513 620.396 79.5183 623.86L82.495 618.714C75.5057 614.679 68.4044 610.791 61.1912 607.051Z" fill="#E6E6E6"/>
<path d="M341.186 1067.88L347.136 1067.78C347.246 1073.77 347.254 1079.81 347.161 1085.71L341.211 1085.61C341.301 1079.78 341.294 1073.82 341.186 1067.88Z" fill="#E6E6E6"/>
<path d="M1536.71 738.692L1530.83 739.597C1532.67 751.337 1534.12 763.338 1535.18 775.207L1541.11 774.687C1540.05 762.667 1538.57 750.565 1536.71 738.692Z" fill="#E6E6E6"/>
<path d="M1520.63 667.998L1514.94 669.732C1518.38 681.109 1521.46 692.773 1524.07 704.379L1529.9 703.064C1527.23 691.324 1524.1 679.532 1520.63 667.998Z" fill="#E6E6E6"/>
<path d="M1494.98 600.199L1489.57 602.682C1494.54 613.516 1499.2 624.636 1503.41 635.752L1508.98 633.66C1504.71 622.411 1500.03 611.139 1494.98 600.199Z" fill="#E6E6E6"/>
<path d="M1460.29 536.642L1455.27 539.82C1461.66 549.854 1467.8 560.25 1473.5 570.67L1478.72 567.825C1472.98 557.277 1466.76 546.776 1460.29 536.642Z" fill="#E6E6E6"/>
<path d="M1417.17 478.382L1412.64 482.232C1420.35 491.285 1427.86 500.747 1434.95 510.318L1439.71 506.774C1432.57 497.102 1424.98 487.535 1417.17 478.382Z" fill="#E6E6E6"/>
<path d="M1366.48 426.51L1362.52 430.932C1371.42 438.87 1380.15 447.223 1388.46 455.73L1392.73 451.566C1384.32 442.956 1375.49 434.526 1366.48 426.51Z" fill="#E6E6E6"/>
<path d="M1309.22 381.983L1305.88 386.896C1315.77 393.541 1325.56 400.626 1334.95 407.944L1338.63 403.264C1329.1 395.868 1319.21 388.706 1309.22 381.983Z" fill="#E6E6E6"/>
<path d="M1257.11 351.056V357.779C1263.3 361.012 1269.43 364.399 1275.44 367.864L1278.42 362.719C1271.43 358.685 1264.33 354.797 1257.11 351.056Z" fill="#E6E6E6"/>
<path d="M1537.11 811.888L1543.06 811.779C1543.17 817.782 1543.17 823.814 1543.08 829.717L1537.13 829.621C1537.22 823.79 1537.22 817.825 1537.11 811.888Z" fill="#E6E6E6"/>
<path d="M386.461 516.889H382.073V512.505H381.216V516.889H376.826V517.741H381.216V522.129H382.073V517.741H386.461V516.889Z" fill="#F2F2F2"/>
<path d="M335.879 781.562H331.492V777.179H330.634V781.562H326.244V782.42H330.634V786.803H331.492V782.42H335.879V781.562Z" fill="#F2F2F2"/>
<path d="M187.456 1013.53H183.066V1009.15H182.21V1013.53H177.822V1014.39H182.21V1018.77H183.066V1014.39H187.456V1013.53Z" fill="#F2F2F2"/>
<path d="M600.338 719.325C557.905 656.315 539.479 580.198 548.404 504.782C557.329 429.363 593.019 359.638 648.993 308.249C704.967 256.86 777.524 227.211 853.507 224.678C929.489 222.145 1003.87 246.895 1063.14 294.442C1122.42 341.988 1162.69 409.182 1176.63 483.838C1190.57 558.492 1177.26 635.666 1139.13 701.363C1100.99 767.06 1040.55 816.934 968.763 841.933C896.978 866.932 818.598 865.407 747.838 837.63C743.254 853.987 734.677 868.952 722.879 881.182C711.086 893.417 696.433 902.536 680.247 907.73C664.055 912.918 646.83 914.019 630.109 910.926C613.389 907.834 597.698 900.654 584.437 890.015C571.181 879.381 560.764 865.631 554.131 849.989C547.498 834.352 544.854 817.31 546.426 800.401C548.004 783.487 553.755 767.231 563.161 753.081C572.567 738.93 585.342 727.334 600.338 719.325Z" fill="#3F3D56"/>
<path d="M862.327 360.557C935.203 360.557 985.345 400.937 985.345 458.983C985.345 497.421 966.69 524.021 930.733 545.18C896.921 564.786 885.452 579.155 885.452 604.002C885.452 606.017 885.056 608.009 884.284 609.871C883.512 611.734 882.383 613.421 880.958 614.845C879.529 616.27 877.837 617.399 875.974 618.171C874.111 618.943 872.114 619.338 870.099 619.338H832.841C828.862 619.338 825.041 617.795 822.177 615.036C819.313 612.273 817.636 608.509 817.498 604.535L817.431 602.644C814.129 562.651 828.124 537.805 863.299 517.222C896.144 497.617 909.939 485.191 909.939 461.119C909.939 437.046 886.619 419.38 857.662 419.38C835.653 419.38 818.237 430.082 810.246 447.554C807.439 453.468 802.993 458.456 797.437 461.926C791.881 465.397 785.444 467.205 778.892 467.137C753.647 467.137 736.974 440.321 748.777 418.031C767.451 382.772 806.858 360.557 862.327 360.557ZM811.213 693.306C811.213 670.98 829.873 653.314 852.802 653.314C875.931 653.314 894.586 670.785 894.586 693.306C894.586 715.823 875.931 733.299 852.802 733.299C829.677 733.299 811.213 715.823 811.213 693.306Z" fill="#0D7BE5"/>
</svg>
