<svg width="312" height="192" viewBox="0 0 312 192" fill="none" xmlns="http://www.w3.org/2000/svg">
<g clip-path="url(#clip0)">
<path opacity="0.45" d="M312 123.2C312.006 128.397 311.377 133.575 310.128 138.62C309.707 140.318 309.219 141.982 308.663 143.613C307.981 145.624 307.192 147.597 306.3 149.523C305.85 150.496 305.374 151.451 304.872 152.388C304.88 157.717 303.782 162.99 301.648 167.874C297.789 176.636 290.91 183.72 282.263 187.838C276.85 190.419 270.934 191.775 264.936 191.809H59.2285C50.0755 191.83 41.0803 189.427 33.1575 184.846C31.9866 184.168 30.8458 183.446 29.735 182.68C27.3232 181.015 25.0572 179.148 22.9616 177.099C20.1246 174.325 17.6252 171.226 15.5154 167.866C10.5586 159.999 7.9328 150.89 7.942 141.593C2.92222 132.79 -0.00488281 122.244 -0.00488281 110.912C-0.00488281 96.6142 4.64669 83.5717 12.2889 73.6984C13.8822 71.6357 15.6274 69.6948 17.5101 67.892C19.3676 66.1081 21.3641 64.4746 23.4808 63.0071C25.1737 61.8307 26.9436 60.7692 28.7787 59.8298C29.5443 59.438 30.3125 59.0726 31.0939 58.731C31.78 58.4265 32.474 58.1433 33.176 57.8758C34.0184 57.5546 34.8714 57.2607 35.7349 56.9941C36.5985 56.7276 37.4506 56.4929 38.2912 56.2899C39.5273 55.988 40.7847 55.7427 42.0633 55.5538C43.1229 55.3976 44.1824 55.289 45.242 55.2043C46.0844 55.1443 46.9338 55.109 47.7903 55.0984H48.2539C49.1969 55.0984 50.1347 55.1355 51.0645 55.199C51.1625 55.0031 51.2684 54.8045 51.3664 54.6086C51.7373 53.9043 52.1214 53.2 52.5081 52.509V52.4904C52.5744 52.3713 52.6406 52.2521 52.7095 52.1356C53.022 51.5717 53.3479 51.013 53.6816 50.4596C53.8353 50.1949 53.9863 49.946 54.1425 49.6945C54.177 49.6336 54.2114 49.5753 54.2512 49.5144C54.4101 49.2496 54.5717 48.9849 54.7359 48.7201C55.5536 47.4157 56.4039 46.1316 57.2869 44.8677C57.3637 44.7592 57.4352 44.6533 57.512 44.5474C57.6498 44.3514 57.7769 44.1581 57.9306 43.9649C58.2961 43.4539 58.6723 42.9402 59.0511 42.4345C59.316 42.0771 59.5809 41.7196 59.867 41.3754C60.5557 40.4858 61.263 39.6015 61.9861 38.7277C62.7093 37.854 63.4722 36.975 64.243 36.1145C64.349 35.9953 64.455 35.8788 64.5662 35.7597L65.6973 34.5285C65.7529 34.4702 65.8006 34.4173 65.8536 34.3643C65.9887 34.2187 66.1185 34.0731 66.2642 33.9301C66.8708 33.2894 67.4933 32.6566 68.1185 32.0317C71.3117 28.8604 74.7135 25.906 78.3011 23.1884C78.4415 23.0772 78.5845 22.9713 78.7249 22.8654C79.3977 22.357 80.0812 21.8566 80.7646 21.3642C84.5244 18.6696 88.4539 16.2198 92.5287 14.0301C92.8094 13.8712 93.0955 13.7203 93.3843 13.5694C97.0384 11.6385 100.796 9.90956 104.64 8.39047C106.734 7.56263 108.866 6.7895 111.034 6.0711C112.47 5.60245 113.911 5.15499 115.371 4.74725C117.628 4.09945 119.913 3.51519 122.226 2.99448C129.042 1.46593 135.975 0.521685 142.952 0.172039C145.071 0.0608357 147.214 0.00523485 149.381 0.00523485C159.836 -0.00860038 170.251 1.30818 180.374 3.92382C180.478 4.08191 180.621 4.21079 180.79 4.29833C180.958 4.38587 181.146 4.4292 181.335 4.42423H182.225C182.612 4.52749 182.996 4.63605 183.383 4.74725C185.543 5.37034 187.671 6.04903 189.769 6.78333L190.299 6.97396C195.477 8.81432 200.516 11.0265 205.374 13.5932C209.754 15.9023 213.971 18.5066 217.997 21.388C218.617 21.8328 219.228 22.282 219.83 22.7357C220.561 22.2644 221.304 21.8152 222.06 21.388C224.979 19.7273 228.079 18.4071 231.3 17.4535C238.033 15.462 245.157 15.1835 252.025 16.6433C260.833 18.51 268.806 23.1434 275.246 29.7335C277.869 32.4212 280.206 35.3742 282.218 38.545C282.364 38.7727 282.51 39.0031 282.65 39.2361C284.376 42.052 285.86 45.0095 287.084 48.0767C287.129 48.1879 287.174 48.2965 287.214 48.4077C288.345 51.2781 289.257 54.2298 289.943 57.2377C289.974 57.3887 290.011 57.5422 290.043 57.6958C290.684 60.6067 291.12 63.5591 291.346 66.5311C291.346 66.637 291.346 66.7456 291.368 66.8542C291.479 68.3916 291.535 69.9458 291.537 71.5167C291.537 72.92 291.49 74.3127 291.402 75.6921C291.402 75.8431 291.381 76.0019 291.368 76.1555C291.344 76.5579 291.309 76.9498 291.275 77.3549C293.298 78.9851 295.192 80.7697 296.938 82.6926C297.71 83.5346 298.457 84.4092 299.179 85.3165C301.38 88.0721 303.314 91.0305 304.954 94.1518C309.426 102.619 312 112.559 312 123.2Z" fill="#00695C"/>
<path opacity="0.1" d="M282.067 175.314C282.067 181.333 275.826 186.964 264.936 191.815H59.2281C49.7104 191.815 40.7966 188.373 33.157 182.37C31.2365 180.093 30.2246 177.734 30.2246 175.312C30.2246 168.915 37.2814 162.944 49.4826 157.898L49.8269 157.76C53.2706 156.349 57.1195 155.017 61.3261 153.765C61.432 153.733 61.5406 153.704 61.6466 153.667C64.9843 152.687 68.5348 151.759 72.2981 150.881C72.4173 150.855 72.5338 150.826 72.653 150.805C74.1047 150.46 75.5854 150.14 77.098 149.82L77.6808 149.698C88.6872 147.416 101.198 145.605 114.766 144.376H114.782C116.682 144.2 118.603 144.042 120.544 143.902C122.703 143.73 124.888 143.584 127.097 143.449C128.785 143.341 130.493 143.248 132.207 143.163C132.213 143.161 132.22 143.159 132.227 143.159C132.234 143.159 132.24 143.161 132.247 143.163C139.979 142.774 147.968 142.57 156.138 142.57C176.339 142.57 195.432 143.809 212.351 146.012C212.367 146.01 212.383 146.01 212.399 146.012C215 146.351 217.554 146.709 220.044 147.09C220.756 147.201 221.466 147.312 222.163 147.426C224.973 147.88 227.71 148.359 230.375 148.864C261.712 154.819 282.067 164.453 282.067 175.314Z" fill="#C7E87C"/>
<path d="M230.857 64.413C230.857 64.413 228.054 63.2772 219.138 67.3625C210.222 71.4479 209.109 70.9316 206.802 70.3174C204.494 69.7031 203.207 69.5442 200.733 66.1314C200.733 66.1314 198.987 56.6765 197.289 55.2096C195.591 53.7428 188.423 56.0463 188.423 56.0463C188.423 56.0463 179.817 58.0188 178.177 46.5146C178.177 46.5146 179.34 37.8514 177.756 35.1931C177.756 35.1931 180.956 36.5699 186.233 34.3458C191.509 32.1218 195.734 36.742 195.734 36.742C195.734 36.742 197.059 40.184 196.926 42.2386C196.794 44.2932 197.631 45.0637 200.148 44.0708C200.148 44.0708 201.385 42.3127 199.634 39.4056C197.883 36.4984 196.632 34.3352 197.12 32.0794C197.607 29.8236 199.014 26.6914 203.53 25.1266C208.047 23.5618 214.179 23.2732 217.122 22.0367C220.065 20.8002 220.791 20.0112 220.791 20.0112C220.791 20.0112 218.979 21.8249 223.246 29.5164C227.514 37.208 224.793 40.5441 224.793 40.5441C224.793 40.5441 222.523 45.9533 212.5 45.5138C212.5 45.5138 202.842 45.8659 208.108 49.9593C208.108 49.9593 211.48 49.2735 216.521 47.6717C221.562 46.0698 225.201 52.6811 226.105 57.2801C227.008 61.8792 230.857 64.413 230.857 64.413Z" fill="#FFC502"/>
<path d="M217.874 25.8362L217.927 25.8203C218.314 27.2871 213.999 33.1862 210.309 37.8752L210.267 37.8408C215.469 31.2375 218.174 26.9721 217.874 25.8362Z" fill="#444053"/>
<path d="M210.341 37.7507L210.364 37.809C207.416 41.5528 203.71 46.0168 200.743 49.3344C200.46 49.6495 200.179 49.9804 199.909 50.3193L199.824 50.2505C200.089 49.9116 200.378 49.578 200.661 49.2629C203.625 45.9586 207.39 41.4972 210.341 37.7507Z" fill="#444053"/>
<path d="M199.896 50.1658L199.954 50.2664C194.556 57.0048 194.198 67.4764 194.185 67.5585L193.046 66.2346C193.059 66.1499 194.46 56.9518 199.896 50.1658Z" fill="#444053"/>
<path d="M224.608 60.7593C224.608 60.7593 218.251 57.4497 213.281 58.6412C208.312 59.8326 197.136 54.4314 197.136 54.4314C197.136 54.4314 192.394 52.5065 191.441 50.3115C191.441 50.3115 188.185 46.8695 187.997 45.0929C187.809 43.3163 184.643 38.8391 182.577 38.667" stroke="#444053" stroke-miterlimit="10"/>
<path d="M223.673 63.9444C223.673 63.9444 220.468 61.7839 220.841 59.2686" stroke="#444053" stroke-miterlimit="10"/>
<path d="M218.757 66.7326C218.757 66.7326 214.171 65.0698 213.724 58.5459" stroke="#444053" stroke-miterlimit="10"/>
<path d="M211.363 68.4217C211.363 68.4217 206.982 64.7891 208.436 58.4399" stroke="#444053" stroke-miterlimit="10"/>
<path d="M202.465 66.6477C202.465 66.6477 199.551 60.5315 202.145 56.552" stroke="#444053" stroke-miterlimit="10"/>
<path d="M224.669 56.7268C224.669 56.7268 221.355 57.7859 222.065 59.5228" stroke="#444053" stroke-miterlimit="10"/>
<path d="M220.669 50.7244C220.669 50.7244 216.232 52.1303 216.129 58.4027" stroke="#444053" stroke-miterlimit="10"/>
<path d="M214.481 49.2629C214.481 49.2629 210.442 54.2459 210.738 58.7734" stroke="#444053" stroke-miterlimit="10"/>
<path d="M207.409 51.217C207.409 51.217 203.398 55.0509 203.909 57.1823" stroke="#444053" stroke-miterlimit="10"/>
<path d="M204.99 49.864C204.99 49.864 201.228 50.5365 200.701 49.3027" stroke="#444053" stroke-miterlimit="10"/>
<path d="M200.103 45.3259C200.103 45.3259 202.002 47.8412 202.487 47.2773" stroke="#444053" stroke-miterlimit="10"/>
<path d="M218.942 43.7346C218.942 43.7346 209.459 44.423 207.313 41.5635" stroke="#444053" stroke-miterlimit="10"/>
<path d="M198.119 32.6487C198.119 32.6487 202.566 42.1936 205.801 43.4089" stroke="#444053" stroke-miterlimit="10"/>
<path d="M202.775 28.1025C202.775 28.1025 205.506 36.8823 208.892 39.6226" stroke="#444053" stroke-miterlimit="10"/>
<path d="M222.932 36.4878C222.932 36.4878 215.721 39.5803 211.393 36.4507" stroke="#444053" stroke-width="0.75" stroke-miterlimit="10"/>
<path d="M209.196 26.2307C209.196 26.2307 210.844 32.6831 213.064 34.2426" stroke="#444053" stroke-width="0.75" stroke-miterlimit="10"/>
<path d="M221.843 29.2571C221.843 29.2571 217.79 30.7927 216.28 29.6172" stroke="#444053" stroke-width="0.75" stroke-miterlimit="10"/>
<path d="M196.63 47.4333C196.63 47.4333 196.63 53.0597 195.099 53.4595" stroke="#444053" stroke-miterlimit="10"/>
<path d="M184.103 54.7226C184.103 54.7226 190.196 55.2521 192.996 52.104" stroke="#444053" stroke-miterlimit="10"/>
<path d="M195.062 40.7876C195.062 40.7876 193.589 46.4934 189.525 48.0317" stroke="#444053" stroke-miterlimit="10"/>
<path d="M180.453 48.7123C180.453 48.7123 184.76 50.2082 188.466 46.3982" stroke="#444053" stroke-miterlimit="10"/>
<path d="M190.269 35.8816C190.269 35.8816 189.864 40.7269 187.229 42.9959" stroke="#444053" stroke-miterlimit="10"/>
<path d="M180.617 41.3279C180.617 41.3279 184.19 41.3518 185.027 40.1868" stroke="#444053" stroke-miterlimit="10"/>
<path d="M206.463 59.7266H104.689V111.076H206.463V59.7266Z" fill="#33323D"/>
<path d="M238.489 126.676H72.9868V160.477H238.489V126.676Z" fill="#33323D"/>
<path d="M112.493 135.125H197.358L214.267 192H94.6104L112.493 135.125Z" fill="#ADADAD"/>
<path d="M68.272 106.525V124.076V127.772V160.474H99.9747V129.276H211.501V160.474H243.204V127.772V124.076V106.525H68.272Z" fill="#504F60"/>
<path opacity="0.1" d="M243.204 106.525H68.272V124.074H243.204V106.525Z" fill="#33323D"/>
<path opacity="0.8" d="M233.776 117.902C235.213 117.902 236.377 116.738 236.377 115.302C236.377 113.866 235.213 112.702 233.776 112.702C232.339 112.702 231.175 113.866 231.175 115.302C231.175 116.738 232.339 117.902 233.776 117.902Z" fill="#8CCF4D"/>
<path opacity="0.8" d="M222.071 117.902C223.507 117.902 224.672 116.738 224.672 115.302C224.672 113.866 223.507 112.702 222.071 112.702C220.634 112.702 219.469 113.866 219.469 115.302C219.469 116.738 220.634 117.902 222.071 117.902Z" fill="#FA5959"/>
<path d="M202.725 47.3752H108.43V103.273H202.725V47.3752Z" fill="#ADADAD"/>
<path opacity="0.05" d="M65.9352 109.503C66.0417 109.765 66.2171 109.993 66.4429 110.163C66.6686 110.333 66.9362 110.439 67.2173 110.47C66.8889 110.046 66.5846 109.604 66.3061 109.146L66.3246 106.8C66.258 106.156 66.3431 105.506 66.5731 104.902C66.8031 104.297 67.1716 103.755 67.6491 103.318C67.6491 103.318 65.8822 103.437 65.8319 106.268C65.7816 109.098 65.9352 109.503 65.9352 109.503Z" fill="black"/>
<path d="M59.5938 86.7808C59.7108 86.7808 59.8057 86.686 59.8057 86.569C59.8057 86.452 59.7108 86.3572 59.5938 86.3572C59.4767 86.3572 59.3818 86.452 59.3818 86.569C59.3818 86.686 59.4767 86.7808 59.5938 86.7808Z" fill="#E6E8EC"/>
<path d="M72.1155 93.3337C72.3101 93.3337 72.4678 93.176 72.4678 92.9815C72.4678 92.7871 72.3101 92.6294 72.1155 92.6294C71.9209 92.6294 71.7632 92.7871 71.7632 92.9815C71.7632 93.176 71.9209 93.3337 72.1155 93.3337Z" fill="#E6E8EC"/>
</g>
<defs>
<clipPath id="clip0">
<rect width="312" height="192" fill="white"/>
</clipPath>
</defs>
</svg>
