<svg width="246" height="197" viewBox="0 0 246 197" fill="none" xmlns="http://www.w3.org/2000/svg">
<g clip-path="url(#clip0)">
<path opacity="0.45" d="M128.003 197.002C193.173 197.002 246.002 152.902 246.002 98.5012C246.002 44.1005 193.173 0 128.003 0C62.8344 0 10.0044 44.1005 10.0044 98.5012C10.0044 152.902 62.8344 197.002 128.003 197.002Z" fill="#00695C"/>
<path opacity="0.5" d="M197.549 69.8726C189.565 69.8726 181.909 72.8389 176.264 78.1191C170.618 83.3992 167.447 90.5607 167.447 98.0279C167.447 113.58 197.549 152.209 197.549 152.209C197.549 152.209 227.651 113.568 227.651 98.0279C227.651 90.5607 224.479 83.3992 218.834 78.1191C213.189 72.8389 205.532 69.8726 197.549 69.8726ZM197.549 112.522C194.485 112.52 191.491 111.669 188.944 110.075C186.398 108.482 184.413 106.218 183.242 103.57C182.071 100.922 181.765 98.0086 182.364 95.1982C182.963 92.3877 184.439 89.8064 186.606 87.7806C188.773 85.7547 191.533 84.3753 194.538 83.8166C197.543 83.2579 200.658 83.5451 203.489 84.6419C206.319 85.7387 208.739 87.5957 210.441 89.9784C212.143 92.361 213.052 95.1622 213.053 98.0279C213.052 99.9313 212.65 101.816 211.871 103.574C211.091 105.332 209.949 106.929 208.509 108.275C207.069 109.62 205.36 110.686 203.48 111.413C201.599 112.141 199.584 112.514 197.549 112.513V112.522Z" fill="white"/>
<path d="M19.9001 135.6C19.9001 135.6 14.5399 118.577 20.9119 106.046C23.6176 100.807 24.4333 94.8872 23.2366 89.1769C22.6468 86.4705 21.7925 83.8204 20.6843 81.2603" stroke="#535461" stroke-width="2" stroke-miterlimit="10"/>
<path d="M24.6379 73.3413C24.6379 75.4281 20.5906 81.4779 20.5906 81.4779C20.5906 81.4779 16.5433 75.4281 16.5433 73.3413C16.5067 72.8242 16.5839 72.3056 16.7703 71.8176C16.9567 71.3296 17.2482 70.8825 17.6268 70.5042C18.0054 70.1258 18.463 69.8242 18.9713 69.618C19.4796 69.4118 20.0277 69.3054 20.5817 69.3054C21.1358 69.3054 21.6839 69.4118 22.1922 69.618C22.7005 69.8242 23.1581 70.1258 23.5367 70.5042C23.9153 70.8825 24.2068 71.3296 24.3932 71.8176C24.5795 72.3056 24.6568 72.8242 24.6202 73.3413H24.6379Z" fill="#FFC502"/>
<path d="M31.3134 84.8968C30.1018 86.65 23.196 89.6737 23.196 89.6737C23.196 89.6737 23.32 82.5426 24.5342 80.7918C24.8033 80.3381 25.1692 79.941 25.6092 79.6251C26.0492 79.3092 26.554 79.0813 27.0921 78.9555C27.6303 78.8297 28.1903 78.8087 28.7375 78.8938C29.2846 78.979 29.8073 79.1684 30.2729 79.4503C30.7385 79.7323 31.1372 80.1008 31.4442 80.5329C31.7513 80.965 31.96 81.4515 32.0576 81.9622C32.1552 82.473 32.1395 82.997 32.0114 83.5018C31.8834 84.0066 31.6458 84.4814 31.3134 84.8968Z" fill="#FFC502"/>
<path d="M31.0226 104.653C29.0293 105.599 21.4355 104.944 21.4355 104.944C21.4355 104.944 25.3943 98.8467 27.3851 97.9074C27.8622 97.6443 28.3919 97.4756 28.9415 97.4117C29.4911 97.3478 30.0489 97.3901 30.5803 97.536C31.1118 97.6819 31.6055 97.9282 32.031 98.2598C32.4566 98.5914 32.8048 99.0011 33.0542 99.4636C33.3037 99.9261 33.4489 100.432 33.4811 100.949C33.5132 101.466 33.4315 101.984 33.2411 102.47C33.0506 102.957 32.7555 103.401 32.3739 103.777C31.9923 104.152 31.5324 104.45 31.0226 104.653Z" fill="#FFC502"/>
<path d="M27.2029 119.542C25.4094 120.782 17.8081 121.342 17.8081 121.342C17.8081 121.342 20.6083 114.718 22.3993 113.468C22.8221 113.135 23.3135 112.887 23.8431 112.738C24.3727 112.589 24.9292 112.543 25.4784 112.604C26.0276 112.664 26.5578 112.829 27.0362 113.088C27.5146 113.347 27.9311 113.696 28.2601 114.111C28.5891 114.527 28.8235 115.001 28.9488 115.505C29.0742 116.009 29.0879 116.531 28.9891 117.04C28.8903 117.549 28.681 118.033 28.3742 118.464C28.0675 118.894 27.6697 119.261 27.2054 119.542H27.2029Z" fill="#C7E87C"/>
<path d="M14.7145 90.0783C16.3157 91.5334 23.7678 93.0381 23.7678 93.0381C23.7678 93.0381 21.944 86.1129 20.3427 84.6602C19.5603 84.0382 18.5544 83.7176 17.5288 83.7633C16.5031 83.8091 15.5344 84.2178 14.8188 84.9066C14.1033 85.5955 13.6944 86.5129 13.675 87.4732C13.6557 88.4334 14.0272 89.3647 14.7145 90.0783Z" fill="#FFC502"/>
<path d="M10.4876 107.551C12.4784 108.498 20.0721 107.842 20.0721 107.842C20.0721 107.842 16.1159 101.745 14.1226 100.806C13.1772 100.433 12.1157 100.409 11.1527 100.741C10.1897 101.072 9.39715 101.733 8.93534 102.59C8.47353 103.447 8.37694 104.436 8.66511 105.357C8.95328 106.278 9.6047 107.062 10.4876 107.551Z" fill="#FFC502"/>
<path d="M8.86859 125.064C10.662 126.304 18.2634 126.865 18.2634 126.865C18.2634 126.865 15.4632 120.24 13.6697 118.988C13.2464 118.658 12.7553 118.411 12.2265 118.265C11.6977 118.118 11.1425 118.074 10.5949 118.135C10.0472 118.196 9.51877 118.362 9.0419 118.621C8.56503 118.88 8.14983 119.228 7.82179 119.642C7.49375 120.057 7.25979 120.53 7.13428 121.032C7.00876 121.535 6.99434 122.056 7.09189 122.564C7.18944 123.071 7.39692 123.555 7.70158 123.985C8.00623 124.415 8.40164 124.782 8.86353 125.064H8.86859Z" fill="#FFC502"/>
<path opacity="0.1" d="M130.452 167.151C170.127 167.151 202.289 162.3 202.289 156.317C202.289 150.333 170.127 145.483 130.452 145.483C90.7775 145.483 58.615 150.333 58.615 156.317C58.615 162.3 90.7775 167.151 130.452 167.151Z" fill="#C7E87C"/>
<path d="M61.8022 177.644C61.8022 177.644 68.885 176.319 70.7771 174.551C72.6693 172.784 81.1686 169.694 82.1121 171.901C83.0556 174.109 94.8662 181.621 86.8348 182.946C78.8035 184.271 67.944 184.713 65.5865 183.831C63.2289 182.948 61.8022 177.644 61.8022 177.644Z" fill="#A8A8A8"/>
<path opacity="0.2" d="M86.8273 182.125C78.7985 183.45 67.9365 183.892 65.579 183.01C63.7805 182.336 62.5308 179.104 62.0376 177.599C61.8883 177.63 61.7998 177.644 61.7998 177.644C61.7998 177.644 63.2189 182.946 65.579 183.831C67.939 184.716 78.8035 184.271 86.8273 182.946C89.1469 182.563 89.8096 181.666 89.5592 180.528C89.3695 181.271 88.56 181.841 86.8273 182.125Z" fill="black"/>
<path d="M183.641 155.2C183.641 155.2 190.724 153.875 192.616 152.108C194.508 150.34 203.005 147.241 203.946 149.458C204.887 151.675 216.697 159.177 208.669 160.502C200.64 161.827 189.775 162.27 187.42 161.385C185.065 160.5 183.641 155.2 183.641 155.2Z" fill="#A8A8A8"/>
<path opacity="0.2" d="M208.674 159.681C200.645 161.006 189.781 161.449 187.426 160.564C185.627 159.892 184.39 156.66 183.884 155.155L183.649 155.2C183.649 155.2 185.065 160.502 187.428 161.385C189.791 162.267 200.653 161.827 208.676 160.502C210.993 160.119 211.656 159.22 211.408 158.084C211.206 158.834 210.399 159.397 208.674 159.681Z" fill="black"/>
<path d="M171.821 179.392C171.821 179.392 173.209 181.091 171.178 183.651C169.147 186.211 167.472 188.383 168.143 189.983C168.143 189.983 171.206 185.217 173.708 185.149C176.209 185.08 174.57 182.258 171.821 179.392Z" fill="#FFC502"/>
<path opacity="0.1" d="M171.821 179.392C171.941 179.557 172.036 179.736 172.104 179.925C174.537 182.598 175.832 185.094 173.495 185.156C171.315 185.215 168.702 188.859 168.074 189.779C168.096 189.85 168.121 189.921 168.15 189.99C168.15 189.99 171.213 185.225 173.715 185.156C176.217 185.087 174.57 182.258 171.821 179.392Z" fill="black"/>
<path d="M174.411 181.548C174.411 182.146 174.337 182.631 174.249 182.631C174.16 182.631 174.09 182.158 174.09 181.548C174.09 180.937 174.178 181.231 174.267 181.231C174.355 181.231 174.411 180.959 174.411 181.548Z" fill="#FFD037"/>
<path d="M175.296 182.272C174.735 182.558 174.246 182.731 174.203 182.657C174.16 182.584 174.583 182.295 175.144 182.009C175.706 181.723 175.483 181.931 175.526 182.009C175.569 182.087 175.868 181.985 175.296 182.272Z" fill="#FFD037"/>
<path d="M164.485 179.392C164.485 179.392 163.096 181.091 165.125 183.651C167.154 186.211 168.831 188.383 168.16 189.983C168.16 189.983 165.095 185.217 162.595 185.149C160.096 185.08 161.743 182.258 164.485 179.392Z" fill="#FFC502"/>
<path opacity="0.1" d="M164.485 179.392C164.363 179.556 164.268 179.735 164.202 179.925C161.768 182.598 160.47 185.094 162.81 185.156C164.988 185.215 167.616 188.859 168.229 189.779C168.208 189.85 168.183 189.921 168.155 189.99C168.155 189.99 165.089 185.225 162.59 185.156C160.091 185.087 161.743 182.258 164.485 179.392Z" fill="black"/>
<path d="M161.905 181.548C161.905 182.146 161.976 182.631 162.064 182.631C162.153 182.631 162.224 182.158 162.224 181.548C162.224 180.937 162.135 181.231 162.046 181.231C161.958 181.231 161.905 180.959 161.905 181.548Z" fill="#FFD037"/>
<path d="M161.017 182.272C161.578 182.558 162.069 182.731 162.112 182.657C162.155 182.584 161.733 182.295 161.171 182.009C160.61 181.723 160.83 181.931 160.789 182.009C160.749 182.087 160.455 181.985 161.017 182.272Z" fill="#FFD037"/>
<path d="M162.347 189.767C162.347 189.767 166.233 189.656 167.407 188.875C168.58 188.094 173.384 187.165 173.675 188.402C173.966 189.639 179.513 194.625 175.127 194.658C170.74 194.691 164.935 194.016 163.766 193.352C162.598 192.687 162.347 189.767 162.347 189.767Z" fill="#A8A8A8"/>
<path opacity="0.2" d="M175.2 194.234C170.814 194.265 165.009 193.593 163.84 192.928C162.949 192.422 162.595 190.602 162.476 189.762H162.347C162.347 189.762 162.6 192.694 163.761 193.359C164.923 194.024 170.735 194.698 175.122 194.665C176.386 194.653 176.824 194.232 176.801 193.61C176.627 193.991 176.144 194.227 175.2 194.234Z" fill="black"/>
<path d="M4.23185 136.646C2.94255 138.992 2.34039 141.616 2.48656 144.251C2.63273 146.886 3.52203 149.437 5.06408 151.646C5.56999 152.356 6.03543 152.865 6.40727 153.002C8.17797 153.657 11.7624 155.269 11.7624 155.269L20.3629 152.108C20.3629 152.108 21.7592 145.199 23.0796 139.267C23.9802 135.221 24.8503 131.632 25.207 131.003C26.0974 129.453 25.207 112.581 25.207 112.581C25.207 112.581 16.6065 112.042 14.2413 118.243L13.2067 120.136L4.23185 136.646Z" fill="#A8A8A8"/>
<path opacity="0.1" d="M15.6505 138.513C20.8791 144.118 23.0848 139.27 23.0848 139.27C23.9854 135.224 24.8555 131.635 25.2122 131.005C26.1026 129.456 25.2122 112.584 25.2122 112.584C25.2122 112.584 16.6117 112.044 14.2465 118.245L13.212 120.138C12.5492 125.1 11.8941 134.486 15.6505 138.513Z" fill="white"/>
<path d="M16.7988 154.135L47.1536 150.856L52.5719 117.521L48.474 108.867C46.7445 105.179 44.3485 101.797 41.3912 98.8703C39.3296 96.8402 36.838 94.8836 34.2174 93.9017C33.8594 93.7663 33.4938 93.6494 33.1221 93.5515C32.695 93.4303 32.2433 93.4051 31.8038 93.4779C31.3642 93.5507 30.9493 93.7194 30.5925 93.9703C26.8488 96.4522 25.5106 107.005 25.0781 112.084C24.9001 114.172 24.5986 116.248 24.175 118.305L16.7988 154.135Z" fill="#A8A8A8"/>
<path opacity="0.1" d="M37.0076 117.164L30.6837 131.715C33.9999 129.448 38.9073 117.105 38.9073 117.105L43.3188 131.178L39.8129 116.346C40.3262 113.124 40.4754 109.86 40.2581 106.609C39.9824 102.888 36.2437 96.9089 34.215 93.9017C33.857 93.7663 33.4913 93.6494 33.1197 93.5515C32.6925 93.4303 32.2408 93.4051 31.8013 93.4779C31.3618 93.5507 30.9468 93.7194 30.5901 93.9703C32.1837 96.9633 36.1551 104.445 37.382 106.671C38.9199 109.472 37.0076 117.164 37.0076 117.164Z" fill="white"/>
<path d="M42.1704 155.269H63.8462C63.8462 155.269 63.3403 135.352 60.1505 124.511C58.9642 120.488 57.5856 118.359 56.3208 117.316C55.7283 116.779 54.9623 116.442 54.1428 116.357C53.5215 116.307 52.8996 116.448 52.3721 116.76C49.3114 119.502 45.7421 133.932 45.7421 133.932L42.1704 155.269Z" fill="#A8A8A8"/>
<path opacity="0.1" d="M57.3857 142.471C58.0637 144.229 58.3318 146.256 57.3857 148.232L53.7154 149.928C53.7154 149.928 43.8501 146.015 45.0491 138.001C45.0491 138.001 45.3728 136.345 48.7701 136.471C50.6806 136.558 52.5202 137.175 54.0545 138.244C55.5888 139.312 56.7484 140.784 57.3857 142.471Z" fill="white"/>
<path opacity="0.1" d="M53.4546 121.399C53.3433 118.588 54.9723 117.625 56.3206 117.304C55.7282 116.767 54.9621 116.43 54.1427 116.345C53.2043 117.08 52.5399 118.074 52.2455 119.185L48.8027 134.866C48.8027 134.866 53.6469 126.11 53.4546 121.399Z" fill="white"/>
<path d="M37.8372 133.8L45.9976 144.236L47.4116 152.846L42.1729 155.266L33.5015 157.055L11.7625 155.266L14.5677 149.186L24.2585 136.464L37.8372 133.8Z" fill="#A8A8A8"/>
<path opacity="0.1" d="M34.6804 130.225C34.6804 130.225 40.2455 130.582 38.156 139.525C36.0666 148.469 14.5679 149.186 14.5679 149.186C14.5679 149.186 19.1363 141.6 26.1634 136.189C26.9526 135.581 27.714 134.945 28.44 134.27C30.064 132.754 33.1475 130.094 34.6804 130.225Z" fill="white"/>
<path opacity="0.1" d="M39.6863 136.963C39.6863 136.963 47.2294 143.379 46.5161 153.26L39.6863 136.963Z" fill="black"/>
<path opacity="0.1" d="M52.3721 116.748C52.3721 116.748 44.4597 126.59 43.5718 141.733L52.3721 116.748Z" fill="black"/>
<path opacity="0.1" d="M25.2147 112.576C25.2147 112.576 29.0545 128.843 19.4827 141.101L25.2147 112.576Z" fill="black"/>
<path d="M57.5855 155.091C57.0341 154.618 56.5206 154.05 56.3612 153.364C56.2019 152.678 56.5155 151.854 57.2162 151.604C58.0004 151.324 58.8402 151.84 59.4751 152.347C60.11 152.853 60.8411 153.447 61.6733 153.338C61.2451 152.975 60.9248 152.514 60.7435 152.001C60.5622 151.488 60.5261 150.939 60.6387 150.409C60.6749 150.19 60.7746 149.984 60.9271 149.815C61.3622 149.38 62.1539 149.578 62.675 149.91C64.3344 151 64.7973 153.111 64.8074 155.008C64.9744 154.325 64.8327 153.61 64.8378 152.907C64.8429 152.205 65.0477 151.426 65.6801 151.05C66.0751 150.851 66.5193 150.753 66.9677 150.766C67.7139 150.742 68.5436 150.811 69.052 151.322C69.687 151.956 69.5225 153.021 68.9711 153.719C68.4197 154.417 67.5824 154.855 66.8109 155.335C66.1931 155.68 65.6659 156.151 65.2678 156.712C65.2224 156.787 65.1843 156.867 65.154 156.948H60.4768C59.4274 156.455 58.4548 155.83 57.5855 155.091Z" fill="#FFC502"/>
<path d="M28.6474 156.442C28.096 155.969 27.5799 155.401 27.4231 154.715C27.2663 154.029 27.5774 153.208 28.2781 152.957C29.0623 152.676 29.9021 153.194 30.537 153.7C31.1719 154.206 31.903 154.8 32.7352 154.691C32.307 154.328 31.9866 153.868 31.8053 153.354C31.624 152.841 31.5879 152.292 31.7006 151.762C31.7367 151.543 31.8365 151.338 31.989 151.168C32.424 150.731 33.2158 150.918 33.7369 151.263C35.3963 152.354 35.8592 154.462 35.8693 156.359C36.0363 155.676 35.8946 154.963 35.8997 154.261C35.9047 153.558 36.1096 152.78 36.742 152.403C37.137 152.204 37.5811 152.106 38.0296 152.12C38.7732 152.093 39.6055 152.164 40.1139 152.673C40.7488 153.307 40.5844 154.372 40.033 155.07C39.4815 155.768 38.6442 156.206 37.8727 156.688C37.2546 157.033 36.7273 157.504 36.3297 158.065C36.2839 158.141 36.2458 158.22 36.2159 158.302H31.5336C30.4865 157.806 29.5156 157.181 28.6474 156.442Z" fill="#FFC502"/>
<path d="M1.26231 152.744C0.713392 152.271 0.197362 151.703 0.0405296 151.017C-0.116303 150.331 0.194832 149.507 0.895521 149.256C1.67969 148.977 2.5195 149.493 3.15442 149.999C3.78934 150.506 4.52039 151.1 5.35261 150.991C4.92443 150.628 4.60405 150.168 4.42272 149.655C4.2414 149.142 4.20533 148.594 4.31802 148.064C4.35841 147.847 4.46163 147.644 4.61651 147.477C5.05159 147.042 5.84082 147.229 6.36444 147.572C8.02383 148.665 8.48674 150.773 8.49686 152.671C8.66381 151.987 8.52216 151.272 8.52722 150.57C8.53227 149.867 8.73716 149.091 9.36956 148.712C9.76371 148.514 10.2071 148.417 10.6546 148.431C11.4008 148.405 12.233 148.473 12.7415 148.984C13.3764 149.618 13.212 150.683 12.6605 151.381C12.1091 152.079 11.2718 152.517 10.5003 152.999C9.88137 153.344 9.35383 153.814 8.95724 154.376C8.91142 154.452 8.87331 154.531 8.84341 154.613H4.15613C3.1058 154.115 2.13237 153.486 1.26231 152.744Z" fill="#FFC502"/>
<path d="M163.931 154.445C163.625 153.224 162.788 152.789 160.949 152.997C158.953 153.234 156.954 153.454 154.511 151.845C153.216 150.993 152.209 150.241 151.544 149.716L151.652 149.69C151.652 149.69 146.702 143.891 147.031 140.559C147.36 137.228 144.729 128.606 144.729 128.606C144.729 128.606 144.587 122.978 143.211 119.712C142.843 118.855 142.564 117.966 142.377 117.058C141.547 112.934 139.093 102.05 135.117 97.2402L134.876 87.6343V87.2652L134.978 87.3622C135.349 86.9909 135.649 86.5617 135.863 86.094C137.029 86.6548 139.543 87.8165 140.904 88.0649C142.716 88.3938 144.952 89.8228 144.952 89.8228C144.952 89.8228 150.099 95.435 154.043 92.9459C157.986 90.4569 146.669 86.4607 146.669 86.4607C146.669 86.4607 142.814 84.5135 141.2 83.9954C140.057 83.6287 137.682 82.1783 136.394 81.362C136.371 81.2295 136.349 81.097 136.321 80.9622C135.562 77.3611 134.487 75.9818 134.937 73.7719C135.061 73.203 135.248 72.6478 135.496 72.1157C137.014 68.7584 130.69 64.0973 130.69 64.0973C130.69 64.0973 126.39 60.6832 127.953 58.8022C127.953 58.8022 130.351 58.5656 128.302 56.7628C127.95 56.4528 127.586 56.1642 127.227 55.9015C127.242 55.8518 127.257 55.8045 127.275 55.7548C127.699 54.5219 128.367 53.3743 129.243 52.3715C129.38 52.2129 129.526 52.0568 129.678 51.8983C131.342 51.4804 132.809 50.5539 133.845 49.2664C134.88 47.9789 135.426 46.4043 135.395 44.7932C135.353 43.0371 134.617 41.3578 133.328 40.0801C133.567 39.8787 133.751 39.6272 133.865 39.3461C133.979 39.0651 134.019 38.7628 133.983 38.4641C134.193 36.1218 129.165 33.7582 127.065 34.1036C125.869 34.3 124.789 34.9033 123.59 35.1068C122.347 35.3197 121.06 35.0879 119.795 35.1068C118.105 35.1251 116.452 35.5768 115.017 36.4128C114.655 36.5974 114.349 36.8653 114.129 37.1912C113.954 37.5755 113.868 37.9899 113.876 38.4073C113.522 42.7158 110.188 46.3027 106.646 49.1324C106.168 49.465 105.761 49.8783 105.445 50.3509C105.086 50.985 105.093 51.735 105.088 52.4495C105.033 59.5901 102.326 67.088 96.1867 71.4438C96.2808 71.5019 96.3779 71.5556 96.4776 71.6047L96.1943 71.8129C98.1901 73.0266 101.193 72.4351 102.518 70.6299C102.025 72.6047 101.169 74.4844 99.9887 76.1852C100.077 76.1852 100.163 76.1852 100.242 76.1734C100.158 76.3012 100.077 76.4289 99.9887 76.5543C102.764 76.481 104.787 74.2498 106.406 72.2151C106.424 72.4138 106.434 72.6102 106.442 72.8089C106.447 75.0155 105.799 77.1802 104.567 79.0623L104.82 79.041C104.742 79.1735 104.661 79.3036 104.567 79.4314C104.969 79.4006 105.374 79.3604 105.776 79.3178C104.162 82.3936 101.63 88.001 101.63 88.001L100.674 90.199C100.165 91.3681 99.4246 92.4366 98.4912 93.3482C97.4667 94.3514 96.1741 95.5651 95.6201 95.8892C94.6336 96.4642 92.2153 103.905 96.5915 102.701C100.968 101.497 102.627 95.7355 102.627 95.7355C102.761 94.7913 103.152 93.8952 103.763 93.1329C104.095 92.6992 104.373 92.2317 104.592 91.7393C105.805 89.2374 107.165 86.8006 108.668 84.4402C109.534 83.1021 110.268 81.6924 110.858 80.2287C111.196 79.3993 111.627 78.6061 112.146 77.8627C113.129 77.4787 114.062 76.9921 114.928 76.4124C115.665 75.9323 116.301 75.3311 116.808 74.6379C117.119 75.8019 117.498 76.9495 117.941 78.0757C119.003 80.7634 120.944 86.986 118.133 91.1478C115.556 94.9665 115.5 96.8144 115.692 97.5762C115.692 97.6164 115.667 97.6566 115.657 97.6992C115.176 99.4023 115.41 101.213 116.309 102.76C116.798 103.631 117.068 104.595 117.101 105.578V105.86C117.117 106.511 117.025 107.161 116.828 107.785C116.279 109.529 115.136 113.365 114.754 116.145C114.248 119.85 110.932 123.432 110.932 123.432C110.932 123.432 102.141 132.302 98.7897 142.717C98.7897 142.717 96.9001 147.191 95.5215 148.145C95.5215 148.145 92.8983 149.604 92.4607 152.403C92.448 152.479 92.4379 152.555 92.4303 152.64L91.8865 153.956C91.8865 153.956 96.7559 156.435 97.7576 156.414L98.3293 155.292L103.426 158.874L111.033 158.706C111.242 158.577 111.427 158.417 111.582 158.233C111.946 157.788 112.163 157.093 111.007 156.369C110.434 156.023 109.743 155.888 109.07 155.99C108.091 156.123 106.219 155.82 104.466 152.394L103.5 150.712L103.624 150.752C103.624 150.752 101.957 148.204 105.278 144.806C108.599 141.409 113.373 132.442 113.373 132.442C113.373 132.442 119.858 127.497 120.979 124.333C120.979 124.333 125.305 117.503 127.809 113.45C128.229 114.297 128.568 114.938 128.568 114.938C128.568 114.938 133.738 121.473 134.464 126.444C135.19 131.415 140.102 143.678 142.189 146.957C144.276 150.236 144.307 151.526 144.307 151.526C144.307 151.526 142.984 154.618 143.806 157.178C143.806 157.206 143.823 157.232 143.831 157.258L143.869 158.735L149.687 158.794L149.669 158.056L157.086 158.262C157.086 158.262 164.245 156.258 164.009 154.786C163.979 154.661 163.956 154.549 163.931 154.445Z" fill="url(#paint0_linear)"/>
<path d="M131.57 52.0024C130.662 52.5949 129.848 53.3046 129.152 54.1105C128.304 55.0952 127.659 56.2183 127.25 57.4229C126.901 58.3939 126.73 59.4129 126.744 60.4371L123 57.4465L118.181 58.4568C119.188 57.5604 120.057 56.5381 120.764 55.4189C121.398 54.4143 121.908 53.345 122.282 52.2319C122.534 51.5128 122.712 50.7728 122.813 50.022C122.813 50.022 136.718 48.6284 131.57 52.0024Z" fill="#EFB4B6"/>
<path d="M112.103 157.968C111.953 158.151 111.774 158.31 111.571 158.441L104.215 158.602L99.2828 155.086L98.7288 156.186C97.7625 156.205 93.0525 153.773 93.0525 153.773L93.6014 152.493C93.6014 152.417 93.6191 152.342 93.6292 152.257C94.0517 149.498 96.5888 148.066 96.5888 148.066L97.5475 147.683L103.393 149.006L105.217 152.226C106.915 155.586 108.726 155.886 109.672 155.754C110.325 155.655 110.993 155.788 111.546 156.127C112.664 156.849 112.454 157.533 112.103 157.968Z" fill="#565388"/>
<path d="M162.813 154.599C163.043 156.045 156.117 158.008 156.117 158.008L148.943 157.803L148.963 158.527L143.343 158.47L143.307 157.019C143.307 156.993 143.29 156.967 143.282 156.941C142.495 154.438 143.748 151.393 143.748 151.393L144.304 150.475L149.884 148.897C151.069 149.91 152.322 150.85 153.636 151.713C155.998 153.293 157.936 153.068 159.863 152.846C161.634 152.64 162.451 153.071 162.744 154.265C162.772 154.379 162.793 154.485 162.813 154.599Z" fill="#565388"/>
<path d="M129.377 111.301C129.192 111.67 128.583 112.697 127.778 114.027C125.37 118.006 121.202 124.709 121.202 124.709C120.116 127.813 113.846 132.661 113.846 132.661C113.846 132.661 109.222 141.461 106.004 144.792C102.786 148.123 104.408 150.624 104.408 150.624L96.594 148.078C97.9271 147.144 99.7559 142.755 99.7559 142.755C102.986 132.536 111.486 123.827 111.486 123.827C111.486 123.827 114.69 120.313 115.181 116.679C115.548 113.951 116.653 110.187 117.185 108.479C117.372 107.864 117.458 107.225 117.438 106.586V106.309C117.407 105.347 117.148 104.403 116.679 103.545C115.808 102.022 115.584 100.248 116.051 98.5769C116.206 97.9823 116.462 97.4151 116.81 96.897L118.72 96.3765L125.469 94.531C125.469 94.531 125.886 95.908 126.45 97.8718C127.768 102.467 129.893 110.277 129.377 111.301Z" fill="#7679B4"/>
<path opacity="0.1" d="M129.243 111.088C129.058 111.457 128.451 112.484 127.644 113.814C125.236 117.793 121.055 124.496 121.055 124.496C119.965 127.603 113.699 132.448 113.699 132.448C113.699 132.448 109.077 141.248 105.857 144.579C102.637 147.91 104.281 150.411 104.281 150.411L96.47 147.865C97.8005 146.931 99.6294 142.542 99.6294 142.542C102.86 132.323 111.359 123.614 111.359 123.614C111.359 123.614 114.551 120.107 115.042 116.483C115.409 113.755 116.514 109.99 117.045 108.282C117.232 107.667 117.317 107.029 117.298 106.389V106.113C117.269 105.149 117.01 104.204 116.54 103.347C115.669 101.823 115.445 100.049 115.912 98.3781C116.068 97.7834 116.325 97.2156 116.671 96.6959L118.581 96.1777L125.33 94.3323C125.33 94.3323 125.75 95.7069 126.311 97.6731C127.637 102.254 129.759 110.064 129.243 111.088Z" fill="black"/>
<path d="M150.871 149.607L143.742 151.393C143.742 151.393 143.71 150.127 141.694 146.91C139.677 143.692 134.917 131.656 134.214 126.78C133.51 121.903 128.507 115.489 128.507 115.489C128.507 115.489 128.178 114.86 127.773 114.027C127.399 113.258 126.964 112.319 126.665 111.543C126.043 109.927 123.273 107.632 123.273 107.632C118.201 105.001 117.202 101.849 117.144 99.8806C117.114 99.235 117.206 98.5896 117.415 97.9736L118.715 96.3813L121.174 93.3623L129.488 85.0269L134.548 86.0017L134.854 98.1368C138.701 102.848 141.076 113.539 141.868 117.585C142.047 118.475 142.317 119.347 142.675 120.188C144.008 123.394 144.147 128.916 144.147 128.916C144.147 128.916 146.677 137.377 146.378 140.644C146.08 143.912 150.871 149.607 150.871 149.607Z" fill="#7679B4"/>
<path d="M135.228 82.0007C135.228 82.0007 139.169 84.6341 140.732 85.1428C142.296 85.6515 146.019 87.5632 146.019 87.5632C146.019 87.5632 156.967 91.4907 153.152 93.9301C149.338 96.3694 144.36 90.8543 144.36 90.8543C144.36 90.8543 142.192 89.4512 140.441 89.1271C138.691 88.803 134.965 86.9078 134.965 86.9078L135.228 82.0007Z" fill="#EFB4B6"/>
<path opacity="0.1" d="M131.57 52.0024C130.662 52.5949 129.848 53.3046 129.152 54.1105C128.691 54.1998 128.223 54.2505 127.753 54.2619C125.623 54.3092 124.52 52.1325 123.114 50.8288C123.556 49.5133 122.805 50.022 122.805 50.022C122.805 50.022 136.718 48.6284 131.57 52.0024Z" fill="black"/>
<path d="M127.568 53.8998C131.74 53.8998 135.122 50.7367 135.122 46.8349C135.122 42.9331 131.74 39.77 127.568 39.77C123.397 39.77 120.015 42.9331 120.015 46.8349C120.015 50.7367 123.397 53.8998 127.568 53.8998Z" fill="#EFB4B6"/>
<path opacity="0.1" d="M126.746 60.4441L123 57.4463L118.181 58.4566C119.188 57.5602 120.057 56.5379 120.764 55.4187H120.797C122.413 55.1314 124.085 55.4309 125.474 56.2562C126.093 56.6177 126.69 57.0127 127.26 57.4392C126.91 58.4069 126.736 59.4226 126.746 60.4441Z" fill="black"/>
<path opacity="0.1" d="M134.553 86.0017L134.621 88.7107C134.039 88.1642 131.133 85.5852 131.924 89.3212C132.805 93.4711 127.649 96.483 127.649 96.483C127.245 97.0004 126.845 97.4649 126.45 97.8766C122.363 102.114 118.74 100.822 117.149 99.8806C116.842 99.703 116.554 99.4978 116.289 99.2678C116.136 99.0667 116.048 98.8284 116.036 98.5817C116.191 97.9871 116.447 97.4199 116.795 96.9018L118.705 96.3813L121.164 93.3623L129.478 85.0269L134.553 86.0017Z" fill="black"/>
<path d="M134.712 88.4456C134.712 88.4456 131.036 84.8114 131.929 88.959C132.822 93.1066 127.652 96.1209 127.652 96.1209C121.647 103.862 116.292 98.9057 116.292 98.9057C116.292 98.9057 114.9 97.4861 118.447 92.1531C121.164 88.0718 119.287 81.9651 118.257 79.3271C117.815 78.1867 117.439 77.0249 117.131 75.8467L116.879 74.9003L116.299 72.6857C115.617 70.1009 115.403 67.4272 115.667 64.7762C115.84 63.0039 116.236 61.2568 116.846 59.571C117.235 58.4921 117.673 57.5646 118.143 57.011C118.818 56.2555 119.761 55.7517 120.799 55.5914C122.415 55.3024 124.088 55.6011 125.476 56.4266C126.472 57.0021 127.404 57.6687 128.259 58.4164C130.242 60.1838 127.923 60.4157 127.923 60.4157C126.42 62.2611 130.571 65.6208 130.571 65.6208C130.571 65.6208 136.69 70.1967 135.223 73.4902C133.756 76.7836 135.139 77.8412 136.022 82.171C136.905 86.5008 134.712 88.4456 134.712 88.4456Z" fill="#0E75D3"/>
<path opacity="0.1" d="M127.067 36.5405C125.909 36.7345 124.862 37.326 123.706 37.5271C122.502 37.7329 121.267 37.5082 120.045 37.5271C118.408 37.5443 116.807 37.9875 115.424 38.8071C115.073 38.9899 114.777 39.2528 114.564 39.5713C114.393 39.945 114.307 40.3478 114.311 40.7543C113.969 44.9823 110.747 48.4982 107.322 51.2759C106.859 51.5993 106.466 52.0005 106.161 52.4589C105.812 53.0812 105.822 53.8146 105.817 54.5173C105.763 61.523 103.15 68.8813 97.2161 73.1519C99.222 74.3893 102.275 73.7197 103.482 71.7773C103.04 73.9179 102.168 75.961 100.914 77.7987C103.56 77.7467 105.51 75.5581 107.079 73.5636C107.3 76.0388 106.68 78.5161 105.308 80.6427C108.85 80.3564 112.467 79.6418 115.33 77.6828C116.643 76.7861 117.832 75.4801 117.804 73.9611C117.789 73.0928 117.374 72.2789 117.078 71.4531C116.307 69.3048 116.491 66.5957 118.404 65.2022C118.764 64.9825 119.103 64.733 119.416 64.4569C119.853 63.9979 120.007 63.3638 120.096 62.7557C120.313 61.2706 120.233 59.7608 119.861 58.3029C119.76 57.9962 119.708 57.6773 119.706 57.3565C119.749 56.6869 120.288 56.1262 120.9 55.7808C121.513 55.4353 122.211 55.246 122.861 54.9598C123.975 54.4479 124.917 53.6576 125.581 52.6763C126.246 51.695 126.607 50.561 126.625 49.3997C126.625 48.7206 126.531 47.9635 126.989 47.4406C127.669 46.6646 129.086 46.9296 129.901 46.2765C130.672 45.659 130.586 44.5091 131.125 43.7023C131.568 43.0399 132.39 42.6873 132.989 42.155C135.994 39.5476 129.498 36.1359 127.067 36.5405Z" fill="black"/>
<path opacity="0.1" d="M126.43 63.3045V63.3495L121.659 69.3993L118.733 73.1116C118.733 73.1116 117.938 73.8214 116.871 74.8884L116.292 72.6739C115.609 70.089 115.395 67.4154 115.659 64.7643C116.765 62.7012 117.954 61.3171 119.067 60.3896C119.693 59.8704 120.463 59.5277 121.289 59.401C122.114 59.2744 122.961 59.3691 123.732 59.6741C124.502 59.979 125.164 60.4819 125.642 61.1244C126.12 61.7669 126.393 62.5228 126.43 63.3045Z" fill="black"/>
<path d="M127.047 36.1784C125.889 36.3724 124.842 36.9639 123.686 37.1627C122.484 37.3709 121.25 37.1437 120.025 37.1627C118.391 37.1793 116.794 37.62 115.411 38.4356C115.06 38.6184 114.765 38.8813 114.551 39.1998C114.38 39.5735 114.294 39.9763 114.298 40.3828C113.959 44.6108 110.734 48.1267 107.309 50.9044C106.848 51.2285 106.454 51.6295 106.148 52.0874C105.802 52.7073 105.809 53.4431 105.804 54.1458C105.754 61.1515 103.138 68.5098 97.2036 72.7804C99.207 74.0178 102.263 73.3459 103.467 71.4058C103.029 73.5519 102.159 75.6008 100.904 77.4438C103.55 77.3917 105.501 75.2008 107.069 73.2063C107.288 75.6812 106.666 78.1575 105.293 80.283C108.835 79.9967 112.452 79.2821 115.318 77.3231C116.628 76.4264 117.82 75.1204 117.792 73.6014C117.774 72.7331 117.362 71.9192 117.066 71.0934C116.292 68.9451 116.476 66.236 118.389 64.8425C118.749 64.622 119.088 64.3718 119.401 64.0948C119.838 63.6382 119.992 63.0041 120.081 62.396C120.296 60.91 120.215 59.3995 119.843 57.9409C119.743 57.6341 119.692 57.3152 119.691 56.9945C119.734 56.3249 120.271 55.7641 120.883 55.4187C121.495 55.0733 122.196 54.884 122.843 54.5977C123.958 54.0885 124.9 53.301 125.566 52.3223C126.232 51.3436 126.596 50.2118 126.617 49.0518C126.617 48.3728 126.521 47.6156 126.982 47.0904C127.662 46.3167 129.076 46.5817 129.891 45.9287C130.665 45.3112 130.576 44.1613 131.115 43.3545C131.558 42.692 132.38 42.3395 132.982 41.8071C135.984 39.1832 129.488 35.7738 127.047 36.1784Z" fill="#A66477"/>
<path d="M126.035 62.9521V62.997L121.262 69.054L118.338 72.7686C118.338 72.7686 112.841 77.6 111.387 81.4376C110.818 82.8697 110.112 84.2508 109.277 85.5639C107.824 87.8806 106.509 90.2707 105.339 92.7234C105.127 93.2052 104.858 93.6631 104.537 94.0886C103.945 94.8422 103.567 95.7238 103.439 96.651C103.439 96.651 101.835 102.303 97.6031 103.482C93.3712 104.66 95.7059 97.3631 96.6621 96.7977C97.1984 96.4806 98.4455 95.2905 99.4446 94.3063C100.35 93.4095 101.066 92.3612 101.557 91.2163L102.48 89.0608C102.48 89.0608 106.882 79.1804 107.643 78.6197C107.865 78.4408 108.053 78.228 108.199 77.9903C108.809 77.0629 109.429 76.1378 110.066 75.2269C110.904 74.0297 112.229 71.6424 114.129 66.882C114.263 66.546 114.397 66.2266 114.536 65.9167C115.836 63.0018 117.319 61.1847 118.679 60.0443C119.305 59.5275 120.074 59.1866 120.898 59.0609C121.722 58.9352 122.567 59.0297 123.335 59.3336C124.104 59.6376 124.766 60.1385 125.243 60.7787C125.721 61.4189 125.996 62.1723 126.035 62.9521Z" fill="#EFB4B6"/>
<path d="M126.139 62.9307V62.978L121.28 69.1462L114.422 65.9521C115.745 62.9828 117.253 61.1278 118.642 59.9708C119.279 59.4427 120.062 59.0938 120.902 58.9646C121.742 58.8354 122.604 58.9311 123.388 59.2407C124.172 59.5503 124.846 60.061 125.333 60.714C125.82 61.367 126.1 62.1355 126.139 62.9307Z" fill="#0E75D3"/>
<path opacity="0.1" d="M120.124 58.1372C120.124 58.1372 125.277 60.2051 127.806 60.3305L120.124 58.1372Z" fill="black"/>
<path opacity="0.1" d="M162.813 154.599C163.043 156.045 156.117 158.008 156.117 158.008L148.943 157.803L148.963 158.527L143.343 158.47L143.307 157.019C143.307 156.993 143.29 156.967 143.282 156.941L156.183 157.192L162.734 154.275C162.772 154.379 162.792 154.485 162.813 154.599Z" fill="black"/>
<path opacity="0.1" d="M112.103 157.968C111.953 158.151 111.774 158.31 111.571 158.441L104.215 158.602L99.2828 155.086L98.7288 156.186C97.7625 156.205 93.0525 153.773 93.0525 153.773L93.6014 152.493C93.6014 152.417 93.6191 152.342 93.6292 152.257L99.3688 154.623L104.296 157.956L112.103 157.968Z" fill="black"/>
<path opacity="0.1" d="M117.126 97.8907C117.126 97.8907 119.894 92.3945 122.747 90.6934L117.126 97.8907Z" fill="black"/>
<path opacity="0.1" d="M128.135 73.3696C128.135 73.3696 129.756 76.1946 134.669 75.111L128.135 73.3696Z" fill="black"/>
<path opacity="0.1" d="M95.4783 24.9801H93.8898C94.1755 24.9673 94.4449 24.8522 94.6423 24.6586C94.8396 24.465 94.9497 24.2077 94.9497 23.9402C94.9497 23.6727 94.8396 23.4155 94.6423 23.2218C94.4449 23.0282 94.1755 22.9131 93.8898 22.9004H81.0092C80.8588 22.8936 80.7084 22.9156 80.5673 22.9648C80.4261 23.014 80.2972 23.0895 80.1881 23.1867C80.0791 23.284 79.9923 23.4009 79.933 23.5304C79.8737 23.6599 79.8432 23.7993 79.8432 23.9402C79.8432 24.0811 79.8737 24.2205 79.933 24.35C79.9923 24.4795 80.0791 24.5965 80.1881 24.6937C80.2972 24.7909 80.4261 24.8664 80.5673 24.9156C80.7084 24.9649 80.8588 24.9868 81.0092 24.9801H82.5978C82.4516 24.9801 82.3069 25.007 82.1719 25.0593C82.0368 25.1116 81.9141 25.1883 81.8108 25.285C81.7074 25.3816 81.6254 25.4964 81.5695 25.6227C81.5136 25.749 81.4848 25.8844 81.4848 26.0211C81.4848 26.1578 81.5136 26.2932 81.5695 26.4195C81.6254 26.5458 81.7074 26.6606 81.8108 26.7572C81.9141 26.8539 82.0368 26.9306 82.1719 26.9829C82.3069 27.0352 82.4516 27.0621 82.5978 27.0621H80.3743C80.2238 27.0554 80.0735 27.0773 79.9324 27.1266C79.7912 27.1758 79.6622 27.2513 79.5532 27.3485C79.4442 27.4458 79.3574 27.5627 79.2981 27.6922C79.2388 27.8217 79.2083 27.9611 79.2083 28.102C79.2083 28.2429 79.2388 28.3823 79.2981 28.5118C79.3574 28.6413 79.4442 28.7582 79.5532 28.8555C79.6622 28.9527 79.7912 29.0282 79.9324 29.0774C80.0735 29.1266 80.2238 29.1486 80.3743 29.1419H93.2523C93.4028 29.1486 93.5531 29.1266 93.6943 29.0774C93.8354 29.0282 93.9644 28.9527 94.0734 28.8555C94.1824 28.7582 94.2692 28.6413 94.3285 28.5118C94.3878 28.3823 94.4184 28.2429 94.4184 28.102C94.4184 27.9611 94.3878 27.8217 94.3285 27.6922C94.2692 27.5627 94.1824 27.4458 94.0734 27.3485C93.9644 27.2513 93.8354 27.1758 93.6943 27.1266C93.5531 27.0773 93.4028 27.0554 93.2523 27.0621H95.4783C95.7735 27.0621 96.0566 26.9525 96.2654 26.7572C96.4741 26.562 96.5913 26.2972 96.5913 26.0211C96.5913 25.745 96.4741 25.4802 96.2654 25.285C96.0566 25.0897 95.7735 24.9801 95.4783 24.9801Z" fill="#C7E87C"/>
<path opacity="0.1" d="M213.756 61.076H212.167C212.462 61.076 212.745 60.9663 212.954 60.7711C213.163 60.5758 213.28 60.311 213.28 60.0349C213.28 59.7588 213.163 59.494 212.954 59.2988C212.745 59.1036 212.462 58.9939 212.167 58.9939H199.297C199.001 58.9939 198.718 59.1036 198.51 59.2988C198.301 59.494 198.184 59.7588 198.184 60.0349C198.184 60.311 198.301 60.5758 198.51 60.7711C198.718 60.9663 199.001 61.076 199.297 61.076H200.885C200.735 61.0693 200.584 61.0912 200.443 61.1404C200.302 61.1896 200.173 61.2651 200.064 61.3624C199.955 61.4596 199.868 61.5765 199.809 61.706C199.75 61.8355 199.719 61.9749 199.719 62.1158C199.719 62.2567 199.75 62.3961 199.809 62.5257C199.868 62.6552 199.955 62.7721 200.064 62.8693C200.173 62.9665 200.302 63.042 200.443 63.0913C200.584 63.1405 200.735 63.1624 200.885 63.1557H198.662C198.511 63.149 198.361 63.1709 198.22 63.2201C198.079 63.2693 197.95 63.3449 197.841 63.4421C197.732 63.5393 197.645 63.6562 197.585 63.7857C197.526 63.9152 197.496 64.0546 197.496 64.1955C197.496 64.3364 197.526 64.4759 197.585 64.6054C197.645 64.7349 197.732 64.8518 197.841 64.949C197.95 65.0462 198.079 65.1217 198.22 65.171C198.361 65.2202 198.511 65.2421 198.662 65.2354H211.535C211.685 65.2421 211.835 65.2202 211.977 65.171C212.118 65.1217 212.247 65.0462 212.356 64.949C212.465 64.8518 212.551 64.7349 212.611 64.6054C212.67 64.4759 212.701 64.3364 212.701 64.1955C212.701 64.0546 212.67 63.9152 212.611 63.7857C212.551 63.6562 212.465 63.5393 212.356 63.4421C212.247 63.3449 212.118 63.2693 211.977 63.2201C211.835 63.1709 211.685 63.149 211.535 63.1557H213.761C214.046 63.1429 214.316 63.0278 214.513 62.8342C214.71 62.6406 214.821 62.3833 214.821 62.1158C214.821 61.8483 214.71 61.5911 214.513 61.3975C214.316 61.2038 214.046 61.0887 213.761 61.076H213.756Z" fill="#C7E87C"/>
<path opacity="0.1" d="M71.397 54.8343H69.8084C70.1036 54.8343 70.3867 54.7246 70.5954 54.5294C70.8042 54.3341 70.9214 54.0693 70.9214 53.7932C70.9214 53.5171 70.8042 53.2523 70.5954 53.0571C70.3867 52.8619 70.1036 52.7522 69.8084 52.7522H56.9355C56.6403 52.7522 56.3572 52.8619 56.1485 53.0571C55.9397 53.2523 55.8225 53.5171 55.8225 53.7932C55.8225 54.0693 55.9397 54.3341 56.1485 54.5294C56.3572 54.7246 56.6403 54.8343 56.9355 54.8343H58.5241C58.2384 54.847 57.9689 54.9621 57.7716 55.1558C57.5742 55.3494 57.4641 55.6066 57.4641 55.8741C57.4641 56.1416 57.5742 56.3989 57.7716 56.5925C57.9689 56.7861 58.2384 56.9012 58.5241 56.914H56.3006C56.1501 56.9073 55.9998 56.9292 55.8586 56.9784C55.7175 57.0276 55.5885 57.1032 55.4795 57.2004C55.3705 57.2976 55.2837 57.4145 55.2244 57.544C55.1651 57.6735 55.1345 57.8129 55.1345 57.9538C55.1345 58.0947 55.1651 58.2341 55.2244 58.3637C55.2837 58.4932 55.3705 58.6101 55.4795 58.7073C55.5885 58.8045 55.7175 58.88 55.8586 58.9293C55.9998 58.9785 56.1501 59.0004 56.3006 58.9937H69.171C69.4567 58.9809 69.7261 58.8658 69.9235 58.6722C70.1208 58.4786 70.2309 58.2213 70.2309 57.9538C70.2309 57.6863 70.1208 57.4291 69.9235 57.2355C69.7261 57.0419 69.4567 56.9267 69.171 56.914H71.397C71.5475 56.9207 71.6978 56.8988 71.8389 56.8495C71.9801 56.8003 72.1091 56.7248 72.2181 56.6276C72.3271 56.5304 72.4139 56.4135 72.4732 56.2839C72.5325 56.1544 72.563 56.015 72.563 55.8741C72.563 55.7332 72.5325 55.5938 72.4732 55.4643C72.4139 55.3348 72.3271 55.2179 72.2181 55.1207C72.1091 55.0234 71.9801 54.9479 71.8389 54.8987C71.6978 54.8495 71.5475 54.8276 71.397 54.8343Z" fill="#C7E87C"/>
</g>
<defs>
<linearGradient id="paint0_linear" x1="128.054" y1="159.263" x2="125.316" y2="34.1178" gradientUnits="userSpaceOnUse">
<stop stop-color="#808080" stop-opacity="0.25"/>
<stop offset="0.54" stop-color="#808080" stop-opacity="0.12"/>
<stop offset="1" stop-color="#808080" stop-opacity="0.1"/>
</linearGradient>
<clipPath id="clip0">
<rect width="246" height="197" fill="white"/>
</clipPath>
</defs>
</svg>
