<svg width="263" height="192" viewBox="0 0 263 192" fill="none" xmlns="http://www.w3.org/2000/svg">
<path opacity="0.45" d="M153.638 30.1969C136.905 29.587 120.968 23.9244 105.747 17.7278C90.5269 11.5311 75.4563 4.665 59.124 1.39592C48.6193 -0.7157 36.6073 -1.01387 28.1425 4.88998C19.9983 10.5824 17.3663 20.3815 15.9495 29.4812C14.8869 36.3311 14.2586 43.5361 17.1776 49.9469C19.202 54.3978 22.7984 58.1385 25.2856 62.4024C33.9365 77.2353 27.8219 95.5269 18.4444 110.01C14.0492 116.803 8.9455 123.292 5.5508 130.519C2.1561 137.746 0.58673 146.038 3.55483 153.416C6.49966 160.735 13.514 166.221 21.1101 170.084C36.5426 177.929 54.7209 180.176 72.4623 181.447C111.715 184.264 151.179 183.044 190.535 181.824C205.101 181.371 219.73 180.913 234.058 178.552C242.016 177.24 250.233 175.158 256.009 170.149C263.341 163.771 265.159 152.969 260.246 144.972C252.004 131.557 229.221 128.223 223.453 113.827C220.28 105.903 223.538 97.0747 228.145 89.7261C238.032 73.958 254.602 60.1282 255.476 42.1049C256.076 29.7279 248.11 17.332 235.793 11.4742C222.881 5.33453 204.98 6.10707 195.46 16.2694C185.646 26.7082 168.411 30.7336 153.638 30.1969Z" fill="#00695C"/>
<g opacity="0.1">
<path opacity="0.1" d="M22.3256 89.0078C22.3256 89.0078 3.00195 80.4854 0.460452 95.8522C0.460452 95.8522 -0.860714 98.2485 0.977542 100.227C0.977542 100.227 1.37312 99.1647 3.23981 100.263C3.90654 100.649 4.61476 100.951 5.34954 101.162C6.34187 101.449 7.39628 101.39 8.35384 100.994C8.35384 100.994 14.7115 100.634 20.0582 91.9136C20.0582 91.9136 22.3515 90.4282 22.4652 89.8698L18.6336 90.1408C18.6336 90.1408 18.9283 93.0819 17.3409 94.8466C17.3409 94.8466 18.7474 90.2818 18.0726 90.1544C17.9355 90.1273 16.0481 90.3875 16.0481 90.3875C16.0481 90.3875 16.5368 95.5026 13.9798 98.1482C13.9798 98.1482 16.3532 92.9464 15.3216 90.4797L12.4931 91.0516C12.4931 91.0516 13.2688 96.4323 10.4713 99.5604C10.4713 99.5604 12.7724 94.0307 11.883 91.2224L9.17601 92.1766C9.17601 92.1766 9.82755 97.438 7.48771 100.038C7.48771 100.038 9.53022 93.3665 8.56843 92.4476C8.56843 92.4476 6.13294 93.4831 5.61326 94.074C5.61326 94.074 5.99849 97.869 4.51186 99.2379C4.51186 99.2379 5.42452 94.6297 4.97207 94.44C4.97207 94.44 2.14358 96.6736 1.28004 98.6009C1.28004 98.6009 2.35559 95.6571 4.61786 93.9927C4.61786 93.9927 2.71755 93.6566 1.25677 94.4888C1.25677 94.4888 2.23407 92.5344 5.30301 93.4614C5.30301 93.4614 7.57562 91.8106 8.03066 91.835C8.03066 91.835 5.12719 90.4797 3.03039 90.6477C3.03039 90.6477 5.27974 89.2924 8.73907 91.5558L11.4409 90.5339C11.4409 90.5339 7.69196 88.5199 5.81492 88.528C5.81492 88.528 8.31247 87.5142 12.1415 90.3333L14.908 89.7424C14.908 89.7424 11.8054 87.75 9.71379 87.2865C9.71379 87.2865 12.2217 86.8691 15.7069 89.6041L17.5968 89.4388C17.5968 89.4388 15.3087 88.0238 14.6158 87.6795C13.9229 87.3353 13.9539 87.113 13.9539 87.113C15.6022 87.4136 17.1383 88.1888 18.3906 89.352C18.3906 89.352 22.3101 89.2599 22.3256 89.0078Z" fill="#C7E87C"/>
</g>
<g opacity="0.1">
<path opacity="0.1" d="M21.6171 73.7303C21.6171 73.7303 14.7631 57.122 4.90732 64.739C4.90732 64.739 2.82344 65.3733 2.83895 67.6394C2.83895 67.6394 3.65078 67.2437 4.16529 69.0137C4.35395 69.6416 4.61439 70.2432 4.94093 70.8055C5.3725 71.5697 6.03085 72.1647 6.81538 72.4997C6.81538 72.4997 10.7892 76.0832 18.7085 74.0963C18.7085 74.0963 20.8802 74.5815 21.25 74.3212L18.83 72.1879C18.83 72.1879 17.4054 74.1125 15.4973 74.2047C15.4973 74.2047 18.8145 72.3343 18.4835 71.8545C18.4163 71.7569 17.152 70.7865 17.152 70.7865C17.152 70.7865 14.6648 74.1152 11.7226 74.1667C11.7226 74.1667 15.9601 72.4915 16.6866 70.4124L14.6958 69.0571C14.6958 69.0571 12.2293 72.7138 8.87081 72.9036C8.87081 72.9036 13.2428 70.9925 14.2408 68.7915L12.113 67.7424C12.113 67.7424 9.64128 71.2663 6.84641 71.3991C6.84641 71.3991 11.6864 68.6559 11.6114 67.5364C11.6114 67.5364 9.6025 66.6961 8.96389 66.7449C8.96389 66.7449 7.13598 69.2252 5.50455 69.1547C5.50455 69.1547 8.5528 66.9618 8.38733 66.5795C8.38733 66.5795 5.49163 66.2163 3.9326 66.8506C3.9326 66.8506 6.1716 65.7447 8.41836 66.1079C8.41836 66.1079 7.47208 64.7715 6.15609 64.4002C6.15609 64.4002 7.80044 63.8228 9.11902 66.2028C9.11902 66.2028 11.3632 66.5823 11.6269 66.8642C11.6269 66.8642 10.6418 64.3188 9.3 63.1722C9.3 63.1722 11.3684 63.7144 12.1957 67.1217L14.3571 68.1273C14.3571 68.1273 13.2247 64.6902 12.1026 63.5761C12.1026 63.5761 14.1374 64.4652 14.882 68.4282L16.8469 69.7266C16.8469 69.7266 16.0868 66.6907 15.0966 65.1646C15.0966 65.1646 16.8133 66.4169 17.3951 70.1224L18.6102 71.1525C18.6102 71.1525 18.0181 68.946 17.7932 68.3279C17.5683 67.7099 17.7079 67.5961 17.7079 67.5961C18.5246 68.7584 19.0161 70.1364 19.1273 71.5753C19.1273 71.5753 21.4646 73.8686 21.6171 73.7303Z" fill="#C7E87C"/>
</g>
<path d="M241.293 180.843C241.034 179.862 240.776 178.867 240.258 178.013C239.779 177.288 239.208 176.634 238.562 176.069C236.688 174.283 234.384 172.47 231.9 172.922C231.129 173.099 230.385 173.383 229.687 173.768C229.325 173.944 228.96 174.12 228.588 174.269C227.539 174.729 226.38 174.835 225.271 174.573C224.702 174.413 224.172 174.126 223.611 173.947C223.343 173.863 223.07 173.802 222.794 173.763C223.335 173.505 223.862 173.215 224.371 172.892C227.161 171.084 229.387 167.832 229.074 164.389C228.97 163.223 228.588 162.109 228.21 161.011C227.879 160.052 227.548 159.091 227.215 158.13C226.786 156.88 226.344 155.609 225.558 154.571C224.684 153.416 223.443 152.633 222.16 152.047C219.404 150.792 216.392 150.35 213.419 149.922L213.212 149.892V116.215C213.214 115.929 213.162 115.645 213.058 115.381C212.955 115.116 212.803 114.875 212.611 114.673C212.419 114.47 212.19 114.309 211.938 114.199C211.686 114.089 211.416 114.033 211.144 114.033H207.232C207.06 112.927 206.887 111.822 206.715 110.718C206.221 107.57 205.712 104.361 204.328 101.526C203.424 99.6689 201.981 97.9015 200.039 97.5356C199.657 97.4982 199.281 97.407 198.922 97.2645C198.353 96.9717 198.043 96.3212 197.604 95.8387C196.476 94.5999 194.643 94.5809 193.131 93.9412C191.797 93.3855 190.706 92.3365 189.491 91.5314C188.275 90.7263 186.763 90.1517 185.416 90.6775C185.416 90.7806 185.398 90.8808 185.387 90.9839L184.524 90.5773C183.593 90.1273 182.642 89.661 181.894 88.9183C180.933 87.9669 180.421 86.7118 180.023 85.3727C179.981 85.2318 179.942 85.1017 179.904 84.9526C181.556 83.1825 182.674 80.9416 183.12 78.5093C183.19 78.7451 183.262 78.9837 183.332 79.2222C183.396 79.4647 183.482 79.6999 183.591 79.9243C183.626 79.9984 183.667 80.07 183.712 80.1384C183.797 80.2715 183.904 80.388 184.027 80.4827C184.15 80.5762 184.293 80.635 184.444 80.6535C184.516 80.6641 184.589 80.6641 184.661 80.6535C184.856 80.6102 185.038 80.5163 185.19 80.3804C185.341 80.2445 185.458 80.0709 185.53 79.8755C185.571 79.7689 185.601 79.6581 185.62 79.5448C185.63 79.4766 185.636 79.4078 185.638 79.3388C185.638 79.3171 185.638 79.2954 185.638 79.2737C185.638 79.252 185.638 79.1789 185.638 79.1328C185.638 79.0867 185.638 79.0813 185.638 79.0569C185.638 79.0325 185.638 78.9647 185.638 78.9213V78.8509C185.638 78.7966 185.623 78.7424 185.612 78.6909C185.602 78.6394 185.612 78.6611 185.612 78.6476C185.599 78.5771 185.584 78.5093 185.571 78.4388C185.57 78.4235 185.57 78.4081 185.571 78.3928L185.532 78.222L185.509 78.119V78.0919C185.483 77.9862 185.46 77.8777 185.437 77.7693C185.249 76.8276 185.201 75.8612 185.294 74.9041C185.45 73.5002 185.697 72.1091 186.034 70.7405L186.088 70.4938L186.15 70.2065C186.191 70.0113 186.23 69.8162 186.269 69.621C186.303 69.4557 186.334 69.2876 186.362 69.1195C186.391 68.9515 186.411 68.8241 186.432 68.675C186.432 68.656 186.432 68.6397 186.432 68.6208C186.59 67.6105 186.632 66.584 186.559 65.5631C186.437 64.1454 186.018 62.8037 185.098 61.7329C184.449 60.9767 183.596 60.4183 182.993 59.624C182.427 58.8786 182.109 57.9624 181.525 57.2332C179.909 55.211 175.764 53.6524 173.22 53.3813C170.306 53.0723 165.598 53.853 163.251 55.6583C162.382 56.3251 161.787 57.2847 161.182 58.1982C160.071 59.8951 158.806 61.5866 157.025 62.5353C156.35 62.8931 155.58 63.1642 155.132 63.7876C154.862 64.2103 154.686 64.691 154.615 65.1945C154.272 66.9611 154.093 68.7587 154.083 70.5616C154.044 71.3502 154.14 72.1398 154.367 72.8928C154.403 72.9958 154.447 73.1015 154.494 73.2018C154.535 73.2913 154.582 73.3807 154.631 73.4729L154.662 73.5298C154.974 73.9994 155.251 74.4933 155.492 75.0071C155.549 75.1519 155.59 75.3028 155.616 75.4571C155.66 75.8551 155.636 76.2582 155.544 76.6471C155.544 76.7067 155.523 76.7636 155.51 76.8206L155.487 76.9453C155.487 76.9832 155.487 77.0239 155.466 77.0618C155.445 77.1793 155.427 77.2958 155.412 77.4115C155.412 77.4928 155.396 77.5768 155.394 77.6609C155.375 77.9966 155.437 78.3319 155.572 78.6367C155.606 78.7094 155.647 78.7784 155.693 78.8427C155.786 78.9727 155.905 79.0792 156.043 79.1545C156.351 79.2758 156.672 79.356 156.999 79.393C157.966 79.6207 158.571 80.396 158.964 81.3474C159.051 81.561 159.128 81.779 159.194 82.0007C159.355 82.5568 159.476 83.125 159.556 83.7003C159.996 83.6759 160.252 83.2693 160.407 82.8247C160.455 82.6781 160.496 82.5288 160.528 82.3775C160.588 82.0928 160.647 81.8082 160.709 81.5236C161.73 83.7939 163.374 85.693 165.43 86.9775C165.503 87.1997 165.572 87.4247 165.637 87.6524C165.976 88.8804 166.139 90.1679 165.552 91.2414C165.133 92.0031 164.427 92.4747 163.641 92.8C163.528 92.6407 163.382 92.5101 163.215 92.4178C162.532 92.06 161.715 92.4964 161.146 93.0304C160.112 94.0117 159.269 95.4185 157.907 95.7411C157.415 95.8604 156.872 95.836 156.461 96.1504C156.191 96.4173 155.964 96.7297 155.792 97.0747C155.496 97.5193 155.099 97.8788 154.636 98.1204C154.174 98.3619 153.661 98.4777 153.144 98.4572C152.671 98.4328 152.11 98.3189 151.787 98.6822C151.546 98.9532 151.528 99.3842 151.27 99.6418C150.921 99.9996 150.355 99.8234 149.868 99.8017C149.517 99.8026 149.17 99.8786 148.848 100.025C148.525 100.171 148.235 100.385 147.994 100.653C147.963 99.5592 147.564 98.5122 146.867 97.6982C146.169 96.9446 145.199 96.557 144.372 95.9661C142.303 94.4915 141.269 91.9001 140.191 89.5255C139.113 87.151 137.691 84.6463 135.338 83.7816C134.798 83.581 134.045 83.5647 133.802 84.115C133.72 84.3447 133.706 84.5954 133.764 84.8333C133.991 86.0965 134.85 87.1103 135.592 88.1268C136.84 89.8399 137.887 91.9353 137.585 94.0767C137.231 96.6112 135.077 98.5792 134.819 101.124C134.705 102.247 134.976 103.374 134.974 104.502C134.974 105.207 134.868 105.92 135.012 106.605C135.166 107.127 135.348 107.638 135.558 108.137C135.791 108.956 135.911 109.806 135.915 110.661C136.097 114.253 136.279 117.847 136.46 121.441C136.597 124.122 136.039 126.768 135.475 129.405C134.776 130.968 134.234 132.604 133.857 134.284C133.221 137.22 133.203 140.348 134.115 143.205C134.604 144.758 135.354 146.214 135.754 147.794C135.754 147.829 135.77 147.862 135.778 147.895C135.817 148.231 135.86 148.567 135.92 148.9C135.993 149.285 136.089 149.666 136.207 150.039C136.324 150.681 136.515 151.306 136.776 151.901C137.138 152.656 137.671 153.307 138.327 153.798C137.955 154.563 137.352 155.178 136.952 155.926C136.253 157.222 136.225 158.813 136.478 160.282C136.967 163.118 138.428 165.652 140.357 167.712C140.27 167.707 140.184 167.707 140.098 167.712C139.467 167.785 138.861 168.013 138.33 168.376C134.247 170.878 131.913 176.237 132.766 181.144C132.934 182.103 133.226 183.074 133.836 183.803C134.344 184.383 134.997 184.803 135.721 185.015C136.173 185.157 136.638 185.248 137.109 185.286C140.292 185.557 143.374 184.009 146.564 183.879C147.622 183.861 148.68 183.913 149.731 184.033C151.267 184.167 152.806 184.252 154.349 184.288C156.854 184.35 158.266 183.651 159.866 181.686C160.26 181.198 160.588 180.656 160.841 180.076C162.201 179.994 163.703 179.87 164.792 179.775L164.807 179.935C164.867 180.477 164.957 181.1 165.371 181.445C165.604 181.611 165.869 181.723 166.146 181.775C168.76 182.45 171.405 183.131 174.094 183.131C175.357 183.103 176.617 183.001 177.869 182.824L182.6 182.252C183.977 182.438 185.336 182.748 186.662 183.179C188.027 183.667 189.304 184.391 190.638 184.96C193.741 186.28 197.081 186.752 200.388 187.213C200.952 187.292 201.598 187.346 202.017 186.942C202.555 186.4 202.374 185.492 202.224 184.733C202.162 184.424 202.115 184.109 202.076 183.795C204.309 184.41 206.492 185.205 208.607 186.172L208.98 186.343C209.086 186.934 209.608 187.408 210.107 188.045C210.271 188.313 210.462 188.561 210.678 188.785C210.924 188.955 211.205 189.062 211.498 189.097C214.992 189.779 218.56 189.948 222.098 189.598C222.822 189.495 223.554 189.469 224.283 189.52C224.818 189.596 225.346 189.721 225.86 189.894L228.854 190.791C231.059 191.455 233.322 192.125 235.61 191.976C236.075 191.944 236.536 191.874 236.99 191.767C238.8 191.328 240.489 190.265 241.357 188.557C242.523 186.234 241.957 183.38 241.293 180.843ZM153.475 138.445C153.383 139.62 153.091 140.769 152.612 141.836C152.291 142.517 151.877 143.143 151.577 143.826C151.293 144.444 151.081 145.612 150.954 146.894C150.799 146.867 150.642 146.843 150.486 146.824C150.716 145.978 150.89 145.111 151.12 144.262C151.665 142.245 152.563 140.34 153.475 138.445Z" fill="url(#paint0_linear)"/>
<path d="M157.459 180.135C156.914 178.834 156.396 177.338 156.942 176.037C157.298 175.271 157.91 174.668 158.661 174.343C159.405 174.025 160.189 173.822 160.988 173.741C163.497 173.396 166.036 173.359 168.553 173.632C168.737 175.156 168.349 176.701 168.016 178.173C167.713 179.528 167.54 179.729 166.206 179.799C165.342 179.848 157.663 180.615 157.459 180.135Z" fill="#FBBEBE"/>
<path d="M180.483 171.358C200.902 171.358 217.455 166.504 217.455 160.516C217.455 154.527 200.902 149.673 180.483 149.673C160.064 149.673 143.511 154.527 143.511 160.516C143.511 166.504 160.064 171.358 180.483 171.358Z" fill="#464353"/>
<path opacity="0.1" d="M180.483 171.358C200.902 171.358 217.455 166.504 217.455 160.516C217.455 154.527 200.902 149.673 180.483 149.673C160.064 149.673 143.511 154.527 143.511 160.516C143.511 166.504 160.064 171.358 180.483 171.358Z" fill="black"/>
<path d="M187.112 103.277C185.845 105.844 183.74 107.849 181.181 108.926C179.674 109.501 178.089 109.818 176.486 109.864C174.73 109.948 172.938 109.828 171.289 109.2C169.076 108.359 167.237 106.641 165.859 104.637C164.481 102.634 163.533 100.346 162.708 98.0397C162.273 96.8389 161.86 95.5594 162.064 94.2908C163.395 93.9737 164.854 93.5074 165.541 92.2686C166.128 91.2061 165.965 89.932 165.627 88.7177C165.531 88.3734 165.42 88.0319 165.309 87.7039C165.05 86.9178 164.158 85.4242 164.779 84.7519C165.174 84.3264 166.832 84.1095 167.403 83.833C169.164 82.9819 170.787 81.7512 172.721 81.3473C174.394 80.9977 176.121 81.3256 177.791 81.6889C178.013 81.7226 178.226 81.8029 178.417 81.9247C178.635 82.1175 178.797 82.3713 178.882 82.6566C179.358 83.871 179.637 85.2128 180.02 86.4786C180.418 87.8042 180.93 89.0484 181.889 89.989C182.636 90.7236 183.588 91.1844 184.519 91.6316L186.809 92.7322C187.217 92.8921 187.586 93.1427 187.893 93.4668C188.192 93.8985 188.371 94.4091 188.41 94.9414C188.82 97.7938 188.366 100.709 187.112 103.277Z" fill="#FBBEBE"/>
<path opacity="0.1" d="M180.01 86.4786C178.186 88.4673 175.785 89.7659 173.183 90.171C170.58 90.5762 167.923 90.0651 165.627 88.7177C165.531 88.3734 165.42 88.0318 165.309 87.7039C165.05 86.9178 164.158 85.4242 164.779 84.7519C165.174 84.3264 166.832 84.1095 167.403 83.833C169.164 82.9819 170.787 81.7512 172.721 81.3473C174.394 80.9977 176.121 81.3256 177.791 81.6889C178.013 81.7226 178.226 81.8029 178.417 81.9247C178.635 82.1175 178.797 82.3713 178.882 82.6566C179.348 83.871 179.627 85.2127 180.01 86.4786Z" fill="black"/>
<path d="M171.434 89.7668C178.002 89.7668 183.327 84.1842 183.327 77.2977C183.327 70.4112 178.002 64.8286 171.434 64.8286C164.865 64.8286 159.541 70.4112 159.541 77.2977C159.541 84.1842 164.865 89.7668 171.434 89.7668Z" fill="#FBBEBE"/>
<path d="M207.669 117.765L206.692 111.558C206.198 108.443 205.689 105.269 204.308 102.464C203.4 100.626 201.96 98.8746 200.019 98.5113C199.636 98.4756 199.26 98.3844 198.902 98.2403C198.333 97.9529 198.023 97.3078 197.586 96.8307C196.458 95.6055 194.623 95.5865 193.113 94.9631C191.779 94.4209 190.688 93.3773 189.473 92.5804C188.257 91.7834 186.745 91.225 185.4 91.7346C185.183 94.1607 184.953 96.641 183.971 98.8502C183.331 100.288 182.393 101.559 181.225 102.568C180.057 103.577 178.689 104.3 177.221 104.683C175.752 105.067 174.22 105.101 172.737 104.784C171.254 104.467 169.858 103.807 168.649 102.851C166.346 101.032 164.869 98.2267 164.182 95.2911C164.014 94.5754 163.822 93.7541 163.194 93.4261C162.514 93.0683 161.697 93.502 161.126 94.0279C160.079 95.001 159.246 96.3943 157.886 96.7223C157.395 96.8416 156.852 96.8172 156.443 97.1289C156.172 97.3916 155.945 97.7004 155.771 98.0424C155.474 98.4833 155.076 98.8395 154.614 99.079C154.152 99.3184 153.641 99.4336 153.126 99.414C152.653 99.3896 152.092 99.2758 151.769 99.6363C151.528 99.9073 151.51 100.33 151.252 100.582C150.903 100.937 150.337 100.764 149.851 100.745C148.93 100.704 148.074 101.322 147.547 102.1C147.019 102.878 146.771 103.841 146.513 104.773C149.339 111.371 151.924 117.977 154.75 124.575C154.882 124.823 154.953 125.103 154.954 125.388C154.898 125.683 154.777 125.961 154.603 126.201C153.217 128.535 153.261 131.47 153.413 134.214C153.566 136.957 153.752 139.855 152.583 142.313C152.265 142.988 151.852 143.606 151.549 144.281C150.841 145.81 150.585 150.7 150.998 152.343H209.43C208.315 149.131 208.739 142.685 208.972 139.275C209.135 136.889 208.714 134.506 208.533 132.121C208.152 127.25 208.437 122.628 207.669 117.765Z" fill="#0065C2"/>
<path d="M210.66 150.445C211.521 150.101 212.47 150.226 213.393 150.356C216.363 150.781 219.378 151.218 222.131 152.462C223.424 153.042 224.655 153.817 225.529 154.959C226.304 155.986 226.757 157.244 227.186 158.482L228.179 161.326C228.556 162.41 228.939 163.516 229.045 164.668C229.355 168.081 227.129 171.298 224.329 173.071C221.529 174.844 218.233 175.476 215.021 176.137C211.81 176.798 208.586 177.53 205.388 178.306C203.896 178.711 202.383 179.024 200.856 179.241C197.433 179.647 193.854 179.048 190.602 180.236C189.309 180.71 188.04 181.415 186.698 181.743C185.808 181.947 184.908 182.099 184.001 182.198L177.845 182.935C176.593 183.111 175.333 183.212 174.071 183.239C171.382 183.239 168.737 182.572 166.125 181.905C165.848 181.854 165.584 181.743 165.35 181.577C164.936 181.236 164.846 180.631 164.786 180.084C164.522 177.66 164.291 175.234 164.093 172.806C164.031 172.017 163.985 171.163 164.396 170.499C164.913 169.686 165.921 169.431 166.842 169.274C170.744 168.604 174.698 168.317 178.652 168.414C180.154 166.839 182.631 166.831 184.598 165.975C185.322 165.626 186.023 165.227 186.695 164.779C190.213 162.627 194.145 161.324 198.203 160.965C198.998 160.94 199.788 160.822 200.558 160.613C202.081 160.117 203.47 158.767 205.034 159.098C205.228 158.537 205.362 157.786 205.81 157.401C206.032 157.203 206.306 157.07 206.51 156.859C206.942 156.401 206.981 155.68 206.916 155.04C206.851 154.4 206.707 153.744 206.864 153.121C206.93 152.885 207.027 152.659 207.151 152.451C207.93 151.025 209.101 150.31 210.66 150.445Z" fill="#464353"/>
<path opacity="0.05" d="M210.66 150.445C211.521 150.101 212.47 150.226 213.393 150.356C216.363 150.781 219.378 151.218 222.131 152.462C223.424 153.042 224.655 153.817 225.529 154.959C226.304 155.986 226.757 157.244 227.186 158.482L228.179 161.326C228.556 162.41 228.939 163.516 229.045 164.668C229.355 168.081 227.129 171.298 224.329 173.071C221.529 174.844 218.233 175.476 215.021 176.137C211.81 176.798 208.586 177.53 205.388 178.306C203.896 178.711 202.383 179.024 200.856 179.241C197.433 179.647 193.854 179.048 190.602 180.236C189.309 180.71 188.04 181.415 186.698 181.743C185.808 181.947 184.908 182.099 184.001 182.198L177.845 182.935C176.593 183.111 175.333 183.212 174.071 183.239C171.382 183.239 168.737 182.572 166.125 181.905C165.848 181.854 165.584 181.743 165.35 181.577C164.936 181.236 164.846 180.631 164.786 180.084C164.522 177.66 164.291 175.234 164.093 172.806C164.031 172.017 163.985 171.163 164.396 170.499C164.913 169.686 165.921 169.431 166.842 169.274C170.744 168.604 174.698 168.317 178.652 168.414C180.154 166.839 182.631 166.831 184.598 165.975C185.322 165.626 186.023 165.227 186.695 164.779C190.213 162.627 194.145 161.324 198.203 160.965C198.998 160.94 199.788 160.822 200.558 160.613C202.081 160.117 203.47 158.767 205.034 159.098C205.228 158.537 205.362 157.786 205.81 157.401C206.032 157.203 206.306 157.07 206.51 156.859C206.942 156.401 206.981 155.68 206.916 155.04C206.851 154.4 206.707 153.744 206.864 153.121C206.93 152.885 207.027 152.659 207.151 152.451C207.93 151.025 209.101 150.31 210.66 150.445Z" fill="black"/>
<path d="M159.838 181.811C158.237 183.754 156.828 184.448 154.323 184.386C152.782 184.348 151.243 184.264 149.705 184.134C148.654 184.015 147.598 183.963 146.541 183.979C143.35 184.109 140.271 185.641 137.088 185.372C136.618 185.334 136.152 185.243 135.7 185.101C134.982 184.892 134.333 184.478 133.826 183.906C133.215 183.182 132.923 182.223 132.755 181.274C131.905 176.411 134.237 171.114 138.319 168.639C138.852 168.279 139.457 168.053 140.087 167.981C140.706 167.978 141.317 168.119 141.877 168.393L141.915 168.409C143.574 169.125 145.08 170.179 146.347 171.51C146.539 171.741 146.768 171.934 147.024 172.082C147.28 172.183 147.55 172.236 147.823 172.239L151.22 172.464C151.796 172.482 152.368 172.565 152.927 172.711C153.543 172.936 154.142 173.208 154.721 173.524C156.549 174.381 158.576 174.608 160.551 174.939C160.742 174.95 160.923 175.026 161.068 175.156C161.147 175.259 161.202 175.379 161.229 175.508C161.505 176.598 161.522 177.742 161.28 178.84C161.037 179.939 160.542 180.959 159.838 181.811Z" fill="#3F3D56"/>
<path opacity="0.1" d="M141.905 168.409C140.587 169.729 139.444 171.227 138.505 172.865C136.999 175.569 136.053 178.574 135.728 181.686C135.605 182.821 135.596 183.967 135.7 185.104C134.982 184.894 134.333 184.479 133.826 183.906C133.215 183.182 132.923 182.223 132.755 181.274C131.905 176.411 134.237 171.114 138.319 168.639C138.852 168.279 139.457 168.053 140.087 167.981C140.706 167.978 141.317 168.119 141.877 168.393L141.905 168.409Z" fill="black"/>
<path d="M207.702 175.15C209.603 175.096 211.736 174.996 213.132 176.338C214.463 177.606 214.639 179.699 214.727 181.583L214.828 183.77C214.859 184.437 214.885 185.126 214.629 185.744C214.174 186.828 212.925 187.351 211.785 187.289C210.645 187.226 209.598 186.703 208.556 186.232C205.727 184.954 202.782 183.981 199.765 183.328C199.863 181.816 200.027 180.311 200.256 178.813C200.414 177.774 200.44 176.037 201.102 175.175C201.802 174.264 202.715 174.757 203.667 174.925C205.002 175.139 206.353 175.214 207.702 175.15Z" fill="#FBBEBE"/>
<path d="M157.488 153.172C157.488 153.443 157.082 153.172 157.046 152.882C156.761 150.689 155.101 148.881 153.168 148.003C151.234 147.125 149.031 147.079 146.937 147.287C143.769 147.602 140.227 148.873 139.056 151.977C138.782 152.703 138.658 153.489 138.322 154.186C137.95 154.95 137.342 155.56 136.939 156.303C136.243 157.588 136.215 159.163 136.465 160.616C137.14 164.492 139.669 167.807 142.733 170.103C145.796 172.399 149.377 173.771 152.948 175.007C162.389 178.271 172.076 180.697 181.905 182.258C183.497 182.51 185.106 182.743 186.631 183.28C187.996 183.76 189.273 184.478 190.607 185.042C193.71 186.348 197.048 186.814 200.355 187.273C200.918 187.348 201.565 187.403 201.981 187.001C202.519 186.478 202.34 185.568 202.188 184.817C201.626 181.964 202.095 178.995 203.504 176.484C204.057 175.508 204.776 174.508 204.672 173.378C204.548 172.06 203.297 171.128 202.051 170.916C200.804 170.705 199.538 171.017 198.286 171.187C197.854 171.247 197.384 171.285 196.994 171.055C196.808 170.923 196.639 170.766 196.492 170.588C195.63 169.716 194.527 169.153 193.34 168.979C192.154 168.805 190.946 169.03 189.889 169.621C189.426 169.892 188.725 169.287 188.244 169.06L182.812 166.476C176.566 163.513 170.288 160.537 163.68 158.661C163.153 158.553 162.652 158.334 162.206 158.019C161.878 157.748 161.643 157.379 161.34 157.078C160.681 156.425 159.763 156.165 158.972 155.701C158.181 155.238 157.302 154.102 157.488 153.172Z" fill="#464353"/>
<path d="M241.306 188.598C240.437 190.287 238.751 191.339 236.941 191.772C236.487 191.88 236.025 191.949 235.561 191.978C233.273 192.127 231.013 191.463 228.807 190.807L225.814 189.918C225.299 189.748 224.771 189.625 224.236 189.55C223.508 189.499 222.777 189.525 222.054 189.628C218.516 189.973 214.949 189.806 211.454 189.129C211.162 189.096 210.881 188.991 210.634 188.823C210.418 188.601 210.227 188.355 210.063 188.089C209.249 187.061 208.372 186.462 209.336 185.107C209.892 184.321 210.924 183.928 211.356 183.025C211.787 182.122 211.511 180.84 211.255 179.908C210.906 178.62 209.758 178.064 209.347 176.883C209.039 175.991 209.556 174.955 210.334 174.47C211.113 173.985 212.074 173.947 212.972 174.072C213.869 174.196 214.748 174.462 215.65 174.535C218.303 174.757 221.015 173.323 223.562 174.131C224.123 174.31 224.653 174.595 225.221 174.752C226.33 175.012 227.489 174.907 228.539 174.451C228.911 174.305 229.275 174.129 229.637 173.955C230.335 173.574 231.079 173.292 231.848 173.117C234.333 172.67 236.636 174.473 238.511 176.232C239.154 176.792 239.724 177.439 240.204 178.157C240.721 179.002 240.995 179.986 241.238 180.957C241.923 183.47 242.49 186.294 241.306 188.598Z" fill="#3F3D56"/>
<path opacity="0.1" d="M241.305 188.598C240.437 190.287 238.751 191.339 236.941 191.772C237.645 190.338 237.962 188.73 237.859 187.121C237.704 184.543 236.623 182.114 235.245 179.973C234.397 178.655 233.433 177.423 232.365 176.294C231.543 175.427 230.532 174.739 229.647 173.944C230.346 173.563 231.089 173.282 231.858 173.107C234.343 172.659 236.646 174.462 238.521 176.221C239.164 176.781 239.734 177.428 240.214 178.146C240.731 178.992 241.005 179.976 241.248 180.946C241.923 183.47 242.489 186.294 241.305 188.598Z" fill="black"/>
<path d="M163.217 57.0597C162.348 57.7184 161.754 58.6644 161.149 59.5725C160.034 61.2504 158.773 62.9256 156.991 63.8608C156.317 64.2159 155.546 64.4843 155.099 65.1023C154.833 65.5203 154.661 65.9955 154.595 66.4929C154.253 68.2416 154.075 70.0209 154.062 71.8058C154.062 72.6949 154.098 73.6111 154.473 74.4189C154.827 75.1779 155.466 75.8203 155.598 76.6471C155.699 77.2922 155.471 77.9346 155.391 78.5825C155.311 79.2304 155.45 79.9975 156.022 80.3065C156.33 80.4279 156.651 80.5072 156.978 80.5423C158.698 80.9435 159.274 83.0578 159.535 84.8062C160.12 84.771 160.383 84.0689 160.505 83.497L162.297 75.1454C162.491 74.24 162.814 73.191 163.675 72.8738C164.251 72.6651 164.882 72.8603 165.485 72.9145C167.85 73.1178 169.851 71.2013 172.165 70.6727C172.906 70.5169 173.663 70.465 174.417 70.5182C176.243 70.6131 178.365 71.3992 178.753 73.1855C178.818 73.4756 178.856 73.8225 179.115 73.9662C179.374 74.1099 179.632 73.9879 179.917 73.9662C181.075 73.8442 181.757 75.2104 182.091 76.3272L183.306 80.3932C183.487 81.0086 183.792 81.7323 184.428 81.8109C185.015 81.8868 185.514 81.304 185.602 80.7266C185.69 80.1493 185.498 79.5502 185.372 78.9701C184.8 76.3001 185.674 73.5677 186.207 70.8923C186.74 68.2169 186.835 65.143 185.049 63.0828C184.4 62.3374 183.546 61.7817 182.941 60.9956C182.378 60.2583 182.06 59.353 181.476 58.6292C179.86 56.6314 175.715 55.0891 173.174 54.8342C170.281 54.5008 165.565 55.2734 163.217 57.0597Z" fill="#3F3D56"/>
<g opacity="0.1">
<path opacity="0.1" d="M184.438 79.9108C183.802 79.8295 183.497 79.0976 183.316 78.4931C182.911 77.136 182.506 75.7806 182.101 74.4271C181.768 73.3076 181.085 71.9414 179.927 72.0661C179.668 72.0959 179.363 72.207 179.125 72.0661C178.887 71.9251 178.828 71.5755 178.763 71.2854C178.376 69.4964 176.253 68.713 174.428 68.6181C173.674 68.5662 172.917 68.6182 172.176 68.7726C169.849 69.3148 167.861 71.2122 165.495 71.0143C164.885 70.9628 164.254 70.7677 163.685 70.9764C162.814 71.2908 162.501 72.3317 162.307 73.2479L160.515 81.5968C160.394 82.1715 160.13 82.8736 159.546 82.9061C159.287 81.1604 158.708 79.0461 156.989 78.6449C156.662 78.6072 156.341 78.528 156.032 78.4091C155.807 78.2803 155.631 78.0746 155.533 77.8263C155.487 78.0784 155.432 78.3305 155.401 78.5826C155.324 79.2277 155.461 79.9975 156.032 80.3065C156.34 80.428 156.661 80.5072 156.989 80.5424C158.708 80.9436 159.285 83.0579 159.546 84.8063C160.13 84.771 160.394 84.069 160.515 83.497L162.307 75.1454C162.501 74.2401 162.824 73.191 163.685 72.8739C164.262 72.6652 164.892 72.8603 165.495 72.9145C167.861 73.1178 169.862 71.2014 172.176 70.6728C172.913 70.5179 173.667 70.466 174.417 70.5183C176.243 70.6132 178.365 71.3993 178.753 73.1856C178.818 73.4756 178.856 73.8226 179.115 73.9663C179.374 74.1099 179.632 73.988 179.916 73.9663C181.075 73.8443 181.757 75.2105 182.091 76.3273C182.494 77.6844 182.899 79.0398 183.306 80.3933C183.487 81.0086 183.792 81.7324 184.428 81.811C185.015 81.8869 185.514 81.3041 185.602 80.7267C185.642 80.2409 185.589 79.7516 185.447 79.2873C185.355 79.4829 185.21 79.6461 185.031 79.7568C184.852 79.8676 184.646 79.9211 184.438 79.9108Z" fill="black"/>
<path opacity="0.1" d="M155.6 74.7496C155.468 73.9228 154.825 73.2804 154.476 72.5214C154.251 72.0095 154.121 71.4576 154.093 70.895C154.093 71.1986 154.067 71.5022 154.064 71.8085C154.064 72.6976 154.101 73.6138 154.476 74.4216C154.763 75.0369 155.236 75.5791 155.474 76.2052C155.599 75.732 155.642 75.2388 155.6 74.7496Z" fill="black"/>
<path opacity="0.1" d="M186.217 68.9813C185.747 71.345 185.012 73.7521 185.24 76.1212C185.387 74.3729 185.873 72.6136 186.217 70.8788C186.504 69.5623 186.605 68.2088 186.517 66.8616C186.461 67.5742 186.361 68.2823 186.217 68.9813Z" fill="black"/>
</g>
<path d="M156.619 129.747C156.306 135.13 152.539 139.578 151.104 144.756C150.747 146.051 150.533 147.396 150.021 148.629C148.987 151.11 146.859 152.909 144.591 154.178C143.764 154.679 142.859 155.024 141.918 155.197C140.883 155.324 139.836 155.117 138.917 154.604C137.997 154.091 137.248 153.297 136.77 152.327C136.178 151.066 136.096 149.616 135.736 148.261C135.335 146.697 134.586 145.254 134.097 143.718C133.197 140.89 133.215 137.795 133.838 134.889C134.429 132.362 135.363 129.937 136.613 127.689C136.794 127.356 136.977 127.025 137.166 126.697C137.699 125.749 138.298 124.843 138.958 123.986C140.509 122.027 142.502 120.52 144.475 119.034C144.626 118.904 144.802 118.811 144.992 118.763H145.023C145.246 118.755 145.466 118.809 145.662 118.92C148.398 120.16 151.023 121.652 153.509 123.377C154.398 123.997 155.802 124.691 156.267 125.748C156.733 126.806 156.686 128.597 156.619 129.747Z" fill="#FBBEBE"/>
<path d="M146.355 104.974C146.103 105.25 145.908 105.578 145.781 105.936C143.691 110.874 142.457 116.163 142.135 121.555C142.141 121.818 142.083 122.078 141.967 122.311C141.853 122.466 141.726 122.611 141.587 122.742C141.461 122.899 141.368 123.08 141.311 123.276C141.255 123.472 141.238 123.678 141.261 123.882C141.284 124.085 141.346 124.281 141.444 124.458C141.542 124.635 141.673 124.789 141.83 124.911C142.257 124.068 143.278 123.794 144.186 123.721C148.532 123.36 152.777 125.48 157.136 125.32C156.829 124.206 156.386 123.135 156.136 122.008C155.027 117.001 157.793 111.55 156.097 106.728C155.758 105.763 155.192 104.814 154.3 104.391C153.931 104.235 153.544 104.127 153.149 104.071C152.048 103.862 149.856 102.971 148.79 103.328C148.397 103.461 148.242 103.849 147.917 104.082C147.433 104.415 146.776 104.532 146.355 104.974Z" fill="#0065C2"/>
<path opacity="0.1" d="M148.136 149.795C147.471 150.977 146.527 151.96 145.395 152.649C144.263 153.337 142.981 153.709 141.672 153.728C140.964 153.747 140.259 153.612 139.604 153.33C137.952 152.565 137.019 150.673 136.672 148.814C136.326 146.954 136.434 145.035 136.189 143.156C135.992 141.66 135.573 140.207 135.356 138.714C134.823 135.019 135.873 131.37 136.62 127.692C136.801 127.358 136.985 127.028 137.174 126.7C137.707 125.752 138.306 124.846 138.965 123.989C140.517 122.029 142.51 120.522 144.483 119.037H142.414C142.464 118.998 142.523 118.974 142.585 118.967C142.646 118.96 142.709 118.97 142.766 118.996C142.822 119.022 142.872 119.064 142.908 119.116C142.945 119.168 142.968 119.23 142.975 119.294C143.18 121.192 145.731 123.089 146.287 124.932C146.631 126.066 147.045 127.177 147.322 128.332C147.54 129.315 147.705 130.311 147.818 131.313C148.185 134.12 148.55 136.921 148.914 139.716C149.372 143.129 149.765 146.818 148.136 149.795Z" fill="black"/>
<path d="M144.713 114.203L147.208 105.998C147.58 104.77 147.958 103.523 148.002 102.233C148.046 100.943 147.722 99.5902 146.861 98.6686C146.163 97.9232 145.196 97.5382 144.369 96.9554C142.301 95.4944 141.267 92.9355 140.188 90.5799C139.11 88.2244 137.691 85.7603 135.338 84.8875C134.795 84.6869 134.045 84.6707 133.802 85.2155C133.718 85.442 133.705 85.6906 133.764 85.9257C133.991 87.178 134.847 88.1783 135.591 89.1785C136.84 90.8727 137.885 92.9464 137.585 95.0661C137.228 97.5762 135.077 99.5225 134.818 102.046C134.705 103.157 134.976 104.272 134.974 105.391C134.974 106.085 134.865 106.792 135.012 107.47C135.165 107.994 135.347 108.508 135.558 109.01C135.788 109.82 135.908 110.661 135.915 111.506L136.46 122.176C136.755 127.947 133.769 133.56 134.591 139.253C134.808 140.746 135.227 142.199 135.423 143.696C135.682 145.574 135.56 147.491 135.907 149.353C136.253 151.215 137.2 153.104 138.839 153.869C139.494 154.151 140.199 154.287 140.907 154.267C142.216 154.249 143.498 153.877 144.63 153.188C145.762 152.499 146.706 151.516 147.371 150.334C149 147.352 148.607 143.669 148.162 140.269L147.066 131.866C146.953 130.863 146.787 129.868 146.569 128.885C146.295 127.73 145.882 126.618 145.535 125.485C144.426 121.78 143.596 117.885 144.713 114.203Z" fill="#FBBEBE"/>
<path d="M211.128 114.841H157.594C156.456 114.841 155.533 115.808 155.533 117.001V151.172C155.533 152.365 156.456 153.332 157.594 153.332H211.128C212.266 153.332 213.189 152.365 213.189 151.172V117.001C213.189 115.808 212.266 114.841 211.128 114.841Z" fill="#3F3D56"/>
<path opacity="0.2" d="M211.128 114.841H157.594C156.456 114.841 155.533 115.808 155.533 117.001V151.172C155.533 152.365 156.456 153.332 157.594 153.332H211.128C212.266 153.332 213.189 152.365 213.189 151.172V117.001C213.189 115.808 212.266 114.841 211.128 114.841Z" fill="black"/>
<path d="M184.231 135.713C185.088 135.713 185.783 134.985 185.783 134.086C185.783 133.188 185.088 132.46 184.231 132.46C183.375 132.46 182.68 133.188 182.68 134.086C182.68 134.985 183.375 135.713 184.231 135.713Z" fill="white"/>
<path d="M116.2 165.622H119.331C121.046 165.622 122.69 166.336 123.902 167.607C125.114 168.878 125.795 170.602 125.795 172.399V182.458H109.737V172.399C109.737 170.602 110.418 168.878 111.63 167.607C112.842 166.336 114.486 165.622 116.2 165.622Z" fill="#3F3D56"/>
<path opacity="0.1" d="M116.2 165.622H119.331C121.046 165.622 122.69 166.336 123.902 167.607C125.114 168.878 125.795 170.602 125.795 172.399V182.458H109.737V172.399C109.737 170.602 110.418 168.878 111.63 167.607C112.842 166.336 114.486 165.622 116.2 165.622Z" fill="black"/>
<path d="M117.126 169.328C117.836 169.328 118.411 168.725 118.411 167.981C118.411 167.237 117.836 166.634 117.126 166.634C116.417 166.634 115.841 167.237 115.841 167.981C115.841 168.725 116.417 169.328 117.126 169.328Z" fill="#3F3D56"/>
<path d="M117.126 167.645C117.836 167.645 118.411 167.041 118.411 166.297C118.411 165.553 117.836 164.95 117.126 164.95C116.417 164.95 115.841 165.553 115.841 166.297C115.841 167.041 116.417 167.645 117.126 167.645Z" fill="#3F3D56"/>
<path d="M117.126 165.961C117.836 165.961 118.411 165.358 118.411 164.614C118.411 163.87 117.836 163.267 117.126 163.267C116.417 163.267 115.841 163.87 115.841 164.614C115.841 165.358 116.417 165.961 117.126 165.961Z" fill="#3F3D56"/>
<path d="M117.126 164.278C117.836 164.278 118.411 163.675 118.411 162.931C118.411 162.187 117.836 161.583 117.126 161.583C116.417 161.583 115.841 162.187 115.841 162.931C115.841 163.675 116.417 164.278 117.126 164.278Z" fill="#3F3D56"/>
<path d="M117.126 162.595C117.836 162.595 118.411 161.991 118.411 161.247C118.411 160.503 117.836 159.9 117.126 159.9C116.417 159.9 115.841 160.503 115.841 161.247C115.841 161.991 116.417 162.595 117.126 162.595Z" fill="#3F3D56"/>
<path d="M117.126 160.911C117.836 160.911 118.411 160.308 118.411 159.564C118.411 158.82 117.836 158.217 117.126 158.217C116.417 158.217 115.841 158.82 115.841 159.564C115.841 160.308 116.417 160.911 117.126 160.911Z" fill="#3F3D56"/>
<path d="M117.126 159.228C117.836 159.228 118.411 158.625 118.411 157.881C118.411 157.137 117.836 156.533 117.126 156.533C116.417 156.533 115.841 157.137 115.841 157.881C115.841 158.625 116.417 159.228 117.126 159.228Z" fill="#3F3D56"/>
<path d="M119.053 159.9C119.762 159.9 120.338 159.297 120.338 158.553C120.338 157.809 119.762 157.206 119.053 157.206C118.343 157.206 117.768 157.809 117.768 158.553C117.768 159.297 118.343 159.9 119.053 159.9Z" fill="#3F3D56"/>
<path d="M120.337 159.228C121.047 159.228 121.622 158.625 121.622 157.881C121.622 157.137 121.047 156.533 120.337 156.533C119.628 156.533 119.052 157.137 119.052 157.881C119.052 158.625 119.628 159.228 120.337 159.228Z" fill="#3F3D56"/>
<path d="M121.622 158.553C122.332 158.553 122.907 157.95 122.907 157.206C122.907 156.462 122.332 155.858 121.622 155.858C120.913 155.858 120.337 156.462 120.337 157.206C120.337 157.95 120.913 158.553 121.622 158.553Z" fill="#3F3D56"/>
<path d="M117.126 157.542C117.836 157.542 118.411 156.939 118.411 156.195C118.411 155.451 117.836 154.847 117.126 154.847C116.417 154.847 115.841 155.451 115.841 156.195C115.841 156.939 116.417 157.542 117.126 157.542Z" fill="#3F3D56"/>
<path d="M117.126 155.858C117.836 155.858 118.411 155.255 118.411 154.511C118.411 153.767 117.836 153.164 117.126 153.164C116.417 153.164 115.841 153.767 115.841 154.511C115.841 155.255 116.417 155.858 117.126 155.858Z" fill="#3F3D56"/>
<path d="M117.126 154.175C117.836 154.175 118.411 153.572 118.411 152.828C118.411 152.084 117.836 151.481 117.126 151.481C116.417 151.481 115.841 152.084 115.841 152.828C115.841 153.572 116.417 154.175 117.126 154.175Z" fill="#3F3D56"/>
<path d="M117.126 152.492C117.836 152.492 118.411 151.889 118.411 151.145C118.411 150.401 117.836 149.797 117.126 149.797C116.417 149.797 115.841 150.401 115.841 151.145C115.841 151.889 116.417 152.492 117.126 152.492Z" fill="#3F3D56"/>
<path d="M122.449 146.8C122.131 146.848 121.811 146.884 121.49 146.905C121.788 146.633 122.065 146.335 122.318 146.016C122.139 145.45 121.877 144.917 121.542 144.436C121.224 144.623 120.871 144.74 120.508 144.777C120.19 144.826 119.869 144.864 119.549 144.886C119.979 144.456 120.389 144.004 120.777 143.53C119.847 142.654 118.659 142.139 117.41 142.071C116.162 142.003 114.929 142.387 113.918 143.159C112.908 143.93 112.18 145.042 111.858 146.308C111.535 147.575 111.638 148.919 112.148 150.116C112.657 151.312 113.544 152.289 114.659 152.883C115.773 153.476 117.048 153.65 118.271 153.376C119.493 153.101 120.589 152.395 121.374 151.375C122.159 150.355 122.586 149.083 122.584 147.773C122.584 147.443 122.556 147.113 122.501 146.789L122.449 146.8Z" fill="#C7E87C"/>
<path d="M126.744 153.492C126.416 153.703 126.046 153.833 125.663 153.872C125.345 153.92 125.025 153.956 124.704 153.977C125.045 153.657 125.363 153.311 125.656 152.942C124.881 152.73 124.059 152.829 123.35 153.219C122.641 153.609 122.096 154.262 121.822 155.051C121.548 155.84 121.565 156.707 121.868 157.484C122.172 158.26 122.741 158.891 123.464 159.251C124.187 159.611 125.013 159.675 125.779 159.431C126.545 159.188 127.197 158.653 127.607 157.932C128.017 157.211 128.156 156.356 127.996 155.533C127.837 154.71 127.39 153.98 126.744 153.484V153.492Z" fill="#C7E87C"/>
<path d="M115.198 159.9C115.907 159.9 116.483 159.297 116.483 158.553C116.483 157.809 115.907 157.206 115.198 157.206C114.488 157.206 113.913 157.809 113.913 158.553C113.913 159.297 114.488 159.9 115.198 159.9Z" fill="#3F3D56"/>
<path d="M113.912 159.228C114.622 159.228 115.197 158.625 115.197 157.881C115.197 157.137 114.622 156.533 113.912 156.533C113.203 156.533 112.627 157.137 112.627 157.881C112.627 158.625 113.203 159.228 113.912 159.228Z" fill="#3F3D56"/>
<path d="M112.627 158.553C113.337 158.553 113.912 157.95 113.912 157.206C113.912 156.462 113.337 155.858 112.627 155.858C111.918 155.858 111.342 156.462 111.342 157.206C111.342 157.95 111.918 158.553 112.627 158.553Z" fill="#3F3D56"/>
<path d="M107.506 153.492C107.834 153.703 108.203 153.833 108.587 153.872C108.905 153.92 109.225 153.956 109.546 153.977C109.204 153.658 108.886 153.311 108.594 152.942C109.369 152.73 110.191 152.829 110.9 153.219C111.609 153.609 112.154 154.262 112.428 155.051C112.702 155.84 112.685 156.707 112.382 157.484C112.078 158.26 111.509 158.891 110.786 159.251C110.063 159.611 109.237 159.675 108.471 159.431C107.705 159.188 107.053 158.653 106.643 157.932C106.233 157.211 106.094 156.356 106.254 155.533C106.413 154.71 106.86 153.98 107.506 153.484V153.492Z" fill="#C7E87C"/>
<path d="M116.2 166.634H119.331C121.046 166.634 122.69 167.348 123.902 168.618C125.114 169.889 125.795 171.613 125.795 173.41V182.32C125.795 182.625 125.68 182.917 125.474 183.133C125.268 183.348 124.99 183.47 124.699 183.47H110.833C110.542 183.47 110.263 183.348 110.058 183.133C109.852 182.917 109.737 182.625 109.737 182.32V173.41C109.737 171.613 110.418 169.889 111.63 168.618C112.842 167.348 114.486 166.634 116.2 166.634Z" fill="#3F3D56"/>
<g opacity="0.1">
<path opacity="0.1" d="M122.548 147.168C122.418 147.314 122.28 147.451 122.134 147.58C122.282 147.58 122.426 147.556 122.574 147.54C122.569 147.415 122.561 147.29 122.548 147.168Z" fill="black"/>
<path opacity="0.1" d="M120.206 145.558C120.529 145.536 120.847 145.501 121.167 145.452C121.455 145.414 121.736 145.334 122.002 145.214C121.872 144.943 121.721 144.683 121.553 144.436C121.392 144.538 121.218 144.616 121.036 144.666C120.782 144.986 120.504 145.284 120.206 145.558Z" fill="black"/>
<path opacity="0.1" d="M112.307 148.45C112.305 147.423 112.568 146.413 113.067 145.529C113.566 144.644 114.283 143.918 115.144 143.425C116.004 142.932 116.975 142.691 117.954 142.729C118.934 142.766 119.886 143.079 120.71 143.636L120.793 143.544C120.255 143.042 119.628 142.657 118.947 142.411C118.267 142.164 117.547 142.062 116.829 142.108C116.11 142.155 115.408 142.35 114.762 142.683C114.116 143.016 113.539 143.479 113.064 144.046C112.59 144.614 112.227 145.274 111.997 145.989C111.767 146.704 111.674 147.46 111.724 148.212C111.774 148.965 111.965 149.7 112.287 150.375C112.609 151.05 113.055 151.652 113.6 152.145C112.764 151.114 112.305 149.804 112.307 148.45Z" fill="black"/>
</g>
<g opacity="0.1">
<path opacity="0.1" d="M124.704 154.649C125.025 154.628 125.345 154.593 125.663 154.544C126.047 154.506 126.416 154.376 126.744 154.164C127.107 154.445 127.41 154.802 127.632 155.213C127.855 155.624 127.993 156.079 128.037 156.55C128.049 156.432 128.055 156.313 128.055 156.195C128.057 155.668 127.942 155.148 127.717 154.678C127.492 154.207 127.165 153.798 126.762 153.484C126.434 153.695 126.064 153.824 125.681 153.863L125.423 153.896C125.202 154.166 124.962 154.418 124.704 154.649Z" fill="black"/>
<path opacity="0.1" d="M124.833 153.5C124.94 153.501 125.048 153.51 125.154 153.525C125.322 153.337 125.487 153.137 125.655 152.942C125.18 152.809 124.682 152.792 124.199 152.893C123.717 152.994 123.263 153.21 122.873 153.525C122.483 153.839 122.168 154.244 121.951 154.707C121.734 155.17 121.621 155.679 121.622 156.195C121.622 156.308 121.622 156.42 121.638 156.531C121.717 155.7 122.088 154.93 122.679 154.37C123.269 153.81 124.037 153.5 124.833 153.5Z" fill="black"/>
</g>
<g opacity="0.1">
<path opacity="0.1" d="M109.546 154.649C109.225 154.628 108.904 154.593 108.586 154.544C108.203 154.506 107.833 154.376 107.506 154.164C107.143 154.445 106.84 154.802 106.617 155.213C106.395 155.624 106.257 156.079 106.213 156.55C106.2 156.432 106.194 156.313 106.195 156.195C106.192 155.668 106.308 155.148 106.533 154.678C106.757 154.207 107.084 153.798 107.488 153.484C107.816 153.695 108.185 153.825 108.568 153.863L108.827 153.896C109.046 154.168 109.287 154.42 109.546 154.649Z" fill="black"/>
<path opacity="0.1" d="M109.416 153.5C109.308 153.501 109.2 153.51 109.093 153.525C108.928 153.337 108.762 153.137 108.594 152.942C109.07 152.809 109.568 152.792 110.05 152.893C110.533 152.994 110.986 153.21 111.376 153.525C111.766 153.839 112.082 154.244 112.299 154.707C112.516 155.17 112.628 155.679 112.628 156.195C112.628 156.308 112.628 156.42 112.612 156.531C112.533 155.7 112.162 154.93 111.571 154.37C110.981 153.81 110.213 153.5 109.416 153.5Z" fill="black"/>
</g>
<path d="M99.3097 48.6973H40.8784V72.5512H99.3097V48.6973Z" fill="#F4BE0B"/>
<path d="M133.696 48.6973H43.981C42.2675 48.6973 40.8784 50.1536 40.8784 51.9501V69.2984C40.8784 71.0949 42.2675 72.5512 43.981 72.5512H133.696C135.41 72.5512 136.799 71.0949 136.799 69.2984V51.9501C136.799 50.1536 135.41 48.6973 133.696 48.6973Z" stroke="#3F3D56" stroke-width="3" stroke-miterlimit="10"/>
<path d="M93.4306 59.3476C93.2416 58.3499 92.7615 57.4384 92.0567 56.7393C91.3519 56.0402 90.4572 55.588 89.4966 55.4454C88.5359 55.3028 87.5567 55.4768 86.6945 55.9433C85.8323 56.4098 85.1297 57.1457 84.684 58.0492C83.7293 58.1548 82.8498 58.6409 82.2271 59.407C81.6045 60.1731 81.2864 61.1607 81.3385 62.1657C81.3906 63.1707 81.809 64.1163 82.5072 64.8071C83.2053 65.4979 84.1299 65.8812 85.0899 65.8776H93.2134C94.0433 65.8755 94.8385 65.5279 95.4241 64.9114C96.0098 64.2948 96.338 63.4597 96.3366 62.5896C96.3399 61.762 96.0404 60.9645 95.4998 60.3614C94.9592 59.7583 94.2187 59.3955 93.4306 59.3476ZM89.8394 61.2803V63.7687H87.8382V61.2803H85.7156L88.8388 58.0031L91.962 61.2803H89.8394Z" fill="white"/>
<defs>
<linearGradient id="paint0_linear" x1="187.298" y1="191.997" x2="187.298" y2="53.3054" gradientUnits="userSpaceOnUse">
<stop stop-color="#808080" stop-opacity="0.25"/>
<stop offset="0.54" stop-color="#808080" stop-opacity="0.12"/>
<stop offset="1" stop-color="#808080" stop-opacity="0.1"/>
</linearGradient>
</defs>
</svg>
