<svg width="605" height="505" viewBox="0 0 605 505" fill="none" xmlns="http://www.w3.org/2000/svg">
<path opacity="0.1" d="M365.986 505C400.138 505 427.824 500.243 427.824 494.376C427.824 488.508 400.138 483.751 365.986 483.751C331.834 483.751 304.148 488.508 304.148 494.376C304.148 500.243 331.834 505 365.986 505Z" fill="#0D7BE5"/>
<g style="mix-blend-mode:darken" opacity="0.1">
<path d="M363.391 62.4484C338.075 84.4678 305.23 83.0449 276.479 71.5906C247.729 60.1362 221.245 39.7354 193.211 25.2395C170.265 13.2682 145.548 5.26539 120.057 1.55414C84.327 -3.52681 44.4162 2.66282 19.5167 38.2591C-8.21037 77.8988 -6.07663 149.394 23.9114 185.802C39.1657 204.312 59.1384 213.395 76.5611 227.849C93.9838 242.303 110.1 266.297 108.619 294.192C107.249 320.017 91.2718 339.843 74.757 352.294C61.9834 361.898 46.255 372.392 44.6879 392.295C43.1961 411.552 56.4206 426.64 69.0554 435.225C110.25 463.221 160.997 462.948 202.053 434.52C216.7 424.376 230.156 410.888 245.514 402.979C285.83 382.228 330.263 403.115 372.949 410.757C409.084 417.225 446.138 413.876 481.342 400.957C502.483 393.202 523.705 381.345 538.56 359.254C549.269 343.323 555.942 323.16 562.204 303.251C568.889 282.018 575.311 260.637 581.472 239.108C585.167 226.183 588.81 213.021 589.764 199.183C591.499 174.123 584.201 149.382 574.273 128.204C550.72 77.9521 511.012 42.6464 468.031 33.6762C425.049 24.706 379.506 42.2254 346.153 80.5549" fill="#0D7BE5"/>
</g>
<g opacity="0.35">
<path opacity="0.2" d="M289.698 120.97V117.028H229.097C226.31 117.028 228.01 120.994 228.01 120.994H195.084V209.422H339.647V120.97H289.698Z" fill="#0D7BE5"/>
</g>
<path d="M481.919 186.928C481.919 186.928 500.14 153.834 527.601 144.3C539.136 140.376 549.117 132.72 556.045 122.482C559.299 117.599 562.107 112.419 564.436 107.008" stroke="#535461" stroke-width="2" stroke-miterlimit="10"/>
<path d="M581.668 100.89C578.545 104.002 563.985 107.222 563.985 107.222C563.985 107.222 567.553 92.3997 570.681 89.2812C572.182 87.7874 574.201 86.9664 576.293 86.9986C578.385 87.0308 580.379 87.9138 581.835 89.4532C583.292 90.9925 584.093 93.0623 584.062 95.2071C584.03 97.3518 583.169 99.3959 581.668 100.89Z" fill="#0D7BE5"/>
<path d="M573.433 127.7C569.16 128.571 555.23 123.158 555.23 123.158C555.23 123.158 566.089 112.706 570.363 111.834C571.379 111.628 572.425 111.628 573.44 111.836C574.456 112.043 575.422 112.454 576.283 113.045C577.144 113.635 577.883 114.394 578.459 115.277C579.034 116.16 579.433 117.151 579.635 118.193C579.837 119.235 579.836 120.307 579.634 121.348C579.431 122.39 579.03 123.38 578.455 124.263C577.879 125.146 577.139 125.904 576.277 126.493C575.416 127.083 574.449 127.493 573.433 127.7Z" fill="#0D7BE5"/>
<path d="M543.44 156.751C539.322 155.292 529.966 143.411 529.966 143.411C529.966 143.411 544.486 140.002 548.603 141.466C549.582 141.814 550.485 142.356 551.259 143.061C552.034 143.766 552.665 144.621 553.118 145.576C553.57 146.532 553.834 147.569 553.896 148.63C553.957 149.69 553.814 150.752 553.475 151.756C553.136 152.759 552.608 153.684 551.92 154.479C551.232 155.273 550.398 155.92 549.466 156.384C548.534 156.848 547.523 157.119 546.489 157.182C545.454 157.245 544.418 157.098 543.44 156.751Z" fill="#0D7BE5"/>
<path d="M515.921 173.476C511.624 172.758 500.441 162.679 500.441 162.679C500.441 162.679 514.192 156.81 518.494 157.533C519.516 157.706 520.495 158.084 521.375 158.645C522.254 159.206 523.017 159.94 523.621 160.803C524.224 161.667 524.655 162.644 524.891 163.678C525.126 164.713 525.16 165.784 524.991 166.832C524.822 167.88 524.453 168.884 523.906 169.786C523.359 170.688 522.643 171.47 521.801 172.089C520.959 172.707 520.006 173.15 518.997 173.391C517.988 173.632 516.943 173.667 515.921 173.493V173.476Z" fill="#0D7BE5"/>
<path d="M543.087 111.591C543.087 116.061 550.968 129.016 550.968 129.016C550.968 129.016 558.867 116.067 558.867 111.597C558.896 110.516 558.713 109.441 558.329 108.433C557.946 107.426 557.369 106.508 556.633 105.734C555.898 104.959 555.018 104.343 554.047 103.922C553.075 103.502 552.032 103.285 550.977 103.285C549.923 103.285 548.879 103.502 547.907 103.922C546.936 104.343 546.056 104.959 545.321 105.734C544.585 106.508 544.009 107.426 543.625 108.433C543.241 109.441 543.058 110.516 543.087 111.597V111.591Z" fill="#0D7BE5"/>
<path d="M511.15 131.571C512.451 135.834 523.756 145.8 523.756 145.8C523.756 145.8 527.509 131.02 526.208 126.757C525.938 125.697 525.462 124.704 524.807 123.839C524.152 122.974 523.333 122.254 522.399 121.723C521.464 121.192 520.435 120.861 519.372 120.75C518.309 120.64 517.235 120.752 516.216 121.079C515.197 121.407 514.253 121.943 513.442 122.656C512.631 123.369 511.97 124.243 511.498 125.226C511.027 126.209 510.755 127.28 510.699 128.373C510.643 129.467 510.804 130.561 511.173 131.589L511.15 131.571Z" fill="#0D7BE5"/>
<path d="M482.7 155.357C483.278 159.786 492.785 171.549 492.785 171.549C492.785 171.549 498.92 157.634 498.342 153.205C498.267 152.101 497.973 151.024 497.476 150.041C496.98 149.058 496.292 148.19 495.456 147.491C494.619 146.792 493.651 146.275 492.612 145.975C491.574 145.674 490.485 145.595 489.416 145.742C488.346 145.89 487.317 146.261 486.392 146.832C485.468 147.403 484.667 148.163 484.041 149.064C483.414 149.966 482.974 150.989 482.749 152.071C482.523 153.154 482.516 154.272 482.729 155.357H482.7Z" fill="#0D7BE5"/>
<path opacity="0.25" d="M581.668 100.89C578.545 104.002 563.985 107.222 563.985 107.222C563.985 107.222 567.553 92.3997 570.681 89.2812C572.182 87.7874 574.201 86.9664 576.293 86.9986C578.385 87.0308 580.379 87.9138 581.835 89.4532C583.292 90.9925 584.093 93.0623 584.062 95.2071C584.03 97.3518 583.169 99.3959 581.668 100.89Z" fill="black"/>
<path opacity="0.25" d="M573.433 127.7C569.16 128.571 555.23 123.158 555.23 123.158C555.23 123.158 566.089 112.706 570.363 111.834C571.379 111.628 572.425 111.628 573.44 111.836C574.456 112.043 575.422 112.454 576.283 113.045C577.144 113.635 577.883 114.394 578.459 115.277C579.034 116.16 579.433 117.151 579.635 118.193C579.837 119.235 579.836 120.307 579.634 121.348C579.431 122.39 579.03 123.38 578.455 124.263C577.879 125.146 577.139 125.904 576.277 126.493C575.416 127.083 574.449 127.493 573.433 127.7Z" fill="black"/>
<path opacity="0.25" d="M543.44 156.751C539.322 155.292 529.966 143.411 529.966 143.411C529.966 143.411 544.486 140.002 548.603 141.466C549.582 141.814 550.485 142.356 551.259 143.061C552.034 143.766 552.665 144.621 553.118 145.576C553.57 146.532 553.834 147.569 553.896 148.63C553.957 149.69 553.814 150.752 553.475 151.756C553.136 152.759 552.608 153.684 551.92 154.479C551.232 155.273 550.398 155.92 549.466 156.384C548.534 156.848 547.523 157.119 546.489 157.182C545.454 157.245 544.418 157.098 543.44 156.751Z" fill="black"/>
<path opacity="0.25" d="M515.921 173.476C511.624 172.758 500.441 162.679 500.441 162.679C500.441 162.679 514.192 156.81 518.494 157.533C519.516 157.706 520.495 158.084 521.375 158.645C522.254 159.206 523.017 159.94 523.621 160.803C524.224 161.667 524.655 162.644 524.891 163.678C525.126 164.713 525.16 165.784 524.991 166.832C524.822 167.88 524.453 168.884 523.906 169.786C523.359 170.688 522.643 171.47 521.801 172.089C520.959 172.707 520.006 173.15 518.997 173.391C517.988 173.632 516.943 173.667 515.921 173.493V173.476Z" fill="black"/>
<path opacity="0.25" d="M543.087 111.591C543.087 116.061 550.968 129.016 550.968 129.016C550.968 129.016 558.867 116.067 558.867 111.597C558.896 110.516 558.713 109.441 558.329 108.433C557.946 107.426 557.369 106.508 556.633 105.734C555.898 104.959 555.018 104.343 554.047 103.922C553.075 103.502 552.032 103.285 550.977 103.285C549.923 103.285 548.879 103.502 547.907 103.922C546.936 104.343 546.056 104.959 545.321 105.734C544.585 106.508 544.009 107.426 543.625 108.433C543.241 109.441 543.058 110.516 543.087 111.597V111.591Z" fill="black"/>
<path opacity="0.25" d="M511.15 131.571C512.451 135.834 523.756 145.8 523.756 145.8C523.756 145.8 527.509 131.02 526.208 126.757C525.938 125.697 525.462 124.704 524.807 123.839C524.152 122.974 523.333 122.254 522.399 121.723C521.464 121.192 520.435 120.861 519.372 120.75C518.309 120.64 517.235 120.752 516.216 121.079C515.197 121.407 514.253 121.943 513.442 122.656C512.631 123.369 511.97 124.243 511.498 125.226C511.027 126.209 510.755 127.28 510.699 128.373C510.643 129.467 510.804 130.561 511.173 131.589L511.15 131.571Z" fill="black"/>
<path opacity="0.25" d="M482.7 155.357C483.278 159.786 492.785 171.549 492.785 171.549C492.785 171.549 498.92 157.634 498.342 153.205C498.267 152.101 497.973 151.024 497.476 150.041C496.98 149.058 496.292 148.19 495.456 147.491C494.619 146.792 493.651 146.275 492.612 145.975C491.574 145.674 490.485 145.595 489.416 145.742C488.346 145.89 487.317 146.261 486.392 146.832C485.468 147.403 484.667 148.163 484.041 149.064C483.414 149.966 482.974 150.989 482.749 152.071C482.523 153.154 482.516 154.272 482.729 155.357H482.7Z" fill="black"/>
<path d="M482.972 186.27C482.972 186.27 486.545 148.444 507.836 128.328C516.831 119.951 522.929 108.805 525.213 96.5676C526.258 90.7496 526.779 84.8454 526.768 78.9296" stroke="#535461" stroke-width="2" stroke-miterlimit="10"/>
<path d="M540.161 66.1709C538.53 70.321 526.491 79.309 526.491 79.309C526.491 79.309 523.895 64.2618 525.525 60.1117C525.913 59.1264 526.485 58.229 527.211 57.4706C527.936 56.7123 528.801 56.1079 529.754 55.692C530.707 55.276 531.731 55.0567 532.767 55.0465C533.803 55.0363 534.831 55.2354 535.792 55.6325C536.753 56.0296 537.628 56.6168 538.368 57.3607C539.108 58.1046 539.697 58.9906 540.103 59.9681C540.508 60.9456 540.722 61.9954 540.732 63.0576C540.742 64.1199 540.548 65.1737 540.161 66.159V66.1709Z" fill="#0D7BE5"/>
<path d="M543.231 94.1191C539.669 96.6922 524.797 97.5281 524.797 97.5281C524.797 97.5281 530.579 83.4592 534.153 80.892C535 80.2808 535.956 79.8467 536.967 79.6144C537.978 79.3821 539.023 79.3562 540.044 79.5382C541.064 79.7201 542.04 80.1064 542.915 80.6749C543.789 81.2434 544.547 81.983 545.143 82.8515C545.739 83.72 546.162 84.7004 546.389 85.7366C546.615 86.7729 546.641 87.8448 546.463 88.8911C546.286 89.9374 545.909 90.9376 545.354 91.8346C544.8 92.7316 544.079 93.5079 543.231 94.1191Z" fill="#0D7BE5"/>
<path d="M527.283 133.124C522.941 133.498 509.693 126.526 509.693 126.526C509.693 126.526 521.622 117.378 525.965 117.004C526.997 116.915 528.037 117.036 529.023 117.359C530.01 117.682 530.926 118.201 531.717 118.887C532.508 119.573 533.16 120.411 533.635 121.355C534.11 122.299 534.399 123.33 534.485 124.388C534.572 125.447 534.454 126.512 534.139 127.524C533.824 128.536 533.318 129.475 532.649 130.286C531.98 131.097 531.162 131.765 530.241 132.252C529.321 132.739 528.316 133.036 527.283 133.124Z" fill="#0D7BE5"/>
<path d="M508.739 159.845C504.523 160.972 490.31 156.389 490.31 156.389C490.31 156.389 500.562 145.308 504.766 144.187C505.769 143.921 506.813 143.859 507.839 144.006C508.865 144.153 509.853 144.506 510.746 145.045C511.639 145.583 512.419 146.297 513.043 147.144C513.667 147.992 514.123 148.958 514.383 149.986C514.643 151.014 514.703 152.084 514.559 153.136C514.416 154.188 514.072 155.201 513.547 156.116C513.021 157.032 512.326 157.832 511.499 158.472C510.672 159.112 509.73 159.579 508.727 159.845H508.739Z" fill="#0D7BE5"/>
<path d="M509.115 91.9847C510.878 96.0696 523.207 104.637 523.207 104.637C523.207 104.637 525.306 89.5184 523.542 85.4335C522.699 83.4679 521.128 81.9265 519.176 81.1482C517.224 80.3699 515.051 80.4185 513.133 81.2833C511.216 82.1481 509.713 83.7583 508.954 85.7597C508.195 87.761 508.242 89.9896 509.086 91.9551L509.115 91.9847Z" fill="#0D7BE5"/>
<path d="M487.812 123.549C490.703 126.905 504.951 131.304 504.951 131.304C504.951 131.304 502.54 116.233 499.666 112.872C498.285 111.26 496.337 110.276 494.25 110.137C492.162 109.999 490.106 110.715 488.534 112.131C486.962 113.546 486.003 115.543 485.868 117.684C485.732 119.824 486.431 121.932 487.812 123.544V123.549Z" fill="#0D7BE5"/>
<path d="M471.204 157.083C473.517 160.889 486.817 167.695 486.817 167.695C486.817 167.695 486.962 152.423 484.649 148.616C483.531 146.837 481.778 145.577 479.766 145.107C477.754 144.637 475.642 144.994 473.883 146.101C472.124 147.208 470.858 148.978 470.356 151.03C469.854 153.083 470.157 155.256 471.199 157.083H471.204Z" fill="#0D7BE5"/>
<path d="M88.7556 339.285C88.7556 339.285 66.2039 310.631 67.6206 281.877C68.2943 269.823 65.1372 257.869 58.623 247.81C55.493 243.061 51.9451 238.615 48.0237 234.53" stroke="#535461" stroke-width="2" stroke-miterlimit="10"/>
<path d="M48.8158 216.406C50.4349 220.408 48.0698 235.01 48.0698 235.01C48.0698 235.01 36.3198 226.413 34.7007 222.412C33.9247 220.491 33.9246 218.333 34.7005 216.412C35.4765 214.491 36.9648 212.965 38.8381 212.17C40.7114 211.374 42.8162 211.374 44.6896 212.169C46.5629 212.965 48.0513 214.491 48.8273 216.412L48.8158 216.406Z" fill="#0D7BE5"/>
<path d="M69.4653 233.605C68.702 237.862 58.9701 248.789 58.9701 248.789C58.9701 248.789 53.6444 235.01 54.4308 230.765C54.6007 229.742 54.9673 228.763 55.5092 227.886C56.0511 227.009 56.7575 226.251 57.5875 225.656C58.4175 225.061 59.3545 224.641 60.3441 224.421C61.3337 224.201 62.3561 224.184 63.352 224.372C64.3478 224.56 65.2973 224.949 66.1453 225.517C66.9933 226.084 67.7229 226.819 68.2916 227.678C68.8604 228.537 69.2571 229.503 69.4585 230.521C69.66 231.538 69.6623 232.587 69.4653 233.605Z" fill="#0D7BE5"/>
<path d="M84.2337 271.68C81.4754 274.964 67.6899 279.357 67.6899 279.357C67.6899 279.357 69.8873 264.731 72.6455 261.447C73.9948 259.97 75.8486 259.086 77.8193 258.979C79.7899 258.871 81.7246 259.55 83.2185 260.872C84.7125 262.194 85.65 264.057 85.8349 266.071C86.0198 268.085 85.4378 270.095 84.2106 271.68H84.2337Z" fill="#0D7BE5"/>
<path d="M89.0909 303.072C86.9167 306.784 74.0564 313.507 74.0564 313.507C74.0564 313.507 73.8078 298.685 75.9878 294.997C77.0442 293.241 78.7333 291.984 80.6885 291.496C82.6437 291.009 84.7074 291.332 86.4319 292.395C88.1565 293.458 89.4028 295.175 89.9006 297.173C90.3984 299.172 90.1075 301.292 89.0909 303.072Z" fill="#0D7BE5"/>
<path d="M44.4268 255.868C48.3531 257.462 62.555 254.812 62.555 254.812C62.555 254.812 53.9969 242.895 50.0763 241.295C48.2048 240.591 46.1392 240.664 44.3193 241.498C42.4994 242.332 41.0691 243.862 40.3328 245.761C39.5964 247.661 39.6123 249.78 40.3769 251.667C41.1416 253.555 42.5947 255.062 44.4268 255.868Z" fill="#0D7BE5"/>
<path d="M50.5681 292.519C54.7777 292.839 67.557 285.956 67.557 285.956C67.557 285.956 55.9111 277.205 51.7014 276.885C50.7002 276.807 49.6938 276.932 48.7397 277.253C47.7857 277.574 46.9026 278.085 46.1409 278.755C45.3792 279.426 44.7539 280.244 44.3006 281.163C43.8473 282.081 43.5749 283.083 43.4989 284.109C43.423 285.136 43.545 286.168 43.858 287.146C44.171 288.124 44.6689 289.029 45.3232 289.81C45.9774 290.591 46.7753 291.232 47.6713 291.697C48.5672 292.162 49.5437 292.441 50.5449 292.519H50.5681Z" fill="#0D7BE5"/>
<path d="M61.3002 327.279C65.3943 328.329 79.1277 323.722 79.1277 323.722C79.1277 323.722 69.0893 313.116 64.9953 312.084C63.0276 311.582 60.9459 311.901 59.2081 312.973C57.4703 314.044 56.2188 315.779 55.7288 317.796C55.2388 319.814 55.5505 321.948 56.5954 323.73C57.6402 325.512 59.3326 326.795 61.3002 327.297V327.279Z" fill="#0D7BE5"/>
<path d="M570.519 387.379C570.519 387.379 574.931 393.308 568.484 402.201C562.036 411.094 556.716 418.671 558.867 424.244C558.867 424.244 568.599 407.644 576.515 407.425C584.432 407.205 579.233 397.352 570.519 387.379Z" fill="#0D7BE5"/>
<path opacity="0.1" d="M570.519 387.379C570.903 387.951 571.207 388.576 571.421 389.235C579.146 398.543 583.263 407.229 575.839 407.448C568.9 407.65 560.619 420.331 558.63 423.539C558.696 423.786 558.775 424.03 558.867 424.268C558.867 424.268 568.599 407.668 576.515 407.448C584.431 407.229 579.233 397.352 570.519 387.379Z" fill="black"/>
<path d="M578.724 394.915C578.724 397.002 578.493 398.685 578.215 398.685C577.938 398.685 577.707 397.002 577.707 394.915C577.707 392.828 577.99 393.818 578.285 393.818C578.58 393.818 578.724 392.834 578.724 394.915Z" fill="#FFD037"/>
<path d="M581.535 397.405C579.754 398.401 578.198 399 578.065 398.751C577.932 398.502 579.268 397.482 581.049 396.486C582.83 395.49 582.13 396.213 582.263 396.486C582.396 396.759 583.322 396.409 581.535 397.405Z" fill="#FFD037"/>
<path d="M547.215 387.379C547.215 387.379 542.803 393.308 549.251 402.201C555.698 411.094 561.018 418.671 558.867 424.244C558.867 424.244 549.135 407.644 541.219 407.425C533.303 407.205 538.501 397.352 547.215 387.379Z" fill="#0D7BE5"/>
<path opacity="0.1" d="M547.215 387.379C546.828 387.949 546.524 388.575 546.313 389.235C538.582 398.543 534.471 407.229 541.896 407.448C548.835 407.65 557.115 420.331 559.104 423.539C559.035 423.782 558.96 424.025 558.867 424.268C558.867 424.268 549.135 407.668 541.219 407.448C533.303 407.229 538.501 397.352 547.215 387.379Z" fill="black"/>
<path d="M539.004 394.915C539.004 397.002 539.236 398.685 539.513 398.685C539.791 398.685 540.022 397.002 540.022 394.915C540.022 392.828 539.739 393.818 539.444 393.818C539.149 393.818 539.004 392.834 539.004 394.915Z" fill="#FFD037"/>
<path d="M536.194 397.405C537.981 398.401 539.536 399 539.664 398.751C539.791 398.502 538.461 397.482 536.68 396.486C534.899 395.49 535.599 396.213 535.466 396.486C535.333 396.759 534.413 396.409 536.194 397.405Z" fill="#FFD037"/>
<path opacity="0.1" d="M558.867 469.516C584.346 469.516 605 466.267 605 462.26C605 458.252 584.346 455.003 558.867 455.003C533.389 455.003 512.734 458.252 512.734 462.26C512.734 466.267 533.389 469.516 558.867 469.516Z" fill="#0D7BE5"/>
<path d="M582.61 416.294L582.391 418.138L582.078 420.746L581.951 421.837L581.645 424.446L581.506 425.537L581.199 428.145L577.666 457.789C577.354 460.439 573.133 462.532 568.038 462.532H549.696C544.602 462.532 540.386 460.469 540.068 457.789L536.535 428.145L536.223 425.537L536.096 424.446L535.784 421.837L535.651 420.746L535.344 418.138L535.119 416.294C534.945 414.794 537.229 413.531 540.109 413.531H577.626C580.505 413.531 582.79 414.794 582.61 416.294Z" fill="#65617D"/>
<path d="M582.39 418.138L582.078 420.746H535.65L535.344 418.138H582.39Z" fill="#9D9CB5"/>
<path d="M581.951 421.837L581.639 424.446H536.096L535.778 421.837H581.951Z" fill="#9D9CB5"/>
<path d="M581.505 425.537L581.199 428.14H536.535L536.223 425.537H581.505Z" fill="#9D9CB5"/>
<path d="M464.728 110.251H464.242C465.006 109.362 465.399 108.473 465.335 107.684L460.941 103.178L462.617 99.3245H456.968L458.015 96.3187H454.667L417.624 108.971C417.624 108.971 417.583 109.498 417.624 110.251H393.771V220.437H497.37V110.251H464.728Z" fill="url(#paint0_linear)"/>
<path d="M496.578 110.637H394.54V219.275H496.578V110.637Z" fill="#F6F7F9"/>
<path opacity="0.1" d="M464.445 110.637C459.611 117.935 427.321 127.545 427.321 127.545L427.523 119.939H421.55C421.714 119.206 421.641 118.439 421.343 117.753C421.045 117.066 420.537 116.498 419.896 116.133C418.162 115.154 417.994 111.982 418.017 110.637H464.445Z" fill="black"/>
<path d="M454.528 96.8996L418.046 109.35C418.046 109.35 417.63 114.212 419.897 115.474C420.536 115.841 421.042 116.41 421.34 117.096C421.639 117.782 421.712 118.548 421.55 119.281H427.524L427.321 126.887C427.321 126.887 465.659 115.474 465.041 108.081L460.715 103.641L462.363 99.8344H456.795L457.83 96.87L454.528 96.8996Z" fill="#9D9CB5"/>
<g opacity="0.35">
<path opacity="0.2" d="M477.715 145.853H413.402V147.703H477.715V145.853Z" fill="#0D7BE5"/>
</g>
<g opacity="0.35">
<path opacity="0.2" d="M477.715 155.606H413.402V157.456H477.715V155.606Z" fill="#0D7BE5"/>
</g>
<g opacity="0.35">
<path opacity="0.2" d="M477.715 165.353H413.402V167.203H477.715V165.353Z" fill="#0D7BE5"/>
</g>
<g opacity="0.35">
<path opacity="0.2" d="M477.715 175.1H413.402V176.95H477.715V175.1Z" fill="#0D7BE5"/>
</g>
<g opacity="0.35">
<path opacity="0.2" d="M477.715 184.847H413.402V186.697H477.715V184.847Z" fill="#0D7BE5"/>
</g>
<g opacity="0.35">
<path opacity="0.2" d="M477.715 194.6H413.402V196.449H477.715V194.6Z" fill="#0D7BE5"/>
</g>
<path d="M119.004 101.323H118.761C120.588 96.5202 122.277 91.8365 122.202 90.9413C122.04 89.1627 118.564 93.0282 118.402 92.0618C118.241 91.0954 118.402 87.4315 116.824 87.4315C115.245 87.4315 114.291 89.3346 113.354 89.3346C112.418 89.3346 108.607 88.6943 108.607 88.6943L103.755 101.323H67.21V219.003H157.903V101.323H119.004Z" fill="url(#paint1_linear)"/>
<path d="M156.868 101.975H68.2278V218.214H156.868V101.975Z" fill="#F6F7F9"/>
<path opacity="0.1" d="M118.859 101.975C116.992 106.949 114.887 112.19 114.407 113.441C113.476 115.812 112.863 114.55 111.776 114.235C110.689 113.921 109.307 114.55 108.688 114.235C108.069 113.921 104.438 114.235 104.438 114.235C104.478 113.653 104.478 113.069 104.438 112.486C104.357 111.858 100.182 112.486 100.182 112.486L104.16 101.975H118.859Z" fill="black"/>
<path d="M108.688 89.5065L100.182 111.858C100.182 111.858 104.357 111.224 104.432 111.858C104.476 112.438 104.476 113.021 104.432 113.601C104.432 113.601 108.069 113.281 108.688 113.601C109.307 113.921 110.694 113.281 111.776 113.601C112.857 113.921 113.476 115.184 114.407 112.807C115.338 110.429 122.138 93.4669 121.982 91.7239C121.826 89.9808 118.426 93.7871 118.27 92.8326C118.113 91.878 118.27 88.2615 116.726 88.2615C115.182 88.2615 114.251 90.1409 113.326 90.1409C112.4 90.1409 108.688 89.5065 108.688 89.5065Z" fill="#9D9CB5"/>
<g opacity="0.35">
<path opacity="0.2" d="M144.707 132.828H80.394V134.678H144.707V132.828Z" fill="#0D7BE5"/>
</g>
<g opacity="0.35">
<path opacity="0.2" d="M144.707 139.806H80.394V141.656H144.707V139.806Z" fill="#0D7BE5"/>
</g>
<g opacity="0.35">
<path opacity="0.2" d="M144.707 146.778H80.394V148.628H144.707V146.778Z" fill="#0D7BE5"/>
</g>
<g opacity="0.35">
<path opacity="0.2" d="M144.707 153.757H80.394V155.606H144.707V153.757Z" fill="#0D7BE5"/>
</g>
<g opacity="0.35">
<path opacity="0.2" d="M144.707 160.729H80.394V162.579H144.707V160.729Z" fill="#0D7BE5"/>
</g>
<g opacity="0.35">
<path opacity="0.2" d="M144.707 167.701H80.394V169.551H144.707V167.701Z" fill="#0D7BE5"/>
</g>
<path d="M453.493 275.326H453.25C455.493 269.397 457.564 263.605 457.465 262.52C457.274 260.344 453.007 265.093 452.839 263.907C452.672 262.721 452.839 258.192 450.902 258.192C448.965 258.192 447.803 260.563 446.64 260.563C445.478 260.563 440.823 259.769 440.823 259.769L434.844 275.326H390.059V420.515H501.216V275.326H453.493Z" fill="url(#paint2_linear)"/>
<path d="M500.169 276.334H390.949V419.573H500.169V276.334Z" fill="#F6F7F9"/>
<path opacity="0.1" d="M453.279 276.334C451.001 282.417 448.445 288.784 447.849 290.314C446.693 293.242 445.947 291.677 444.611 291.292C443.275 290.906 441.563 291.677 440.8 291.292C440.037 290.906 435.561 291.292 435.561 291.292C435.611 290.575 435.611 289.856 435.561 289.14C435.463 288.363 430.322 289.14 430.322 289.14L435.197 276.334H453.279Z" fill="black"/>
<path d="M440.8 260.966L430.322 288.505C430.322 288.505 435.463 287.723 435.561 288.505C435.611 289.22 435.611 289.937 435.561 290.652C435.561 290.652 440.037 290.266 440.8 290.652C441.563 291.037 443.275 290.266 444.611 290.652C445.947 291.037 446.704 292.608 447.849 289.679C448.994 286.75 457.373 265.846 457.182 263.699C456.991 261.553 452.799 266.237 452.608 265.069C452.417 263.901 452.608 259.431 450.706 259.431C448.803 259.431 447.658 261.749 446.513 261.749C445.368 261.749 440.8 260.966 440.8 260.966Z" fill="#9D9CB5"/>
<g opacity="0.35">
<path opacity="0.2" d="M477.715 316.359H413.402V321.06H477.715V316.359Z" fill="#0D7BE5"/>
</g>
<g opacity="0.35">
<path opacity="0.2" d="M477.715 346.898H413.402V351.599H477.715V346.898Z" fill="#0D7BE5"/>
</g>
<g opacity="0.35">
<path opacity="0.2" d="M477.715 377.443H413.402V382.144H477.715V377.443Z" fill="#0D7BE5"/>
</g>
<path d="M137.606 280.288V262.757H113.603V280.288H63.4861V418.416H181.2V280.288H137.606Z" fill="url(#paint3_linear)"/>
<path d="M179.957 280.988H64.7292V417.515H179.957V280.988Z" fill="#F6F7F9"/>
<path opacity="0.1" d="M137.288 280.988H113.788V299.586H137.288V280.988Z" fill="black"/>
<path d="M137.288 263.658H113.788V298.952H137.288V263.658Z" fill="#9D9CB5"/>
<g opacity="0.35">
<path opacity="0.2" d="M154.497 314.011H90.1838V318.712H154.497V314.011Z" fill="#0D7BE5"/>
</g>
<g opacity="0.35">
<path opacity="0.2" d="M154.497 323.36H90.1838V328.062H154.497V323.36Z" fill="#0D7BE5"/>
</g>
<g opacity="0.35">
<path opacity="0.2" d="M154.497 332.716H90.1838V337.418H154.497V332.716Z" fill="#0D7BE5"/>
</g>
<g opacity="0.35">
<path opacity="0.2" d="M154.497 342.066H90.1838V346.767H154.497V342.066Z" fill="#0D7BE5"/>
</g>
<g opacity="0.35">
<path opacity="0.2" d="M154.503 352.477H137.288V366.741H154.503V352.477Z" fill="#0D7BE5"/>
</g>
<g opacity="0.35">
<path opacity="0.2" d="M107.398 370.121H90.1838V384.385H107.398V370.121Z" fill="#0D7BE5"/>
</g>
<path d="M302.922 280.069H302.76C304.634 272.557 306.045 266.575 306.045 266.575L298.053 270.429C298.053 270.429 292.381 262.721 290.282 264.008C288.183 265.294 283.574 268.502 283.574 268.502L277.456 265.288L275.114 280.069H226.801V386.721L229.906 388.624C232.468 387.682 236.684 386.081 236.684 386.081L234.746 391.595L236.053 392.389L238.256 390.344L239.072 394.251L241.691 395.857L245.826 393.16L244.669 397.701L248.549 400.073L259.831 395.727L256.431 404.905L258.669 406.28L263.775 405.361C263.775 405.361 263.543 407.193 263.399 409.179L268.522 412.322C270.621 411.486 272.599 410.662 272.599 410.662C272.599 410.662 272.396 412.665 272.304 414.634L275.739 416.744C278.451 415.12 281.903 412.909 281.903 412.909L279.011 418.422H344.296V280.069H302.922Z" fill="url(#paint4_linear)"/>
<path d="M343.012 280.988V417.515H278.983L281.839 412.078C281.839 412.078 278.456 414.254 275.796 415.861L272.431 413.774C272.523 411.835 272.726 409.855 272.726 409.855C272.726 409.855 270.783 410.667 268.724 411.492L263.699 408.391C263.844 406.434 264.064 404.626 264.064 404.626L259.062 405.533L256.87 404.175L260.201 395.116L249.139 399.409L245.328 397.037L246.439 392.555L242.391 395.217L239.823 393.634L239.025 389.78L236.863 391.808L235.579 391.02L237.482 385.583C237.482 385.583 233.347 387.16 230.832 388.091L227.79 386.217V280.988H343.012Z" fill="#F6F7F9"/>
<g opacity="0.35">
<path opacity="0.2" d="M317.552 323.36H253.239V328.062H317.552V323.36Z" fill="#0D7BE5"/>
</g>
<g opacity="0.35">
<path opacity="0.2" d="M317.552 337.418H253.239V342.119H317.552V337.418Z" fill="#0D7BE5"/>
</g>
<g opacity="0.35">
<path opacity="0.2" d="M317.552 351.469H253.239V356.17H317.552V351.469Z" fill="#0D7BE5"/>
</g>
<g opacity="0.35">
<path opacity="0.2" d="M266.122 365.526H253.239V370.227H266.122V365.526Z" fill="#0D7BE5"/>
</g>
<path opacity="0.1" d="M302.43 280.988C299.296 293.663 294.728 311.224 293.537 310.916C291.687 310.4 288.795 306.766 288.795 306.766C288.795 306.766 281.995 313.317 278.699 309.938C275.403 306.558 270.864 308.877 270.864 308.877L275.258 280.982L302.43 280.988Z" fill="black"/>
<path d="M277.462 266.433L270.864 308.278C270.864 308.278 275.397 305.954 278.693 309.339C281.989 312.724 288.795 306.155 288.795 306.155C288.795 306.155 291.687 309.784 293.537 310.305C295.387 310.827 305.495 267.701 305.495 267.701L297.66 271.508C297.66 271.508 292.097 263.895 290.033 265.164C287.968 266.433 283.458 269.605 283.458 269.605L277.462 266.433Z" fill="#9D9CB5"/>
<path d="M331.355 83.8623V79.8486H269.991C267.175 79.8486 268.898 83.8623 268.898 83.8623H235.556V173.351H381.911V83.8268L331.355 83.8623Z" fill="url(#paint5_linear)"/>
<path d="M381.032 84.2892H236.481V172.74H381.032V84.2892Z" fill="#F6F7F9"/>
<path opacity="0.1" d="M331.1 98.7139H273.744C273.744 98.7139 273.125 91.8958 275.137 90.633C277.15 89.3701 269.413 84.9236 269.413 84.9236C269.327 84.7162 269.252 84.5044 269.187 84.2892H331.1V86.3524C331.1 86.3524 338.988 93.4847 331.1 98.7139Z" fill="black"/>
<path d="M270.494 80.3288H331.1V85.718C331.1 85.718 338.987 92.8325 331.1 98.0795H273.743C273.743 98.0795 273.125 91.2614 275.137 89.9986C277.149 88.7358 269.412 84.2892 269.412 84.2892C269.412 84.2892 267.712 80.3288 270.494 80.3288Z" fill="#9D9CB5"/>
<g opacity="0.35">
<path opacity="0.2" d="M363.286 112.03H254.239V113.88H363.286V112.03Z" fill="#0D7BE5"/>
</g>
<g opacity="0.35">
<path opacity="0.2" d="M319.379 119.002H254.239V120.852H319.379V119.002Z" fill="#0D7BE5"/>
</g>
<g opacity="0.35">
<path opacity="0.2" d="M363.286 125.98H254.239V127.83H363.286V125.98Z" fill="#0D7BE5"/>
</g>
<g opacity="0.35">
<path opacity="0.2" d="M363.286 132.952H254.239V134.802H363.286V132.952Z" fill="#0D7BE5"/>
</g>
<g opacity="0.35">
<path opacity="0.2" d="M363.286 139.925H254.239V141.774H363.286V139.925Z" fill="#0D7BE5"/>
</g>
<path d="M408.141 492.478C407.105 487.961 406.469 484 406.469 484C406.469 484 406.706 479.085 404.555 475.398V474.17V465.093C405.165 463.45 405.912 461.863 406.787 460.35C408.383 457.493 406.787 447.034 406.787 447.034C406.787 447.034 400.878 432.29 402.318 422.94C403.757 413.59 390.174 381.409 390.174 381.409C390.258 378.304 390.687 375.219 391.452 372.213C391.593 371.582 391.652 370.934 391.626 370.287C391.626 370.21 391.626 370.133 391.626 370.049V370.127C391.423 363.961 386.67 352.4 386.67 352.4L387.306 330.362C387.306 330.362 390.342 317.367 385.392 299.93C383.657 293.841 382.553 288.974 381.853 285.215C381.772 284.788 381.697 284.379 381.628 283.988C391.822 282.393 399.606 281.065 399.606 281.065C399.606 281.065 393.69 255.69 389.7 251.255C385.71 246.82 382.513 232.876 382.513 232.876C382.513 232.876 380.431 214.965 383.79 209.754C387.15 204.542 387.618 195.483 387.618 195.483C387.618 195.483 395.286 189.78 396.246 187.242C397.206 184.705 398.802 179.001 398.802 175.977C398.802 172.954 397.842 170.268 398.166 168.685C398.49 167.102 395.928 161.078 397.206 158.221C397.538 157.343 397.71 156.411 397.715 155.47C397.718 155.442 397.718 155.414 397.715 155.387C397.715 155.387 397.715 155.387 397.715 155.357C397.723 152.86 397.497 150.369 397.038 147.917C397.038 147.917 393.569 144.78 389.457 143.766L389.29 143.085L388.856 141.306C388.612 141.138 388.359 140.984 388.098 140.844V140.197L388.029 137.624L389.232 131.832C391.585 121.753 378.488 120.265 378.488 120.265C377.703 118.712 376.381 117.516 374.781 116.909C372.144 115.955 374.342 132.051 375.574 133.077C376.504 133.854 379.367 138.899 380.743 141.377L380.969 141.786C380.76 141.986 380.566 142.202 380.39 142.433L380.888 145.925L380.963 146.458C380.096 147.566 379.393 148.799 378.875 150.116C378.875 150.116 381.275 152.808 380.795 155.82C380.315 158.831 381.529 162.584 381.587 162.792C381.443 162.626 379.76 160.752 378.077 161.209C376.395 161.665 371.717 163.112 371.717 163.112C371.717 163.112 368.201 163.746 368.525 164.541C368.848 165.335 366.125 168.821 366.125 168.821L356.682 159.644C356.59 159.371 356.497 159.098 356.41 158.814C356.017 157.503 355.742 156.157 355.589 154.794C356.618 154.542 357.626 154.213 358.608 153.81C359.601 153.463 360.497 152.875 361.221 152.096C362.17 150.911 362.378 149.363 362.742 147.946C363.488 145.124 365.096 142.61 366.246 139.937C368.19 135.42 368.844 130.43 368.131 125.547C367.982 124.046 367.485 122.602 366.68 121.338C365.142 119.162 362.343 118.279 360.319 116.542C358.295 114.804 356.977 112.16 354.606 110.856C352.467 109.67 349.853 109.818 347.442 110.222C342.716 111.019 338.176 112.712 334.055 115.214C332.679 116.05 331.164 116.992 329.579 116.719C328.226 116.47 327.232 115.356 326.359 114.295C326.369 114.248 326.383 114.203 326.399 114.158L326.295 114.034C325.295 116.31 324.794 118.783 324.826 121.279C324.826 121.664 324.826 122.049 324.873 122.464C324.873 122.601 324.873 122.737 324.873 122.874C324.881 122.984 324.881 123.095 324.873 123.206C324.873 123.378 324.849 123.55 324.803 123.715C324.602 124.212 324.301 124.658 323.918 125.026C323.63 125.358 323.373 125.717 323.149 126.099C323.19 125.968 323.23 125.838 323.277 125.707C322.674 126.607 322.335 127.664 322.299 128.755C322.248 129.551 322.503 130.337 323.011 130.943C323.481 131.416 323.996 131.841 324.549 132.211C323.898 135.931 324.374 139.765 325.915 143.198C327.456 146.631 329.986 149.496 333.165 151.409C333.275 151.681 333.379 151.96 333.488 152.239C334.691 155.5 335.599 159.294 335.223 162.798C335.189 163.059 335.154 163.314 335.108 163.569C334.986 163.699 334.87 163.835 334.766 163.972C334.766 163.972 319.154 164.126 315.505 160.717C311.856 157.308 306.253 169.017 306.253 169.017C306.253 169.017 300.661 170.132 299.545 169.017C298.429 167.902 291.878 168.863 291.878 168.863C291.878 168.863 287.882 164.897 282.134 165.217C279.951 163.516 277.542 162.142 274.981 161.138L274.802 161.073C273.677 160.656 272.477 160.5 271.286 160.616C271.286 160.616 263.619 154.094 261.386 150.632C259.154 147.17 248.497 134.209 248.451 134.15L248.411 133.557L248.289 131.672C247.973 131.723 247.655 131.751 247.335 131.755L247.121 131.103C246.509 129.263 245.751 127.479 244.854 125.767C244.854 125.767 244.854 123.395 245.531 122.802C246.207 122.21 245.253 113.488 245.253 113.488C245.253 113.488 238.343 96.9233 232.156 109.291C232.156 109.291 220.458 117.289 230.277 126.603C230.277 126.603 234.191 128.553 234.746 130.095C235.111 131.097 236.441 133.889 237.337 135.751C237.487 136.059 237.62 136.344 237.736 136.581L237.626 136.676L237.771 138.229L237.829 138.822C235.978 139.901 234.723 140.962 235.03 141.786C235.576 143.159 235.951 144.597 236.146 146.067C236.146 146.067 249.723 163.503 251.481 170.968C251.481 170.968 287.911 193.159 299.881 194.748L297.805 205.841C297.805 205.841 297.163 212.499 297.325 214.876C297.487 217.253 295.885 228.038 295.885 228.038C295.885 228.038 293.809 243.885 292.051 246.103C290.293 248.32 290.617 257.836 290.617 257.836C290.194 262.39 289.391 266.898 288.217 271.312C286.482 277.336 287.743 284.782 287.743 284.782C287.743 284.782 281.671 299.053 296.209 289.383C296.209 289.383 303.344 288.926 311.561 288.642C311.561 288.914 311.561 289.193 311.561 289.478C311.561 290.563 311.527 291.736 311.515 292.976C311.405 301.145 311.359 312.404 311.717 320.924C312.353 335.983 316.829 365.787 316.829 365.787V380.757C316.54 382.164 316.399 383.599 316.407 385.037C316.309 390.315 317.674 395.513 320.345 400.025L321.334 409.909C321.334 409.909 323.959 416.489 324.011 420.42C323.998 420.741 323.96 421.06 323.895 421.375C323.797 421.878 323.755 422.391 323.768 422.904C323.618 427.44 326.283 438.284 326.283 438.284C326.283 438.284 326.445 449.222 328.018 449.857C329.383 450.396 326.197 456.159 325.243 457.813C325.243 457.706 325.202 457.605 325.185 457.499C325.063 457.712 324.988 457.831 324.988 457.831C324.66 458.713 324.491 459.649 324.491 460.594C324.4 461.341 324.519 462.099 324.832 462.78C325.145 463.461 325.64 464.037 326.26 464.441C329.296 466.344 330.927 467.927 328.354 468.591C327.406 468.74 326.466 468.938 325.538 469.184C325.491 469.06 325.445 468.935 325.405 468.817C325.045 468.969 324.746 469.24 324.555 469.588C324.364 469.935 324.293 470.338 324.352 470.732C324.283 471.532 324.543 472.7 325.306 474.443C327.862 480.307 329.632 482.53 329.632 482.53L330.857 482.388C330.671 482.864 330.432 483.318 330.146 483.739C329.679 484.427 329.059 484.99 328.336 485.382C327.671 485.793 326.928 486.054 326.156 486.146C325.289 486.176 324.438 486.393 323.658 486.782C322.878 487.171 322.186 487.724 321.629 488.405C320.038 490.516 319.038 493.397 322.207 495.923L333.633 499.966C333.633 499.966 353.294 502.581 352.235 498.063C351.177 493.546 350.564 489.585 350.564 489.585C350.564 489.585 350.784 485.174 348.968 481.569C348.765 481.158 348.533 480.761 348.274 480.384L348.968 480.301C348.968 480.301 350.402 470.317 352.322 468.443C352.762 468.004 352.86 467.667 352.756 467.412C352.958 466.866 352.455 466.546 351.813 466.368L351.674 466.759C351.047 466.619 350.408 466.546 349.766 466.54C349.766 466.54 349.124 461.311 351.2 459.426C351.369 459.21 351.493 458.96 351.562 458.693C351.632 458.425 351.647 458.146 351.605 457.872C351.623 457.156 351.551 456.441 351.391 455.744C351.391 455.779 351.345 455.827 351.316 455.862C350.269 451.119 346.73 443.572 346.73 443.572C346.73 443.572 346.568 438.829 347.846 436.92C349.124 435.011 347.69 411.076 347.69 411.076C347.69 411.076 348.17 399.509 346.73 394.12C345.291 388.731 348.465 382.387 348.465 382.387C348.465 382.387 348.465 382.263 348.43 382.043L348.471 381.96C348.471 381.96 348.402 381.249 348.286 380.14C348.27 380.175 348.256 380.21 348.245 380.247C347.927 377.188 347.314 371.638 346.869 369.071C346.227 365.425 347.025 347.989 347.025 347.989L349.917 340.542L355.028 353.378L360.464 370.5C360.464 370.5 363.153 374.117 363.216 377.781C363.216 377.958 363.216 378.136 363.182 378.314C363.138 378.694 363.117 379.076 363.118 379.458C363.022 381.621 363.602 383.758 364.772 385.559C364.772 385.559 366.212 393.64 368.449 395.703C370.687 397.766 370.681 401.727 370.681 401.727C370.681 401.727 373.399 413.454 374.677 415.517C375.753 417.254 375.834 422.039 375.799 423.491C375.799 423.764 375.799 423.918 375.799 423.918C375.799 423.918 376.175 428.11 376.163 431.626C376.163 432.058 376.163 432.479 376.123 432.877V432.788C376.119 433.748 376.008 434.705 375.793 435.639C375.774 435.692 375.759 435.745 375.747 435.799C375.747 435.604 375.747 435.402 375.793 435.207C375.236 437.601 374.968 440.056 374.995 442.517C374.92 446.732 375.574 451.73 378.037 454.659C382.351 459.734 385.068 459.099 385.068 459.099C385.068 459.099 382.987 465.437 380.442 466.706C380.346 466.756 380.255 466.816 380.171 466.884C380.171 466.759 380.124 466.641 380.107 466.516C379.575 466.991 379.361 467.844 379.361 468.888C379.176 471.674 380.888 476.204 382.524 478.285C383.128 478.892 383.869 479.336 384.681 479.577C384.55 479.669 384.415 479.754 384.276 479.832C383.992 479.992 383.699 480.132 383.397 480.253C382.985 480.441 382.545 480.559 382.096 480.603C381.229 480.623 380.375 480.833 379.593 481.217C378.81 481.601 378.116 482.152 377.557 482.832C375.967 484.937 374.966 487.818 378.135 490.344L389.561 494.387C389.561 494.387 409.187 496.996 408.141 492.478Z" fill="url(#paint6_linear)"/>
<path d="M333.107 499.966L322.051 495.923C318.998 493.397 319.969 490.516 321.513 488.405C322.042 487.729 322.707 487.178 323.462 486.788C324.218 486.399 325.046 486.18 325.89 486.147C326.64 486.053 327.36 485.792 328.001 485.382C328.698 484.984 329.293 484.421 329.736 483.739C330.544 482.427 330.981 480.91 330.996 479.358C330.996 479.358 343.14 475.712 346.459 479.358C347.052 480.017 347.547 480.762 347.927 481.569C349.662 485.174 349.477 489.585 349.477 489.585C349.477 489.585 350.096 493.54 351.096 498.063C352.097 502.587 333.107 499.966 333.107 499.966Z" fill="#2D293D"/>
<path d="M387.213 494.382L376.157 490.338C373.11 487.813 374.081 484.931 375.62 482.826C376.148 482.149 376.812 481.597 377.568 481.207C378.323 480.817 379.152 480.599 379.997 480.568C380.435 480.524 380.863 480.406 381.263 480.218C381.555 480.096 381.839 479.956 382.113 479.797C385.207 478.054 385.126 473.773 385.126 473.773C385.126 473.773 397.269 470.127 400.588 473.773C401.033 474.266 401.421 474.809 401.745 475.392C403.827 479.08 403.595 484 403.595 484C403.595 484 404.214 487.961 405.22 492.479C406.226 496.996 387.213 494.382 387.213 494.382Z" fill="#2D293D"/>
<path opacity="0.1" d="M346.476 479.358C347.069 480.017 347.564 480.762 347.945 481.57L329.753 483.734C330.562 482.421 330.998 480.904 331.014 479.352C331.014 479.352 343.157 475.718 346.476 479.358Z" fill="black"/>
<path opacity="0.1" d="M401.751 475.392V478.884C398.923 483.662 385.236 482.619 381.264 480.218C381.555 480.096 381.839 479.955 382.114 479.797C385.207 478.054 385.126 473.773 385.126 473.773C385.126 473.773 397.27 470.127 400.589 473.773C401.035 474.266 401.425 474.809 401.751 475.392Z" fill="black"/>
<path d="M403.913 460.339C403.065 461.855 402.342 463.442 401.751 465.082V477.615C398.657 482.844 382.576 481.101 380.413 478.249C378.251 475.398 375.932 467.945 378.401 466.676C380.87 465.408 382.877 459.07 382.877 459.07C382.877 459.07 380.246 459.704 376.071 454.629C371.896 449.554 373.133 438.301 373.914 435.61C374.694 432.918 373.914 423.877 373.914 423.877C373.914 423.877 374.07 417.539 372.832 415.476C371.595 413.412 368.999 401.685 368.999 401.685C368.999 401.685 368.999 397.725 366.83 395.662C364.662 393.599 363.274 385.518 363.274 385.518C362.009 383.497 361.463 381.091 361.73 378.705C362.193 374.739 359.099 370.459 359.099 370.459L353.843 353.342L348.899 340.501L346.117 347.953C346.117 347.953 345.342 365.389 345.961 369.036C346.58 372.682 347.505 382.352 347.505 382.352C347.505 382.352 344.417 388.69 345.805 394.079C347.193 399.468 346.736 411.041 346.736 411.041C346.736 411.041 348.124 434.975 346.886 436.878C345.649 438.782 345.805 443.536 345.805 443.536C345.805 443.536 352.166 457.481 350.136 459.384C348.106 461.287 348.743 466.499 348.743 466.499C348.743 466.499 353.074 466.499 351.217 468.402C349.361 470.305 347.968 480.259 347.968 480.259L329.279 482.482C329.279 482.482 327.544 480.259 325.092 474.396C322.64 468.532 325.555 469.167 328.041 468.532C330.528 467.898 328.955 466.315 326.017 464.382C323.08 462.449 324.78 458.198 324.78 458.198C324.78 458.198 329.261 450.432 327.717 449.797C326.173 449.163 326.017 438.224 326.017 438.224C326.017 438.224 322.924 425.228 323.704 421.742C324.485 418.256 321.2 409.909 321.2 409.909L320.119 399.919C314.551 390.095 316.719 381.059 316.719 381.059V365.704C316.719 365.704 312.388 335.906 311.769 320.847C311.376 311.201 311.486 298.039 311.613 289.827C311.688 285.221 311.769 282.167 311.769 282.167L378.557 275.053C378.557 275.053 378.488 278.213 379.771 285.227C380.448 288.986 381.506 293.853 383.195 299.942C387.988 317.378 385.051 330.374 385.051 330.374L384.432 352.4C384.432 352.4 390.307 367.144 389.058 372.213C388.317 375.223 387.902 378.306 387.821 381.409C387.821 381.409 400.976 413.578 399.582 422.952C398.189 432.325 403.913 447.046 403.913 447.046C403.913 447.046 405.457 457.481 403.913 460.339Z" fill="#575988"/>
<path opacity="0.05" d="M365.726 377.751L386.057 374.976C386.057 374.976 374.539 387.024 365.726 377.751Z" fill="black"/>
<path opacity="0.1" d="M383.12 354.611C383.12 354.611 383.813 361.98 379.407 364.755C379.407 364.755 387.295 363.486 383.12 354.611Z" fill="black"/>
<path opacity="0.1" d="M381.871 331.151C381.871 331.151 364.876 345.493 358.695 344.307C352.513 343.121 381.871 331.151 381.871 331.151Z" fill="black"/>
<path opacity="0.1" d="M340.526 384.492C340.526 384.492 327.619 387.498 327.226 392.792C326.833 398.087 340.526 384.492 340.526 384.492Z" fill="black"/>
<path opacity="0.05" d="M343.365 450.586C343.365 450.586 325.121 454.078 330.302 456.455C335.483 458.833 343.984 460.73 343.984 460.73C343.984 460.73 349.859 461.05 343.365 450.586Z" fill="black"/>
<g opacity="0.05">
<path opacity="0.05" d="M326.619 460.226C326.159 459.932 325.771 459.536 325.481 459.067C325.192 458.598 325.01 458.068 324.948 457.516L324.763 457.848C324.763 457.848 323.063 462.129 326 464.032L326.954 464.673C327.492 464.572 328.076 464.495 328.643 464.346C331.129 463.712 329.556 462.129 326.619 460.226Z" fill="black"/>
<path opacity="0.05" d="M350.119 458.957C350.616 458.483 350.599 457.267 350.292 455.702C349.471 456.93 349.275 458.839 349.257 460.291C349.448 459.789 349.742 459.334 350.119 458.957Z" fill="black"/>
<path opacity="0.05" d="M347.308 380.099C346.633 381.972 346.218 383.934 346.077 385.927C346.425 384.551 346.897 383.211 347.488 381.925C347.488 381.925 347.418 381.207 347.308 380.099Z" fill="black"/>
<path opacity="0.05" d="M389.076 371.775C389.202 371.207 389.259 370.626 389.243 370.044C389.018 371.229 388.856 372.326 388.74 373.287C388.839 372.794 388.948 372.291 389.076 371.775Z" fill="black"/>
<path opacity="0.05" d="M346.869 436.452C347.124 436.06 347.263 434.756 347.332 432.93C346.754 434.086 346.517 435.954 346.441 437.376C346.548 437.052 346.691 436.741 346.869 436.452Z" fill="black"/>
<path opacity="0.05" d="M350.703 466.344C349.431 469.902 348.569 476.079 348.569 476.079L329.874 478.297C329.874 478.297 328.14 476.079 325.688 470.216C325.474 469.7 325.3 469.238 325.162 468.817C324.04 469.344 323.6 470.536 325.069 474.016C327.544 479.88 329.256 482.103 329.256 482.103L347.95 479.868C347.95 479.868 349.344 469.884 351.2 468.01C352.114 467.062 351.53 466.582 350.703 466.344Z" fill="black"/>
<path opacity="0.05" d="M326 437.874C326 437.874 326.156 448.813 327.7 449.447C328.481 447.639 329.001 445.89 328.278 445.635C326.734 445.007 326.578 434.068 326.578 434.068C326.578 434.068 323.485 421.066 324.265 417.58C325.046 414.094 321.79 405.693 321.79 405.693L320.709 395.709C315.141 385.879 317.309 376.844 317.309 376.844V361.476C317.309 361.476 312.978 331.673 312.359 316.614C311.966 306.973 312.076 293.812 312.203 285.6C312.203 284.112 312.255 282.796 312.278 281.687L311.74 281.741C311.74 281.741 311.659 284.794 311.584 289.401C311.457 297.612 311.347 310.744 311.74 320.42C312.359 335.479 316.69 365.277 316.69 365.277V380.656C316.69 380.656 314.522 389.691 320.09 399.515L321.172 409.505C321.172 409.505 324.416 417.906 323.647 421.363C322.877 424.819 326 437.874 326 437.874Z" fill="black"/>
<path opacity="0.05" d="M381.038 474.016C379.519 471.763 378.507 469.191 378.077 466.487C376.169 468.265 378.361 475.113 380.39 477.823C382.553 480.674 398.634 482.417 401.728 477.188V474.17C397.576 478.421 383.085 476.714 381.038 474.016Z" fill="black"/>
<path opacity="0.05" d="M404.538 456.105C403.687 457.621 402.961 459.208 402.37 460.848V463.072C402.722 462.26 403.225 461.175 403.919 459.9C404.365 459.076 404.55 457.623 404.596 455.969C404.573 456.022 404.555 456.07 404.538 456.105Z" fill="black"/>
<path opacity="0.05" d="M381.986 458.601C382.578 457.383 383.088 456.126 383.513 454.837C383.513 454.837 380.882 455.471 376.707 450.402C373.671 446.708 373.498 439.73 373.931 435.183C373.151 437.88 371.919 449.133 376.088 454.202C378.829 457.522 380.882 458.394 381.986 458.601Z" fill="black"/>
<path opacity="0.05" d="M373.925 423.45C374.198 426.574 374.3 429.711 374.232 432.847C374.311 432.351 374.417 431.86 374.55 431.377C375.33 428.685 374.55 419.649 374.55 419.649C374.55 419.649 374.706 413.306 373.469 411.248C372.231 409.191 369.577 397.458 369.577 397.458C369.577 397.458 369.577 393.492 367.414 391.435C365.252 389.377 363.858 381.29 363.858 381.29C362.593 379.268 362.048 376.859 362.314 374.472C362.777 370.512 359.683 366.231 359.683 366.231L354.427 349.109L349.483 336.273L346.696 343.72C346.696 343.72 346.655 344.657 346.603 346.127L348.864 340.074L353.808 352.915L359.064 370.032C359.064 370.032 362.158 374.312 361.695 378.279C361.428 380.664 361.974 383.071 363.239 385.091C363.239 385.091 364.633 393.178 366.796 395.235C368.958 397.292 368.999 401.258 368.999 401.258C368.999 401.258 371.63 412.991 372.867 415.049C374.105 417.106 373.925 423.45 373.925 423.45Z" fill="black"/>
</g>
<path d="M386.925 131.85L385.768 137.636L385.837 140.209L385.884 142.112L379.407 142.765L378.685 141.395C377.349 138.917 374.579 133.871 373.677 133.095C372.486 132.063 370.358 115.972 372.914 116.927C374.471 117.545 375.75 118.732 376.505 120.259C376.505 120.259 389.191 121.771 386.925 131.85Z" fill="#FFCDD3"/>
<path opacity="0.1" d="M385.861 142.083L379.407 142.765L378.685 141.395C379.61 140.417 382.252 138.193 385.809 140.209L385.861 142.083Z" fill="black"/>
<path d="M387.503 145.213L378.985 147.264L378.806 145.96L378.326 142.468C378.326 142.468 381.686 137.867 386.56 141.312L386.983 143.091L387.503 145.213Z" fill="#DCE6F2"/>
<path d="M249.694 132.443L240.627 137.446C240.627 137.446 240.28 136.711 239.806 135.668C238.939 133.812 237.655 131.014 237.302 130.012C236.765 128.47 232.971 126.526 232.971 126.526C223.471 117.212 234.793 109.208 234.793 109.208C240.783 96.8463 247.468 113.405 247.468 113.405C247.468 113.405 248.393 122.132 247.74 122.719C247.086 123.306 247.086 125.684 247.086 125.684C247.954 127.399 248.684 129.184 249.272 131.02C249.544 131.909 249.694 132.443 249.694 132.443Z" fill="#FFCDD3"/>
<path opacity="0.1" d="M249.694 132.443L240.627 137.447C240.627 137.447 240.28 136.711 239.806 135.668C241.084 134.571 245.629 130.794 247.121 130.966C247.835 131.057 248.555 131.075 249.272 131.02C249.544 131.909 249.694 132.443 249.694 132.443Z" fill="black"/>
<path d="M250.625 135.265L240.419 140.423L240.217 138.17L240.049 136.593C240.049 136.593 245.959 131.399 247.705 131.601C248.589 131.734 249.487 131.734 250.371 131.601L250.486 133.486L250.625 135.265Z" fill="#DCE6F2"/>
<path d="M362.169 170.262C362.169 170.262 317.679 175.408 325.994 172.634C331.777 170.701 334.09 166.924 334.564 162.739C334.957 159.235 334.078 155.446 332.91 152.185C331.859 149.307 330.526 146.546 328.932 143.944C328.932 143.944 362.944 124.759 356.109 142.166C355.061 144.804 354.412 147.591 354.184 150.43C353.976 153.25 354.272 156.085 355.057 158.796C356.345 163.22 358.808 167.19 362.169 170.262Z" fill="#FFCDD3"/>
<path opacity="0.1" d="M356.138 142.201C355.09 144.84 354.441 147.627 354.213 150.466C351.009 153.223 347.493 153.045 342.983 153.045C339.514 153.045 335.68 153.905 332.91 152.191C331.859 149.313 330.526 146.552 328.932 143.95C328.932 143.95 362.944 124.765 356.138 142.201Z" fill="black"/>
<path d="M342.382 154.254C352.544 154.254 360.782 145.808 360.782 135.389C360.782 124.97 352.544 116.524 342.382 116.524C332.22 116.524 323.982 124.97 323.982 135.389C323.982 145.808 332.22 154.254 342.382 154.254Z" fill="#FFCDD3"/>
<path opacity="0.1" d="M362.169 170.262C362.169 170.262 317.679 175.408 325.994 172.634C331.777 170.701 334.09 166.924 334.564 162.739C336.778 160.284 341.231 158.505 344.088 157.563C346.707 156.658 349.536 156.611 352.183 157.426C353.222 157.744 354.209 158.215 355.115 158.826C356.392 163.232 358.833 167.191 362.169 170.262Z" fill="black"/>
<path opacity="0.1" d="M387.502 145.213L378.985 147.264L378.806 145.96C381.205 142.818 384.23 142.438 386.982 143.097L387.502 145.213Z" fill="black"/>
<path opacity="0.1" d="M250.625 135.265L240.419 140.423L240.217 138.17C243.866 135.964 249.978 133.694 250.51 133.498L250.625 135.265Z" fill="black"/>
<path opacity="0.1" d="M379.772 285.209C362.54 287.995 338.016 291.63 334.125 290.414C330.898 289.407 320.588 289.513 311.613 289.822C311.688 285.215 311.769 282.162 311.769 282.162L378.557 275.047C378.557 275.047 378.488 278.195 379.772 285.209Z" fill="black"/>
<path d="M396.957 281.059C396.957 281.059 340.219 291.049 334.125 289.146C328.03 287.243 296.775 289.306 296.775 289.306C282.707 298.97 288.582 284.705 288.582 284.705C288.582 284.705 287.344 277.259 289.044 271.235C290.178 266.816 290.952 262.309 291.357 257.759C291.357 257.759 291.051 248.273 292.751 246.032C294.451 243.791 296.457 227.961 296.457 227.961C296.457 227.961 298.007 217.182 297.851 214.805C297.695 212.428 298.314 205.77 298.314 205.77L300.332 194.695C288.767 193.112 253.493 170.92 253.493 170.92C251.793 163.468 238.65 146.019 238.65 146.019C238.459 144.553 238.096 143.116 237.568 141.739C236.637 139.201 250.556 134.132 250.556 134.132C250.556 134.132 260.912 147.128 263.075 150.614C265.238 154.1 272.662 160.604 272.662 160.604C273.815 160.483 274.979 160.639 276.063 161.061C276.126 161.061 276.178 161.096 276.242 161.114C276.305 161.132 276.242 161.114 276.242 161.114C279.711 162.353 283.181 165.187 283.181 165.187C288.749 164.873 292.612 168.833 292.612 168.833C292.612 168.833 298.973 167.885 300.031 168.993C301.089 170.102 306.525 168.993 306.525 168.993C306.525 168.993 311.937 157.26 315.493 160.693C319.05 164.126 334.136 163.942 334.136 163.942C336.148 161.203 341.04 159.241 344.099 158.227C346.719 157.323 349.548 157.275 352.195 158.09C353.336 158.424 354.412 158.957 355.375 159.667L364.529 168.857C364.529 168.857 367.16 165.371 366.842 164.577C366.524 163.782 369.936 163.154 369.936 163.154C369.936 163.154 374.417 161.725 376.117 161.25C377.817 160.776 379.378 162.662 379.517 162.828C379.459 162.626 378.297 158.79 378.748 155.861C379.199 152.932 376.892 150.152 376.892 150.152C382.304 136.516 394.517 147.934 394.517 147.934C394.517 147.934 395.911 155.387 394.673 158.239C393.436 161.09 395.911 167.132 395.598 168.697C395.286 170.262 396.217 172.978 396.217 175.989C396.217 179.001 394.673 184.711 393.742 187.254C392.811 189.797 385.363 195.465 385.363 195.465C385.363 195.465 384.895 204.501 381.651 209.73C378.407 214.959 380.413 232.852 380.413 232.852C380.413 232.852 383.507 246.802 387.352 251.231C391.198 255.66 396.957 281.059 396.957 281.059Z" fill="#656691"/>
<path opacity="0.1" d="M314.244 176.76C314.244 176.76 312.544 171.531 311 171.051C309.461 170.47 307.962 169.783 306.513 168.993L307.508 167.043C307.508 167.043 313.319 168.673 314.244 170.416C315.17 172.159 314.244 176.76 314.244 176.76Z" fill="black"/>
<path opacity="0.1" d="M283.169 165.187C282.862 166.776 269.1 168.199 269.1 168.199L276.039 161.049L276.213 161.108C279.728 162.353 283.169 165.187 283.169 165.187Z" fill="black"/>
<path d="M243.357 144.697C244.04 144.697 244.594 144.129 244.594 143.429C244.594 142.728 244.04 142.16 243.357 142.16C242.673 142.16 242.119 142.728 242.119 143.429C242.119 144.129 242.673 144.697 243.357 144.697Z" fill="#575988"/>
<path d="M244.941 147.235C245.624 147.235 246.178 146.667 246.178 145.966C246.178 145.265 245.624 144.697 244.941 144.697C244.258 144.697 243.704 145.265 243.704 145.966C243.704 146.667 244.258 147.235 244.941 147.235Z" fill="#575988"/>
<path d="M246.491 149.577C247.174 149.577 247.728 149.009 247.728 148.308C247.728 147.607 247.174 147.039 246.491 147.039C245.807 147.039 245.253 147.607 245.253 148.308C245.253 149.009 245.807 149.577 246.491 149.577Z" fill="#575988"/>
<path d="M248.11 152.108C248.793 152.108 249.347 151.54 249.347 150.84C249.347 150.139 248.793 149.571 248.11 149.571C247.427 149.571 246.873 150.139 246.873 150.84C246.873 151.54 247.427 152.108 248.11 152.108Z" fill="#575988"/>
<path d="M393.84 151.735C394.396 151.735 394.846 151.273 394.846 150.703C394.846 150.133 394.396 149.672 393.84 149.672C393.284 149.672 392.834 150.133 392.834 150.703C392.834 151.273 393.284 151.735 393.84 151.735Z" fill="#575988"/>
<path d="M393.996 154.071C394.552 154.071 395.003 153.609 395.003 153.039C395.003 152.469 394.552 152.008 393.996 152.008C393.441 152.008 392.99 152.469 392.99 153.039C392.99 153.609 393.441 154.071 393.996 154.071Z" fill="#575988"/>
<path d="M394.135 156.413C394.691 156.413 395.141 155.951 395.141 155.381C395.141 154.811 394.691 154.349 394.135 154.349C393.579 154.349 393.129 154.811 393.129 155.381C393.129 155.951 393.579 156.413 394.135 156.413Z" fill="#575988"/>
<path opacity="0.1" d="M314.319 219.714C314.18 219.53 349.014 264.654 376.082 238.579C376.082 238.567 333.338 244.526 314.319 219.714Z" fill="black"/>
<path opacity="0.1" d="M294.3 243.174C294.3 243.174 315.152 243.767 317.338 249.909V256.306C316.745 256.646 316.077 256.825 315.398 256.825C314.718 256.825 314.05 256.646 313.458 256.306C311.353 255.121 298.747 248.599 294.3 251.735V243.174Z" fill="black"/>
<path d="M294.688 243.174C294.688 243.174 314.632 243.731 316.719 249.595V255.696C316.152 256.021 315.513 256.191 314.863 256.191C314.213 256.191 313.574 256.021 313.007 255.696C311 254.587 298.938 248.326 294.688 251.338V243.174Z" fill="#656691"/>
<path opacity="0.1" d="M305.686 196.746C305.686 196.746 308.074 203.042 313.782 210.975C317.31 215.829 321.585 220.062 326.439 223.508C326.439 223.508 306.033 199.687 305.686 196.746Z" fill="black"/>
<path opacity="0.1" d="M298.863 171.898C298.863 171.898 302.332 187.313 311.307 192.531L298.863 171.898Z" fill="black"/>
<path opacity="0.1" d="M293.525 173.458C293.439 173.173 290.438 185.635 305.09 192.531C305.085 192.531 298.863 190.367 293.525 173.458Z" fill="black"/>
<path opacity="0.1" d="M384.612 163.13C384.38 163.13 391.84 167.997 393.864 170.244C393.864 170.262 388.995 162.81 384.612 163.13Z" fill="black"/>
<path d="M337.409 152.488C337.669 153.46 337.987 154.527 338.843 155.037C339.384 155.304 339.978 155.44 340.578 155.434C346.187 155.79 352.021 156.027 357.214 153.828C358.181 153.475 359.048 152.884 359.741 152.108C360.66 150.952 360.84 149.381 361.21 147.958C361.938 145.142 363.488 142.622 364.61 139.948C366.49 135.415 367.12 130.44 366.431 125.565C366.287 124.068 365.806 122.625 365.026 121.35C363.534 119.174 360.828 118.291 358.856 116.559C356.885 114.828 355.624 112.178 353.328 110.874C351.258 109.688 348.702 109.836 346.389 110.239C341.802 111.041 337.405 112.734 333.436 115.225C332.106 116.067 330.643 117.034 329.105 116.737C327.764 116.476 326.792 115.32 325.925 114.235C324.826 116.821 324.352 119.639 324.543 122.453C324.602 122.865 324.588 123.284 324.502 123.692C324.312 124.185 324.02 124.63 323.647 124.996C322.265 126.644 321.397 129.253 322.768 130.925C323.346 131.648 324.277 132.045 324.855 132.781C325.896 134.109 325.543 136.012 325.52 137.707C325.458 138.296 325.602 138.888 325.925 139.379C326.445 140.025 327.394 140.079 328.197 139.937C329.001 139.794 329.822 139.516 330.615 139.699C331.478 139.994 332.22 140.579 332.719 141.359C335.31 144.709 336.322 148.45 337.409 152.488Z" fill="#2D293D"/>
<g opacity="0.1">
<path opacity="0.1" d="M360.36 150.656C359.667 151.432 358.799 152.022 357.833 152.375C352.628 154.592 346.805 154.338 341.196 153.976C340.596 153.986 340.002 153.852 339.462 153.585C338.612 153.069 338.305 152.008 338.028 151.035C336.94 146.968 335.928 143.257 333.338 139.877C332.838 139.097 332.097 138.512 331.233 138.217C330.441 138.033 329.62 138.312 328.816 138.454C328.012 138.597 327.081 138.543 326.543 137.897C326.22 137.406 326.077 136.814 326.139 136.225C326.139 134.53 326.509 132.62 325.474 131.298C324.895 130.557 323.982 130.166 323.38 129.443C322.525 128.393 322.548 126.976 323.028 125.654C322.045 127.255 321.617 129.312 322.767 130.705C323.346 131.435 324.277 131.826 324.855 132.567C325.89 133.889 325.543 135.798 325.52 137.494C325.458 138.083 325.602 138.675 325.925 139.166C326.445 139.812 327.393 139.865 328.197 139.723C329.001 139.581 329.822 139.302 330.614 139.486C331.478 139.781 332.22 140.366 332.719 141.146C335.31 144.525 336.322 148.261 337.409 152.304C337.669 153.27 337.987 154.338 338.843 154.853C339.383 155.121 339.977 155.255 340.578 155.245C346.187 155.606 352.021 155.838 357.214 153.644C358.181 153.291 359.048 152.701 359.741 151.925C360.091 151.466 360.361 150.948 360.539 150.395C360.481 150.484 360.423 150.573 360.36 150.656Z" fill="black"/>
<path opacity="0.1" d="M324.56 123.17C324.816 122.897 325.013 122.572 325.138 122.216C325.224 121.808 325.238 121.389 325.179 120.976C325.026 118.666 325.319 116.347 326.04 114.152L325.942 114.028C324.843 116.613 324.369 119.432 324.56 122.245C324.589 122.553 324.589 122.862 324.56 123.17Z" fill="black"/>
</g>
<path opacity="0.1" d="M334.125 163.918C334.125 163.918 357.11 167.043 359.174 163.503L334.125 163.918Z" fill="black"/>
<path opacity="0.1" d="M378.829 154.172C378.829 154.172 391.597 154.172 394.407 159.092L378.829 154.172Z" fill="black"/>
<defs>
<linearGradient id="paint0_linear" x1="445.565" y1="220.437" x2="445.565" y2="96.3187" gradientUnits="userSpaceOnUse">
<stop stop-color="#808080" stop-opacity="0.25"/>
<stop offset="0.54" stop-color="#808080" stop-opacity="0.12"/>
<stop offset="1" stop-color="#808080" stop-opacity="0.1"/>
</linearGradient>
<linearGradient id="paint1_linear" x1="24691.2" y1="52059.3" x2="24691.2" y2="22859.7" gradientUnits="userSpaceOnUse">
<stop stop-color="#808080" stop-opacity="0.25"/>
<stop offset="0.54" stop-color="#808080" stop-opacity="0.12"/>
<stop offset="1" stop-color="#808080" stop-opacity="0.1"/>
</linearGradient>
<linearGradient id="paint2_linear" x1="94600.1" y1="119548" x2="94600.1" y2="75097.5" gradientUnits="userSpaceOnUse">
<stop stop-color="#808080" stop-opacity="0.25"/>
<stop offset="0.54" stop-color="#808080" stop-opacity="0.12"/>
<stop offset="1" stop-color="#808080" stop-opacity="0.1"/>
</linearGradient>
<linearGradient id="paint3_linear" x1="24968.3" y1="110118" x2="24968.3" y2="69249.5" gradientUnits="userSpaceOnUse">
<stop stop-color="#808080" stop-opacity="0.25"/>
<stop offset="0.54" stop-color="#808080" stop-opacity="0.12"/>
<stop offset="1" stop-color="#808080" stop-opacity="0.1"/>
</linearGradient>
<linearGradient id="paint4_linear" x1="67279.8" y1="113301" x2="67279.8" y2="73010.3" gradientUnits="userSpaceOnUse">
<stop stop-color="#808080" stop-opacity="0.25"/>
<stop offset="0.54" stop-color="#808080" stop-opacity="0.12"/>
<stop offset="1" stop-color="#808080" stop-opacity="0.1"/>
</linearGradient>
<linearGradient id="paint5_linear" x1="89626.3" y1="29817.4" x2="89626.3" y2="15067.4" gradientUnits="userSpaceOnUse">
<stop stop-color="#808080" stop-opacity="0.25"/>
<stop offset="0.54" stop-color="#808080" stop-opacity="0.12"/>
<stop offset="1" stop-color="#808080" stop-opacity="0.1"/>
</linearGradient>
<linearGradient id="paint6_linear" x1="113950" y1="344704" x2="113950" y2="80139.1" gradientUnits="userSpaceOnUse">
<stop stop-color="#808080" stop-opacity="0.25"/>
<stop offset="0.54" stop-color="#808080" stop-opacity="0.12"/>
<stop offset="1" stop-color="#808080" stop-opacity="0.1"/>
</linearGradient>
</defs>
</svg>
