<svg width="17005" height="9798" viewBox="0 0 17005 9798" fill="none" xmlns="http://www.w3.org/2000/svg">
<path d="M17005 7520.95C15151 7520.95 12992.4 10785.7 10149.9 9496.8C5792.32 7520.95 5562.05 11390.6 0.000148059 7520.95V1495L17005 1495V7520.95Z" fill="#E7F2FC"/>
<path d="M5451.48 915.101C5429.37 899.089 5413.44 873.975 5416.23 849.348C5426.08 762.423 5372.8 688.18 5286.68 674.634C5271.39 672.225 5256.16 665.661 5242.38 658.277C5216.4 644.352 5189.32 639.224 5161.32 647.032C5146.2 651.253 5136.9 649.369 5124.88 638.491C5056.33 576.427 4948.9 598.608 4915.32 682.844C4905.68 707.038 4891.42 721.159 4869.06 730.363C4864.07 732.419 4858.6 734.74 4855.05 738.538C4843.89 750.487 4833.26 747.539 4819.74 741.789C4732.47 704.618 4638.49 765.782 4634.86 860.366C4634.34 873.875 4628.74 888.542 4621.49 900.19C4595.55 941.929 4590.96 983.801 4608.38 1027.19C4595.84 1058.51 4606.77 1097.57 4637.66 1120.22C4671.56 1145.09 4710.64 1132.12 4740.59 1108.04C4749.07 1107.24 4757.7 1105.52 4766.51 1102.82C4784.11 1097.42 4800.01 1090.97 4814.86 1098.16C4817.21 1099.91 4819.63 1101.46 4822.08 1102.9C4822.73 1103.44 4823.39 1103.95 4824.04 1104.56C4824.13 1104.43 4824.2 1104.32 4824.28 1104.18C4829.17 1106.82 4834.24 1108.82 4839.43 1110.34C4868.24 1212.14 4930.16 1301.3 5015.18 1364.49C5010 1426.76 4993.43 1487.8 4962.55 1547.62C4928.08 1568.69 4886.02 1553.45 4849.93 1543.46C4818.02 1534.62 4786.95 1531.36 4755.1 1541.53C4748.5 1543.63 4745.43 1548.85 4745.11 1554.25C4745.07 1554.4 4745 1554.52 4744.96 1554.68C4742.55 1565.06 4740.13 1575.44 4737.72 1585.82C4735.46 1595.53 4742.46 1602.18 4750.04 1603.49C4751.23 1603.79 4752.48 1604 4753.88 1604H5343.45C5348.62 1604 5352.3 1601.73 5354.58 1598.51C5357.98 1595.85 5360.23 1591.79 5360.23 1587.22V1565.65C5360.23 1559.27 5355.86 1553.8 5350 1551.98C5347.76 1550.09 5344.81 1548.88 5341.05 1548.88H5162.91C5154.06 1538.65 5145.05 1528.33 5135.74 1518.11C5109.86 1489.69 5098.44 1458.05 5110.08 1419.78C5114.12 1406.49 5117.03 1392.66 5118.71 1378.86C5123.68 1337.98 5128.32 1296.91 5133.03 1255.23C5192.82 1249.54 5246.89 1224.05 5288.87 1180.79C5306.28 1180.75 5321.91 1175.58 5334.94 1166.82L5340.17 1165.19C5368.58 1188.12 5412.4 1190.48 5445.5 1178.26C5476.17 1166.93 5502.7 1136.25 5503.63 1102.53C5503.71 1099.37 5503.55 1096.24 5503.28 1093.14C5527.16 1031.65 5505.32 954.086 5451.48 915.101ZM4931.46 1100.36C4931.8 1100.23 4932.08 1100.13 4932.42 1100C4938.59 1097.65 4949.36 1100.34 4954.91 1104.66C4962.75 1110.76 4970.16 1117.4 4977.41 1124.16C4977.56 1124.74 4977.56 1125.27 4977.74 1125.86C4988.81 1162.83 4999.87 1199.82 5010.94 1236.8C5013.58 1255.43 5015.26 1273.95 5016.17 1292.37C4958.92 1245.29 4927.6 1175.39 4931.46 1100.36ZM5146.25 1207.24C5148.84 1201.04 5151.43 1194.84 5154.13 1188.67C5155.03 1188.67 5155.93 1188.67 5156.83 1188.66C5156.83 1186.53 5156.88 1184.38 5156.95 1182.24C5164.34 1165.68 5172.4 1149.49 5181.46 1134.02C5193 1144.19 5205.02 1153.33 5217.83 1160.78C5196.39 1179.73 5172.35 1195.29 5146.25 1207.24Z" fill="#E7F2FC"/>
<path d="M13129.3 1171.7C13116 1162.07 13106.4 1146.96 13108.1 1132.15C13114 1079.88 13082 1035.23 13030.2 1027.08C13021 1025.63 13011.8 1021.68 13003.5 1017.24C12987.9 1008.87 12971.6 1005.78 12954.8 1010.48C12945.7 1013.02 12940.1 1011.89 12932.9 1005.34C12891.6 968.019 12827 981.359 12806.8 1032.02C12801 1046.57 12792.5 1055.06 12779 1060.6C12776 1061.83 12772.7 1063.23 12770.6 1065.51C12763.9 1072.7 12757.5 1070.93 12749.4 1067.47C12696.9 1045.11 12640.4 1081.9 12638.2 1138.78C12637.9 1146.9 12634.5 1155.72 12630.1 1162.73C12614.5 1187.83 12611.8 1213.01 12622.2 1239.1C12614.7 1257.94 12621.3 1281.43 12639.9 1295.06C12660.2 1310.01 12683.7 1302.21 12701.8 1287.73C12706.9 1287.25 12712 1286.21 12717.3 1284.59C12727.9 1281.35 12737.5 1277.47 12746.4 1281.79C12747.8 1282.84 12749.3 1283.77 12750.8 1284.64C12751.2 1284.96 12751.5 1285.27 12751.9 1285.64C12752 1285.56 12752 1285.49 12752.1 1285.41C12755 1287 12758.1 1288.2 12761.2 1289.12C12778.5 1350.33 12815.8 1403.95 12866.9 1441.96C12863.8 1479.41 12853.8 1516.12 12835.2 1552.09C12814.5 1564.76 12789.2 1555.6 12767.5 1549.59C12748.3 1544.27 12729.6 1542.32 12710.5 1548.43C12706.5 1549.7 12704.7 1552.83 12704.5 1556.08C12704.4 1556.17 12704.4 1556.24 12704.4 1556.34C12702.9 1562.58 12701.5 1568.82 12700 1575.06C12698.7 1580.91 12702.9 1584.91 12707.4 1585.69C12708.1 1585.87 12708.9 1586 12709.7 1586H13064.3C13067.4 1586 13069.6 1584.63 13071 1582.7C13073 1581.1 13074.4 1578.65 13074.4 1575.91V1562.94C13074.4 1559.1 13071.8 1555.81 13068.3 1554.71C13066.9 1553.58 13065.1 1552.85 13062.9 1552.85H12955.7C12950.4 1546.7 12945 1540.49 12939.4 1534.35C12923.8 1517.25 12917 1498.23 12924 1475.21C12926.4 1467.22 12928.1 1458.9 12929.2 1450.6C12932.1 1426.02 12934.9 1401.31 12937.8 1376.25C12973.7 1372.83 13006.2 1357.5 13031.5 1331.48C13042 1331.46 13051.4 1328.35 13059.2 1323.08L13062.3 1322.1C13079.4 1335.89 13105.8 1337.31 13125.7 1329.96C13144.1 1323.15 13160.1 1304.7 13160.6 1284.41C13160.7 1282.52 13160.6 1280.64 13160.4 1278.77C13174.8 1241.79 13161.7 1195.14 13129.3 1171.7ZM12816.5 1283.11C12816.7 1283.03 12816.9 1282.97 12817.1 1282.89C12820.8 1281.48 12827.3 1283.1 12830.6 1285.7C12835.4 1289.37 12839.8 1293.36 12844.2 1297.42C12844.3 1297.77 12844.3 1298.09 12844.4 1298.45C12851 1320.68 12857.7 1342.93 12864.3 1365.16C12865.9 1376.37 12866.9 1387.51 12867.5 1398.58C12833.1 1370.27 12814.2 1328.24 12816.5 1283.11ZM12945.7 1347.39C12947.3 1343.66 12948.8 1339.93 12950.5 1336.22C12951 1336.22 12951.5 1336.22 12952.1 1336.22C12952.1 1334.93 12952.1 1333.64 12952.2 1332.35C12956.6 1322.39 12961.4 1312.66 12966.9 1303.35C12973.8 1309.47 12981.1 1314.97 12988.8 1319.45C12975.9 1330.85 12961.4 1340.2 12945.7 1347.39Z" fill="#E7F2FC"/>
<path d="M13572.3 1114.7C13559 1105.07 13549.4 1089.96 13551.1 1075.15C13557 1022.88 13525 978.227 13473.2 970.081C13464 968.632 13454.8 964.684 13446.5 960.243C13430.9 951.869 13414.6 948.785 13397.8 953.481C13388.7 956.019 13383.1 954.886 13375.9 948.344C13334.6 911.019 13270 924.359 13249.8 975.018C13244 989.568 13235.5 998.06 13222 1003.6C13219 1004.83 13215.7 1006.23 13213.6 1008.51C13206.9 1015.7 13200.5 1013.93 13192.4 1010.47C13139.9 988.113 13083.4 1024.9 13081.2 1081.78C13080.9 1089.9 13077.5 1098.72 13073.1 1105.73C13057.5 1130.83 13054.8 1156.01 13065.2 1182.1C13057.7 1200.94 13064.3 1224.43 13082.9 1238.06C13103.2 1253.01 13126.7 1245.21 13144.8 1230.73C13149.9 1230.25 13155 1229.21 13160.3 1227.59C13170.9 1224.35 13180.5 1220.47 13189.4 1224.79C13190.8 1225.84 13192.3 1226.77 13193.8 1227.64C13194.2 1227.96 13194.5 1228.27 13194.9 1228.64C13195 1228.56 13195 1228.49 13195.1 1228.41C13198 1230 13201.1 1231.2 13204.2 1232.12C13221.5 1293.33 13258.8 1346.95 13309.9 1384.96C13306.8 1422.41 13296.8 1459.12 13278.2 1495.09C13257.5 1507.76 13232.2 1498.6 13210.5 1492.59C13191.3 1487.27 13172.6 1485.32 13153.5 1491.43C13149.5 1492.7 13147.7 1495.83 13147.5 1499.08C13147.4 1499.17 13147.4 1499.24 13147.4 1499.34C13145.9 1505.58 13144.5 1511.82 13143 1518.06C13141.7 1523.91 13145.9 1527.91 13150.4 1528.69C13151.1 1528.87 13151.9 1529 13152.7 1529H13507.3C13510.4 1529 13512.6 1527.63 13514 1525.7C13516 1524.1 13517.4 1521.65 13517.4 1518.91V1505.94C13517.4 1502.1 13514.8 1498.81 13511.3 1497.71C13509.9 1496.58 13508.1 1495.85 13505.9 1495.85H13398.7C13393.4 1489.7 13388 1483.49 13382.4 1477.35C13366.8 1460.25 13360 1441.23 13367 1418.21C13369.4 1410.22 13371.1 1401.9 13372.2 1393.6C13375.1 1369.02 13377.9 1344.31 13380.8 1319.25C13416.7 1315.83 13449.2 1300.5 13474.5 1274.48C13485 1274.46 13494.4 1271.35 13502.2 1266.08L13505.3 1265.1C13522.4 1278.89 13548.8 1280.31 13568.7 1272.96C13587.1 1266.15 13603.1 1247.7 13603.6 1227.41C13603.7 1225.52 13603.6 1223.64 13603.4 1221.77C13617.8 1184.79 13604.7 1138.14 13572.3 1114.7ZM13259.5 1226.11C13259.7 1226.03 13259.9 1225.97 13260.1 1225.89C13263.8 1224.48 13270.3 1226.1 13273.6 1228.7C13278.4 1232.37 13282.8 1236.36 13287.2 1240.42C13287.3 1240.77 13287.3 1241.09 13287.4 1241.45C13294 1263.68 13300.7 1285.93 13307.3 1308.16C13308.9 1319.37 13309.9 1330.51 13310.5 1341.58C13276.1 1313.27 13257.2 1271.24 13259.5 1226.11ZM13388.7 1290.39C13390.3 1286.66 13391.8 1282.93 13393.5 1279.22C13394 1279.22 13394.5 1279.22 13395.1 1279.22C13395.1 1277.93 13395.1 1276.64 13395.2 1275.35C13399.6 1265.39 13404.4 1255.66 13409.9 1246.35C13416.8 1252.47 13424.1 1257.97 13431.8 1262.45C13418.9 1273.85 13404.4 1283.2 13388.7 1290.39Z" fill="#E7F2FC"/>
<path d="M13986.8 1201.16C13977 1194.07 13970 1182.95 13971.2 1172.05C13975.6 1133.57 13952 1100.71 13913.9 1094.71C13907.1 1093.64 13900.4 1090.74 13894.2 1087.47C13882.7 1081.31 13870.8 1079.04 13858.4 1082.49C13851.7 1084.36 13847.6 1083.53 13842.2 1078.71C13811.9 1051.24 13764.3 1061.06 13749.5 1098.34C13745.2 1109.05 13738.9 1115.31 13729 1119.38C13726.8 1120.29 13724.4 1121.32 13722.8 1123C13717.9 1128.29 13713.1 1126.98 13707.2 1124.44C13668.5 1107.98 13626.9 1135.06 13625.3 1176.93C13625.1 1182.91 13622.6 1189.4 13619.4 1194.56C13607.9 1213.03 13605.9 1231.57 13613.6 1250.78C13608 1264.64 13612.9 1281.93 13626.6 1291.96C13641.6 1302.97 13658.9 1297.23 13672.1 1286.57C13675.9 1286.21 13679.7 1285.45 13683.6 1284.26C13691.4 1281.87 13698.4 1279.01 13705 1282.2C13706 1282.97 13707.1 1283.66 13708.2 1284.29C13708.5 1284.53 13708.8 1284.76 13709.1 1285.03C13709.1 1284.97 13709.1 1284.92 13709.2 1284.86C13711.3 1286.03 13713.6 1286.91 13715.9 1287.59C13728.6 1332.65 13756 1372.12 13793.7 1400.09C13791.4 1427.65 13784 1454.68 13770.4 1481.16C13755.1 1490.49 13736.5 1483.74 13720.5 1479.31C13706.4 1475.4 13692.6 1473.96 13678.5 1478.46C13675.6 1479.39 13674.3 1481.7 13674.1 1484.09C13674.1 1484.16 13674.1 1484.21 13674.1 1484.28C13673 1488.88 13671.9 1493.47 13670.8 1498.07C13669.8 1502.37 13672.9 1505.31 13676.3 1505.89C13676.8 1506.02 13677.4 1506.12 13678 1506.12H13939C13941.3 1506.12 13942.9 1505.11 13943.9 1503.69C13945.4 1502.51 13946.4 1500.71 13946.4 1498.69V1489.14C13946.4 1486.31 13944.5 1483.89 13941.9 1483.09C13940.9 1482.25 13939.6 1481.71 13937.9 1481.71H13859.1C13855.2 1477.19 13851.2 1472.62 13847 1468.1C13835.6 1455.51 13830.5 1441.51 13835.7 1424.57C13837.5 1418.68 13838.8 1412.56 13839.5 1406.45C13841.7 1388.36 13843.8 1370.17 13845.8 1351.73C13872.3 1349.21 13896.2 1337.92 13914.8 1318.77C13922.5 1318.75 13929.5 1316.47 13935.2 1312.59L13937.5 1311.87C13950.1 1322.02 13969.5 1323.06 13984.2 1317.65C13997.7 1312.64 14009.5 1299.06 14009.9 1284.13C14009.9 1282.73 14009.9 1281.35 14009.7 1279.97C14020.3 1252.75 14010.6 1218.42 13986.8 1201.16ZM13756.6 1283.17C13756.8 1283.11 13756.9 1283.06 13757 1283.01C13759.8 1281.97 13764.5 1283.16 13767 1285.07C13770.5 1287.77 13773.7 1290.71 13777 1293.7C13777 1293.96 13777 1294.19 13777.1 1294.46C13782 1310.82 13786.9 1327.2 13791.8 1343.57C13793 1351.82 13793.7 1360.01 13794.1 1368.16C13768.8 1347.33 13754.9 1316.38 13756.6 1283.17ZM13851.7 1330.48C13852.8 1327.73 13854 1324.99 13855.2 1322.26C13855.6 1322.26 13856 1322.26 13856.4 1322.26C13856.4 1321.31 13856.4 1320.36 13856.4 1319.41C13859.7 1312.08 13863.3 1304.92 13867.3 1298.07C13872.4 1302.57 13877.7 1306.62 13883.4 1309.92C13873.9 1318.3 13863.3 1325.19 13851.7 1330.48Z" fill="#E7F2FC"/>
<path d="M6633.92 518.504C6597.18 491.903 6570.72 450.181 6575.36 409.267C6591.71 264.855 6503.21 141.513 6360.14 119.008C6334.73 115.006 6309.43 104.101 6286.53 91.8337C6243.36 68.6994 6198.38 60.18 6151.87 73.1524C6126.75 80.1641 6111.29 77.0345 6091.33 58.9621C5977.44 -44.1469 5798.97 -7.29655 5743.17 132.648C5727.15 172.842 5703.47 196.301 5666.33 211.592C5658.04 215.009 5648.94 218.865 5643.05 225.174C5624.51 245.026 5606.85 240.128 5584.39 230.575C5439.41 168.822 5283.28 270.435 5277.23 427.571C5276.37 450.014 5267.07 474.381 5255.03 493.733C5211.93 563.074 5204.31 632.638 5233.24 704.714C5212.41 756.756 5230.58 821.642 5281.89 859.282C5338.2 900.597 5403.13 879.038 5452.89 839.047C5466.98 837.709 5481.31 834.854 5495.95 830.375C5525.2 821.405 5551.61 810.689 5576.27 822.634C5580.18 825.535 5584.19 828.115 5588.27 830.495C5589.36 831.402 5590.44 832.251 5591.53 833.264C5591.67 833.039 5591.79 832.857 5591.93 832.632C5600.06 837.015 5608.48 840.335 5617.1 842.867C5664.96 1011.98 5767.82 1160.11 5909.08 1265.09C5900.47 1368.54 5872.94 1469.95 5821.63 1569.33C5764.37 1604.34 5694.5 1579.02 5634.54 1562.41C5581.53 1547.73 5529.92 1542.32 5476.99 1559.21C5466.04 1562.71 5460.94 1571.37 5460.4 1580.34C5460.33 1580.59 5460.22 1580.8 5460.16 1581.06C5456.14 1598.31 5452.13 1615.55 5448.12 1632.79C5444.37 1648.93 5455.99 1659.98 5468.59 1662.15C5470.56 1662.65 5472.65 1663 5474.97 1663H6454.45C6463.04 1663 6469.14 1659.23 6472.94 1653.87C6478.57 1649.46 6482.31 1642.71 6482.31 1635.12V1599.29C6482.31 1588.68 6475.05 1579.6 6465.33 1576.57C6461.61 1573.44 6456.7 1571.42 6450.45 1571.42H6154.5C6139.79 1554.43 6124.83 1537.28 6109.37 1520.31C6066.37 1473.09 6047.4 1420.53 6066.73 1356.95C6073.44 1334.86 6078.28 1311.89 6081.07 1288.97C6089.32 1221.05 6097.04 1152.81 6104.87 1083.58C6204.2 1074.12 6294.02 1031.77 6363.76 959.903C6392.69 959.833 6418.66 951.255 6440.31 936.693L6449 933.993C6496.19 972.076 6568.99 976.005 6623.99 955.699C6674.94 936.883 6719.01 885.915 6720.55 829.883C6720.69 824.637 6720.43 819.443 6719.98 814.293C6759.65 712.13 6723.37 583.272 6633.92 518.504ZM5769.99 826.276C5770.55 826.062 5771.02 825.893 5771.58 825.679C5781.84 821.773 5799.72 826.253 5808.96 833.428C5821.97 843.558 5834.29 854.595 5846.33 865.823C5846.57 866.777 5846.58 867.661 5846.88 868.642C5865.26 930.073 5883.65 991.519 5902.03 1052.95C5906.41 1083.91 5909.21 1114.67 5910.72 1145.27C5815.61 1067.06 5763.58 950.936 5769.99 826.276ZM6126.82 1003.84C6131.12 993.539 6135.43 983.245 6139.91 972.995C6141.41 972.995 6142.91 972.995 6144.41 972.984C6144.41 969.435 6144.49 965.875 6144.61 962.307C6156.87 934.798 6170.28 907.899 6185.33 882.194C6204.5 899.096 6224.47 914.278 6245.74 926.662C6210.13 958.146 6170.19 983.997 6126.82 1003.84Z" fill="#E7F2FC"/>
<path d="M7202.73 217.751C7202.01 216.341 7200.12 216.178 7198.75 216.178C7194.03 216.178 7184.79 218.597 7170.8 222.26L7166.23 223.454C7145 228.995 7124.66 244.67 7115.97 251.364C7115.86 251.451 7115.75 251.538 7115.64 251.623C7123.56 241.28 7144.52 209.354 7142.77 205.649C7142.58 205.237 7142.2 205 7141.73 205C7139.82 205 7137.69 207.102 7133.83 210.918C7128.33 216.354 7119.13 225.452 7102.53 236.386C7091.87 243.403 7080.38 253.433 7070.24 262.283C7057.22 273.644 7044.92 284.374 7039.11 284.374C7038.03 284.374 7037.22 283.985 7036.65 283.183C7029.1 272.623 7021.35 266.94 7013.59 266.294C7011.95 266.157 7010.25 266.015 7008.52 266.015C7002.02 266.015 6994.66 267.809 6984.96 280.819C6982.81 283.712 6961.91 286.098 6946.66 287.84C6938.55 288.766 6931.56 289.565 6927.84 290.326C6925.81 290.742 6924.92 290.96 6925.01 291.799C6925.09 292.611 6925.86 292.679 6928.24 292.679C6931.12 292.679 6936.31 292.46 6942.32 292.206C6951.48 291.818 6962.89 291.335 6972.55 291.335C6982.94 291.335 6989.31 291.906 6991.48 293.029C6999.87 297.382 7012.21 313.569 7022.92 334.266C7033.3 354.35 7059.87 375.627 7076.69 381.235C7089.55 385.523 7091.59 396.935 7094.66 414.209C7095.45 418.612 7096.34 423.602 7097.49 428.837C7101.35 446.388 7103.52 448.755 7105.13 448.755C7106.52 448.755 7107.42 446.973 7108.03 442.979C7108.12 442.418 7108.19 441.889 7108.24 441.39C7114.02 461.551 7117.05 464.149 7119.05 464.149C7119.47 464.149 7119.85 463.963 7120.12 463.624C7121.3 462.102 7120.12 457.108 7118.1 449.084C7117.05 444.894 7115.64 439.29 7115.83 437.657C7117.43 439.206 7121.76 447.222 7124.98 453.191C7132.3 466.772 7134.85 471 7136.53 471C7136.72 471 7136.91 470.949 7137.07 470.851C7138.83 469.797 7137.15 465.003 7132.29 452.579C7129.73 446.038 7127.08 439.278 7126.79 436.356C7128.27 437.457 7131.92 442.163 7134.66 445.695C7140.34 453.015 7142.98 456.223 7144.46 456.223C7144.78 456.223 7145.07 456.09 7145.28 455.849C7145.6 455.466 7145.68 454.864 7145.52 453.898C7144.86 449.896 7139.49 437.662 7133.81 424.71C7128.94 413.604 7123.9 402.12 7122.71 397.592C7120.09 387.64 7104.81 349.941 7100.2 340.704C7097.12 334.562 7108.43 327.516 7116.68 322.37C7120.31 320.112 7123.43 318.161 7125.05 316.544C7127.66 313.937 7130.55 312.651 7133.61 311.289C7136.66 309.934 7139.82 308.533 7142.61 305.736C7146.37 301.978 7147 298.816 7147.61 295.758C7147.91 294.251 7148.2 292.829 7148.84 291.322C7149.69 289.345 7152.55 288.207 7155.57 287.001C7159.11 285.589 7163.13 283.988 7165.02 280.58C7166.35 278.186 7167.15 275.361 7167.93 272.628C7169.08 268.582 7170.16 264.76 7172.69 264.034C7177.56 262.643 7185.24 257.803 7186.7 253.08L7186.94 252.286C7188.35 247.628 7191.66 236.722 7199.89 225.333C7202.65 221.512 7203.5 219.245 7202.73 217.751Z" fill="#E7F2FC"/>
<path d="M10106.5 831.396L9666.05 1194.51C9666.05 1195.02 9665.92 1195.77 9665.66 1196.8C9665.41 1197.82 9665.27 1198.56 9665.27 1199.09V1566.77C9665.27 1580.05 9670.13 1591.55 9679.83 1601.24C9689.53 1610.94 9701.02 1615.81 9714.3 1615.81H10008.4V1321.66H10204.6V1615.82H10498.7C10512 1615.82 10523.5 1610.96 10533.2 1601.24C10542.9 1591.56 10547.7 1580.05 10547.7 1566.77V1199.09C10547.7 1197.05 10547.5 1195.51 10547 1194.51L10106.5 831.396Z" fill="#E7F2FC"/>
<path d="M10715.5 1111.77L10547.7 972.357V659.817C10547.7 652.672 10545.4 646.796 10540.8 642.197C10536.3 637.604 10530.4 635.307 10523.2 635.307H10376.1C10369 635.307 10363.1 637.604 10358.5 642.197C10353.9 646.796 10351.6 652.675 10351.6 659.817V809.19L10164.7 652.916C10148.4 639.638 10129 633 10106.5 633C10084 633 10064.6 639.638 10048.3 652.916L9497.51 1111.77C9492.41 1115.85 9489.61 1121.34 9489.09 1128.24C9488.57 1135.13 9490.35 1141.14 9494.45 1146.25L9541.94 1202.94C9546.03 1207.53 9551.38 1210.34 9558.03 1211.37C9564.16 1211.88 9570.29 1210.09 9576.42 1206L10106.5 763.994L10636.6 1206C10640.7 1209.56 10646 1211.34 10652.7 1211.34H10655C10661.6 1210.33 10667 1207.51 10671.1 1202.92L10718.6 1146.24C10722.6 1141.13 10724.4 1135.12 10723.9 1128.23C10723.4 1121.35 10720.6 1115.86 10715.5 1111.77Z" fill="#E7F2FC"/>
<path d="M3530.5 801.396L3090.05 1164.51C3090.05 1165.02 3089.92 1165.77 3089.66 1166.8C3089.41 1167.82 3089.27 1168.56 3089.27 1169.09V1536.77C3089.27 1550.05 3094.13 1561.55 3103.83 1571.24C3113.53 1580.94 3125.02 1585.81 3138.3 1585.81H3432.44V1291.66H3628.56V1585.82H3922.7C3935.98 1585.82 3947.48 1580.96 3957.17 1571.24C3966.88 1561.56 3971.75 1550.05 3971.75 1536.77V1169.09C3971.75 1167.05 3971.47 1165.51 3970.97 1164.51L3530.5 801.396Z" fill="#E7F2FC"/>
<path d="M4139.48 1081.77L3971.73 942.357V629.817C3971.73 622.672 3969.43 616.796 3964.82 612.197C3960.25 607.604 3954.38 605.307 3947.22 605.307H3800.14C3792.99 605.307 3787.12 607.604 3782.51 612.197C3777.92 616.796 3775.63 622.675 3775.63 629.817V779.19L3588.72 622.916C3572.4 609.638 3552.99 603 3530.52 603C3508.05 603 3488.64 609.638 3472.3 622.916L2921.51 1081.77C2916.41 1085.85 2913.61 1091.34 2913.09 1098.24C2912.57 1105.13 2914.35 1111.14 2918.45 1116.25L2965.94 1172.94C2970.03 1177.53 2975.38 1180.34 2982.03 1181.37C2988.16 1181.88 2994.29 1180.09 3000.42 1176L3530.5 733.994L4060.59 1176C4064.68 1179.56 4070.04 1181.34 4076.68 1181.34H4078.98C4085.61 1180.33 4090.95 1177.51 4095.07 1172.92L4142.57 1116.24C4146.65 1111.13 4148.44 1105.12 4147.91 1098.23C4147.38 1091.35 4144.58 1085.86 4139.48 1081.77Z" fill="#E7F2FC"/>
<path d="M12028.5 1053.43L11747.8 1284.82C11747.8 1285.14 11747.7 1285.62 11747.6 1286.28C11747.4 1286.93 11747.3 1287.4 11747.3 1287.73V1522.04C11747.3 1530.5 11750.4 1537.83 11756.6 1544.01C11762.8 1550.18 11770.1 1553.29 11778.6 1553.29H11966V1365.84H12091V1553.3H12278.4C12286.9 1553.3 12294.2 1550.2 12300.4 1544.01C12306.6 1537.84 12309.7 1530.5 12309.7 1522.04V1287.73C12309.7 1286.44 12309.5 1285.45 12309.2 1284.82L12028.5 1053.43Z" fill="#E7F2FC"/>
<path d="M12416.6 1232.1L12309.7 1143.25V944.089C12309.7 939.536 12308.2 935.792 12305.3 932.861C12302.4 929.934 12298.6 928.47 12294.1 928.47H12200.3C12195.8 928.47 12192 929.934 12189.1 932.861C12186.2 935.792 12184.7 939.538 12184.7 944.089V1039.28L12065.6 939.692C12055.2 931.23 12042.8 927 12028.5 927C12014.2 927 12001.8 931.23 11991.4 939.692L11640.4 1232.1C11637.2 1234.7 11635.4 1238.19 11635.1 1242.59C11634.7 1246.98 11635.9 1250.81 11638.5 1254.07L11668.7 1290.19C11671.3 1293.12 11674.8 1294.91 11679 1295.56C11682.9 1295.89 11686.8 1294.75 11690.7 1292.15L12028.5 1010.48L12366.3 1292.14C12368.9 1294.41 12372.3 1295.55 12376.6 1295.55H12378C12382.2 1294.9 12385.6 1293.1 12388.3 1290.18L12418.5 1254.06C12421.1 1250.8 12422.3 1246.98 12421.9 1242.58C12421.6 1238.2 12419.8 1234.7 12416.6 1232.1Z" fill="#E7F2FC"/>
<path d="M2230 1198.86L2063.8 1335.87C2063.8 1336.07 2063.76 1336.35 2063.66 1336.74C2063.56 1337.12 2063.51 1337.4 2063.51 1337.6V1476.34C2063.51 1481.35 2065.34 1485.69 2069.01 1489.35C2072.67 1493 2077 1494.84 2082.01 1494.84H2193V1383.85H2267V1494.85H2377.99C2383 1494.85 2387.34 1493.01 2391 1489.35C2394.66 1485.69 2396.5 1481.35 2396.5 1476.34V1337.6C2396.5 1336.83 2396.39 1336.25 2396.2 1335.87L2230 1198.86Z" fill="#E7F2FC"/>
<path d="M2459.79 1304.65L2396.49 1252.05V1134.12C2396.49 1131.42 2395.62 1129.21 2393.88 1127.47C2392.16 1125.74 2389.94 1124.87 2387.24 1124.87H2331.74C2329.04 1124.87 2326.83 1125.74 2325.09 1127.47C2323.36 1129.21 2322.49 1131.42 2322.49 1134.12V1190.48L2251.97 1131.51C2245.81 1126.5 2238.49 1124 2230.01 1124C2221.53 1124 2214.21 1126.5 2208.04 1131.51L2000.21 1304.65C1998.29 1306.19 1997.23 1308.26 1997.03 1310.87C1996.84 1313.47 1997.51 1315.74 1999.05 1317.66L2016.97 1339.05C2018.52 1340.79 2020.54 1341.85 2023.05 1342.23C2025.36 1342.43 2027.67 1341.75 2029.99 1340.21L2230 1173.43L2430.02 1340.21C2431.56 1341.55 2433.58 1342.23 2436.09 1342.23H2436.96C2439.46 1341.84 2441.48 1340.78 2443.03 1339.05L2460.95 1317.66C2462.49 1315.73 2463.17 1313.47 2462.97 1310.86C2462.77 1308.27 2461.71 1306.2 2459.79 1304.65Z" fill="#E7F2FC"/>
<path d="M8239.71 1289.56L8180.18 1251.67C8176.36 1249.23 8171.86 1243.01 8170.76 1238.61L8154.31 1173.42C8154.28 1173.29 8154.22 1173.17 8154.18 1173.03C8152.72 1165.58 8146.15 1159.94 8138.27 1159.94H8058.09C8054.17 1159.94 8050.61 1161.4 8047.8 1163.72C8047.43 1163.94 8047.03 1164.14 8046.69 1164.38L7989.58 1204.89C7983.06 1209.52 7979.1 1219.31 7980.57 1227.19L7998.24 1321.59C7999.76 1329.7 8007.43 1336.05 8015.72 1336.05L8024.79 1335.56C8029.16 1335.32 8033.17 1333.28 8035.81 1329.97C8038.45 1326.67 8039.54 1322.3 8038.81 1317.98L8026.48 1245.17C8025.84 1241.36 8028.14 1235.85 8031.31 1233.61L8041.87 1226.18V1335.49L8039.73 1394.95C8039.48 1401.8 8036.24 1412.5 8032.65 1418.34L7978.67 1506.04C7975.84 1510.63 7975.23 1515.87 7976.98 1520.43C7978.74 1524.99 7982.71 1528.46 7987.89 1529.97L8004.78 1534.89C8006.68 1535.44 8008.69 1535.72 8010.75 1535.72C8019.17 1535.72 8027.52 1531.08 8031.51 1524.16L8082.98 1435.05C8087.25 1427.65 8091.24 1415.21 8092.07 1406.71L8096.82 1357.99H8108.84L8127.25 1405.12C8129.73 1411.47 8130.94 1422.55 8129.89 1429.3L8115.28 1522.66C8114.5 1527.67 8115.7 1532.34 8118.65 1535.8C8121.52 1539.15 8125.72 1540.99 8130.49 1540.99C8131.34 1540.99 8132.22 1540.93 8133.12 1540.81L8150.55 1538.39C8160.66 1536.99 8169.58 1527.96 8170.85 1517.83L8182.64 1424.25C8183.71 1415.75 8182.47 1402.72 8179.81 1394.58L8154.5 1317.05V1287.89L8218.51 1324.75C8220.98 1326.17 8223.79 1326.92 8226.65 1326.92C8232.43 1326.92 8237.85 1323.87 8240.79 1318.97L8244.99 1311.98C8249.56 1304.37 8247.19 1294.32 8239.71 1289.56Z" fill="#E7F2FC"/>
<path d="M8092.77 1146.19C8125.08 1146.19 8151.37 1119.9 8151.37 1087.6C8151.37 1055.29 8125.08 1029 8092.77 1029C8060.46 1029 8034.18 1055.29 8034.18 1087.6C8034.18 1119.9 8060.47 1146.19 8092.77 1146.19Z" fill="#E7F2FC"/>
<path d="M14538.3 604.468C14546.2 615.046 14558.4 620.62 14570.7 620.62C14579.1 620.62 14587.7 617.965 14595 612.486C14612.8 599.053 14616.4 573.671 14603 555.812C14576.3 520.242 14561.5 476.158 14561.5 431.664C14561.5 384.072 14578.1 337.576 14608.3 300.762C14622.5 283.472 14619.9 257.964 14602.6 243.793C14585.4 229.632 14559.8 232.161 14545.7 249.451C14503.7 300.699 14480.6 365.412 14480.6 431.664C14480.6 493.606 14501.1 554.969 14538.3 604.468Z" fill="#E7F2FC"/>
<path d="M14451.8 729.258C14460.8 729.258 14469.8 726.287 14477.3 720.186C14494.7 706.089 14497.3 680.591 14483.2 663.249C14430.2 597.998 14401 515.752 14401 431.663C14401 343.686 14432.6 258.543 14490.1 191.912C14504.7 174.991 14502.8 149.43 14485.8 134.827C14468.9 120.234 14443.4 122.12 14428.8 139.041C14358.6 220.36 14320 324.289 14320 431.674C14320 534.296 14355.7 634.674 14420.4 714.318C14428.4 724.158 14440.1 729.258 14451.8 729.258Z" fill="#E7F2FC"/>
<path d="M14974.7 431.664C14974.7 476.158 14960 520.252 14933.2 555.812C14919.8 573.681 14923.4 599.053 14941.3 612.486C14948.6 617.965 14957.1 620.62 14965.6 620.62C14977.9 620.62 14990 615.046 14997.9 604.468C15035.2 554.969 15055.7 493.596 15055.7 431.664C15055.7 365.412 15032.6 300.699 14990.6 249.451C14976.4 232.161 14950.9 229.632 14933.6 243.793C14916.3 257.964 14913.8 283.462 14927.9 300.752C14958.1 337.586 14974.7 384.072 14974.7 431.664Z" fill="#E7F2FC"/>
<path d="M15135.3 431.665C15135.3 515.754 15106.1 598 15053 663.25C15038.9 680.593 15041.6 706.091 15058.9 720.188C15066.4 726.289 15075.4 729.26 15084.4 729.26C15096.2 729.26 15107.8 724.15 15115.8 714.309C15180.6 634.676 15216.2 534.298 15216.2 431.665C15216.2 324.28 15177.6 220.362 15107.5 139.043C15092.9 122.112 15067.3 120.226 15050.4 134.829C15033.5 149.421 15031.6 174.982 15046.2 191.914C15103.6 258.545 15135.3 343.688 15135.3 431.665Z" fill="#E7F2FC"/>
<path d="M15148.7 1425.05H15035L14828.2 543.444C14867.9 521.972 14895 479.922 14895 431.666C14895 361.675 14838.1 304.727 14768.1 304.727C14698.1 304.727 14641.1 361.675 14641.1 431.666C14641.1 479.932 14668.2 521.972 14707.9 543.444L14501.1 1425.05H14387.7C14365.3 1425.05 14347.2 1443.17 14347.2 1465.53C14347.2 1487.87 14365.3 1506 14387.7 1506H15148.7C15171 1506 15189.1 1487.87 15189.1 1465.53C15189.1 1443.17 15171 1425.05 15148.7 1425.05ZM14875.5 1099.44L14720.7 1007.15L14837.7 938.572L14875.5 1099.44ZM14768.1 385.686C14793.4 385.686 14814.1 406.316 14814.1 431.666C14814.1 457.027 14793.4 477.657 14768.1 477.657C14742.7 477.657 14722.1 457.027 14722.1 431.666C14722.1 406.316 14742.7 385.686 14768.1 385.686ZM14768.1 641.599L14818.4 856.084L14701.7 924.453L14768.1 641.599ZM14667.6 1069.76L14857.1 1182.72L14606.3 1331.05L14667.6 1069.76ZM14606.4 1425.05L14909.8 1245.61L14951.9 1425.05H14606.4Z" fill="#E7F2FC"/>
</svg>
