<svg width="645" height="397" viewBox="0 0 645 397" fill="none" xmlns="http://www.w3.org/2000/svg">
<path d="M583.119 362.499C583.119 374.943 570.217 386.587 547.704 396.617H122.443C102.766 396.617 84.339 389.5 68.5456 377.089C64.5753 372.381 62.4834 367.503 62.4834 362.493C62.4834 349.267 77.072 336.921 102.296 326.487L103.007 326.202C110.127 323.284 118.083 320.53 126.78 317.941C126.999 317.875 127.223 317.815 127.442 317.738C134.342 315.712 141.682 313.793 149.462 311.979C149.709 311.924 149.95 311.864 150.196 311.82C153.197 311.108 156.258 310.446 159.385 309.783L160.59 309.531C183.344 304.812 209.208 301.068 237.257 298.527H237.29C241.218 298.162 245.188 297.836 249.201 297.547C253.664 297.192 258.182 296.89 262.749 296.611C266.237 296.387 269.769 296.195 273.312 296.02C273.325 296.014 273.339 296.012 273.353 296.012C273.368 296.012 273.382 296.014 273.395 296.02C289.38 295.215 305.896 294.794 322.785 294.794C364.546 294.794 404.019 297.356 438.995 301.911C439.028 301.905 439.061 301.905 439.094 301.911C444.472 302.612 449.751 303.351 454.898 304.139C456.371 304.369 457.839 304.599 459.279 304.834C465.088 305.772 470.747 306.763 476.256 307.807C541.039 320.119 583.119 340.042 583.119 362.499Z" fill="#3F3D56"/>
<path d="M477.252 133.187C477.252 133.187 471.459 130.839 453.026 139.286C434.593 147.734 432.293 146.666 427.523 145.396C422.753 144.126 420.092 143.797 414.977 136.74C414.977 136.74 411.368 117.19 407.858 114.157C404.347 111.125 389.529 115.887 389.529 115.887C389.529 115.887 371.737 119.966 368.347 96.1787C368.347 96.1787 370.751 78.2657 367.476 72.7691C367.476 72.7691 374.091 75.6159 385 71.0172C395.909 66.4185 404.643 75.9718 404.643 75.9718C404.643 75.9718 407.381 83.0888 407.107 87.3372C406.834 91.5855 408.564 93.1786 413.767 91.1256C413.767 91.1256 416.324 87.4905 412.704 81.4793C409.084 75.4681 406.5 70.9953 407.507 66.3309C408.515 61.6665 411.423 55.19 420.76 51.9545C430.097 48.719 442.774 48.1222 448.858 45.5655C454.942 43.0089 456.443 41.3774 456.443 41.3774C456.443 41.3774 452.697 45.1276 461.519 61.0314C470.341 76.9353 464.717 83.8334 464.717 83.8334C464.717 83.8334 460.024 95.0181 439.302 94.1093C439.302 94.1093 419.336 94.8374 430.223 103.301C430.223 103.301 437.194 101.883 447.615 98.5712C458.036 95.259 465.561 108.929 467.428 118.439C469.295 127.948 477.252 133.187 477.252 133.187Z" fill="#FFC502"/>
<path d="M450.414 53.4216L450.523 53.3888C451.323 56.4218 442.402 68.6193 434.773 78.3149L434.686 78.2437C445.441 64.5899 451.032 55.7703 450.414 53.4216Z" fill="#444053"/>
<path d="M434.839 78.0576L434.888 78.1781C428.793 85.9192 421.132 95.1495 414.999 102.009C414.413 102.661 413.832 103.345 413.274 104.046L413.098 103.903C413.646 103.203 414.243 102.513 414.829 101.861C420.957 95.029 428.738 85.8042 434.839 78.0576Z" fill="#444053"/>
<path d="M413.247 103.728L413.367 103.936C402.206 117.869 401.467 139.522 401.44 139.691L399.085 136.954C399.112 136.779 402.009 117.76 413.247 103.728Z" fill="#444053"/>
<path d="M464.334 125.632C464.334 125.632 451.191 118.789 440.918 121.253C430.644 123.716 407.54 112.548 407.54 112.548C407.54 112.548 397.738 108.568 395.766 104.029C395.766 104.029 389.036 96.9123 388.647 93.2388C388.258 89.5653 381.714 80.3076 377.443 79.9518" stroke="#444053" stroke-miterlimit="10"/>
<path d="M462.401 132.218C462.401 132.218 455.775 127.751 456.547 122.55" stroke="#444053" stroke-miterlimit="10"/>
<path d="M452.237 137.983C452.237 137.983 442.758 134.545 441.832 121.056" stroke="#444053" stroke-miterlimit="10"/>
<path d="M436.953 141.476C436.953 141.476 427.896 133.965 430.902 120.837" stroke="#444053" stroke-miterlimit="10"/>
<path d="M418.558 137.808C418.558 137.808 412.534 125.162 417.896 116.933" stroke="#444053" stroke-miterlimit="10"/>
<path d="M464.46 117.294C464.46 117.294 457.609 119.484 459.077 123.076" stroke="#444053" stroke-miterlimit="10"/>
<path d="M456.191 104.883C456.191 104.883 447.018 107.79 446.805 120.76" stroke="#444053" stroke-miterlimit="10"/>
<path d="M443.398 101.861C443.398 101.861 435.047 112.165 435.661 121.526" stroke="#444053" stroke-miterlimit="10"/>
<path d="M428.777 105.902C428.777 105.902 420.486 113.829 421.543 118.236" stroke="#444053" stroke-miterlimit="10"/>
<path d="M423.777 103.104C423.777 103.104 416.001 104.495 414.911 101.944" stroke="#444053" stroke-miterlimit="10"/>
<path d="M413.674 93.7206C413.674 93.7206 417.6 98.9215 418.602 97.7554" stroke="#444053" stroke-miterlimit="10"/>
<path d="M452.62 90.4304C452.62 90.4304 433.016 91.8538 428.58 85.9412" stroke="#444053" stroke-miterlimit="10"/>
<path d="M409.572 67.5079C409.572 67.5079 418.766 87.2441 425.453 89.7569" stroke="#444053" stroke-miterlimit="10"/>
<path d="M419.199 58.1079C419.199 58.1079 424.845 76.2619 431.844 81.9281" stroke="#444053" stroke-miterlimit="10"/>
<path d="M460.868 75.4463C460.868 75.4463 445.961 81.8407 437.013 75.3696" stroke="#444053" stroke-width="0.75" stroke-miterlimit="10"/>
<path d="M432.474 54.2374C432.474 54.2374 435.88 67.5792 440.469 70.8037" stroke="#444053" stroke-width="0.75" stroke-miterlimit="10"/>
<path d="M458.617 60.4949C458.617 60.4949 450.238 63.6702 447.117 61.2394" stroke="#444053" stroke-width="0.75" stroke-miterlimit="10"/>
<path d="M406.494 98.0784C406.494 98.0784 406.494 109.712 403.329 110.539" stroke="#444053" stroke-miterlimit="10"/>
<path d="M380.597 113.15C380.597 113.15 393.192 114.245 398.981 107.736" stroke="#444053" stroke-miterlimit="10"/>
<path d="M403.253 84.337C403.253 84.337 400.208 96.1349 391.807 99.3157" stroke="#444053" stroke-miterlimit="10"/>
<path d="M373.051 100.723C373.051 100.723 381.955 103.816 389.617 95.9379" stroke="#444053" stroke-miterlimit="10"/>
<path d="M393.346 74.1925C393.346 74.1925 392.508 84.2111 387.059 88.9029" stroke="#444053" stroke-miterlimit="10"/>
<path d="M373.391 85.4538C373.391 85.4538 380.778 85.5031 382.509 83.0942" stroke="#444053" stroke-miterlimit="10"/>
<path d="M426.822 123.497H216.426V229.673H426.822V123.497Z" fill="#33323D"/>
<path d="M493.03 261.929H150.886V331.819H493.03V261.929Z" fill="#33323D"/>
<path d="M232.559 279.399H408L442.955 397H195.589L232.559 279.399Z" fill="white"/>
<path d="M141.139 220.262V256.553V264.196V331.813H206.678V267.305H437.238V331.813H502.777V264.196V256.553V220.262H141.139Z" fill="#504F60"/>
<path opacity="0.1" d="M502.777 220.262H141.139V256.548H502.777V220.262Z" fill="#33323D"/>
<path opacity="0.8" d="M483.287 243.786C486.257 243.786 488.665 241.379 488.665 238.41C488.665 235.441 486.257 233.034 483.287 233.034C480.317 233.034 477.91 235.441 477.91 238.41C477.91 241.379 480.317 243.786 483.287 243.786Z" fill="#8CCF4D"/>
<path opacity="0.8" d="M459.088 243.786C462.058 243.786 464.465 241.379 464.465 238.41C464.465 235.441 462.058 233.034 459.088 233.034C456.118 233.034 453.71 235.441 453.71 238.41C453.71 241.379 456.118 243.786 459.088 243.786Z" fill="#FA5959"/>
<path d="M419.095 97.958H224.158V213.539H419.095V97.958Z" fill="white"/>
<path d="M448.749 266.654C449.159 271.127 445.781 275.468 446.766 279.848C446.974 280.784 447.38 281.671 447.528 282.585C447.933 285.186 446.383 287.649 444.899 289.828L432.178 308.54C431.667 309.361 431.057 310.115 430.36 310.785C427.923 312.975 424.275 312.723 421.083 313.369C418.838 313.824 416.718 314.758 414.867 316.106C414.787 316.17 414.733 316.262 414.718 316.364C414.703 316.466 414.727 316.569 414.785 316.654C415.311 317.376 416.01 317.954 416.817 318.337C417.625 318.719 418.515 318.894 419.407 318.844C419.741 319.282 419.407 319.939 418.947 320.245C418.263 320.716 417.304 320.842 417.189 322.003C417.141 322.406 417.222 322.814 417.419 323.169C417.934 323.953 418.733 324.506 419.648 324.713C424.029 326.059 428.81 323.694 432.106 320.475C435.403 317.256 437.769 313.194 441.005 309.915C442.796 308.102 444.839 306.548 446.679 304.79C450.359 301.287 453.25 297.022 455.988 292.746C456.892 291.506 457.574 290.119 458.004 288.646C458.343 287.189 458.19 285.651 458.584 284.206C459.099 282.317 460.484 280.811 461.634 279.224C463.896 276.114 465.402 272.315 465.101 268.482C464.8 264.65 462.434 260.878 458.819 259.575C457.699 259.129 456.465 259.054 455.298 259.362C453.814 259.816 452.724 261.042 451.711 262.214L449.296 265.001C448.694 265.617 448.217 266.344 447.889 267.141C447.733 267.543 447.698 267.981 447.786 268.403C447.874 268.825 448.083 269.212 448.387 269.517" fill="#FBBEBE"/>
<path opacity="0.05" d="M448.749 266.654C449.159 271.127 445.781 275.468 446.766 279.848C446.974 280.784 447.38 281.671 447.528 282.585C447.933 285.186 446.383 287.649 444.899 289.828L432.178 308.54C431.667 309.361 431.057 310.115 430.36 310.785C427.923 312.975 424.275 312.723 421.083 313.369C418.838 313.824 416.718 314.758 414.867 316.106C414.787 316.17 414.733 316.262 414.718 316.364C414.703 316.466 414.727 316.569 414.785 316.654C415.311 317.376 416.01 317.954 416.817 318.337C417.625 318.719 418.515 318.894 419.407 318.844C419.741 319.282 419.407 319.939 418.947 320.245C418.263 320.716 417.304 320.842 417.189 322.003C417.141 322.406 417.222 322.814 417.419 323.169C417.934 323.953 418.733 324.506 419.648 324.713C424.029 326.059 428.81 323.694 432.106 320.475C435.403 317.256 437.769 313.194 441.005 309.915C442.796 308.102 444.839 306.548 446.679 304.79C450.359 301.287 453.25 297.022 455.988 292.746C456.892 291.506 457.574 290.119 458.004 288.646C458.343 287.189 458.19 285.651 458.584 284.206C459.099 282.317 460.484 280.811 461.634 279.224C463.896 276.114 465.402 272.315 465.101 268.482C464.8 264.65 462.434 260.878 458.819 259.575C457.699 259.129 456.465 259.054 455.298 259.362C453.814 259.816 452.724 261.042 451.711 262.214L449.296 265.001C448.694 265.617 448.217 266.344 447.889 267.141C447.733 267.543 447.698 267.981 447.786 268.403C447.874 268.825 448.083 269.212 448.387 269.517" fill="black"/>
<path d="M458.381 381.78C455.599 383.472 452.138 383.582 448.908 383.182C448.36 383.122 447.774 383.083 447.44 383.483C446.958 384.069 447.528 384.923 448.113 385.394C450.022 386.822 452.263 387.743 454.625 388.071C456.733 388.365 458.86 388.506 460.988 388.492C466.793 388.591 472.63 388.689 478.381 387.852C478.713 387.827 479.035 387.732 479.328 387.573C479.699 387.314 479.956 386.921 480.045 386.478C480.445 384.989 479.684 383.379 478.539 382.344C477.395 381.31 475.922 380.729 474.481 380.155L469.432 378.189C468.244 377.724 466.344 376.503 465.051 376.596C462.691 376.788 460.386 380.609 458.381 381.78Z" fill="#3F3D56"/>
<path opacity="0.05" d="M458.381 381.78C455.599 383.472 452.138 383.582 448.908 383.182C448.36 383.122 447.774 383.083 447.44 383.483C446.958 384.069 447.528 384.923 448.113 385.394C450.022 386.822 452.263 387.743 454.625 388.071C456.733 388.365 458.86 388.506 460.988 388.492C466.793 388.591 472.63 388.689 478.381 387.852C478.713 387.827 479.035 387.732 479.328 387.573C479.699 387.314 479.956 386.921 480.045 386.478C480.445 384.989 479.684 383.379 478.539 382.344C477.395 381.31 475.922 380.729 474.481 380.155L469.432 378.189C468.244 377.724 466.344 376.503 465.051 376.596C462.691 376.788 460.386 380.609 458.381 381.78Z" fill="black"/>
<path d="M461.903 314.743C459.805 317.541 457.626 320.765 458.146 324.231C458.425 326.098 459.471 327.746 460.238 329.47C461.198 331.843 461.908 334.309 462.357 336.828C463.146 340.491 463.934 344.164 464.416 347.881C464.964 352.08 462.39 364.229 462.149 368.461C462.089 369.479 461.974 370.585 461.262 371.318C460.983 371.609 460.61 371.866 460.49 372.222C460.413 372.584 460.471 372.962 460.654 373.284C461.842 375.961 464.268 377.948 466.963 379.087C469.657 380.226 476.212 382.18 479.136 382.284C479.525 382.331 479.918 382.278 480.281 382.131C480.676 381.895 480.986 381.54 481.168 381.118C483.282 377.083 481.25 362.718 481.283 358.157C481.283 354.325 482.208 350.58 482.044 346.781C481.907 343.732 481.091 340.759 480.796 337.715C480.308 332.728 481.223 327.724 482.143 322.797C482.844 319.025 483.545 315.247 484.443 311.513C484.99 309.241 485.626 306.942 486.88 304.944C487.871 303.372 489.218 302.064 490.352 300.564C493.493 296.447 494.888 291.259 494.234 286.122C494.168 285.618 486.94 287.956 486.31 288.23C483.716 289.332 481.329 290.869 479.251 292.774C477.608 294.361 476.267 296.491 474.799 298.276C472.729 300.794 470.686 303.332 468.671 305.891C466.382 308.829 464.126 311.78 461.903 314.743Z" fill="#464353"/>
<path opacity="0.05" d="M461.903 314.563C459.805 317.36 457.626 320.585 458.146 324.056C458.425 325.917 459.471 327.565 460.238 329.289C461.197 331.662 461.907 334.128 462.357 336.647C463.146 340.31 463.934 343.983 464.416 347.701C464.964 351.9 462.39 364.054 462.149 368.285C462.089 369.298 461.974 370.41 461.262 371.138C460.983 371.428 460.61 371.685 460.49 372.041C460.407 372.414 460.465 372.804 460.654 373.136C461.842 375.808 464.268 377.8 466.963 378.934C469.657 380.067 476.212 381.124 479.136 381.217C479.525 381.263 479.918 381.211 480.281 381.063C480.676 380.827 480.986 380.473 481.168 380.05C483.282 376.016 481.25 362.564 481.283 358.01C481.283 354.177 482.208 350.427 482.044 346.628C481.907 343.578 481.091 340.606 480.796 337.562C480.308 332.574 481.223 327.57 482.143 322.649C482.844 318.871 483.545 315.094 484.443 311.36C484.99 309.088 485.626 306.789 486.88 304.79C487.871 303.225 489.218 301.911 490.352 300.444C493.49 296.324 494.884 291.138 494.234 286.001C494.168 285.492 486.94 287.83 486.31 288.109C483.714 289.213 481.326 290.753 479.251 292.664C477.608 294.257 476.267 296.381 474.799 298.139C472.729 300.657 470.686 303.197 468.671 305.759C466.382 308.679 464.126 311.614 461.903 314.563Z" fill="black"/>
<path d="M438.525 253.148C445.036 253.148 450.315 247.871 450.315 241.361C450.315 234.851 445.036 229.574 438.525 229.574C432.013 229.574 426.734 234.851 426.734 241.361C426.734 247.871 432.013 253.148 438.525 253.148Z" fill="#FBBEBE"/>
<path d="M449.138 240.868C450.227 242.607 451.654 244.108 453.335 245.284C455.016 246.46 456.917 247.285 458.924 247.712L458.037 250.925C456.503 256.471 454.751 262.335 450.496 266.178C450.961 264.3 450.359 262.28 449.296 260.665C448.16 259.094 446.813 257.686 445.293 256.482L438.508 250.58C438.306 250.431 438.133 250.246 437.999 250.033C437.835 249.618 437.835 249.156 437.999 248.741C438.864 246.053 441.334 244.361 443.333 242.555C444.338 241.613 445.238 240.565 446.016 239.429C447.407 237.496 448.245 239.429 449.138 240.868Z" fill="#FBBEBE"/>
<path d="M422.989 229.514L422.726 227.324C424.588 227.806 426.351 226.229 427.539 224.587C428.728 222.944 429.834 221.017 431.647 220.338C433.837 219.506 436.181 220.837 438.284 221.932C440.641 223.243 443.229 224.089 445.907 224.422C446.334 224.437 446.757 224.507 447.166 224.631C448.535 225.118 449.187 226.82 449.384 228.392C449.581 229.963 449.527 231.605 450.206 232.996C450.715 234.047 451.596 234.83 452.133 235.865C453.573 238.657 452.182 242.467 453.705 245.204L449.926 241.739C449.576 241.421 449.088 241.093 448.711 241.361C448.333 241.629 448.387 242.034 448.261 242.401C447.895 243.496 446.553 243.803 445.573 243.381C444.592 242.96 443.886 242.029 443.169 241.191C441.498 239.22 439.51 237.49 437.145 236.647C436.121 236.255 435.025 236.086 433.93 236.151C432.836 236.216 431.768 236.514 430.798 237.025C429.034 238.022 427.742 240.343 425.584 240.425C422.622 240.534 421.39 235.021 420.015 232.843C420.516 232.464 420.867 231.922 421.01 231.311C421.152 230.7 421.075 230.058 420.793 229.497C421.034 229.404 422.95 229.158 422.989 229.514Z" fill="#464353"/>
<path d="M472.132 381.687C469.802 383.765 466.777 384.892 463.655 384.846C462.861 384.846 461.76 385 461.755 385.793C461.769 386.03 461.849 386.257 461.985 386.45C462.974 388.093 464.534 389.313 466.366 389.877C468.064 390.392 469.882 390.305 471.656 390.217L476.831 389.949C477.806 389.894 478.786 389.845 479.761 389.724C480.735 389.604 481.787 389.401 482.805 389.253C485.3 388.897 487.823 388.778 490.341 388.898C491.009 388.925 491.781 388.898 492.197 388.394C492.613 387.89 492.389 386.981 492.236 386.253C491.929 384.753 492.236 383.182 491.951 381.676C491.452 379.032 489.18 377.012 486.672 376.054C484.344 375.167 480.215 374.154 478.008 375.627C475.643 377.215 474.219 379.799 472.132 381.687Z" fill="#3F3D56"/>
<path d="M477.258 293.211C477.718 295.401 479.815 297.044 479.881 299.234C479.93 301.007 478.66 302.518 477.751 304.024C476.882 305.601 476.15 307.25 475.56 308.951C473.832 313.368 471.691 317.611 469.164 321.625C467.948 323.547 466.59 325.638 466.87 327.899C467.061 328.954 467.431 329.969 467.965 330.899L471.607 338.131C472.407 339.576 473.032 341.11 473.469 342.702C473.781 344.077 473.814 345.5 474.016 346.901C474.591 351.336 476.672 355.803 475.445 360.101C475.336 360.473 474.953 360.922 474.662 360.648C475.862 362.893 476.853 365.159 476.738 367.705C476.689 369.041 476.278 370.442 476.776 371.68C477.058 372.161 477.244 372.693 477.324 373.246C477.324 373.607 477.154 373.952 477.116 374.34C477.017 375.364 477.954 376.218 478.934 376.53C479.914 376.842 480.971 376.831 481.957 377.127C483.857 377.675 485.204 379.317 486.83 380.456C488.478 381.597 490.423 382.231 492.427 382.279C492.711 382.309 492.998 382.252 493.249 382.114C493.392 381.99 493.507 381.836 493.587 381.663C493.666 381.49 493.708 381.303 493.709 381.113C493.796 380.206 493.659 379.292 493.309 378.451C492.96 377.61 492.409 376.867 491.704 376.289C491.398 376.094 491.144 375.827 490.965 375.512C490.873 375.232 490.848 374.933 490.894 374.642C491.19 370.662 491.118 366.663 490.68 362.696C490.483 361.44 490.419 360.166 490.489 358.896C490.598 357.84 490.916 356.789 490.795 355.732C490.675 354.675 490.144 353.723 489.826 352.705C489.278 350.898 489.421 348.96 489.361 347.066C489.262 343.781 488.512 340.562 487.761 337.365C487.471 336.111 487.143 334.792 486.25 333.861C485.494 333.072 484.273 332.311 484.558 331.26C484.713 330.871 484.948 330.519 485.248 330.226C485.601 329.784 485.86 329.276 486.01 328.73C486.16 328.185 486.197 327.616 486.119 327.056C486.439 327.141 486.779 327.111 487.079 326.971C487.38 326.831 487.621 326.589 487.761 326.289C493.681 323.503 498.467 317.919 500.576 311.721C500.694 311.264 500.879 310.827 501.123 310.424C501.671 309.657 502.624 309.329 503.467 308.902C506.118 307.572 507.952 305.07 509.633 302.622C510.614 301.199 511.588 299.732 512.01 298.062C512.241 296.983 512.351 295.881 512.339 294.777L512.487 289.073C512.516 288.704 512.479 288.333 512.377 287.978C512.238 287.637 512.029 287.33 511.764 287.074C510.158 285.365 508.047 284.214 505.74 283.79C504.185 283.51 502.597 283.565 501.025 283.434C497.975 283.182 494.963 282.24 491.912 282.459C487.115 282.81 482.849 286.133 480.588 290.376C479.794 291.892 478.961 293.211 477.258 293.211Z" fill="#464353"/>
<path d="M450.644 256.115C450.713 256.995 450.595 257.879 450.299 258.71C449.926 259.51 448.984 260.128 448.168 259.805C448.415 259.258 447.758 258.606 447.15 258.677C446.849 258.744 446.569 258.883 446.335 259.083C446.1 259.282 445.917 259.536 445.803 259.822C445.394 260.635 445.258 261.558 445.414 262.455C445.606 263.55 446.252 264.645 446.082 265.74C445.945 266.67 445.261 267.601 445.627 268.477C445.863 268.871 446.159 269.225 446.504 269.528C446.985 270.118 447.221 270.871 447.163 271.63C447.105 272.389 446.757 273.097 446.191 273.607L455.381 273.787C455.047 275.326 455.731 276.897 456.52 278.26C458.726 282.007 461.771 285.192 465.414 287.567C469.057 289.941 473.201 291.44 477.521 291.947C477.288 292.085 477.088 292.272 476.936 292.496C476.784 292.72 476.683 292.975 476.641 293.242C476.6 293.51 476.617 293.783 476.694 294.043C476.77 294.303 476.903 294.542 477.083 294.744C477.828 295.483 479.093 295.39 480.029 294.909C480.965 294.427 481.705 293.633 482.559 293.02C484.066 291.946 485.908 291.449 487.75 291.618C488.9 291.728 490.018 292.1 491.173 292.166C494.579 292.347 497.504 289.899 500.762 288.881C503.15 288.147 505.849 288.147 507.881 286.658C508.746 286.018 509.453 284.967 509.201 283.921C508.987 283.321 508.649 282.773 508.21 282.311C507.054 280.822 506.375 279.027 505.554 277.335C503.915 273.982 501.662 270.966 498.911 268.444C496.839 266.628 494.643 264.958 492.34 263.446C491.779 263.028 491.181 262.661 490.554 262.351C489.718 262.079 488.902 261.747 488.112 261.36C487.017 260.681 486.409 259.482 485.582 258.513C483.758 256.389 480.96 255.409 478.715 253.739C477.209 252.644 475.884 251.144 474.082 250.602C473.211 250.339 472.28 250.318 471.404 250.055C469.422 249.453 467.976 247.69 466.026 246.978C464.482 246.431 462.784 246.562 461.152 246.359C459.357 246.137 457.642 245.485 456.153 244.46C455.658 244.061 455.104 243.743 454.51 243.518C452.051 242.768 451.848 247.35 451.618 248.943C451.252 251.38 450.644 253.723 450.644 256.115Z" fill="#FFC502"/>
<path d="M453.042 271.499C453.453 275.972 450.074 280.308 451.06 284.693C451.268 285.629 451.673 286.516 451.821 287.43C452.232 290.031 450.676 292.494 449.192 294.668L436.471 313.336C435.961 314.157 435.35 314.911 434.653 315.581C432.216 317.771 428.569 317.519 425.376 318.165C423.132 318.621 421.012 319.555 419.161 320.902C419.08 320.966 419.027 321.058 419.012 321.16C418.996 321.261 419.02 321.365 419.079 321.45C419.604 322.173 420.302 322.752 421.11 323.135C421.917 323.517 422.808 323.691 423.701 323.64C424.035 324.083 423.701 324.735 423.241 325.041C422.556 325.517 421.598 325.643 421.483 326.804C421.435 327.207 421.515 327.615 421.713 327.97C422.229 328.752 423.027 329.305 423.941 329.514C428.322 330.861 433.103 328.496 436.4 325.277C439.697 322.057 442.062 317.995 445.304 314.716C447.095 312.904 449.138 311.349 450.972 309.592C454.658 306.088 457.516 301.823 460.282 297.547C461.185 296.307 461.867 294.92 462.297 293.447C462.636 291.991 462.483 290.452 462.877 289.007C463.392 287.118 464.778 285.607 465.928 284.025C468.189 280.915 469.695 277.116 469.394 273.284C469.093 269.451 466.727 265.679 463.113 264.376C461.993 263.928 460.758 263.853 459.592 264.163C458.113 264.617 457.018 265.844 456.005 267.015L453.59 269.802C452.988 270.417 452.511 271.145 452.188 271.942C452.031 272.343 451.995 272.78 452.082 273.201C452.17 273.622 452.378 274.008 452.681 274.313" fill="#FBBEBE"/>
<path d="M459.482 253.121C457.806 253.219 455.966 253.383 454.784 254.577C454.291 255.125 453.891 255.75 453.601 256.427C452.456 258.765 451.339 261.207 451.257 263.807C451.186 265.888 451.804 267.919 452.106 269.977C452.369 271.685 451.7 273.426 451.558 275.156C453.634 274.521 456.372 273.656 458.256 272.583C459.49 271.776 460.801 271.093 462.171 270.546C464.17 269.884 467.527 271.023 469.411 271.959C469.515 270.623 468.518 268.307 468.622 266.972C468.639 266.412 468.738 265.859 468.918 265.329C469.201 264.768 469.537 264.235 469.92 263.736C470.646 262.561 470.981 261.186 470.875 259.808C470.77 258.431 470.23 257.123 469.334 256.071C467.653 254.177 465.013 253.466 462.5 253.175C460.915 252.99 459.318 252.934 457.724 253.006" fill="#FFC107"/>
<path d="M211.382 214.82L200.583 199.162C200.583 199.162 200.38 195.286 199.674 194.383C198.967 193.48 199.52 191.465 199.52 191.465C199.52 191.465 200.282 190.37 199.624 190.255C198.967 190.14 199.52 187.688 199.52 187.688L199.471 183.762C199.471 183.762 200.079 179.985 199.575 179.081C199.426 178.836 199.352 178.553 199.361 178.267C199.369 177.98 199.461 177.702 199.624 177.466C199.624 177.466 200.227 175.304 199.624 174.729C199.022 174.154 199.17 170.804 199.318 168.132C199.466 165.46 198.261 163.955 198.261 163.555C198.261 163.156 194.274 159.225 194.274 158.869C194.274 158.513 191.75 157.057 190.233 156.679C188.716 156.301 187.966 155.973 188.015 155.77C188.064 155.568 185.644 154.768 185.644 154.768C185.644 154.768 183.524 154.615 182.714 153.559C181.903 152.502 179.428 152.195 179.368 152.184L179.319 151.976C179.319 151.9 179.291 151.823 179.275 151.746C179.475 151.428 179.658 151.099 179.822 150.761L179.965 150.454C180.852 150.46 181.719 150.19 182.446 149.683C182.804 149.386 183.096 149.018 183.304 148.602C183.513 148.187 183.632 147.732 183.656 147.268C183.699 146.337 183.495 145.412 183.064 144.586C182.621 143.682 181.969 142.741 182.199 141.755C182.298 141.334 182.55 140.961 182.681 140.545C182.877 139.733 182.747 138.876 182.32 138.158C181.936 137.43 181.405 136.784 180.978 136.078C180.436 135.174 180.074 134.174 179.91 133.133C179.88 132.579 179.748 132.035 179.521 131.529C179.292 131.172 178.99 130.867 178.634 130.636C177.054 129.509 175.147 128.932 173.207 128.994C171.833 129.038 170.469 129.41 169.1 129.24C168.284 129.1 167.482 128.891 166.701 128.616C165.009 128.112 163.054 127.91 161.581 128.879C160.108 129.848 159.522 131.753 158.52 133.259C157.638 134.572 156.329 135.678 155.672 137.091C155.672 137.091 155.672 137.036 155.672 137.014C155.507 137.336 155.38 137.676 155.294 138.027C155.106 139.142 155.183 140.286 155.519 141.367C155.593 141.948 155.885 142.48 156.335 142.856C156.833 143.179 157.518 143.102 158.098 143.206L158.033 143.491C157.442 146.321 157.936 149.269 159.418 151.752C160.9 154.234 163.261 156.069 166.033 156.893C166.033 156.997 166.033 157.095 166.033 157.199C166.032 157.488 166.014 157.777 165.979 158.064C165.979 158.064 160.902 157.019 159.539 157.725C158.175 158.431 155.503 158.984 155.097 159.367C154.692 159.75 153.684 159.471 152.775 161.836C151.866 164.201 151.768 166.616 150.585 167.727C149.402 168.838 148.822 169.588 148.767 170.393C148.712 171.198 148.92 171.4 148.466 171.652C148.011 171.904 147.37 172.961 147.557 173.366C147.626 173.643 147.611 173.934 147.514 174.203C147.416 174.471 147.24 174.704 147.009 174.871C146.769 175.04 146.578 175.268 146.454 175.533C146.33 175.798 146.278 176.091 146.303 176.382C146.303 176.382 145.996 177.477 145.289 177.746C144.583 178.014 144.128 179.656 144.128 179.656L141.839 182.284L137.305 177.269C136.964 176.894 136.489 176.67 135.983 176.644C135.478 176.618 134.982 176.794 134.605 177.132L132.376 179.136C131.518 179.345 130.741 179.806 130.148 180.461C129.665 180.962 129.274 181.544 128.992 182.18L127.776 183.275C127.392 183.751 127.157 184.329 127.101 184.938C127.044 185.547 127.169 186.158 127.459 186.697L130.367 189.91V189.938C129.337 190.028 128.358 190.427 127.557 191.082C123.22 194.914 123.176 198.434 123.823 200.044C124.469 201.653 129.978 207.845 129.978 207.845C129.978 207.845 133.176 212.001 137.792 214.207L137.76 214.245C137.665 214.344 137.575 214.448 137.491 214.557L137.415 214.656L137.343 214.754L137.261 214.875C137.239 214.906 137.219 214.939 137.201 214.973L137.113 215.116C137.093 215.147 137.075 215.18 137.059 215.214C137.02 215.28 136.987 215.346 136.955 215.411C136.943 215.433 136.932 215.454 136.922 215.477C136.878 215.565 136.834 215.652 136.796 215.751L136.752 215.849C136.725 215.915 136.703 215.981 136.675 216.052C136.658 216.095 136.644 216.139 136.632 216.183L136.566 216.38C136.548 216.427 136.533 216.474 136.522 216.523C136.522 216.594 136.478 216.665 136.462 216.742C136.445 216.818 136.434 216.829 136.423 216.878C136.412 216.928 136.369 217.114 136.347 217.24C136.347 217.284 136.347 217.333 136.319 217.382C136.292 217.431 136.292 217.552 136.276 217.639C136.259 217.727 136.276 217.76 136.276 217.826L136.243 218.072V218.269C136.243 218.362 136.243 218.455 136.215 218.554C136.188 218.652 136.215 218.669 136.215 218.729C136.215 218.888 136.215 219.046 136.215 219.216C136.117 225.107 136.462 225.961 136.462 225.961C136.687 226.505 137.054 226.979 137.525 227.332C137.997 227.686 138.554 227.906 139.14 227.97C139.427 227.993 139.716 227.978 139.999 227.926C142.628 227.472 148.761 226.415 150.952 226.831C152.261 227.072 154.676 226.711 156.395 226.388L156.85 226.3L157.162 227.302L158.159 227.028L159.007 227.516L159.555 227.828C160.552 231.2 164.593 230.05 164.593 230.05L165.551 230.598L175.294 230.85C176.387 231.509 177.543 232.059 178.744 232.492C178.902 232.544 179.065 232.581 179.231 232.602C180.142 232.676 181.056 232.692 181.969 232.651C182.714 232.651 183.289 232.602 183.289 232.602C183.289 232.602 183.19 229.957 183.048 226.996C186.068 226.921 189.081 226.674 192.073 226.257C197.275 225.348 199.444 220.618 200.243 218.088C200.483 219.122 200.653 220.17 200.753 221.225C200.965 222.154 201.236 223.068 201.563 223.963C201.842 224.678 202.21 225.354 202.658 225.977C206.492 224.669 204.17 222.693 203.365 221.849C202.56 221.006 203.912 220.289 203.912 220.289C203.912 220.289 204.975 219.583 204.871 218.931C204.767 218.28 204.717 217.574 208.156 217.623C211.595 217.672 211.382 214.82 211.382 214.82ZM158.087 182.678C158.131 182.963 158.635 186.067 159.04 186.883C159.161 187.421 159.2 187.975 159.155 188.525C157.124 188.361 155.004 188.273 155.004 188.273C155.064 188.347 155.102 188.436 155.114 188.531L154.791 188.459L154.331 188.35L158.076 182.651L158.087 182.678ZM150.662 194.482L154.183 195.029L154.479 195.073C154.379 195.615 154.319 196.164 154.298 196.715C154.298 196.77 154.374 196.83 154.489 196.901C154.44 197.178 154.418 197.458 154.424 197.739C154.478 198.013 156.121 198.615 158.011 199.113C157.983 199.217 157.961 199.316 157.934 199.403C156.264 198.527 153.641 198.117 153.339 197.465C153.038 196.814 144.101 193.693 144.101 193.693L143.214 193.25L145.563 193.693L146.209 193.628C147.673 194.008 149.161 194.294 150.662 194.482Z" fill="url(#paint0_linear)"/>
<path d="M199.893 217.01C199.893 217.01 198.497 225.463 191.394 226.711C184.291 227.959 160.579 227.713 160.579 227.713C160.579 227.713 147.02 225.758 142.119 214.311C137.218 202.863 134.063 198.303 138.285 198.106C142.508 197.909 165.152 205.77 166.45 205.858C167.748 205.946 201.147 188.454 199.893 217.01Z" fill="#65617D"/>
<path opacity="0.05" d="M199.893 217.01C199.893 217.01 198.497 225.463 191.394 226.711C184.291 227.959 160.579 227.713 160.579 227.713C160.579 227.713 147.02 225.758 142.119 214.311C137.218 202.863 134.063 198.303 138.285 198.106C142.508 197.909 165.152 205.77 166.45 205.858C167.748 205.946 201.147 188.454 199.893 217.01Z" fill="black"/>
<path d="M136.309 226.421C136.529 226.962 136.891 227.434 137.358 227.786C137.825 228.137 138.378 228.356 138.959 228.419C139.247 228.437 139.535 228.42 139.819 228.37C142.42 227.921 148.521 226.87 150.673 227.275C151.965 227.51 154.358 227.154 156.061 226.837C157.195 226.623 158.027 226.421 158.027 226.421C158.027 226.421 156.023 219.769 155.777 219.572C155.53 219.375 146.768 214.097 146.768 214.097L139.835 213.599C138.902 213.739 138.058 214.233 137.481 214.979C136.752 215.866 136.122 217.316 136.079 219.698C135.964 225.561 136.309 226.421 136.309 226.421Z" fill="#3F3D56"/>
<path opacity="0.05" d="M136.309 226.421C136.529 226.962 136.892 227.434 137.358 227.785C137.825 228.137 138.378 228.356 138.959 228.419C138.28 227.543 137.651 226.629 137.075 225.682L137.114 220.831C136.976 219.501 137.152 218.157 137.627 216.906C138.103 215.656 138.865 214.535 139.852 213.632C139.852 213.632 136.199 213.878 136.095 219.731C135.991 225.583 136.309 226.421 136.309 226.421Z" fill="black"/>
<path opacity="0.1" d="M166.378 215.811L172.835 210.758L182.988 200.756L180.25 200.63C179.839 200.892 178.689 201.725 178.645 202.721C178.596 203.942 175.907 202.809 174.5 203.504C173.092 204.199 166.247 212.975 165.048 212.915C163.848 212.855 162.896 212.307 162.392 213.161L162.359 213.216L166.378 215.811Z" fill="black"/>
<path opacity="0.1" d="M137.464 214.99C137.694 215.099 137.929 215.209 138.165 215.307C143.066 217.409 149.117 221.811 149.572 222.61C149.846 223.098 153.356 225.227 156.061 226.826C157.195 226.612 158.027 226.41 158.027 226.41C158.027 226.41 156.023 219.758 155.776 219.561C155.53 219.364 146.768 214.086 146.768 214.086L139.835 213.588C138.892 213.729 138.042 214.232 137.464 214.99Z" fill="black"/>
<path d="M123.861 200.657C124.507 202.256 129.962 208.409 129.962 208.409C129.962 208.409 133.412 212.909 138.318 214.979C143.225 217.048 149.271 221.483 149.72 222.282C150.01 222.797 153.92 225.151 156.669 226.766L157.288 227.127L158.652 227.921L159.374 228.331C159.374 228.331 161.05 226.99 162.72 225.638C164.391 224.286 166.006 222.961 166.006 222.901C166.006 222.84 166.707 221.05 166.554 220.952C166.4 220.853 166.132 220.207 165.497 219.402C164.826 218.51 163.954 217.789 162.95 217.3C161.499 216.554 160.341 215.341 159.665 213.856C159.665 213.856 159.446 213.698 159.117 213.484C158.436 213.016 157.675 212.677 156.872 212.482C155.777 212.345 153.717 210.095 153.717 210.095C152.917 209.574 152.249 208.873 151.768 208.048C151.22 206.953 143.482 201.621 142.765 201.128L161.57 213.205L166.072 216.096L172.528 211.048L182.681 201.046L179.33 200.892C174.401 200.679 165.639 200.345 164.544 200.597C163.647 200.803 162.722 200.864 161.806 200.777C161.806 200.777 159.309 200.887 157.655 200.016C156.001 199.146 153.4 198.735 153.099 198.089C152.797 197.443 143.948 194.345 143.948 194.345C143.948 194.345 131.9 187.945 127.59 191.744C123.281 195.544 123.209 199.047 123.861 200.657Z" fill="#65617D"/>
<path d="M162.726 163.949L164.276 169.101L166.28 180.702L173.635 181.2L175.738 177.696L177.862 174.171C177.862 174.171 179.188 169.484 180.14 164.951C180.978 160.938 181.531 157.04 180.617 156.619C179.801 156.247 179.27 154.894 178.919 153.438C178.875 153.263 178.837 153.077 178.804 152.891C178.559 151.66 178.394 150.415 178.311 149.162C178.311 149.162 162.907 148.363 165.059 154.714C165.443 155.799 165.639 156.941 165.639 158.092C165.639 158.387 165.639 158.677 165.585 158.951C165.478 159.936 165.169 160.888 164.677 161.748C164.185 162.609 163.521 163.358 162.726 163.949Z" fill="#EE8E9E"/>
<path d="M159.528 163.101L160.075 171.86L161.324 179.311L162.726 182.766L163.98 201.643C163.98 201.643 176.028 203.039 178.974 201.615C179.191 201.532 179.381 201.39 179.522 201.205C183.065 195.856 181.904 180.363 181.904 180.363L183.251 170.36L182.353 165.17L180.162 164.94L178.487 164.76C178.487 164.76 178.109 165.225 177.561 165.948C176.077 167.902 173.35 171.756 173.536 173.36C173.782 175.55 173.235 177.811 172.381 178.162C171.526 178.512 170.831 179.114 170.683 178.512C170.47 178.007 170.417 177.45 170.53 176.913C170.683 176.059 169.878 173.459 169.878 173.459C169.878 173.459 168.531 170.41 168.629 169.112C168.728 167.815 168.481 166.309 168.082 165.959C167.682 165.608 167.129 165.258 167.578 163.659C168.027 162.061 165.606 158.946 165.606 158.946L159.528 163.101Z" fill="#E3E8F4"/>
<path opacity="0.1" d="M175.458 184.956L175.962 199.907L178.848 201.511C179.064 201.424 179.254 201.28 179.395 201.095C182.939 195.746 181.778 180.253 181.778 180.253L183.13 170.251L182.227 165.061L180.036 164.831C180.879 160.818 181.427 156.925 180.513 156.498C179.697 156.126 179.165 154.774 178.82 153.323L177.26 163.9C177.26 163.9 177.391 164.853 177.435 165.838C177.5 166.461 177.457 167.091 177.309 167.7C177.107 168.518 177.073 169.369 177.21 170.201C176.307 171.789 175.858 174.735 175.639 177.576C175.343 181.353 175.458 184.956 175.458 184.956Z" fill="black"/>
<path d="M178.864 153.06C178.864 153.06 181.389 153.372 182.188 154.423C182.988 155.475 185.091 155.628 185.091 155.628C185.091 155.628 187.489 156.427 187.44 156.624C187.391 156.821 188.141 157.128 189.63 157.528C191.12 157.927 193.634 159.378 193.634 159.717C193.634 160.057 197.582 163.966 197.582 164.365C197.582 164.765 198.781 166.265 198.633 168.915C198.485 171.565 198.332 174.937 198.934 175.484C199.537 176.032 198.934 178.184 198.934 178.184C198.773 178.418 198.682 178.694 198.673 178.978C198.664 179.263 198.738 179.544 198.885 179.788C199.384 180.685 198.781 184.436 198.781 184.436L198.836 188.339C198.836 188.339 198.288 190.786 198.934 190.89C199.581 190.994 198.836 192.089 198.836 192.089C198.836 192.089 198.288 194.087 198.984 194.991C199.679 195.894 199.882 199.737 199.882 199.737L210.588 215.291C210.588 215.291 210.741 218.143 207.34 218.094C203.94 218.044 203.984 218.745 204.088 219.391C204.192 220.037 203.135 220.743 203.135 220.743C203.135 220.743 201.788 221.444 202.587 222.293C203.387 223.141 205.687 225.096 201.886 226.393C201.438 225.776 201.07 225.105 200.791 224.395C200.469 223.513 200.202 222.611 199.991 221.696C199.991 221.696 199.641 217.891 198.94 217.393C198.239 216.895 198.338 214.491 198.338 214.491C198.338 214.491 199.34 212.542 197.938 211.754C196.536 210.966 176.23 199.71 176.23 199.71L175.737 184.753C175.737 184.753 175.387 173.7 177.49 169.999C177.352 169.167 177.386 168.316 177.588 167.497C177.939 166.599 177.539 163.698 177.539 163.698L178.864 153.06Z" fill="#3F3D56"/>
<path opacity="0.1" d="M165.754 159.083C165.754 159.083 160.727 158.048 159.375 158.749C158.022 159.449 155.377 159.997 154.994 160.391C154.61 160.785 153.597 160.495 152.694 162.844C151.79 165.192 151.697 167.596 150.541 168.696C149.386 169.796 148.795 170.546 148.745 171.346C148.696 172.145 148.893 172.348 148.444 172.594C147.995 172.84 147.349 173.897 147.54 174.297C147.732 174.696 157.945 183.5 157.945 183.5C157.945 183.5 158.449 186.85 158.898 187.699C159.347 188.547 158.4 200.252 157.398 201.051C156.396 201.851 164.128 201.785 164.128 201.785C164.128 201.785 164.478 194.12 164.78 193.704C165.081 193.288 164.577 185.104 164.577 185.104C164.577 185.104 164.528 178.101 165.179 176.251C165.831 174.401 165.727 168.247 165.727 168.247C165.727 168.247 166.302 164.557 167.003 163.698C167.704 162.838 165.754 159.083 165.754 159.083Z" fill="black"/>
<path d="M165.607 158.935C165.607 158.935 160.579 157.9 159.227 158.595C157.874 159.291 155.224 159.849 154.846 160.238C154.468 160.626 153.444 160.336 152.546 162.69C151.648 165.044 151.544 167.437 150.394 168.537C149.244 169.638 148.641 170.388 148.592 171.187C148.543 171.986 148.745 172.189 148.291 172.441C147.836 172.693 147.195 173.738 147.393 174.138C147.59 174.537 157.797 183.341 157.797 183.341C157.797 183.341 158.296 186.691 158.75 187.54C159.205 188.388 158.246 200.093 157.244 200.892C156.242 201.692 164.002 201.621 164.002 201.621C164.002 201.621 164.352 193.956 164.648 193.545C164.944 193.135 164.451 184.939 164.451 184.939C164.451 184.939 164.402 177.943 165.053 176.092C165.705 174.242 165.628 168.088 165.628 168.088C165.628 168.088 166.203 164.398 166.904 163.539C167.605 162.679 165.607 158.935 165.607 158.935Z" fill="#3F3D56"/>
<path opacity="0.1" d="M165.08 154.703C165.464 155.788 165.661 156.93 165.661 158.081C168.118 158.8 170.745 158.679 173.126 157.737C175.507 156.795 177.505 155.086 178.804 152.88C178.559 151.649 178.394 150.404 178.311 149.152C178.311 149.152 162.928 148.347 165.08 154.703Z" fill="black"/>
<path d="M157.474 146.797C157.472 149.733 158.597 152.557 160.617 154.687C162.636 156.818 165.397 158.092 168.329 158.247C171.26 158.403 174.14 157.428 176.374 155.523C178.608 153.618 180.025 150.929 180.334 148.01C180.643 145.091 179.819 142.165 178.033 139.835C176.248 137.506 173.635 135.95 170.736 135.489C167.836 135.028 164.87 135.697 162.45 137.358C160.029 139.019 158.338 141.545 157.726 144.416C157.558 145.199 157.474 145.997 157.474 146.797Z" fill="#EE8E9E"/>
<path d="M150.119 173.317L147.381 174.165C147.451 174.441 147.436 174.732 147.339 175C147.241 175.267 147.065 175.499 146.834 175.665C146.595 175.832 146.406 176.058 146.283 176.321C146.161 176.585 146.111 176.876 146.138 177.165C146.138 177.165 145.837 178.26 145.136 178.518C144.435 178.775 143.986 180.417 143.986 180.417L141.686 183.067C141.686 183.067 140.832 183.768 140.985 184.118C141.138 184.469 140.082 184.567 140.082 184.567L140.629 193.469L145.383 194.372L148.334 194.071L150.733 193.173L152.836 191.92L153.783 189.472L157.989 183.067L150.119 173.317Z" fill="#3F3D56"/>
<path d="M140.766 185.251C140.766 185.251 134.666 176.454 130.109 181.2C125.553 185.947 131.96 193.655 133.461 193.403C134.961 193.151 142.119 192.752 142.119 192.752L140.766 185.251Z" fill="#EE8E9E"/>
<path d="M155.138 181.447L128.19 167.696C127.775 167.485 127.267 167.649 127.055 168.064L116.547 188.646C116.335 189.061 116.5 189.569 116.914 189.781L143.863 203.531C144.278 203.743 144.786 203.579 144.998 203.164L155.506 182.581C155.718 182.167 155.553 181.659 155.138 181.447Z" fill="#3F3D56"/>
<path d="M152.632 182.67L128.717 170.467L119.518 188.485L143.433 200.687L152.632 182.67Z" fill="#FFC107"/>
<path d="M123.198 179.437C123.44 179.437 123.636 179.241 123.636 178.999C123.636 178.757 123.44 178.561 123.198 178.561C122.956 178.561 122.76 178.757 122.76 178.999C122.76 179.241 122.956 179.437 123.198 179.437Z" fill="#E6E8EC"/>
<path d="M149.085 192.987C149.487 192.987 149.813 192.661 149.813 192.259C149.813 191.857 149.487 191.531 149.085 191.531C148.683 191.531 148.356 191.857 148.356 192.259C148.356 192.661 148.683 192.987 149.085 192.987Z" fill="#E6E8EC"/>
<path d="M136.818 187.102C136.763 193.704 150.421 195.106 150.421 195.106L153.909 195.653L155.475 195.9L156.127 189.45C156.127 189.45 155.41 189.341 154.517 189.133C153.192 188.826 151.478 188.295 151.122 187.545C150.547 186.302 136.856 180.499 136.818 187.102Z" fill="#EE8E9E"/>
<path opacity="0.1" d="M157.726 144.416C158.04 144.439 158.336 144.571 158.564 144.788C158.947 145.199 158.969 145.927 159.473 146.179C159.661 146.258 159.869 146.281 160.07 146.244C161.401 146.058 162.167 144.558 163.449 144.142C164.194 143.951 164.982 144.018 165.683 144.334C165.968 144.426 166.225 144.59 166.428 144.81C166.855 145.358 166.554 146.179 166.751 146.847C167.025 147.777 168.136 148.144 169.095 148.265C170.053 148.385 171.137 148.456 171.778 149.179C171.99 149.45 172.142 149.763 172.224 150.097C172.307 150.431 172.317 150.779 172.255 151.117C172.197 151.352 172.197 151.598 172.255 151.834C172.517 152.584 173.815 152.469 174.155 151.878C174.407 151.445 174.33 151.09 174.916 150.969C175.335 150.936 175.755 151.009 176.137 151.183C177.157 151.532 178.23 151.697 179.308 151.67C179.993 150.208 180.362 148.619 180.39 147.005C180.418 145.391 180.104 143.79 179.469 142.306C178.835 140.822 177.894 139.489 176.707 138.394C175.521 137.299 174.117 136.467 172.587 135.952C171.057 135.438 169.435 135.252 167.828 135.408C166.221 135.564 164.665 136.058 163.263 136.857C161.86 137.656 160.642 138.743 159.689 140.046C158.736 141.348 158.069 142.838 157.732 144.416H157.726Z" fill="black"/>
<path d="M172.249 151.533C172.192 151.297 172.192 151.051 172.249 150.816C172.312 150.478 172.301 150.131 172.219 149.798C172.137 149.465 171.985 149.153 171.773 148.883C171.132 148.155 170.053 148.089 169.089 147.963C168.125 147.838 167.019 147.476 166.745 146.546C166.548 145.878 166.849 145.062 166.422 144.514C166.222 144.291 165.965 144.126 165.678 144.038C164.977 143.721 164.189 143.652 163.443 143.841C162.162 144.257 161.395 145.757 160.064 145.943C159.863 145.983 159.655 145.96 159.467 145.878C158.964 145.626 158.92 144.898 158.558 144.487C157.951 143.847 156.795 144.263 156.056 143.786C155.607 143.412 155.318 142.882 155.245 142.303C154.914 141.229 154.839 140.093 155.026 138.985C155.459 137.129 157.124 135.854 158.181 134.26C159.172 132.782 159.73 130.91 161.214 129.93C162.698 128.95 164.61 129.169 166.291 129.667C167.064 129.943 167.859 130.152 168.668 130.291C170.02 130.456 171.378 130.089 172.736 130.045C174.661 129.983 176.552 130.56 178.114 131.687C178.466 131.917 178.765 132.219 178.99 132.574C179.216 133.077 179.35 133.617 179.384 134.167C179.544 135.201 179.903 136.194 180.441 137.091C180.858 137.797 181.389 138.432 181.767 139.16C182.189 139.874 182.319 140.724 182.128 141.531C181.997 141.941 181.745 142.314 181.646 142.735C181.427 143.71 182.068 144.646 182.506 145.544C182.932 146.365 183.134 147.285 183.092 148.21C183.069 148.671 182.95 149.122 182.744 149.534C182.537 149.947 182.247 150.313 181.893 150.608C181.149 151.124 180.262 151.394 179.357 151.38C178.26 151.413 177.165 151.248 176.126 150.892C175.743 150.722 175.323 150.648 174.905 150.679C174.319 150.799 174.396 151.155 174.144 151.588C173.81 152.168 172.517 152.283 172.249 151.533Z" fill="#3F3D56"/>
<path opacity="0.1" d="M166.077 216.106L172.534 211.059L182.686 201.057L179.335 200.903C178.942 201.259 178.691 201.745 178.629 202.272C178.579 203.493 175.89 202.354 174.483 203.055C173.076 203.756 166.23 212.526 165.031 212.466C163.832 212.406 162.879 211.858 162.375 212.707L162.342 212.761C162.143 212.992 161.874 213.151 161.576 213.216L166.077 216.106Z" fill="black"/>
<path d="M153.071 215.756L156.313 226.109L156.823 227.751L158.367 227.329L161.773 226.393L176.931 222.233C178.841 222.15 180.709 221.653 182.407 220.776C185.273 219.171 188.552 218.456 191.826 218.723C193.831 218.909 196.06 218.044 197.911 214.628C197.911 214.628 202.111 202.228 191.509 198.675C180.907 195.122 180.398 200.564 180.398 200.564L180.25 200.651C179.839 200.914 178.689 201.746 178.645 202.743C178.596 203.964 175.907 202.83 174.5 203.526C173.092 204.221 166.247 212.997 165.048 212.937C163.848 212.876 162.896 212.329 162.392 213.183L162.359 213.238C161.987 213.747 160.875 213.867 160.136 213.884C159.906 213.896 159.675 213.896 159.446 213.884L159.347 213.911L158.58 214.141L153.071 215.756Z" fill="#65617D"/>
<path opacity="0.1" d="M153.909 195.659L155.475 195.905L156.127 189.456C156.127 189.456 155.41 189.346 154.517 189.138C154.753 190.042 154.216 193.518 153.909 195.659Z" fill="black"/>
<path opacity="0.1" d="M194.817 165.515C194.817 165.515 199.466 164.163 198.316 177.368C197.518 185.427 194.09 193.001 188.563 198.922C188.563 198.922 178.656 203.268 174.204 202.568C169.752 201.867 166.505 201.719 166.505 201.719C165.102 201.011 163.567 200.603 161.998 200.52C159.5 200.422 154.249 198.878 154.145 198.369C154.041 197.86 155.448 190.518 154.846 189.971C154.846 189.971 161.85 190.255 162.551 190.759C163.252 191.263 164.254 190.907 165.004 190.759C165.754 190.611 168.054 188.618 172.605 190.37C172.605 190.37 174.155 190.518 174.757 190.118C175.248 189.89 175.808 189.854 176.323 190.02C176.713 189.891 177.082 189.706 177.419 189.472C177.566 189.275 178.771 189.472 178.771 189.472C178.843 189.504 178.921 189.521 178.999 189.52C179.078 189.519 179.155 189.502 179.226 189.469C179.298 189.435 179.361 189.387 179.412 189.327C179.463 189.268 179.5 189.197 179.521 189.122C179.68 188.714 179.918 188.342 180.222 188.027C180.222 188.027 181.57 180.428 184.122 177.576C184.325 177.398 184.482 177.172 184.577 176.919C184.673 176.666 184.704 176.393 184.669 176.125C184.461 175.315 188.815 163.911 194.817 165.515Z" fill="black"/>
<path d="M194.69 164.497C194.69 164.497 199.345 163.15 198.195 176.35C197.399 184.41 193.972 191.984 188.442 197.903C188.442 197.903 178.536 202.256 174.083 201.555C169.631 200.854 166.378 200.69 166.378 200.69C164.978 199.981 163.445 199.573 161.877 199.491C159.374 199.387 154.123 197.849 154.024 197.339C153.925 196.83 155.322 189.489 154.725 188.936C154.725 188.936 161.729 189.226 162.43 189.73C163.131 190.233 164.128 189.872 164.878 189.73C165.628 189.587 167.928 187.589 172.484 189.335C172.484 189.335 174.034 189.489 174.631 189.089C175.122 188.862 175.68 188.825 176.197 188.985C176.585 188.853 176.954 188.669 177.292 188.438C177.44 188.235 178.64 188.438 178.64 188.438C178.711 188.47 178.789 188.486 178.868 188.485C178.946 188.485 179.024 188.467 179.095 188.434C179.166 188.401 179.229 188.352 179.28 188.293C179.331 188.233 179.368 188.163 179.39 188.087C179.548 187.679 179.787 187.307 180.091 186.992C180.091 186.992 181.443 179.393 183.995 176.541C184.199 176.363 184.356 176.138 184.451 175.884C184.547 175.631 184.578 175.359 184.543 175.09C184.34 174.302 188.688 162.915 194.69 164.497Z" fill="#3F3D56"/>
<path opacity="0.1" d="M158.564 214.114L165.168 222.107L165.212 222.063C165.261 221.91 165.913 220.212 165.76 220.108C165.606 220.004 164.462 217.508 162.162 216.457C160.992 215.887 160.01 214.994 159.331 213.884L158.564 214.114Z" fill="black"/>
<path opacity="0.1" d="M158.652 227.948L159.374 228.359C159.374 228.359 161.05 227.017 162.72 225.665C164.391 224.313 166.006 222.988 166.006 222.928C166.006 222.868 166.707 221.077 166.554 220.979C166.4 220.88 166.132 220.234 165.497 219.43C161.017 218.176 163.854 221.286 164.248 221.428C164.248 221.428 158.799 220.174 158.498 226.114C158.472 226.73 158.524 227.346 158.652 227.948Z" fill="black"/>
<path d="M164.177 230.461L165.13 231.009L174.785 231.255C175.867 231.913 177.012 232.463 178.202 232.897C178.359 232.944 178.52 232.979 178.684 233.001C179.58 233.074 180.48 233.091 181.378 233.051C182.117 233.051 182.687 233.001 182.687 233.001C182.687 233.001 182.232 220.831 181.887 219.55C181.723 218.937 180.912 219.068 180.113 219.375C179.513 219.62 178.935 219.913 178.382 220.251C178.382 220.251 174.286 220.65 173.634 221.001C172.983 221.351 171.132 220.798 169.982 221.001C168.832 221.203 166.778 219.649 166.778 219.649C161.176 217.798 164.33 221.247 164.73 221.401C164.73 221.401 159.254 220.147 158.975 226.087C158.695 232.027 164.177 230.461 164.177 230.461Z" fill="#3F3D56"/>
<path d="M178.136 225.764C178.24 228.282 180.206 231.408 181.378 233.061C182.117 233.061 182.686 233.012 182.686 233.012C182.686 233.012 182.232 220.842 181.887 219.561C181.723 218.948 180.912 219.079 180.113 219.386C179.143 221.203 178.048 223.727 178.136 225.764Z" fill="#565387"/>
<path opacity="0.1" d="M178.136 225.764C178.24 228.282 180.206 231.408 181.378 233.061C182.117 233.061 182.686 233.012 182.686 233.012C182.686 233.012 182.232 220.842 181.887 219.561C181.723 218.948 180.912 219.079 180.113 219.386C179.143 221.203 178.048 223.727 178.136 225.764Z" fill="black"/>
<path opacity="0.05" d="M176.482 226.098C177.15 228.528 177.139 231.255 178.202 232.908C178.359 232.955 178.52 232.99 178.683 233.012C179.58 233.085 180.48 233.102 181.378 233.061C182.117 233.061 182.687 233.012 182.687 233.012C182.687 233.012 182.232 220.842 181.887 219.561C181.723 218.948 180.912 219.079 180.113 219.386C179.513 219.631 178.935 219.924 178.382 220.262C178.382 220.262 175.633 222.983 176.482 226.098Z" fill="black"/>
<path opacity="0.1" d="M143.176 201.423C143.176 201.423 147.973 202.978 152.036 208.508L143.176 201.423Z" fill="black"/>
<g opacity="0.1">
<path opacity="0.1" d="M182.145 141.41C182.145 141.449 182.145 141.481 182.118 141.52C182.071 141.663 182.015 141.802 181.948 141.936C182.001 141.756 182.066 141.58 182.145 141.41Z" fill="black"/>
<path opacity="0.1" d="M155.016 138.985C155.097 138.635 155.222 138.296 155.388 137.978C155.388 138.06 155.333 138.147 155.311 138.235C155.129 139.343 155.206 140.479 155.536 141.553C155.608 142.131 155.896 142.66 156.341 143.036C157.086 143.513 158.241 143.096 158.849 143.737C159.232 144.148 159.254 144.876 159.758 145.128C159.946 145.21 160.154 145.233 160.355 145.193C161.686 145.007 162.452 143.507 163.734 143.091C164.479 142.899 165.268 142.969 165.968 143.288C166.255 143.376 166.513 143.541 166.713 143.764C167.14 144.312 166.839 145.128 167.036 145.795C167.31 146.726 168.421 147.093 169.38 147.213C170.338 147.334 171.422 147.405 172.063 148.133C172.275 148.403 172.428 148.715 172.51 149.048C172.592 149.381 172.602 149.728 172.539 150.066C172.482 150.301 172.482 150.547 172.539 150.783C172.802 151.533 174.1 151.418 174.44 150.827C174.692 150.394 174.615 150.038 175.201 149.918C175.619 149.887 176.039 149.961 176.422 150.131C177.461 150.487 178.555 150.652 179.653 150.619C180.558 150.632 181.445 150.363 182.189 149.847C182.514 149.591 182.779 149.268 182.966 148.9C182.797 149.57 182.412 150.166 181.871 150.597C181.127 151.113 180.241 151.383 179.335 151.369C178.238 151.402 177.143 151.237 176.104 150.881C175.721 150.711 175.302 150.637 174.883 150.668C174.297 150.788 174.374 151.144 174.128 151.577C173.783 152.168 172.485 152.283 172.222 151.533C172.167 151.297 172.167 151.052 172.222 150.816C172.284 150.478 172.274 150.131 172.192 149.798C172.11 149.465 171.958 149.153 171.745 148.883C171.105 148.155 170.026 148.089 169.062 147.963C168.098 147.838 166.992 147.476 166.718 146.545C166.521 145.878 166.822 145.062 166.395 144.514C166.197 144.291 165.941 144.127 165.656 144.038C164.953 143.721 164.163 143.652 163.416 143.841C162.14 144.257 161.368 145.757 160.037 145.943C159.836 145.983 159.628 145.96 159.44 145.878C158.937 145.626 158.893 144.898 158.531 144.487C157.923 143.846 156.773 144.263 156.029 143.786C155.58 143.412 155.291 142.882 155.218 142.303C154.892 141.228 154.823 140.092 155.016 138.985Z" fill="black"/>
</g>
<path opacity="0.1" d="M182.922 179.016C182.002 180.253 180.956 181.397 180.146 182.7C179.265 183.985 178.837 185.526 178.93 187.08C179.768 186.22 180.157 185.027 180.682 183.948C181.58 182.12 182.917 180.571 184.05 178.895C184.264 178.572 185.644 176.705 184.948 176.629C184.368 176.547 183.234 178.594 182.922 179.016Z" fill="black"/>
<path d="M187.851 296.157C188.514 298.281 189.182 300.411 190.009 302.475C191.498 306.063 193.373 309.479 195.6 312.663C197.035 314.759 198.578 316.78 200.222 318.718C202.281 321.143 204.603 323.585 205.304 326.684C205.725 328.474 205.583 330.341 205.758 332.158C205.933 333.976 206.53 335.925 208.014 337.02C209.071 337.803 210.424 338.038 211.722 338.241C212.653 338.388 213.814 338.438 214.296 337.633C214.464 337.304 214.552 336.94 214.553 336.571L214.778 333.894C214.821 333.313 215.029 332.574 215.61 332.547C216.19 332.519 216.481 333.291 216.973 333.642C217.631 334.102 218.616 333.642 218.978 332.947C219.278 332.194 219.297 331.358 219.033 330.592C218.634 329.069 217.917 327.647 216.928 326.42C215.94 325.193 214.703 324.19 213.299 323.475C212.324 323.082 211.388 322.596 210.506 322.025C209.61 321.245 208.867 320.306 208.316 319.254C203.234 310.889 198.124 302.48 194.537 293.376C193.831 291.749 193.353 290.032 193.119 288.273C192.944 286.483 193.223 284.682 193.338 282.886C193.55 279.66 193.251 276.421 192.451 273.289C192.276 272.467 191.967 271.679 191.536 270.957C190.058 268.718 186.608 268.384 184.417 269.928C183.611 270.548 182.942 271.329 182.454 272.222C181.965 273.114 181.668 274.099 181.581 275.112C181.422 276.93 182.468 278.813 182.999 280.505C184.609 285.728 186.226 290.945 187.851 296.157Z" fill="#EEB4B4"/>
<path opacity="0.05" d="M187.851 296.157C188.514 298.281 189.182 300.411 190.009 302.475C191.498 306.063 193.373 309.479 195.6 312.663C197.035 314.759 198.578 316.78 200.222 318.718C202.281 321.143 204.603 323.585 205.304 326.684C205.725 328.474 205.583 330.341 205.758 332.158C205.933 333.976 206.53 335.925 208.014 337.02C209.071 337.803 210.424 338.038 211.722 338.241C212.653 338.388 213.814 338.438 214.296 337.633C214.464 337.304 214.552 336.94 214.553 336.571L214.778 333.894C214.821 333.313 215.029 332.574 215.61 332.547C216.19 332.519 216.481 333.291 216.973 333.642C217.631 334.102 218.616 333.642 218.978 332.947C219.278 332.194 219.297 331.358 219.033 330.592C218.634 329.069 217.917 327.647 216.928 326.42C215.94 325.193 214.703 324.19 213.299 323.475C212.324 323.082 211.388 322.596 210.506 322.025C209.61 321.245 208.867 320.306 208.316 319.254C203.234 310.889 198.124 302.48 194.537 293.376C193.831 291.749 193.353 290.032 193.119 288.273C192.944 286.483 193.223 284.682 193.338 282.886C193.55 279.66 193.251 276.421 192.451 273.289C192.276 272.467 191.967 271.679 191.536 270.957C190.058 268.718 186.608 268.384 184.417 269.928C183.611 270.548 182.942 271.329 182.454 272.222C181.965 273.114 181.668 274.099 181.581 275.112C181.422 276.93 182.468 278.813 182.999 280.505C184.609 285.728 186.226 290.945 187.851 296.157Z" fill="#917378"/>
<path d="M155.925 385.602C156.915 385.946 157.969 386.073 159.013 385.974C159.09 385.12 160.24 384.928 161.094 384.972C161.507 384.959 161.917 385.053 162.282 385.246C162.496 385.383 162.66 385.58 162.868 385.722C163.239 385.926 163.655 386.033 164.079 386.034L168.525 386.407C170.508 386.576 172.572 386.73 174.429 386.023C174.799 385.906 175.127 385.686 175.376 385.388C175.88 384.666 175.376 383.631 174.681 383.105C173.985 382.58 173.087 382.344 172.386 381.808C170.842 380.631 170.628 378.43 169.812 376.667C169.232 375.556 168.517 374.52 167.682 373.585C167.077 372.782 166.372 372.059 165.585 371.433C163.799 370.147 161.751 370.174 159.654 369.988C158.175 369.857 156.784 369.769 155.722 371.083C154.408 372.725 154.933 376.01 155.015 377.926C155.118 380.505 155.422 383.071 155.925 385.602Z" fill="#514E7F"/>
<path opacity="0.05" d="M155.925 385.602C156.915 385.946 157.969 386.073 159.013 385.974C159.09 385.12 160.24 384.928 161.094 384.972C161.507 384.959 161.917 385.053 162.282 385.246C162.496 385.383 162.66 385.58 162.868 385.722C163.239 385.926 163.655 386.033 164.079 386.034L168.525 386.407C170.508 386.576 172.572 386.73 174.429 386.023C174.799 385.906 175.127 385.686 175.376 385.388C175.88 384.666 175.376 383.631 174.681 383.105C173.985 382.58 173.087 382.344 172.386 381.808C170.842 380.631 170.628 378.43 169.812 376.667C169.232 375.556 168.517 374.52 167.682 373.585C167.077 372.782 166.372 372.059 165.585 371.433C163.799 370.147 161.751 370.174 159.654 369.988C158.175 369.857 156.784 369.769 155.722 371.083C154.408 372.725 154.933 376.01 155.015 377.926C155.118 380.505 155.422 383.071 155.925 385.602Z" fill="black"/>
<path d="M157.721 299.13C156.363 299.568 155.771 301.259 156.023 302.666C156.275 304.073 157.118 305.289 157.814 306.537C159.796 310.079 160.65 314.13 162.315 317.826C163.558 320.563 165.239 323.136 166.466 325.906C167.693 328.676 168.454 331.802 167.709 334.742C167.348 336.171 166.647 337.48 166.181 338.887C165.721 340.411 165.42 341.98 165.283 343.567C164.68 348.959 164.572 354.394 164.96 359.805C164.964 360.465 165.101 361.117 165.365 361.721C165.645 362.269 166.127 362.816 165.913 363.364C165.82 363.588 165.617 363.752 165.519 363.971C165.234 364.585 165.804 365.236 166.324 365.674C166.231 365.839 166.106 365.983 165.956 366.099C165.807 366.214 165.636 366.299 165.453 366.347C165.826 366.585 166.113 366.936 166.271 367.349C166.429 367.763 166.449 368.216 166.329 368.641C165.869 368.712 165.842 369.419 166.132 369.791C166.422 370.163 166.882 370.393 167.09 370.815C167.213 371.158 167.2 371.535 167.053 371.869C166.906 372.203 166.638 372.468 166.302 372.61C165.618 372.874 164.871 372.931 164.155 372.775C162.941 372.606 161.742 372.342 160.568 371.986C159.955 371.866 159.406 371.528 159.021 371.035C158.637 370.543 158.444 369.928 158.476 369.304C158.205 367.075 158.123 364.828 158.23 362.586C158.422 351.725 158.23 340.852 157.759 329.996C157.567 325.616 156.253 321.373 154.561 317.344C153.625 315.285 152.585 313.275 151.445 311.322C149.003 306.854 146.845 301.905 147.403 296.841C147.464 296.294 147.661 295.642 148.203 295.555C148.415 295.532 148.629 295.568 148.822 295.659C149.947 296.184 151.035 296.784 152.08 297.454C153.797 298.461 155.733 299.036 157.721 299.13Z" fill="#464353"/>
<path opacity="0.05" d="M157.721 299.13C156.363 299.568 155.771 301.259 156.023 302.666C156.275 304.073 157.118 305.289 157.814 306.537C159.796 310.079 160.65 314.13 162.315 317.826C163.558 320.563 165.239 323.136 166.466 325.906C167.693 328.676 168.454 331.802 167.709 334.742C167.348 336.171 166.647 337.48 166.181 338.887C165.721 340.411 165.42 341.98 165.283 343.567C164.68 348.959 164.572 354.394 164.96 359.805C164.964 360.465 165.101 361.117 165.365 361.721C165.645 362.269 166.127 362.816 165.913 363.364C165.82 363.588 165.617 363.752 165.519 363.971C165.234 364.585 165.804 365.236 166.324 365.674C166.231 365.839 166.106 365.983 165.956 366.099C165.807 366.214 165.636 366.299 165.453 366.347C165.826 366.585 166.113 366.936 166.271 367.349C166.429 367.763 166.449 368.216 166.329 368.641C165.869 368.712 165.842 369.419 166.132 369.791C166.422 370.163 166.882 370.393 167.09 370.815C167.213 371.158 167.2 371.535 167.053 371.869C166.906 372.203 166.638 372.468 166.302 372.61C165.618 372.874 164.871 372.931 164.155 372.775C162.941 372.606 161.742 372.342 160.568 371.986C159.955 371.866 159.406 371.528 159.021 371.035C158.637 370.543 158.444 369.928 158.476 369.304C158.205 367.075 158.123 364.828 158.23 362.586C158.422 351.725 158.23 340.852 157.759 329.996C157.567 325.616 156.253 321.373 154.561 317.344C153.625 315.285 152.585 313.275 151.445 311.322C149.003 306.854 146.845 301.905 147.403 296.841C147.464 296.294 147.661 295.642 148.203 295.555C148.415 295.532 148.629 295.568 148.822 295.659C149.947 296.184 151.035 296.784 152.08 297.454C153.797 298.461 155.733 299.036 157.721 299.13Z" fill="black"/>
<path d="M139.359 285.925C138.651 285.47 137.834 285.213 136.993 285.18C136.018 285.229 135.186 285.87 134.425 286.483C133.523 287.175 132.667 287.925 131.862 288.728C130.195 290.504 129.034 292.693 128.498 295.069C127.963 297.445 128.073 299.92 128.817 302.239C129.622 304.654 131.095 306.783 132.552 308.869L135.509 313.117C140.021 319.594 144.534 326.07 149.26 332.394C149.261 332.549 149.311 332.7 149.404 332.825C149.496 332.95 149.626 333.042 149.774 333.089C149.944 333.133 150.158 333.127 150.262 333.27C150.31 333.358 150.331 333.459 150.322 333.56C150.312 334.027 150.223 334.49 150.059 334.928C149.982 335.073 149.963 335.241 150.004 335.399C150.158 335.755 150.804 335.552 151.012 335.886C151.149 336.105 150.979 336.39 150.799 336.576C150.618 336.762 150.393 336.97 150.426 337.228C150.459 337.485 150.908 337.775 150.892 338.093C150.892 338.279 150.727 338.421 150.612 338.569C150.451 338.805 150.378 339.089 150.405 339.373C150.432 339.657 150.558 339.923 150.76 340.124C151.072 343.212 149.391 346.146 149.057 349.223C148.509 354.084 150.727 358.831 150.996 363.709C150.98 364.258 151.084 364.803 151.302 365.307C151.757 366.15 152.945 366.659 152.885 367.618C152.799 368.011 152.687 368.399 152.551 368.778C152.458 369.326 152.721 369.873 152.732 370.421C152.743 370.968 152.255 371.641 151.74 371.422C152.127 372.714 152.472 374.017 152.775 375.331L163.126 376.185C163.237 375.255 163.206 374.314 163.032 373.393C162.819 372.391 162.37 371.461 162.134 370.47C161.981 369.982 161.938 369.466 162.008 368.96C162.078 368.453 162.26 367.969 162.54 367.541C162.27 367.544 162.008 367.452 161.799 367.281C161.591 367.109 161.45 366.87 161.4 366.605C161.314 366.071 161.323 365.526 161.428 364.995C161.702 362.296 160.568 359.635 160.601 356.926C160.634 354.79 161.384 352.737 161.762 350.641C162.572 346.151 161.729 341.284 163.728 337.184C164.938 334.715 166.614 331.978 165.256 329.585C164.588 328.403 163.405 327.592 162.633 326.475C162.003 325.42 161.531 324.278 161.231 323.087C159.637 318.159 157.058 313.583 154.796 308.896C154.168 307.722 153.702 306.468 153.411 305.168C153.251 304.028 153.192 302.875 153.235 301.725C153.235 299.659 153.109 297.594 152.858 295.544C152.806 294.645 152.55 293.771 152.107 292.987C151.66 292.394 151.102 291.894 150.464 291.514C147.069 289.188 143.028 287.857 139.359 285.925Z" fill="#464353"/>
<path d="M151.763 389.396C152.756 389.736 153.811 389.861 154.857 389.763C154.933 388.909 156.078 388.717 156.932 388.761C157.345 388.747 157.755 388.841 158.121 389.034C158.334 389.171 158.498 389.374 158.712 389.511C159.082 389.717 159.499 389.824 159.922 389.823L164.363 390.195C166.351 390.365 168.41 390.524 170.272 389.812C170.642 389.697 170.969 389.476 171.214 389.177C171.718 388.454 171.214 387.425 170.519 386.899C169.823 386.374 168.925 386.133 168.23 385.596C166.68 384.419 166.472 382.224 165.65 380.461C165.076 379.346 164.362 378.309 163.526 377.373C162.919 376.572 162.212 375.85 161.423 375.227C159.643 373.935 157.589 373.963 155.497 373.777C154.013 373.645 152.622 373.563 151.566 374.872C150.251 376.514 150.777 379.799 150.854 381.72C150.957 384.299 151.26 386.865 151.763 389.396Z" fill="#514E7F"/>
<path d="M197.637 268.006C203.298 268.006 207.888 263.418 207.888 257.758C207.888 252.098 203.298 247.509 197.637 247.509C191.975 247.509 187.385 252.098 187.385 257.758C187.385 263.418 191.975 268.006 197.637 268.006Z" fill="#FBBEBE"/>
<path d="M187.966 260.802C186.498 262.066 184.39 262.159 182.462 262.356C178.34 262.78 174.328 263.941 170.617 265.783C170.103 266.005 169.638 266.325 169.248 266.725C168.915 267.159 168.678 267.66 168.552 268.192C168.2 269.345 168.068 270.554 168.164 271.756C168.298 272.922 168.633 274.056 169.155 275.107C170.578 278.051 172.773 280.555 175.507 282.35C175.989 282.709 176.536 282.971 177.117 283.122C178.464 283.401 179.768 282.623 181.098 282.273C182.309 281.957 183.585 281.997 184.773 282.388C185.868 282.76 187.067 283.439 188.152 282.985C188.846 282.597 189.385 281.982 189.68 281.244C190.727 279.265 191.661 277.229 192.478 275.145C192.771 274.331 193.11 273.535 193.491 272.758C194.679 270.497 196.733 268.751 197.757 266.402C197.861 266.223 197.924 266.023 197.941 265.816C197.958 265.61 197.929 265.402 197.856 265.209C197.666 264.947 197.403 264.747 197.1 264.634C195.586 263.767 194.206 262.685 193.004 261.42C192.33 260.774 191.092 259.028 190.123 258.874C189.033 258.688 188.705 260.166 187.966 260.802Z" fill="#FBBEBE"/>
<path d="M188.207 281.627C187.018 282.175 185.617 281.939 184.33 281.671C181.011 280.976 177.654 280.275 174.582 278.841C173.622 278.473 172.79 277.834 172.189 277.001C171.815 276.289 171.588 275.509 171.521 274.707L170.973 270.875C170.776 269.545 171.116 268.313 171.148 266.966C171.169 266.817 171.16 266.665 171.122 266.519C171.083 266.373 171.016 266.237 170.924 266.117C170.736 265.96 170.494 265.883 170.25 265.904C168.711 265.931 167.78 267.546 166.702 268.641C166.078 269.273 165.333 269.772 164.511 270.108C163.525 270.514 162.321 270.798 161.91 271.784C161.746 272.194 161.768 272.66 161.592 273.07C160.902 274.713 157.962 274.165 157.211 275.808C156.998 276.267 157.014 276.842 156.664 277.204C156.313 277.565 155.656 277.559 155.114 277.647C152.973 277.997 151.938 280.467 150.109 281.633C148.57 282.618 146.587 282.596 144.928 283.363C144.008 283.79 143.192 284.458 142.217 284.737C141.243 285.016 140.142 284.868 139.096 284.896C138.984 284.885 138.872 284.898 138.766 284.932C138.659 284.967 138.561 285.024 138.477 285.098C138.412 285.197 138.369 285.309 138.351 285.426C138.333 285.543 138.341 285.663 138.373 285.777C138.88 289.014 140.222 292.063 142.267 294.625C144.311 297.186 146.987 299.17 150.032 300.383C150.386 300.496 150.721 300.658 151.029 300.865C151.96 301.56 152.124 303.055 153.181 303.548C153.562 303.682 153.973 303.708 154.369 303.623C154.764 303.538 155.128 303.345 155.421 303.066C156.004 302.505 156.552 301.909 157.064 301.281C158.029 300.273 159.295 299.607 160.672 299.381C161.943 299.179 163.361 299.327 164.391 298.544C164.812 298.157 165.203 297.74 165.563 297.296C166.325 296.584 167.231 296.043 168.219 295.708C170.918 294.642 173.771 294.015 176.668 293.852C179.368 293.704 182.145 293.951 184.697 293.075C185.359 292.869 185.97 292.524 186.487 292.062C187.036 291.469 187.444 290.759 187.681 289.987C188.602 287.298 188.783 284.411 188.207 281.627Z" fill="#FFC502"/>
<path d="M174.992 266.523C175.748 266.451 176.509 266.523 177.271 266.523C178.163 266.523 179.045 266.304 179.938 266.298C181.351 266.321 182.72 266.795 183.845 267.651C184.97 268.507 185.792 269.7 186.191 271.056C186.267 271.272 186.28 271.505 186.23 271.729C186.2 271.839 186.132 271.936 186.038 272C185.943 272.064 185.829 272.092 185.715 272.079C185.419 271.27 185.031 270.496 184.559 269.774C183.711 268.616 182.501 267.773 181.12 267.377C179.744 266.987 178.294 266.934 176.893 267.223C176.307 267.333 175.737 267.486 175.168 267.645L172.43 268.4C171.926 268.537 171.416 268.674 170.929 268.855C170.551 268.997 169.905 269.517 169.533 269.539C169.029 269.539 169.434 269.101 169.659 268.805C170.106 268.196 170.732 267.74 171.449 267.502C172.587 267.037 173.777 266.708 174.992 266.523Z" fill="#FFC107"/>
<path d="M181.903 297.307C182.566 299.431 183.229 301.56 184.061 303.624C185.549 307.214 187.424 310.63 189.652 313.813C191.088 315.909 192.631 317.93 194.274 319.868C196.328 322.293 198.622 324.735 199.356 327.828C199.778 329.623 199.635 331.49 199.811 333.302C199.986 335.115 200.583 337.069 202.061 338.164C203.124 338.941 204.476 339.177 205.774 339.385C206.7 339.533 207.861 339.582 208.348 338.777C208.513 338.447 208.601 338.084 208.605 337.715L208.825 335.038C208.874 334.458 209.082 333.719 209.657 333.691C210.232 333.664 210.533 334.436 211.026 334.786C211.683 335.246 212.669 334.786 213.03 334.091C213.328 333.338 213.347 332.503 213.085 331.737C212.684 330.214 211.967 328.793 210.978 327.566C209.99 326.34 208.754 325.336 207.351 324.62C206.375 324.225 205.438 323.74 204.553 323.169C203.655 322.389 202.912 321.448 202.363 320.393C197.275 312.033 192.166 303.624 188.584 294.515C187.878 292.889 187.399 291.174 187.161 289.418C186.991 287.627 187.265 285.826 187.385 284.031C187.597 280.805 187.298 277.566 186.498 274.434C186.323 273.61 186.013 272.822 185.578 272.101C184.105 269.857 180.649 269.528 178.459 271.072C177.652 271.692 176.982 272.473 176.493 273.366C176.003 274.258 175.705 275.243 175.617 276.257C175.458 278.074 176.509 279.957 177.035 281.649C178.652 286.876 180.275 292.095 181.903 297.307Z" fill="#F2B7B7"/>
<path d="M212.548 250.509C212.631 249.655 211.864 248.867 210.993 248.319C210.076 247.849 209.196 247.311 208.359 246.71C207.581 246.036 207.154 245.16 206.377 244.487C205.493 243.814 204.489 243.315 203.42 243.014C201.144 242.217 198.755 241.79 196.344 241.75C193.907 241.75 191.416 242.297 189.581 243.54C189.129 243.825 188.738 244.197 188.431 244.635C188.142 245.16 187.956 245.737 187.884 246.332C187.446 248.169 186.855 249.966 186.115 251.703C185.354 253.635 184.543 255.639 182.752 257.134C180.836 258.727 177.906 259.646 176.641 261.573C176.501 261.745 176.403 261.946 176.354 262.162C176.306 262.378 176.308 262.602 176.362 262.816C176.542 263.303 177.123 263.637 177.659 263.944C180.77 265.729 183.453 268.045 184.833 270.809C186.213 273.574 186.175 276.831 184.209 279.377C183.486 280.319 182.489 281.436 183.196 282.383C184.291 283.822 187.955 282.996 188.809 284.518C189.077 285.005 188.919 285.558 188.919 286.089C188.919 287.688 190.457 289.105 192.325 289.845C194.192 290.584 196.355 290.759 198.458 290.852C199.016 289.597 199.071 288.177 198.611 286.883C198.471 286.604 198.416 286.29 198.453 285.979C198.609 285.635 198.853 285.337 199.159 285.115C201.404 282.99 200.928 279.87 199.581 277.346C198.234 274.822 196.131 272.517 195.348 269.862C194.959 268.543 194.959 267.059 196.005 265.964C196.605 265.438 197.252 264.967 197.938 264.557C199.163 263.726 200.106 262.542 200.643 261.163C201.273 259.416 201.191 257.331 203.02 256.154C204.778 255.059 207.247 255.376 209.191 254.626C210.686 254.035 212.428 251.763 212.548 250.509Z" fill="#464353"/>
<defs>
<linearGradient id="paint0_linear" x1="167.468" y1="232.706" x2="167.468" y2="128.194" gradientUnits="userSpaceOnUse">
<stop stop-color="#808080" stop-opacity="0.25"/>
<stop offset="0.54" stop-color="#808080" stop-opacity="0.12"/>
<stop offset="1" stop-color="#808080" stop-opacity="0.1"/>
</linearGradient>
</defs>
</svg>
