<svg width="596" height="465" viewBox="0 0 596 465" fill="none" xmlns="http://www.w3.org/2000/svg">
<path opacity="0.1" d="M182.389 463.258C220.878 463.258 252.079 457.997 252.079 451.507C252.079 445.018 220.878 439.757 182.389 439.757C143.901 439.757 112.7 445.018 112.7 451.507C112.7 457.997 143.901 463.258 182.389 463.258Z" fill="black"/>
<path d="M187.868 223.758H176.188V309.308H187.868V223.758Z" fill="#3F3D56"/>
<path d="M325.69 223.758H314.01V309.308H325.69V223.758Z" fill="#3F3D56"/>
<path d="M463.511 210.536H38.3677V229.98H463.511V210.536Z" fill="#E6E6E6"/>
<path d="M463.511 271.977H38.3677V291.42H463.511V271.977Z" fill="#E6E6E6"/>
<path d="M463.511 236.201H38.3677V247.867H463.511V236.201Z" fill="#E6E6E6"/>
<path d="M463.511 254.089H38.3677V265.755H463.511V254.089Z" fill="#E6E6E6"/>
<path d="M50.4368 207.036H37.1997V309.697H50.4368V207.036Z" fill="#3F3D56"/>
<path d="M463.511 206.648H450.273V309.308H463.511V206.648Z" fill="#3F3D56"/>
<path d="M14.2293 336.528H0.992188V443.077H14.2293V336.528Z" fill="#3F3D56"/>
<path d="M57.8337 332.64H44.5967V389.414H57.8337V332.64Z" fill="#3F3D56"/>
<path d="M460.396 332.64H447.159V389.414H460.396V332.64Z" fill="#3F3D56"/>
<path d="M497.771 336.528H484.534V443.077H497.771V336.528Z" fill="#3F3D56"/>
<path d="M497.771 336.528H0.992188V350.528H497.771V336.528Z" fill="#3F3D56"/>
<path d="M36.8101 305.419L0.992188 336.528H497.771L463.51 305.419H36.8101Z" fill="#E6E6E6"/>
<path d="M140.612 180.453C142.816 178.886 145.249 177.667 147.825 176.84C164.156 170.77 181.267 167.05 198.646 165.79C213.758 164.719 230.136 165.991 241.939 175.477C243.775 176.822 245.277 178.571 246.33 180.587C247.815 183.788 247.365 187.508 246.885 191.002C246.777 192.358 246.435 193.685 245.873 194.923C244.285 197.944 240.375 199.002 236.978 198.64C233.582 198.278 230.395 196.842 227.044 196.177C224.971 195.816 222.874 195.603 220.77 195.539L199.759 194.402C186.693 193.696 173.455 193.001 160.639 195.635C156.693 196.343 152.881 197.656 149.336 199.525C146.409 201.167 144.438 203.522 141.721 200.49C136.949 195.163 134.308 185.373 140.612 180.453Z" fill="#2F2E41"/>
<path d="M173.172 189.733C173.172 189.733 201.433 177.079 212.153 191.68C222.873 206.281 206.306 200.44 206.306 200.44L187.79 206.281L167.325 202.387L173.172 189.733Z" fill="#F2F2F2"/>
<path d="M174.634 180.486C174.634 180.486 178.532 198.98 175.608 203.847C172.685 208.714 192.175 215.528 192.175 215.528L210.691 207.741C210.691 207.741 205.819 177.566 210.691 171.726L174.634 180.486Z" fill="#FFB9B9"/>
<path opacity="0.1" d="M174.634 180.486C174.634 180.486 178.532 198.98 175.608 203.847C172.685 208.714 192.175 215.528 192.175 215.528L210.691 207.741C210.691 207.741 205.819 177.566 210.691 171.726L174.634 180.486Z" fill="black"/>
<path d="M156.372 402.866C159.16 408.206 160.968 413.99 162.812 419.723C162.84 419.914 162.907 420.097 163.01 420.261C163.113 420.424 163.25 420.564 163.411 420.671C163.572 420.778 163.754 420.85 163.945 420.882C164.135 420.914 164.331 420.905 164.518 420.856L181.852 420.837C183.991 420.834 186.861 420.148 186.839 418.011C186.824 416.51 185.287 415.574 184.144 414.6C180.971 411.895 180.145 407.436 178.83 403.482C176.276 395.865 171.353 389.261 164.78 384.633C163.891 383.938 162.868 383.433 161.776 383.15C160.677 382.991 159.558 383.051 158.482 383.328C155.44 383.941 144.076 386.039 146.223 390.46C147.147 392.364 150.573 394.345 152.009 396.123C153.682 398.222 155.144 400.48 156.372 402.866Z" fill="#575A89"/>
<path d="M216.65 382.786C216.039 384.069 215.359 385.318 214.613 386.527C212.101 390.664 209.138 394.523 206.799 398.76C205.341 401.403 204.113 404.259 203.951 407.272C203.79 410.286 204.853 413.493 207.26 415.317C209.776 417.224 213.226 417.313 216.353 416.868C219.481 416.424 222.59 415.529 225.74 415.764C224.678 409.762 229.746 404.479 231.014 398.516C231.37 396.841 231.423 395.105 231.9 393.46C232.413 391.956 233.07 390.505 233.862 389.127C236.386 384.218 238.17 378.963 239.156 373.532C239.275 372.874 223.747 372.766 222.29 373.081C217.745 374.062 218.41 379.021 216.65 382.786Z" fill="#575A89"/>
<path d="M96.9677 288.481C92.5349 295.41 93.5563 304.592 96.6697 312.204C99.783 319.816 104.738 326.545 108.13 334.038C110.292 338.814 111.808 343.879 114.243 348.523C117.258 354.273 121.66 359.342 123.683 365.511C124.972 369.443 125.268 373.753 127.357 377.326C128.62 379.235 130.061 381.021 131.662 382.659C136.161 387.808 139.539 393.836 141.582 400.358C143.491 394.677 149.209 390.952 155.081 389.724C160.953 388.495 167.038 389.33 172.978 390.168C169.665 385.04 166.318 379.848 164.343 374.072C162.433 368.486 161.869 362.544 160.582 356.783C157.943 344.968 152.305 334.072 146.724 323.327L175.411 321.054C180.093 320.584 184.801 320.41 189.505 320.532C196.91 320.881 204.164 322.694 211.529 323.532C218.894 324.37 226.685 324.15 233.249 320.709C220.698 338.696 214.162 360.185 214.574 382.106C217.379 379.935 220.635 378.418 224.103 377.666C227.571 376.914 231.163 376.947 234.617 377.761C238.07 378.575 241.298 380.15 244.064 382.371C246.829 384.592 249.062 387.403 250.6 390.597C261.842 375.253 260.506 353.891 269.414 337.087C271.246 333.631 273.49 330.413 275.468 327.038C279.378 320.364 282.213 313.127 285.033 305.925C287.525 299.559 290.035 292.476 287.645 286.071C286.653 283.641 285.207 281.422 283.386 279.53C278.246 273.87 271.092 269.683 263.444 269.509C251.702 269.241 242.003 277.934 231.704 283.571C219.572 290.21 205.419 292.849 191.621 291.873C177.473 290.873 163.962 286.247 150.483 282.174C143.74 280.041 136.887 278.276 129.952 276.884C124.172 275.801 118.668 277.001 112.971 278.477C106.77 280.084 100.537 282.902 96.9677 288.481Z" fill="#2F2E41"/>
<path d="M219.462 161.992C219.456 169.735 216.374 177.159 210.892 182.633C205.411 188.108 197.978 191.187 190.226 191.193C188.484 191.196 186.745 191.04 185.032 190.726C179.561 189.739 174.484 187.214 170.399 183.448C166.313 179.681 163.388 174.829 161.965 169.461C160.543 164.092 160.683 158.43 162.369 153.138C164.054 147.846 167.216 143.144 171.482 139.583C175.749 136.022 180.944 133.751 186.457 133.035C191.971 132.318 197.574 133.187 202.611 135.54C207.647 137.892 211.908 141.63 214.892 146.315C217.877 151 219.462 156.439 219.462 161.992V161.992Z" fill="#FFB9B9"/>
<path d="M173.172 189.733C173.172 189.733 178.532 192.167 180.481 194.113C182.43 196.06 188.277 206.767 198.022 199.954C207.768 193.14 208.742 189.247 211.666 189.247C214.589 189.247 218.487 195.087 218.487 195.087L245.287 275.391C238.064 283.534 229.693 290.584 220.436 296.318C204.844 306.052 186.328 310.919 177.557 307.025C168.786 303.132 152.219 300.212 149.296 292.425C146.372 284.638 141.5 261.277 141.5 261.277L155.143 201.9L173.172 189.733Z" fill="#F2F2F2"/>
<path d="M169.409 270.95C171.534 266.366 171.843 261.178 172.022 256.13C172.309 251.13 172.176 246.115 171.626 241.138C170.762 234.626 168.639 228.354 167.299 221.924C166.123 216.284 165.552 210.536 165.594 204.775C165.614 202.147 165.804 199.38 167.238 197.176C168.239 195.638 169.804 194.448 170.429 192.723C171.654 189.343 168.626 185.803 165.307 184.411C161.359 182.755 156.846 182.866 152.692 183.905C148.538 184.944 144.663 186.856 140.825 188.754C138.053 190.125 135.222 191.538 133.072 193.76C130.047 196.886 128.717 201.241 127.643 205.455C126.783 208.827 126.019 212.344 126.673 215.762C127.735 221.313 132.266 225.488 134.681 230.598C137.485 236.533 137.296 243.448 136.181 249.915C135.065 256.382 133.085 262.705 132.475 269.239C131.864 275.773 132.801 282.797 136.9 287.926C138.57 290.016 143.1 294.969 146.158 294.409C148.56 293.968 152.042 288.687 153.977 287.013C159.567 282.177 166.199 277.875 169.409 270.95Z" fill="#2F2E41"/>
<path d="M220.468 186.559C220.553 191.988 218.157 197.148 215.339 201.791C212.522 206.434 209.212 210.826 207.136 215.844C204.556 222.125 204.029 229.06 205.631 235.658C206.226 237.906 206.944 240.119 207.781 242.288L213.12 256.917C213.839 259.217 214.881 261.403 216.216 263.41C217.424 264.947 218.84 266.308 220.424 267.453C224.48 270.724 229.147 273.156 234.154 274.607C239.178 275.933 244.675 275.85 249.421 273.737C249.936 253.906 253.125 234.235 258.904 215.255C259.972 211.752 261.138 208.063 260.315 204.494C259.392 200.497 256.178 197.495 253.122 194.755C243.777 186.372 233.5 177.567 220.99 176.437C213.75 175.783 220.406 182.634 220.468 186.559Z" fill="#2F2E41"/>
<path d="M198.53 204.511C197.339 201.855 196.095 199.122 193.956 197.146C191.936 195.439 189.543 194.229 186.97 193.61C183.637 192.659 180.189 192.166 176.722 192.143C172.595 192.118 167.809 193.223 166.057 196.956C164.665 199.92 165.744 203.429 167.145 206.388C167.744 207.921 168.741 209.267 170.034 210.287C171.814 211.488 174.116 211.45 176.226 211.852C179.534 212.483 182.495 214.254 185.377 215.994L192.606 220.358L205.022 227.855C204.695 227.657 204.811 219.152 204.43 217.759C203.202 213.269 200.436 208.763 198.53 204.511Z" fill="#FFB9B9"/>
<path d="M162.361 417.519C159.456 421.463 160.038 427.1 157.465 431.267C155.234 434.879 151.03 436.773 148.239 439.973C147.349 441.037 146.555 442.177 145.867 443.381C143.279 447.712 141.175 453.262 143.724 457.616C145.775 461.118 150.086 462.487 154.039 463.42C159.035 464.599 164.227 465.543 169.281 464.642C174.336 463.741 179.276 460.649 181.078 455.847C181.432 454.64 181.853 453.453 182.339 452.292C185.078 446.906 193.671 446.847 196.475 441.493C198.437 437.747 196.633 433.218 194.831 429.392L189.324 417.708C187.497 413.83 180.089 416.06 176.227 415.131C171.191 413.919 165.984 412.584 162.361 417.519Z" fill="#2F2E41"/>
<path d="M204.952 407.481C202.615 409.117 201.104 411.683 199.97 414.298C197.244 420.578 196.309 427.462 195.4 434.246C195.036 436.964 194.674 439.745 195.242 442.428C196.417 447.968 201.443 452.048 206.853 453.741C212.263 455.435 218.066 455.175 223.728 454.897C225.547 454.808 227.438 454.699 229.033 453.821C231.879 452.254 232.991 448.569 232.503 445.36C232.015 442.151 230.259 439.295 228.541 436.54C226.823 433.785 225.066 430.931 224.574 427.722C223.746 422.325 226.082 414.402 222.762 409.519C219.435 404.626 209.392 404.373 204.952 407.481Z" fill="#2F2E41"/>
<path d="M218.727 146.774C218.207 145.028 217.061 143.534 215.508 142.578C215.588 140.707 215.359 138.836 214.828 137.04C213.058 131.812 208.864 132.112 204.906 129.8C203.189 128.797 203.295 127.911 202.402 126.264C201.23 124.105 199.476 122.317 197.338 121.104C194.799 119.488 192.119 117.824 189.116 117.62C182.804 117.19 177.964 123.12 171.931 125.023C169.272 125.862 166.415 125.897 163.742 126.69C161.069 127.483 158.402 129.376 158.003 132.133C157.819 133.405 158.144 134.711 157.957 135.983C157.586 138.512 155.365 140.283 153.878 142.363C150.59 146.963 150.966 153.461 153.596 158.465C154.15 159.501 154.784 160.492 155.492 161.429C155.711 163.794 156.391 166.094 157.494 168.199C160.123 173.203 164.648 176.943 169.375 180.05C168.988 178.39 168.753 176.699 168.674 174.996C168.607 174.429 168.681 173.854 168.889 173.322C169.415 172.223 170.806 171.931 171.867 171.329C174.064 170.082 174.925 167.323 174.989 164.8C175.052 162.277 174.517 159.75 174.781 157.241C174.792 156.664 174.923 156.095 175.167 155.572C175.411 155.048 175.762 154.582 176.197 154.202C177.008 153.74 177.934 153.52 178.866 153.567C183.367 153.383 188.069 153.301 192.039 151.175C193.393 150.45 194.652 149.491 196.139 149.103C199.513 148.225 202.961 150.586 204.905 153.477C206.85 156.368 207.819 159.808 209.613 162.794C211.407 165.78 214.506 168.443 217.975 168.089C218.17 168.09 218.363 168.049 218.542 167.97C218.72 167.89 218.88 167.774 219.011 167.629C219.16 167.361 219.227 167.054 219.201 166.748L219.395 153.505C219.556 151.24 219.33 148.963 218.727 146.774Z" fill="#2F2E41"/>
<path d="M126.204 216.045C123.415 220.155 120.198 224.107 118.665 228.831C117.764 231.607 117.484 234.542 116.832 237.387C114.658 246.863 108.38 255.279 107.749 264.98C107.528 267.136 107.845 269.312 108.671 271.316C110.473 275.229 114.783 277.291 118.894 278.588C123.006 279.885 127.421 280.82 130.703 283.613C132.355 285.195 133.853 286.93 135.177 288.795C140.532 295.446 147.735 300.368 155.881 302.943C155.238 298.514 154.936 293.176 158.48 290.438C160.399 288.956 162.963 288.692 165.38 288.484L176.798 287.498C169.184 280.122 160.791 273.591 151.767 268.022C148.61 266.074 145.174 264.019 143.732 260.603C142.831 258.468 142.843 256.076 142.822 253.759C142.743 245.277 142.024 236.813 140.67 228.439C139.73 222.624 138.486 216.862 137.062 211.146C136.663 209.541 134.301 202.344 131.393 204.028C130.708 204.425 130.068 208.991 129.668 209.938C128.716 212.082 127.556 214.127 126.204 216.045V216.045Z" fill="#2F2E41"/>
<path d="M257.717 200.512L262.38 210.198C264.627 214.181 265.649 218.736 265.32 223.296L265.597 252.351C265.634 256.234 265.664 260.175 264.64 263.921C264.35 265.172 263.802 266.348 263.032 267.376C262.241 268.262 261.309 269.012 260.274 269.595C251.449 275.103 240.006 278.233 230.682 273.618C228.546 272.481 226.516 271.157 224.615 269.662C220.899 266.913 217.128 264.111 214.348 260.42C211.438 256.558 209.771 251.933 207.813 247.512C204.3 239.582 199.762 232.146 194.313 225.395C193.521 224.414 192.67 223.344 192.641 222.085C192.583 219.538 195.608 218.284 197.967 217.315C201.997 215.66 205.797 212.466 206.472 208.166C215.041 219.39 224.497 231.249 238.019 235.351C238.231 235.486 238.476 235.562 238.728 235.569C238.979 235.577 239.228 235.517 239.448 235.395C239.668 235.273 239.851 235.093 239.977 234.876C240.103 234.659 240.169 234.411 240.166 234.16C240.933 230.952 241.204 227.649 241.766 224.399C242.796 218.48 244.779 212.768 247.638 207.483C249.24 204.52 254.426 193.675 257.717 200.512Z" fill="#2F2E41"/>
<path opacity="0.1" d="M142.005 228.522C142.134 235.398 140.671 242.211 137.732 248.43C136.967 249.804 136.404 251.281 136.059 252.816C135.547 256.088 137.412 259.256 139.543 261.794C143.747 266.784 149.2 270.573 155.346 272.775" fill="black"/>
<path opacity="0.1" d="M243.261 222.727C242.574 224.573 243.197 226.614 243.727 228.51C245.261 234.011 245.978 239.707 245.853 245.417C245.875 245.516 245.872 245.62 245.844 245.719C245.816 245.817 245.764 245.907 245.693 245.98C245.621 246.053 245.532 246.108 245.435 246.138C245.337 246.168 245.233 246.174 245.132 246.154C242.883 246.292 240.308 246.306 238.782 244.65" fill="black"/>
<path d="M596 0.160522H317.784V55.0254H596V0.160522Z" fill="#E6E6E6"/>
<path d="M596 64.2883H317.784V119.153H596V64.2883Z" fill="#E6E6E6"/>
<path d="M347.033 43.6249C356.094 43.6249 363.44 36.2876 363.44 27.2367C363.44 18.1857 356.094 10.8484 347.033 10.8484C337.971 10.8484 330.625 18.1857 330.625 27.2367C330.625 36.2876 337.971 43.6249 347.033 43.6249Z" fill="#0D7BE5"/>
<path d="M548.204 20.8239H386.268V24.3865H548.204V20.8239Z" fill="#0D7BE5"/>
<path d="M548.204 30.0868H386.268V33.6494H548.204V30.0868Z" fill="#0D7BE5"/>
<path d="M347.033 108.465C356.094 108.465 363.44 101.128 363.44 92.0769C363.44 83.026 356.094 75.6887 347.033 75.6887C337.971 75.6887 330.625 83.026 330.625 92.0769C330.625 101.128 337.971 108.465 347.033 108.465Z" fill="#CCCCCC"/>
<path d="M548.204 85.6641H386.268V89.2268H548.204V85.6641Z" fill="#CCCCCC"/>
<path d="M548.204 94.9271H386.268V98.4897H548.204V94.9271Z" fill="#CCCCCC"/>
<path d="M596 127.284H317.784V182.149H596V127.284Z" fill="#E6E6E6"/>
<path d="M347.033 171.461C356.094 171.461 363.44 164.124 363.44 155.073C363.44 146.022 356.094 138.685 347.033 138.685C337.971 138.685 330.625 146.022 330.625 155.073C330.625 164.124 337.971 171.461 347.033 171.461Z" fill="#CCCCCC"/>
<path d="M548.204 148.66H386.268V152.223H548.204V148.66Z" fill="#CCCCCC"/>
<path d="M548.204 157.923H386.268V161.486H548.204V157.923Z" fill="#CCCCCC"/>
<path d="M345.537 33.4325L339.661 25.6062L341.053 24.5641L345.84 30.9391L364.688 15.5362L365.79 16.8817L345.537 33.4325Z" fill="#F2F2F2"/>
<path d="M193.77 282.382L152.16 331.971C151.519 332.734 151.619 333.872 152.382 334.513L190.253 366.306C191.016 366.946 192.154 366.847 192.794 366.083L234.404 316.495C235.045 315.731 234.945 314.593 234.182 313.952L196.311 282.16C195.548 281.519 194.41 281.619 193.77 282.382Z" fill="#505050"/>
<path d="M156.514 299.728C157.255 301.177 157.717 302.756 158.449 304.209C159.531 306.158 160.868 307.954 162.426 309.55C168.942 316.766 176.907 323.955 186.626 324.391C187.592 324.481 188.566 324.358 189.479 324.032C191.179 323.326 192.184 321.506 192.514 319.697C193.204 315.927 191.538 312.166 189.87 308.715C186.254 301.236 182.187 293.568 175.418 288.744C168.746 283.989 159.805 282.835 152.024 285.229C148.498 286.314 142.652 288.208 147.32 291.421C150.861 293.859 154.461 295.714 156.514 299.728Z" fill="#FFB9B9"/>
</svg>
