<svg width="793" height="564" viewBox="0 0 793 564" fill="none" xmlns="http://www.w3.org/2000/svg">
<path opacity="0.1" d="M125.55 533.482C164.038 533.482 195.239 528.221 195.239 521.731C195.239 515.242 164.038 509.981 125.55 509.981C87.0613 509.981 55.8604 515.242 55.8604 521.731C55.8604 528.221 87.0613 533.482 125.55 533.482Z" fill="black"/>
<path opacity="0.1" d="M379.389 562.258C417.878 562.258 449.079 556.997 449.079 550.507C449.079 544.018 417.878 538.757 379.389 538.757C340.901 538.757 309.7 544.018 309.7 550.507C309.7 556.997 340.901 562.258 379.389 562.258Z" fill="black"/>
<path d="M384.868 322.758H373.188V408.308H384.868V322.758Z" fill="#3F3D56"/>
<path d="M522.69 322.758H511.01V408.308H522.69V322.758Z" fill="#3F3D56"/>
<path d="M660.511 309.536H235.368V328.98H660.511V309.536Z" fill="#E6E6E6"/>
<path d="M660.511 370.977H235.368V390.42H660.511V370.977Z" fill="#E6E6E6"/>
<path d="M660.511 335.201H235.368V346.867H660.511V335.201Z" fill="#E6E6E6"/>
<path d="M660.511 353.089H235.368V364.755H660.511V353.089Z" fill="#E6E6E6"/>
<path d="M247.437 306.036H234.2V408.697H247.437V306.036Z" fill="#3F3D56"/>
<path d="M660.511 305.648H647.273V408.308H660.511V305.648Z" fill="#3F3D56"/>
<path d="M211.229 435.528H197.992V542.077H211.229V435.528Z" fill="#3F3D56"/>
<path d="M254.834 431.64H241.597V488.414H254.834V431.64Z" fill="#3F3D56"/>
<path d="M657.396 431.64H644.159V488.414H657.396V431.64Z" fill="#3F3D56"/>
<path d="M694.771 435.528H681.534V542.077H694.771V435.528Z" fill="#3F3D56"/>
<path d="M694.771 435.528H197.992V449.528H694.771V435.528Z" fill="#3F3D56"/>
<path d="M233.81 404.419L197.992 435.528H694.771L660.51 404.419H233.81Z" fill="#E6E6E6"/>
<path opacity="0.1" d="M155.54 21.5742L155.439 21.0142L145.854 15.9434H144.35L143.775 14.842H124.021L119.44 15.9434H102.569L97.9982 21.2709L97.9515 21.5975C97.6556 23.5029 91.0448 68.3079 108.487 82.5637L115.759 85.9391H120.462L119.543 84.1056L123.631 85.9391H136.868L137.104 85.5866L144.959 82.6492L145.161 82.4159C145.87 81.576 162.564 61.3161 155.54 21.5742Z" fill="#0D7BE5"/>
<path d="M131.807 66.107H124.021V86.328H131.807V66.107Z" fill="#E6E6E6"/>
<path d="M134.532 112.382H120.517V501.247H134.532V112.382Z" fill="#3F3D56"/>
<path d="M138.036 105.771H117.013V118.993H138.036V105.771Z" fill="#3F3D56"/>
<path d="M109.226 81.6616L122.463 95.6607L117.013 105.771L127.914 108.104L138.036 105.771L131.807 94.883L144.265 81.6616H109.226Z" fill="#3F3D56"/>
<path d="M99.1037 21.7764L92.8745 15.5546L97.5464 10.8882H156.724L161.396 16.3323L154.388 21.7764C154.388 21.7764 117.013 20.2209 99.1037 21.7764Z" fill="#3F3D56"/>
<path d="M155.54 21.5742L155.439 21.0142L145.854 15.9434L141.478 13.6258L116.912 12.047L103.137 15.2823L102.569 15.9434L97.9982 21.2709L97.9515 21.5975C97.6556 23.5029 91.0448 68.3079 108.487 82.5637L115.759 85.9391L121.879 88.7778L120.462 85.9391L118.134 81.296C115.697 67.1258 110.34 29.8959 113.758 22.1186L127.883 17.5689L140.419 22.2197C141.283 27.8116 146.874 67.0169 137.079 80.9927L136.868 81.296V85.6746L144.959 82.6493L145.161 82.416C145.87 81.576 162.564 61.3162 155.54 21.5742ZM143.549 80.6816L139.204 82.3148V82.0193C149.95 66.0059 142.926 23.0052 142.623 21.1698L142.514 20.5009L130.227 15.9434L127.945 15.0957L125.313 15.9434L112.139 20.1898L111.913 20.5865C106.906 29.5537 115.495 79.725 115.861 81.856L115.892 82.0271L116.818 83.8781L109.849 80.6661C94.3152 67.748 99.6411 26.3805 100.209 22.2819L104.414 17.3822L110.534 15.9434L117.114 14.3957L127.945 15.0957L140.824 15.9279L140.855 15.9434L153.337 22.5386C159.519 58.5863 145.332 78.3795 143.549 80.6816Z" fill="#3F3D56"/>
<path d="M127.914 21.7764C139.525 21.7764 148.937 16.9016 148.937 10.8882C148.937 4.87482 139.525 0 127.914 0C116.303 0 106.89 4.87482 106.89 10.8882C106.89 16.9016 116.303 21.7764 127.914 21.7764Z" fill="#3F3D56"/>
<path d="M117.013 481.414L104.554 521.079C104.554 521.079 124.02 531.967 150.495 521.079L138.036 481.414H117.013Z" fill="#3F3D56"/>
<path d="M127.914 68.4402C131.354 68.4402 134.143 65.6546 134.143 62.2184C134.143 58.7821 131.354 55.9965 127.914 55.9965C124.473 55.9965 121.685 58.7821 121.685 62.2184C121.685 65.6546 124.473 68.4402 127.914 68.4402Z" fill="#0D7BE5"/>
<path d="M337.612 279.453C339.816 277.886 342.249 276.667 344.825 275.84C361.156 269.77 378.267 266.05 395.646 264.79C410.758 263.719 427.136 264.991 438.939 274.477C440.775 275.822 442.277 277.571 443.33 279.587C444.815 282.788 444.365 286.508 443.885 290.002C443.777 291.358 443.435 292.685 442.873 293.923C441.285 296.944 437.375 298.002 433.978 297.64C430.582 297.278 427.395 295.842 424.044 295.177C421.971 294.816 419.874 294.603 417.77 294.539L396.759 293.402C383.693 292.696 370.455 292.001 357.639 294.635C353.693 295.343 349.881 296.656 346.336 298.525C343.409 300.167 341.438 302.522 338.721 299.49C333.949 294.163 331.308 284.373 337.612 279.453Z" fill="#2F2E41"/>
<path d="M370.172 288.733C370.172 288.733 398.433 276.079 409.153 290.68C419.873 305.281 403.306 299.44 403.306 299.44L384.79 305.281L364.325 301.387L370.172 288.733Z" fill="#F2F2F2"/>
<path d="M371.634 279.486C371.634 279.486 375.532 297.98 372.608 302.847C369.685 307.714 389.175 314.528 389.175 314.528L407.691 306.741C407.691 306.741 402.819 276.566 407.691 270.726L371.634 279.486Z" fill="#FFB9B9"/>
<path opacity="0.1" d="M371.634 279.486C371.634 279.486 375.532 297.98 372.608 302.847C369.685 307.714 389.175 314.528 389.175 314.528L407.691 306.741C407.691 306.741 402.819 276.566 407.691 270.726L371.634 279.486Z" fill="black"/>
<path d="M353.372 501.866C356.16 507.206 357.968 512.99 359.812 518.723C359.84 518.914 359.907 519.097 360.01 519.261C360.113 519.424 360.25 519.564 360.411 519.671C360.572 519.778 360.754 519.85 360.945 519.882C361.135 519.914 361.331 519.905 361.518 519.856L378.852 519.837C380.991 519.834 383.861 519.148 383.839 517.011C383.824 515.51 382.287 514.574 381.144 513.6C377.971 510.895 377.145 506.436 375.83 502.482C373.276 494.865 368.353 488.261 361.78 483.633C360.891 482.938 359.868 482.433 358.776 482.15C357.677 481.991 356.558 482.051 355.482 482.328C352.44 482.941 341.076 485.039 343.223 489.46C344.147 491.364 347.573 493.345 349.009 495.123C350.682 497.222 352.144 499.48 353.372 501.866Z" fill="#575A89"/>
<path d="M413.65 481.786C413.039 483.069 412.359 484.318 411.613 485.527C409.101 489.664 406.138 493.523 403.799 497.76C402.341 500.403 401.113 503.259 400.951 506.272C400.79 509.286 401.853 512.493 404.26 514.317C406.776 516.224 410.226 516.313 413.353 515.868C416.481 515.424 419.59 514.529 422.74 514.764C421.678 508.762 426.746 503.479 428.014 497.516C428.37 495.841 428.423 494.105 428.9 492.46C429.413 490.956 430.07 489.505 430.862 488.127C433.386 483.218 435.17 477.963 436.156 472.532C436.275 471.874 420.747 471.766 419.29 472.081C414.745 473.062 415.41 478.021 413.65 481.786Z" fill="#575A89"/>
<path d="M293.968 387.481C289.535 394.41 290.556 403.592 293.67 411.204C296.783 418.816 301.738 425.545 305.13 433.038C307.292 437.814 308.808 442.879 311.243 447.523C314.258 453.273 318.66 458.342 320.683 464.511C321.972 468.443 322.268 472.753 324.357 476.326C325.62 478.235 327.061 480.021 328.662 481.659C333.161 486.808 336.539 492.836 338.582 499.358C340.491 493.677 346.209 489.952 352.081 488.724C357.953 487.495 364.038 488.33 369.978 489.168C366.665 484.04 363.318 478.848 361.343 473.072C359.433 467.486 358.869 461.544 357.582 455.783C354.943 443.968 349.305 433.072 343.724 422.327L372.411 420.054C377.093 419.584 381.801 419.41 386.505 419.532C393.91 419.881 401.164 421.694 408.529 422.532C415.894 423.37 423.685 423.15 430.249 419.709C417.698 437.696 411.162 459.185 411.574 481.106C414.379 478.935 417.635 477.418 421.103 476.666C424.571 475.914 428.163 475.947 431.617 476.761C435.07 477.575 438.298 479.15 441.064 481.371C443.829 483.592 446.062 486.403 447.6 489.597C458.842 474.253 457.506 452.891 466.414 436.087C468.246 432.631 470.49 429.413 472.468 426.038C476.378 419.364 479.213 412.127 482.033 404.925C484.525 398.559 487.035 391.476 484.645 385.071C483.653 382.641 482.207 380.422 480.386 378.53C475.246 372.87 468.092 368.683 460.444 368.509C448.702 368.241 439.003 376.934 428.704 382.571C416.572 389.21 402.419 391.849 388.621 390.873C374.473 389.873 360.962 385.247 347.483 381.174C340.74 379.041 333.887 377.276 326.952 375.884C321.172 374.801 315.668 376.001 309.971 377.477C303.77 379.084 297.537 381.902 293.968 387.481Z" fill="#2F2E41"/>
<path d="M416.462 260.992C416.456 268.735 413.374 276.159 407.892 281.633C402.411 287.108 394.978 290.187 387.226 290.193C385.484 290.196 383.745 290.04 382.032 289.726C376.561 288.739 371.484 286.214 367.399 282.448C363.313 278.681 360.388 273.829 358.965 268.461C357.543 263.092 357.683 257.43 359.369 252.138C361.054 246.846 364.216 242.144 368.482 238.583C372.749 235.022 377.944 232.751 383.457 232.035C388.971 231.318 394.574 232.187 399.611 234.54C404.647 236.892 408.908 240.63 411.892 245.315C414.877 250 416.462 255.439 416.462 260.992V260.992Z" fill="#FFB9B9"/>
<path d="M370.172 288.733C370.172 288.733 375.532 291.167 377.481 293.113C379.43 295.06 385.277 305.767 395.022 298.954C404.768 292.14 405.742 288.247 408.666 288.247C411.589 288.247 415.487 294.087 415.487 294.087L442.287 374.391C435.064 382.534 426.693 389.584 417.436 395.318C401.844 405.052 383.328 409.919 374.557 406.025C365.786 402.132 349.219 399.212 346.296 391.425C343.372 383.638 338.5 360.277 338.5 360.277L352.143 300.9L370.172 288.733Z" fill="#F2F2F2"/>
<path d="M366.409 369.95C368.534 365.366 368.843 360.178 369.022 355.13C369.309 350.13 369.176 345.115 368.626 340.138C367.762 333.626 365.639 327.354 364.299 320.924C363.123 315.284 362.552 309.536 362.594 303.775C362.614 301.147 362.804 298.38 364.238 296.176C365.239 294.638 366.804 293.448 367.429 291.723C368.654 288.343 365.626 284.803 362.307 283.411C358.359 281.755 353.846 281.866 349.692 282.905C345.538 283.944 341.663 285.856 337.825 287.754C335.053 289.125 332.222 290.538 330.072 292.76C327.047 295.886 325.717 300.241 324.643 304.455C323.783 307.827 323.019 311.344 323.673 314.762C324.735 320.313 329.266 324.488 331.681 329.598C334.485 335.533 334.296 342.448 333.181 348.915C332.065 355.382 330.085 361.705 329.475 368.239C328.864 374.773 329.801 381.797 333.9 386.926C335.57 389.016 340.1 393.969 343.158 393.409C345.56 392.968 349.042 387.687 350.977 386.013C356.567 381.177 363.199 376.875 366.409 369.95Z" fill="#2F2E41"/>
<path d="M417.468 285.559C417.553 290.988 415.157 296.148 412.339 300.791C409.522 305.434 406.212 309.826 404.136 314.844C401.556 321.125 401.029 328.06 402.631 334.658C403.226 336.906 403.944 339.119 404.781 341.288L410.12 355.917C410.839 358.217 411.881 360.403 413.216 362.41C414.424 363.947 415.84 365.308 417.424 366.453C421.48 369.724 426.147 372.156 431.154 373.607C436.178 374.933 441.675 374.85 446.421 372.737C446.936 352.906 450.125 333.235 455.904 314.255C456.972 310.752 458.138 307.063 457.315 303.494C456.392 299.497 453.178 296.495 450.122 293.755C440.777 285.372 430.5 276.567 417.99 275.437C410.75 274.783 417.406 281.634 417.468 285.559Z" fill="#2F2E41"/>
<path d="M395.53 303.511C394.339 300.855 393.095 298.122 390.956 296.146C388.936 294.439 386.543 293.229 383.97 292.61C380.637 291.659 377.189 291.166 373.722 291.143C369.595 291.118 364.809 292.223 363.057 295.956C361.665 298.92 362.744 302.429 364.145 305.388C364.744 306.921 365.741 308.267 367.034 309.287C368.814 310.488 371.116 310.45 373.226 310.852C376.534 311.483 379.495 313.254 382.377 314.994L389.606 319.358L402.022 326.855C401.695 326.657 401.811 318.152 401.43 316.759C400.202 312.269 397.436 307.763 395.53 303.511Z" fill="#FFB9B9"/>
<path d="M359.361 516.519C356.456 520.463 357.038 526.1 354.465 530.267C352.234 533.879 348.03 535.773 345.239 538.973C344.349 540.037 343.555 541.177 342.867 542.381C340.279 546.712 338.175 552.262 340.724 556.616C342.775 560.118 347.086 561.487 351.039 562.42C356.035 563.599 361.227 564.543 366.281 563.642C371.336 562.741 376.276 559.649 378.078 554.847C378.432 553.64 378.853 552.453 379.339 551.292C382.078 545.906 390.671 545.847 393.475 540.493C395.437 536.747 393.633 532.218 391.831 528.392L386.324 516.708C384.497 512.83 377.089 515.06 373.227 514.131C368.191 512.919 362.984 511.584 359.361 516.519Z" fill="#2F2E41"/>
<path d="M401.952 506.481C399.615 508.117 398.104 510.683 396.97 513.298C394.244 519.578 393.309 526.462 392.4 533.246C392.036 535.964 391.674 538.745 392.242 541.428C393.417 546.968 398.443 551.048 403.853 552.741C409.263 554.435 415.066 554.175 420.728 553.897C422.547 553.808 424.438 553.699 426.033 552.821C428.879 551.254 429.991 547.569 429.503 544.36C429.015 541.151 427.259 538.295 425.541 535.54C423.823 532.785 422.066 529.931 421.574 526.722C420.746 521.325 423.082 513.402 419.762 508.519C416.435 503.626 406.392 503.373 401.952 506.481Z" fill="#2F2E41"/>
<path d="M415.727 245.774C415.207 244.028 414.061 242.534 412.508 241.578C412.588 239.707 412.359 237.836 411.828 236.04C410.058 230.812 405.864 231.112 401.906 228.8C400.189 227.797 400.295 226.911 399.402 225.264C398.23 223.105 396.476 221.317 394.338 220.104C391.799 218.488 389.119 216.824 386.116 216.62C379.804 216.19 374.964 222.12 368.931 224.023C366.272 224.862 363.415 224.897 360.742 225.69C358.069 226.483 355.402 228.376 355.003 231.133C354.819 232.405 355.144 233.711 354.957 234.983C354.586 237.512 352.365 239.283 350.878 241.363C347.59 245.963 347.966 252.461 350.596 257.465C351.15 258.501 351.784 259.492 352.492 260.429C352.711 262.794 353.391 265.094 354.494 267.199C357.123 272.203 361.648 275.943 366.375 279.05C365.988 277.39 365.753 275.699 365.674 273.996C365.607 273.429 365.681 272.854 365.889 272.322C366.415 271.223 367.806 270.931 368.867 270.329C371.064 269.082 371.925 266.323 371.989 263.8C372.052 261.277 371.517 258.75 371.781 256.241C371.792 255.664 371.923 255.095 372.167 254.572C372.411 254.048 372.762 253.582 373.197 253.202C374.008 252.74 374.934 252.52 375.866 252.567C380.367 252.383 385.069 252.301 389.039 250.175C390.393 249.45 391.652 248.491 393.139 248.103C396.513 247.225 399.961 249.586 401.905 252.477C403.85 255.368 404.819 258.808 406.613 261.794C408.407 264.78 411.506 267.443 414.975 267.089C415.17 267.09 415.363 267.049 415.542 266.97C415.72 266.89 415.88 266.774 416.011 266.629C416.16 266.361 416.227 266.054 416.201 265.748L416.395 252.505C416.556 250.24 416.33 247.963 415.727 245.774Z" fill="#2F2E41"/>
<path d="M323.204 315.045C320.415 319.155 317.198 323.107 315.665 327.831C314.764 330.607 314.484 333.542 313.832 336.387C311.658 345.863 305.38 354.279 304.749 363.98C304.528 366.136 304.845 368.312 305.671 370.316C307.473 374.229 311.783 376.291 315.894 377.588C320.006 378.885 324.421 379.82 327.703 382.613C329.355 384.195 330.853 385.93 332.177 387.795C337.532 394.446 344.735 399.368 352.881 401.943C352.238 397.514 351.936 392.176 355.48 389.438C357.399 387.956 359.963 387.692 362.38 387.484L373.798 386.498C366.184 379.121 357.791 372.591 348.767 367.022C345.61 365.074 342.174 363.019 340.732 359.603C339.831 357.468 339.843 355.076 339.822 352.759C339.743 344.277 339.024 335.813 337.67 327.439C336.73 321.624 335.486 315.862 334.062 310.146C333.663 308.541 331.301 301.344 328.393 303.028C327.708 303.425 327.068 307.991 326.668 308.938C325.716 311.082 324.556 313.127 323.204 315.045Z" fill="#2F2E41"/>
<path d="M454.717 299.512L459.38 309.198C461.627 313.181 462.649 317.736 462.32 322.296L462.597 351.351C462.634 355.234 462.664 359.175 461.64 362.921C461.35 364.172 460.802 365.348 460.032 366.376C459.241 367.262 458.309 368.012 457.274 368.595C448.449 374.103 437.006 377.233 427.682 372.618C425.546 371.481 423.516 370.157 421.615 368.662C417.899 365.913 414.128 363.111 411.348 359.42C408.438 355.558 406.771 350.933 404.813 346.512C401.3 338.582 396.762 331.146 391.313 324.395C390.521 323.414 389.67 322.344 389.641 321.085C389.583 318.538 392.608 317.284 394.967 316.315C398.997 314.66 402.797 311.466 403.472 307.166C412.041 318.39 421.497 330.249 435.019 334.351C435.231 334.486 435.476 334.562 435.728 334.569C435.979 334.577 436.228 334.517 436.448 334.395C436.668 334.272 436.851 334.093 436.977 333.876C437.103 333.659 437.169 333.411 437.166 333.16C437.933 329.952 438.204 326.649 438.766 323.399C439.796 317.48 441.779 311.768 444.638 306.483C446.24 303.52 451.426 292.675 454.717 299.512Z" fill="#2F2E41"/>
<path opacity="0.1" d="M339.005 327.522C339.134 334.398 337.671 341.211 334.732 347.43C333.967 348.804 333.404 350.281 333.059 351.816C332.547 355.088 334.412 358.256 336.543 360.794C340.747 365.784 346.2 369.573 352.346 371.775" fill="black"/>
<path opacity="0.1" d="M440.261 321.727C439.574 323.573 440.197 325.614 440.727 327.51C442.261 333.011 442.978 338.707 442.853 344.417C442.875 344.516 442.872 344.62 442.844 344.719C442.816 344.817 442.764 344.907 442.693 344.98C442.621 345.053 442.532 345.108 442.435 345.138C442.337 345.168 442.233 345.174 442.132 345.154C439.883 345.292 437.308 345.306 435.782 343.65" fill="black"/>
<path d="M793 99.1605H514.784V154.025H793V99.1605Z" fill="#E6E6E6"/>
<path d="M793 163.288H514.784V218.153H793V163.288Z" fill="#E6E6E6"/>
<path d="M544.033 142.625C553.094 142.625 560.44 135.288 560.44 126.237C560.44 117.186 553.094 109.848 544.033 109.848C534.971 109.848 527.625 117.186 527.625 126.237C527.625 135.288 534.971 142.625 544.033 142.625Z" fill="#0D7BE5"/>
<path d="M745.204 119.824H583.268V123.387H745.204V119.824Z" fill="#0D7BE5"/>
<path d="M745.204 129.087H583.268V132.649H745.204V129.087Z" fill="#0D7BE5"/>
<path d="M544.033 207.465C553.094 207.465 560.44 200.128 560.44 191.077C560.44 182.026 553.094 174.689 544.033 174.689C534.971 174.689 527.625 182.026 527.625 191.077C527.625 200.128 534.971 207.465 544.033 207.465Z" fill="#CCCCCC"/>
<path d="M745.204 184.664H583.268V188.227H745.204V184.664Z" fill="#CCCCCC"/>
<path d="M745.204 193.927H583.268V197.49H745.204V193.927Z" fill="#CCCCCC"/>
<path d="M793 226.284H514.784V281.149H793V226.284Z" fill="#E6E6E6"/>
<path d="M544.033 270.461C553.094 270.461 560.44 263.124 560.44 254.073C560.44 245.022 553.094 237.685 544.033 237.685C534.971 237.685 527.625 245.022 527.625 254.073C527.625 263.124 534.971 270.461 544.033 270.461Z" fill="#CCCCCC"/>
<path d="M745.204 247.66H583.268V251.223H745.204V247.66Z" fill="#CCCCCC"/>
<path d="M745.204 256.923H583.268V260.486H745.204V256.923Z" fill="#CCCCCC"/>
<path d="M542.537 132.433L536.661 124.606L538.053 123.564L542.84 129.939L561.688 114.536L562.79 115.882L542.537 132.433Z" fill="#F2F2F2"/>
<path d="M390.77 381.382L349.16 430.971C348.519 431.734 348.619 432.872 349.382 433.513L387.253 465.306C388.016 465.946 389.154 465.847 389.794 465.083L431.404 415.495C432.045 414.731 431.945 413.593 431.182 412.952L393.311 381.16C392.548 380.519 391.41 380.619 390.77 381.382Z" fill="#505050"/>
<path d="M353.514 398.728C354.255 400.177 354.717 401.756 355.449 403.209C356.531 405.158 357.868 406.954 359.426 408.55C365.942 415.766 373.907 422.955 383.626 423.391C384.592 423.481 385.566 423.358 386.479 423.032C388.179 422.326 389.184 420.506 389.514 418.697C390.204 414.927 388.538 411.166 386.87 407.715C383.254 400.236 379.187 392.568 372.418 387.744C365.746 382.989 356.805 381.835 349.024 384.229C345.498 385.314 339.652 387.208 344.32 390.421C347.861 392.859 351.461 394.714 353.514 398.728Z" fill="#FFB9B9"/>
</svg>
