<?xml version="1.0" encoding="iso-8859-1"?>
<!-- Generator: Adobe Illustrator 19.0.0, SVG Export Plug-In . SVG Version: 6.00 Build 0)  -->
<svg version="1.1" id="Capa_1" xmlns="http://www.w3.org/2000/svg" xmlns:xlink="http://www.w3.org/1999/xlink" x="0px" y="0px"
	 viewBox="0 0 449.306 449.306" style="enable-background:new 0 0 449.306 449.306;" xml:space="preserve">
<g>
	<path style="fill:#4DCFE0;" d="M377.731,179.461c-1.567-1.567-3.135-3.657-4.18-5.224c-6.792,21.943-27.167,37.616-51.2,37.616
		c-1.567,0-3.657,0-6.269-0.522c-10.971-1.567-22.988-6.792-31.869-15.151c-4.702-4.702-8.359-9.927-10.971-15.673
		c-8.359,18.286-27.167,31.347-48.588,31.347c-1.567,0-3.657,0-6.269-0.522c-10.971-1.567-22.988-6.792-31.869-15.151
		c-4.18-4.18-7.837-9.404-10.449-15.151c-8.882,18.286-27.167,30.824-48.588,30.824c-1.567,0-3.657,0-6.269-0.522
		c-10.971-1.567-22.988-6.792-31.869-15.151c-6.269-6.269-10.971-14.106-13.584-22.465c-7.314,10.971-19.853,17.763-33.959,17.763
		h-3.135c0,0,0,0-0.522,0v3.135v212.114h208.98l0.522-125.388c0-8.359,6.792-15.673,15.673-15.673h70.531
		c8.882,0,15.673,6.792,15.673,15.673l-0.522,125.388h62.171V194.612v-3.135h-3.657C397.061,191.478,386.09,187.298,377.731,179.461
		z"/>
	<path style="fill:#4DCFE0;" d="M73.665,125.649h9.927h87.249h10.449h87.249h9.927h87.249h10.449h67.918
		c1.045,0,2.09,0.522,2.612,1.045L398.106,42.58H60.604L2.09,126.694c1.045-0.522,2.09-1.045,3.135-1.045H73.665z"/>
</g>
<path style="fill:#00BBD3;" d="M446.694,126.694c-1.045-0.522-1.567-1.045-2.612-1.045h-67.918h-10.449h-87.249h-9.927H181.29
	h-10.449H83.592h-9.927H5.224c-1.567,0-2.612,0.522-3.135,1.045c-1.567,1.045-2.09,2.612-2.09,4.18v24.033
	c0,11.494,4.18,21.943,12.016,29.78c7.837,7.314,16.718,11.494,26.122,12.016c0,0,0,0,0.522,0h3.135
	c14.106,0,26.645-6.792,33.959-17.763c2.612,8.359,7.314,16.196,13.584,22.465c8.882,8.359,20.898,13.584,31.869,15.151
	c2.612,0.522,4.702,0.522,6.269,0.522c21.42,0,39.706-12.539,48.588-30.824c2.612,5.747,6.269,10.971,10.449,15.151
	c8.882,8.359,20.898,13.584,31.869,15.151c2.612,0.522,4.702,0.522,6.269,0.522c21.42,0,40.229-13.061,48.588-31.347
	c2.612,5.747,6.269,10.971,10.971,15.673c8.882,8.359,20.898,13.584,31.869,15.151c2.612,0.522,4.702,0.522,6.269,0.522
	c24.033,0,44.408-15.673,51.2-37.616c1.045,1.567,2.612,3.657,4.18,5.224c8.359,7.837,19.331,12.016,29.78,12.016h3.657l0,0
	c21.943-1.567,38.139-19.853,38.139-41.796v-24.033C449.306,128.784,448.261,127.216,446.694,126.694z"/>
<path style="fill:#D4E1F4;" d="M339.069,265.665h-80.98c-8.882,0-15.673,7.314-15.673,15.673l-0.522,125.388H354.22l0.522-125.388
	C354.743,272.457,347.951,265.665,339.069,265.665z"/>
<path style="fill:#00BBD3;" d="M191.739,260.441h-86.204c-5.747,0-10.449,4.702-10.449,10.449v66.873
	c0,5.747,4.702,10.449,10.449,10.449h86.204c5.747,0,10.449-4.702,10.449-10.449V270.89
	C202.188,265.143,197.486,260.441,191.739,260.441z"/>
<g>
</g>
<g>
</g>
<g>
</g>
<g>
</g>
<g>
</g>
<g>
</g>
<g>
</g>
<g>
</g>
<g>
</g>
<g>
</g>
<g>
</g>
<g>
</g>
<g>
</g>
<g>
</g>
<g>
</g>
</svg>
