<svg width="1440" height="800" viewBox="0 0 1440 800" fill="none" xmlns="http://www.w3.org/2000/svg">
<path d="M1440 727C1247.11 777.55 1090 786.23 983 785C711.4 781.88 573 712.71 296 739C195.507 748.593 96.2969 768.704 0 799L0 0H1440V727Z" fill="#0D7BE5"/>
<g opacity="0.55">
<path opacity="0.55" d="M1440 688V267.56C1430.02 267.567 1420.07 268.772 1410.38 271.15C1373.3 280.36 1342.31 307.74 1323.47 340.98C1304.63 374.22 1297.02 412.87 1295.83 451.05C1294.83 483.22 1298.12 515.91 1290.9 547.28C1278.23 602.28 1233.47 646.42 1181.3 668.04C1129.13 689.66 1070.48 691.14 1014.6 682.96C987.75 679.03 960.75 672.96 933.77 675.84C906.79 678.72 879.01 692.84 868.77 717.99C865.88 725.09 864.61 733.29 866.77 740.51C903.07 743.51 941.5 745.51 983.06 746C1090 747.23 1247.11 738.55 1440 688Z" fill="url(#paint0_linear)"/>
</g>
<g opacity="0.62">
<path opacity="0.62" d="M1440 727V306.56C1430.02 306.567 1420.07 307.772 1410.38 310.15C1373.3 319.36 1342.31 346.74 1323.47 379.98C1304.63 413.22 1297.02 451.87 1295.83 490.05C1294.83 522.22 1298.12 554.91 1290.9 586.28C1278.23 641.28 1233.47 685.42 1181.3 707.04C1129.13 728.66 1070.48 730.14 1014.6 721.96C987.75 718.03 960.75 711.96 933.77 714.84C906.79 717.72 879.01 731.84 868.77 756.99C865.88 764.09 864.61 772.29 866.77 779.51C903.07 782.51 941.5 784.51 983.06 785C1090 786.23 1247.11 777.55 1440 727Z" fill="url(#paint1_linear)"/>
</g>
<path d="M517 719.44C514.56 650.02 478.64 578.44 415.42 549.67C391.29 538.67 364.69 534.34 339.74 525.35C314.79 516.36 290.1 501 279.81 476.6C270.72 454.99 274.54 430.05 282.17 407.88C289.8 385.71 301.07 364.81 307.03 342.14C324.16 277.01 290.03 202.14 229.69 172.3C195.92 155.62 156.69 152.45 119.33 156.93C81.97 161.41 45.82 173.11 10.09 185C6.79 186.1 3.39 187.34 0 188.71V799C96.2969 768.704 195.507 748.593 296 739C369.411 731.862 443.305 731.153 516.84 736.88C517.22 731.08 517.22 725.25 517 719.44Z" fill="url(#paint2_linear)"/>
<path opacity="0.11" d="M372 523.5V511C372 511 370.21 479.19 406.11 474.09H506.38L511 474C511 474 546 472.25 546 511.13V635.63C546 635.63 544 678 504 678H467.17C467.17 678 372 683.67 372 566.67V523.5Z" fill="white"/>
<path opacity="0.11" d="M1212 380.07V372.22C1212 372.22 1210.88 352.22 1233.41 349.07H1296.32L1299.23 349.01C1299.23 349.01 1321.23 347.91 1321.23 372.3V450.43C1321.23 450.43 1319.92 477 1294.82 477H1271.71C1271.71 477 1212 480.57 1212 407.16V380.07Z" fill="white"/>
<path opacity="0.11" d="M0 101.29C0.45 101.21 0.92 101.13 1.4 101.07H64.31L67.22 101.01C67.22 101.01 89.22 99.91 89.22 124.3V202.43C89.22 202.43 87.92 229 62.82 229H39.71C39.71 229 17.36 230.35 0 214.57" fill="white"/>
<path opacity="0.23" d="M1294 287.21V282.61C1294 282.61 1293.34 270.91 1306.54 269.04H1343.42H1345.12C1345.12 269.04 1357.99 268.4 1357.99 282.7V328.48C1357.99 328.48 1357.26 344.07 1342.55 344.07H1329C1329 344.07 1294 346.15 1294 303.12V287.21Z" fill="white"/>
<path opacity="0.85" d="M931 0C958.15 25.36 992.7 65.39 1010 122C1029.93 187.21 1011 221.95 1039.25 248.63C1071.43 279 1131.79 267.81 1201 255C1253 245.38 1261.25 235.91 1304 230C1360.14 222.24 1407.89 230 1440 238V0H931Z" fill="#1283E0"/>
<path opacity="0.5" d="M0.5 799.5L144.5 671.5L237.5 694.5L458.5 633.5L675.5 708.5L731.5 763.5" stroke="white" stroke-miterlimit="10"/>
<path opacity="0.5" d="M458.5 633.5L285.5 738.5L237.5 694.5" stroke="white" stroke-miterlimit="10"/>
<path opacity="0.9" d="M144.5 673C145.328 673 146 672.328 146 671.5C146 670.672 145.328 670 144.5 670C143.672 670 143 670.672 143 671.5C143 672.328 143.672 673 144.5 673Z" fill="white"/>
<path opacity="0.9" d="M238 696C239.105 696 240 695.105 240 694C240 692.895 239.105 692 238 692C236.895 692 236 692.895 236 694C236 695.105 236.895 696 238 696Z" fill="white"/>
<path opacity="0.9" d="M458.5 636C459.881 636 461 634.881 461 633.5C461 632.119 459.881 631 458.5 631C457.119 631 456 632.119 456 633.5C456 634.881 457.119 636 458.5 636Z" fill="white"/>
<path opacity="0.9" d="M730.33 763.58C731.711 763.58 732.83 762.461 732.83 761.08C732.83 759.699 731.711 758.58 730.33 758.58C728.949 758.58 727.83 759.699 727.83 761.08C727.83 762.461 728.949 763.58 730.33 763.58Z" fill="white"/>
<defs>
<linearGradient id="paint0_linear" x1="865.65" y1="506.83" x2="1440" y2="506.83" gradientUnits="userSpaceOnUse">
<stop stop-color="#0D7BE5"/>
<stop offset="1" stop-color="#0160C8"/>
</linearGradient>
<linearGradient id="paint1_linear" x1="498022" y1="261512" x2="1440.02" y2="261512" gradientUnits="userSpaceOnUse">
<stop stop-color="#0D7BE5"/>
<stop offset="1" stop-color="#0160C8"/>
</linearGradient>
<linearGradient id="paint2_linear" x1="204.58" y1="765.3" x2="295.2" y2="256.15" gradientUnits="userSpaceOnUse">
<stop offset="0.14" stop-color="#0160C8"/>
<stop offset="0.65" stop-color="#0D7BE5"/>
<stop offset="1" stop-color="#0D85E5"/>
</linearGradient>
</defs>
</svg>
